<?xml version="1.0" encoding="utf-8"?>
<!-- Generator: Adobe Illustrator 16.0.0, SVG Export Plug-In . SVG Version: 6.00 Build 0)  -->
<!DOCTYPE svg PUBLIC "-//W3C//DTD SVG 1.1//EN" "http://www.w3.org/Graphics/SVG/1.1/DTD/svg11.dtd">
<svg version="1.1" xmlns="http://www.w3.org/2000/svg" xmlns:xlink="http://www.w3.org/1999/xlink" x="0px" y="0px" width="185px"
	 height="89px" viewBox="0 0 185 89" enable-background="new 0 0 185 89" xml:space="preserve">
<g id="template_2" display="none">
	<rect display="inline" fill="#F2F2F2" width="185" height="89"/>
	<rect x="86.59" y="12.524" display="inline" fill="#D2D0CF" width="89.211" height="6.409"/>
	<path display="inline" fill="#F4F2F2" d="M118.369,16.499c0,0.5-0.406,0.907-0.907,0.907H90.08c-0.501,0-0.908-0.406-0.908-0.907
		v-1.542c0-0.501,0.407-0.907,0.908-0.907h27.382c0.501,0,0.907,0.406,0.907,0.907V16.499z"/>
	<rect x="86.59" y="45.337" display="inline" fill="#D2D0CF" width="89.211" height="6.409"/>
	<path display="inline" fill="#F4F2F2" d="M118.369,49.313c0,0.501-0.406,0.906-0.907,0.906H90.08c-0.501,0-0.908-0.405-0.908-0.906
		v-1.542c0-0.5,0.407-0.906,0.908-0.906h27.382c0.501,0,0.907,0.406,0.907,0.906V49.313z"/>
	<rect x="86.59" y="45.337" display="inline" fill="#D2D0CF" width="89.211" height="6.409"/>
	<path display="inline" fill="#FFFFFF" d="M171.655,50.148c-0.018,0.018-0.039,0.026-0.063,0.026c-0.024,0-0.046-0.009-0.063-0.026
		c-0.033-0.034-0.033-0.09,0-0.125l1.104-1.104l-1.104-1.104c-0.033-0.035-0.033-0.09,0-0.125c0.035-0.034,0.092-0.034,0.126,0
		l1.166,1.166c0.035,0.035,0.035,0.092,0,0.126L171.655,50.148z"/>
	<path display="inline" fill="#F4F2F2" d="M118.369,49.313c0,0.501-0.406,0.906-0.907,0.906H90.08c-0.501,0-0.908-0.405-0.908-0.906
		v-1.542c0-0.5,0.407-0.906,0.908-0.906h27.382c0.501,0,0.907,0.406,0.907,0.906V49.313z"/>
	<rect x="86.59" y="54.337" display="inline" fill="#D2D0CF" width="89.211" height="6.409"/>
	<path display="inline" fill="#FFFFFF" d="M171.655,59.148c-0.018,0.018-0.039,0.026-0.063,0.026c-0.024,0-0.046-0.009-0.063-0.026
		c-0.033-0.034-0.033-0.09,0-0.125l1.104-1.104l-1.104-1.104c-0.033-0.035-0.033-0.09,0-0.125c0.035-0.034,0.092-0.034,0.126,0
		l1.166,1.166c0.035,0.035,0.035,0.092,0,0.126L171.655,59.148z"/>
	<path display="inline" fill="#F4F2F2" d="M118.369,58.313c0,0.501-0.406,0.906-0.907,0.906H90.08c-0.501,0-0.908-0.405-0.908-0.906
		v-1.542c0-0.5,0.407-0.906,0.908-0.906h27.382c0.501,0,0.907,0.406,0.907,0.906V58.313z"/>
	<rect x="86.59" y="63.337" display="inline" fill="#D2D0CF" width="89.211" height="6.409"/>
	<path display="inline" fill="#FFFFFF" d="M171.655,68.148c-0.018,0.018-0.039,0.026-0.063,0.026c-0.024,0-0.046-0.009-0.063-0.026
		c-0.033-0.034-0.033-0.09,0-0.125l1.104-1.104l-1.104-1.104c-0.033-0.035-0.033-0.09,0-0.125c0.035-0.034,0.092-0.034,0.126,0
		l1.166,1.166c0.035,0.035,0.035,0.092,0,0.126L171.655,68.148z"/>
	<path display="inline" fill="#F4F2F2" d="M118.369,67.313c0,0.501-0.406,0.906-0.907,0.906H90.08c-0.501,0-0.908-0.405-0.908-0.906
		v-1.542c0-0.5,0.407-0.906,0.908-0.906h27.382c0.501,0,0.907,0.406,0.907,0.906V67.313z"/>
	<rect x="86.59" y="72.337" display="inline" fill="#D2D0CF" width="89.211" height="6.409"/>
	<path display="inline" fill="#FFFFFF" d="M171.655,77.148c-0.018,0.018-0.039,0.026-0.063,0.026c-0.024,0-0.046-0.009-0.063-0.026
		c-0.033-0.034-0.033-0.09,0-0.125l1.104-1.104l-1.104-1.104c-0.033-0.035-0.033-0.091,0-0.125c0.035-0.035,0.092-0.035,0.126,0
		l1.166,1.165c0.035,0.035,0.035,0.092,0,0.126L171.655,77.148z"/>
	<path display="inline" fill="#F4F2F2" d="M118.369,76.313c0,0.501-0.406,0.906-0.907,0.906H90.08c-0.501,0-0.908-0.405-0.908-0.906
		v-1.542c0-0.5,0.407-0.906,0.908-0.906h27.382c0.501,0,0.907,0.406,0.907,0.906V76.313z"/>
	<g display="inline">
		<path fill="#FFFFFF" d="M170.946,15.073c-0.017-0.018-0.025-0.039-0.025-0.063c0-0.024,0.009-0.046,0.025-0.063
			c0.035-0.034,0.091-0.034,0.126,0l1.104,1.104l1.104-1.104c0.034-0.034,0.09-0.034,0.124,0c0.035,0.035,0.035,0.091,0,0.126
			l-1.165,1.166c-0.035,0.035-0.092,0.035-0.127,0L170.946,15.073z"/>
	</g>
	<g id="Layer_3_copy" display="inline">
		<path opacity="0.2" fill="#9F9E9E" d="M170.921,24.183c0,0.301-0.244,0.544-0.543,0.544H89.624c-0.3,0-0.543-0.243-0.543-0.544
			l0,0c0-0.3,0.244-0.543,0.543-0.543h80.754C170.677,23.639,170.921,23.882,170.921,24.183L170.921,24.183z"/>
		<path opacity="0.2" fill="#9F9E9E" d="M162.771,27.821c0,0.307-0.249,0.555-0.556,0.555H89.563c-0.307,0-0.556-0.249-0.556-0.555
			l0,0c0-0.307,0.249-0.557,0.556-0.557h72.652C162.521,27.265,162.771,27.514,162.771,27.821L162.771,27.821z"/>
		<path opacity="0.2" fill="#9F9E9E" d="M156.19,31.692c0,0.281-0.227,0.507-0.507,0.507H89.636c-0.28,0-0.507-0.227-0.507-0.507
			l0,0c0-0.279,0.228-0.506,0.507-0.506h66.047C155.964,31.186,156.19,31.413,156.19,31.692L156.19,31.692z"/>
		<path opacity="0.2" fill="#9F9E9E" d="M161.916,35.556c0,0.313-0.253,0.565-0.565,0.565h-71.76c-0.313,0-0.565-0.253-0.565-0.565
			l0,0c0-0.312,0.252-0.565,0.565-0.565h71.76C161.663,34.991,161.916,35.244,161.916,35.556L161.916,35.556z"/>
		<path opacity="0.2" fill="#9F9E9E" d="M136.194,39.681c0,0.336-0.271,0.608-0.607,0.608H89.976c-0.336,0-0.608-0.272-0.608-0.608
			l0,0c0-0.335,0.272-0.607,0.608-0.607h45.611C135.923,39.074,136.194,39.346,136.194,39.681L136.194,39.681z"/>
	</g>
	<rect x="10.167" y="10.833" display="inline" fill="#E5E5E5" width="68.167" height="68.167"/>
	<g display="inline" opacity="0.2">
		<path fill="#010101" d="M56.357,34.972H32.143c-0.238,0-0.432,0.193-0.432,0.433v19.024c0,0.24,0.194,0.433,0.432,0.433h24.214
			c0.239,0,0.433-0.193,0.433-0.433V35.405C56.79,35.165,56.596,34.972,56.357,34.972z M55.924,53.997H32.576V35.837h23.349V53.997z
			"/>
		<path fill="#010101" d="M38.629,44.544c1.328,0,2.409-1.081,2.409-2.407c0-1.329-1.081-2.409-2.409-2.409
			c-1.327,0-2.408,1.08-2.408,2.408S37.302,44.544,38.629,44.544z M38.629,40.593c0.851,0,1.543,0.692,1.543,1.543
			s-0.692,1.543-1.543,1.543c-0.851,0-1.543-0.692-1.543-1.542C37.085,41.287,37.778,40.593,38.629,40.593z"/>
		<path fill="#010101" d="M34.738,52.268c0.101,0,0.203-0.036,0.285-0.107l7.053-6.21l4.455,4.454c0.169,0.169,0.442,0.169,0.611,0
			c0.169-0.169,0.169-0.442,0-0.611l-2.078-2.078l3.97-4.348l4.869,4.464c0.176,0.161,0.45,0.149,0.611-0.027
			c0.161-0.176,0.149-0.45-0.027-0.611l-5.188-4.756c-0.084-0.077-0.198-0.115-0.311-0.113c-0.115,0.005-0.223,0.056-0.301,0.141
			l-4.235,4.638l-2.05-2.051c-0.162-0.162-0.421-0.17-0.592-0.019l-7.357,6.478c-0.18,0.158-0.197,0.432-0.039,0.611
			C34.499,52.219,34.618,52.268,34.738,52.268z"/>
	</g>
</g>
<g id="template_1">
	<rect fill="#E8E7E6" width="185" height="89"/>
	<rect x="5.25" y="6.512" fill="#D2D0CF" width="174" height="12.5"/>
	<path fill="#F4F2F2" d="M67.232,14.265c0,0.977-0.793,1.769-1.77,1.769H12.055c-0.977,0-1.77-0.792-1.77-1.769v-3.006
		c0-0.977,0.793-1.769,1.77-1.769h53.408c0.977,0,1.77,0.792,1.77,1.769V14.265z"/>
	<rect x="5.25" y="70.512" fill="#D2D0CF" width="174" height="12.5"/>
	<path fill="#F4F2F2" d="M67.232,78.266c0,0.977-0.793,1.768-1.77,1.768H12.055c-0.977,0-1.77-0.791-1.77-1.768v-3.007
		c0-0.977,0.793-1.769,1.77-1.769h53.408c0.977,0,1.77,0.792,1.77,1.769V78.266z"/>
	<g>
		<path fill="#FFFFFF" d="M169.781,11.484c-0.034-0.034-0.051-0.076-0.051-0.122c0-0.047,0.017-0.089,0.051-0.123
			c0.067-0.066,0.177-0.066,0.244,0l2.153,2.153l2.152-2.153c0.067-0.066,0.177-0.066,0.244,0c0.068,0.067,0.068,0.178,0,0.245
			l-2.274,2.274c-0.067,0.068-0.178,0.068-0.245,0L169.781,11.484z"/>
		<path fill="#FFFFFF" d="M171.163,79.896c-0.034,0.034-0.076,0.051-0.122,0.051c-0.047,0-0.089-0.017-0.123-0.051
			c-0.066-0.066-0.066-0.177,0-0.244l2.153-2.152l-2.153-2.153c-0.066-0.067-0.066-0.177,0-0.244c0.067-0.067,0.178-0.067,0.245,0
			l2.274,2.274c0.068,0.068,0.068,0.178,0,0.245L171.163,79.896z"/>
	</g>
	<g id="Layer_3">
		<path opacity="0.2" fill="#9F9E9E" d="M169.73,29.252c0,0.586-0.475,1.061-1.061,1.061H11.167c-0.585,0-1.06-0.475-1.06-1.061l0,0
			c0-0.585,0.475-1.06,1.06-1.06H168.67C169.256,28.192,169.73,28.667,169.73,29.252L169.73,29.252z"/>
		<path opacity="0.2" fill="#9F9E9E" d="M153.834,36.348c0,0.598-0.485,1.083-1.084,1.083H11.048c-0.599,0-1.084-0.485-1.084-1.083
			l0,0c0-0.599,0.485-1.084,1.084-1.084H152.75C153.349,35.264,153.834,35.749,153.834,36.348L153.834,36.348z"/>
		<path opacity="0.2" fill="#9F9E9E" d="M141,43.9c0,0.546-0.442,0.989-0.988,0.989H11.191c-0.546,0-0.989-0.443-0.989-0.989l0,0
			c0-0.546,0.443-0.989,0.989-0.989h128.821C140.558,42.911,141,43.354,141,43.9L141,43.9z"/>
		<path opacity="0.2" fill="#9F9E9E" d="M152.167,51.435c0,0.609-0.493,1.102-1.102,1.102H11.102c-0.608,0-1.102-0.493-1.102-1.102
			l0,0c0-0.608,0.493-1.102,1.102-1.102h139.964C151.674,50.333,152.167,50.826,152.167,51.435L152.167,51.435z"/>
		<path opacity="0.2" fill="#9F9E9E" d="M102,59.481c0,0.654-0.53,1.185-1.186,1.185H11.852c-0.654,0-1.185-0.531-1.185-1.185l0,0
			c0-0.654,0.531-1.185,1.185-1.185h88.962C101.47,58.296,102,58.827,102,59.481L102,59.481z"/>
	</g>
</g>
</svg>
