<svg id="template_4" data-name="template 4" xmlns="http://www.w3.org/2000/svg" viewBox="0 0 185 89"><defs><style>.cls-1{fill:#e8e8e8;}.cls-2{fill:#9f9e9e;}.cls-2,.cls-4{opacity:0.2;}.cls-3{opacity:0.25;}.cls-5{fill:#d3d3d3;}.cls-6{fill:#010101;}</style></defs><title>template-4</title><rect class="cls-1" width="185" height="89"/><path class="cls-2" d="M145.88,31.21A2,2,0,0,1,143.75,33H29.41a2,2,0,0,1-2.13-1.76h0a2,2,0,0,1,2.13-1.76H143.75a2,2,0,0,1,2.13,1.76Z"/><path class="cls-2" d="M167.29,39a2,2,0,0,1-2.18,1.8H29.45A2,2,0,0,1,27.28,39h0a2,2,0,0,1,2.18-1.8H165.11a2,2,0,0,1,2.18,1.8Z"/><path class="cls-2" d="M123.9,46.54a1.84,1.84,0,0,1-2,1.64H29.26a1.84,1.84,0,0,1-2-1.64h0a1.84,1.84,0,0,1,2-1.64h92.65a1.84,1.84,0,0,1,2,1.64Z"/><path class="cls-2" d="M146,53.17a1.93,1.93,0,0,1-2.09,1.72H29.26a1.93,1.93,0,0,1-2.08-1.72h0a1.93,1.93,0,0,1,2.08-1.72H143.89A1.93,1.93,0,0,1,146,53.17Z"/><g class="cls-3"><path class="cls-4" d="M26.31,22.76H23a1.43,1.43,0,0,1-1.43-1.43v-.48A3.82,3.82,0,0,1,25.35,17h1a1,1,0,0,0,1-1V14.17a1,1,0,0,0-1-1h-1a7.43,7.43,0,0,0-3,.6,7.56,7.56,0,0,0-4.07,4.07,7.43,7.43,0,0,0-.6,3v10.5a2.85,2.85,0,0,0,2.86,2.86h5.73a2.85,2.85,0,0,0,2.86-2.86V25.63a2.85,2.85,0,0,0-2.86-2.86Zm0,0"/><path class="cls-4" d="M41.7,23.6a2.76,2.76,0,0,0-2-.83H36.33a1.43,1.43,0,0,1-1.43-1.43v-.48A3.82,3.82,0,0,1,38.72,17h1a1,1,0,0,0,1-1V14.17a1,1,0,0,0-1-1h-1a7.43,7.43,0,0,0-3,.6,7.57,7.57,0,0,0-4.07,4.07,7.43,7.43,0,0,0-.6,3v10.5a2.85,2.85,0,0,0,2.86,2.86h5.73a2.85,2.85,0,0,0,2.86-2.86V25.63a2.76,2.76,0,0,0-.84-2Zm0,0"/></g><rect class="cls-5" x="26.96" y="65.75" width="10.03" height="10.03"/><g class="cls-4"><path class="cls-6" d="M33.75,69.31H30.19a.06.06,0,0,0-.06.06v2.8a.06.06,0,0,0,.06.06h3.56a.06.06,0,0,0,.06-.06v-2.8A.06.06,0,0,0,33.75,69.31Zm-.06,2.8H30.25V69.43h3.44Z"/><path class="cls-6" d="M31.14,70.71a.35.35,0,1,0-.35-.35A.35.35,0,0,0,31.14,70.71Zm0-.58a.23.23,0,1,1-.23.23A.23.23,0,0,1,31.14,70.13Z"/><path class="cls-6" d="M30.57,71.85l0,0,1-.91.66.66a.06.06,0,1,0,.09-.09l-.31-.31.58-.64.72.66a.06.06,0,1,0,.09-.09l-.76-.7,0,0,0,0-.62.68-.3-.3a.06.06,0,0,0-.09,0l-1.08,1a.06.06,0,0,0,0,.09Z"/></g><path class="cls-2" d="M76.48,69.1a.73.73,0,0,1-.73.73H42a.73.73,0,0,1-.73-.73h0a.73.73,0,0,1,.73-.73H75.76a.73.73,0,0,1,.73.73Z"/><path class="cls-2" d="M84.54,74.67a.76.76,0,0,1-.76.76H42a.76.76,0,0,1-.76-.76h0a.76.76,0,0,1,.76-.76H83.78a.76.76,0,0,1,.76.76Z"/></svg>