<svg id="template_2" data-name="template 2" xmlns="http://www.w3.org/2000/svg" viewBox="0 0 185 89"><defs><style>.cls-1{fill:#e8e8e8;}.cls-2{fill:#9f9e9e;}.cls-2,.cls-4{opacity:0.2;}.cls-3{fill:#d3d3d3;}.cls-5{fill:#010101;}</style></defs><title>template-2</title><rect class="cls-1" width="185" height="89"/><path class="cls-2" d="M141.14,20.86A2,2,0,0,1,139,22.62H24.67a2,2,0,0,1-2.13-1.76h0a2,2,0,0,1,2.13-1.76H139a2,2,0,0,1,2.13,1.76Z"/><path class="cls-2" d="M162.55,28.65a2,2,0,0,1-2.18,1.8H24.72a2,2,0,0,1-2.18-1.8h0a2,2,0,0,1,2.18-1.8H160.38a2,2,0,0,1,2.18,1.8Z"/><path class="cls-2" d="M119.17,36.19a1.84,1.84,0,0,1-2,1.64H24.53a1.84,1.84,0,0,1-2-1.64h0a1.84,1.84,0,0,1,2-1.64h92.65a1.84,1.84,0,0,1,2,1.64Z"/><path class="cls-2" d="M141.24,42.82a1.93,1.93,0,0,1-2.09,1.72H24.53a1.93,1.93,0,0,1-2.08-1.72h0a1.93,1.93,0,0,1,2.08-1.72H139.15a1.93,1.93,0,0,1,2.09,1.72Z"/><rect class="cls-3" x="23.42" y="57.65" width="12.25" height="12.25"/><g class="cls-4"><path class="cls-5" d="M31.73,62H27.37a.08.08,0,0,0-.08.08v3.42a.08.08,0,0,0,.08.08h4.35a.08.08,0,0,0,.08-.08V62.07A.08.08,0,0,0,31.73,62Zm-.08,3.42h-4.2V62.15h4.2Z"/><path class="cls-5" d="M28.54,63.71a.43.43,0,1,0-.43-.43A.43.43,0,0,0,28.54,63.71Zm0-.71a.28.28,0,1,1-.28.28A.28.28,0,0,1,28.54,63Z"/><path class="cls-5" d="M27.84,65.1l.05,0L29.16,64l.8.8a.08.08,0,1,0,.11-.11l-.37-.37.71-.78.88.8a.08.08,0,1,0,.11-.11l-.93-.85-.06,0-.05,0-.76.83-.37-.37a.08.08,0,0,0-.11,0L27.79,65a.08.08,0,0,0,0,.11A.08.08,0,0,0,27.84,65.1Z"/></g><path class="cls-2" d="M74.75,61.75a.73.73,0,0,1-.73.73H40.22a.73.73,0,0,1-.73-.73h0a.73.73,0,0,1,.73-.73H74a.73.73,0,0,1,.73.73Z"/><path class="cls-2" d="M82.8,67.32a.76.76,0,0,1-.76.76H40.22a.76.76,0,0,1-.76-.76h0a.76.76,0,0,1,.76-.76H82a.76.76,0,0,1,.76.76Z"/></svg>