<?xml version="1.0" encoding="utf-8"?>
<!-- Generator: Adobe Illustrator 16.0.0, SVG Export Plug-In . SVG Version: 6.00 Build 0)  -->
<!DOCTYPE svg PUBLIC "-//W3C//DTD SVG 1.1//EN" "http://www.w3.org/Graphics/SVG/1.1/DTD/svg11.dtd">
<svg version="1.1" xmlns="http://www.w3.org/2000/svg" xmlns:xlink="http://www.w3.org/1999/xlink" x="0px" y="0px" width="185px"
	 height="89px" viewBox="0 0 185 89" enable-background="new 0 0 185 89" xml:space="preserve">
<g id="Layer_7">
	<rect fill="#E8E8E8" width="185" height="89"/>
</g>
<g id="template_3">
	<g>
		<g id="image_thumb_9_">
			<rect x="9.76" y="22.383" fill="#D3D3D3" width="48.979" height="48.978"/>
			<g opacity="0.2">
				<path fill="#010101" d="M42.949,39.727H25.551c-0.17,0-0.31,0.139-0.31,0.312v13.669c0,0.173,0.14,0.312,0.31,0.312h17.398
					c0.171,0,0.311-0.139,0.311-0.312V40.038C43.26,39.865,43.121,39.727,42.949,39.727z M42.638,53.396H25.862V40.349h16.776
					V53.396z"/>
				<path fill="#010101" d="M30.211,46.605c0.955,0,1.73-0.776,1.73-1.729c0-0.955-0.776-1.731-1.73-1.731
					c-0.953,0-1.73,0.776-1.73,1.73S29.258,46.605,30.211,46.605z M30.211,43.766c0.612,0,1.109,0.498,1.109,1.109
					c0,0.611-0.497,1.109-1.109,1.109c-0.611,0-1.109-0.498-1.109-1.108C29.102,44.264,29.6,43.766,30.211,43.766z"/>
				<path fill="#010101" d="M27.416,52.155c0.072,0,0.145-0.026,0.204-0.078l5.068-4.462l3.2,3.201c0.122,0.121,0.317,0.121,0.439,0
					c0.122-0.122,0.122-0.318,0-0.439l-1.493-1.493l2.852-3.125l3.499,3.207c0.127,0.116,0.323,0.108,0.44-0.02
					c0.115-0.125,0.106-0.323-0.021-0.438l-3.728-3.418c-0.06-0.056-0.142-0.083-0.224-0.081c-0.083,0.003-0.161,0.04-0.216,0.101
					l-3.043,3.333l-1.473-1.473c-0.116-0.117-0.302-0.123-0.425-0.015l-5.288,4.655c-0.128,0.114-0.141,0.311-0.027,0.44
					C27.243,52.119,27.329,52.155,27.416,52.155z"/>
			</g>
		</g>
	</g>
	<g>
		<g id="image_thumb_8_">
			<rect x="68.76" y="22.383" fill="#D3D3D3" width="48.98" height="48.978"/>
			<g opacity="0.2">
				<path fill="#010101" d="M101.949,39.727H84.551c-0.17,0-0.31,0.139-0.31,0.312v13.669c0,0.173,0.14,0.312,0.31,0.312h17.398
					c0.172,0,0.311-0.139,0.311-0.312V40.038C102.26,39.865,102.121,39.727,101.949,39.727z M101.639,53.396H84.862V40.349h16.777
					V53.396z"/>
				<path fill="#010101" d="M89.211,46.605c0.955,0,1.73-0.776,1.73-1.729c0-0.955-0.776-1.731-1.73-1.731
					c-0.953,0-1.73,0.776-1.73,1.73S88.258,46.605,89.211,46.605z M89.211,43.766c0.612,0,1.109,0.498,1.109,1.109
					c0,0.611-0.497,1.109-1.109,1.109c-0.611,0-1.109-0.498-1.109-1.108C88.102,44.264,88.6,43.766,89.211,43.766z"/>
				<path fill="#010101" d="M86.416,52.155c0.072,0,0.145-0.026,0.204-0.078l5.068-4.462l3.2,3.201c0.122,0.121,0.317,0.121,0.439,0
					c0.121-0.122,0.121-0.318,0-0.439l-1.493-1.493l2.853-3.125l3.498,3.207c0.127,0.116,0.323,0.108,0.439-0.02
					c0.115-0.125,0.107-0.323-0.02-0.438l-3.729-3.418c-0.06-0.056-0.141-0.083-0.223-0.081c-0.083,0.003-0.161,0.04-0.217,0.101
					l-3.043,3.333l-1.473-1.473c-0.116-0.117-0.303-0.123-0.425-0.015l-5.288,4.655c-0.128,0.114-0.141,0.311-0.027,0.44
					C86.243,52.119,86.329,52.155,86.416,52.155z"/>
			</g>
		</g>
	</g>
	<g>
		<g id="image_thumb_7_">
			<rect x="127.76" y="22.383" fill="#D3D3D3" width="48.98" height="48.978"/>
			<g opacity="0.2">
				<path fill="#010101" d="M160.949,39.727h-17.398c-0.17,0-0.311,0.139-0.311,0.312v13.669c0,0.173,0.141,0.312,0.311,0.312
					h17.398c0.172,0,0.311-0.139,0.311-0.312V40.038C161.26,39.865,161.121,39.727,160.949,39.727z M160.639,53.396h-16.777V40.349
					h16.777V53.396z"/>
				<path fill="#010101" d="M148.211,46.605c0.955,0,1.73-0.776,1.73-1.729c0-0.955-0.775-1.731-1.73-1.731
					c-0.953,0-1.73,0.776-1.73,1.73S147.258,46.605,148.211,46.605z M148.211,43.766c0.611,0,1.109,0.498,1.109,1.109
					c0,0.611-0.498,1.109-1.109,1.109s-1.109-0.498-1.109-1.108C147.102,44.264,147.6,43.766,148.211,43.766z"/>
				<path fill="#010101" d="M145.416,52.155c0.072,0,0.145-0.026,0.204-0.078l5.068-4.462l3.2,3.201
					c0.122,0.121,0.317,0.121,0.439,0c0.121-0.122,0.121-0.318,0-0.439l-1.493-1.493l2.853-3.125l3.498,3.207
					c0.127,0.116,0.323,0.108,0.439-0.02c0.115-0.125,0.107-0.323-0.02-0.438l-3.729-3.418c-0.06-0.056-0.141-0.083-0.223-0.081
					c-0.083,0.003-0.161,0.04-0.217,0.101l-3.043,3.333l-1.473-1.473c-0.116-0.117-0.303-0.123-0.425-0.015l-5.288,4.655
					c-0.128,0.114-0.141,0.311-0.026,0.44C145.243,52.119,145.328,52.155,145.416,52.155z"/>
			</g>
		</g>
		<rect x="127.76" y="56.14" opacity="0.5" fill="#010101" width="48.98" height="15.222"/>
		<g>
			<path fill="#FFFFFF" d="M171.956,66.943l-1.514-1.517c0.405-0.468,0.653-1.08,0.653-1.747c0-1.468-1.195-2.662-2.661-2.662
				c-1.469,0-2.662,1.196-2.662,2.662c0,1.468,1.196,2.663,2.662,2.663c0.665,0,1.274-0.249,1.743-0.657l1.519,1.52
				c0.033,0.035,0.083,0.056,0.128,0.056c0.051,0,0.098-0.018,0.132-0.056C172.029,67.133,172.029,67.013,171.956,66.943z
				 M166.144,63.68c0-1.261,1.026-2.287,2.291-2.287c1.259,0,2.284,1.028,2.284,2.287c0,1.261-1.025,2.29-2.284,2.29
				C167.17,65.969,166.144,64.943,166.144,63.68z"/>
		</g>
		<path fill="#FFFFFF" d="M156.965,61.873c0,0.803-0.467,1.453-1.044,1.453h-23.467c-0.576,0-1.044-0.65-1.044-1.453l0,0
			c0-0.802,0.468-1.452,1.044-1.452h23.467C156.498,60.421,156.965,61.071,156.965,61.873L156.965,61.873z"/>
		<path fill="#FFFFFF" d="M153.79,66.522c0,0.703-0.409,1.272-0.914,1.272h-20.552c-0.504,0-0.914-0.569-0.914-1.272l0,0
			c0-0.702,0.41-1.272,0.914-1.272h20.552C153.381,65.25,153.79,65.82,153.79,66.522L153.79,66.522z"/>
	</g>
	<path fill="#010101" d="M140.671,73.917h-0.022c-0.42,0-0.772,0.356-0.772,0.816v0.636c0,0.127-0.104,0.229-0.23,0.229
		c-0.126,0-0.229-0.103-0.229-0.229v-1.175c0-0.459-0.334-0.832-0.754-0.832c-0.422,0-0.756,0.373-0.756,0.832v1.244
		c0,0.128-0.103,0.23-0.229,0.23c-0.128,0-0.23-0.103-0.23-0.23v-1.586c0-0.459-0.346-0.821-0.767-0.821h-0.022
		c-0.409,0-0.752,0.344-0.752,0.786v1.787c0,0.127-0.104,0.229-0.229,0.229c-0.127,0-0.229-0.103-0.229-0.229v-1.735
		c0-0.005-0.001-0.011-0.001-0.017c0-0.015,0.001-0.028,0.001-0.042v-4.056c0-0.459-0.347-0.832-0.767-0.832
		s-0.766,0.373-0.766,0.832l-0.005,6.726c0,0.097-0.062,0.184-0.152,0.216c-0.091,0.033-0.193,0.006-0.255-0.07l-0.803-0.978
		c-0.212-0.265-0.524-0.431-0.863-0.456c-0.331-0.022-0.657,0.096-0.898,0.323c-0.003,0.002-0.006,0.005-0.009,0.008l-0.158,0.131
		l2.784,5.352c0.44,0.844,1.271,1.373,2.17,1.373h3.218c1.37,0,2.485-1.205,2.487-2.682c0.001-0.781,0.001-1.368,0.002-1.84
		c0.001-1.263,0.002-1.727-0.001-3.118C141.432,74.281,141.09,73.917,140.671,73.917z"/>
	<path fill="#010101" d="M132.593,69.834c0.127,0,0.229-0.103,0.229-0.229c-0.002-0.663,0.35-1.277,0.924-1.609
		c0.574-0.332,1.281-0.332,1.855,0c0.573,0.333,0.926,0.946,0.923,1.609c0,0.127,0.104,0.229,0.229,0.229
		c0.127,0,0.229-0.103,0.229-0.229c0.004-0.827-0.437-1.593-1.152-2.008c-0.716-0.415-1.599-0.415-2.314,0
		c-0.716,0.415-1.156,1.181-1.153,2.008C132.363,69.732,132.467,69.834,132.593,69.834z"/>
</g>
<g id="template_2" display="none">
	<g display="inline">
		<g id="image_thumb_6_">
			<rect x="9.76" y="22.383" fill="#D3D3D3" width="48.979" height="48.978"/>
			<g opacity="0.2">
				<path fill="#010101" d="M42.949,39.727H25.551c-0.17,0-0.31,0.139-0.31,0.312v13.669c0,0.173,0.14,0.312,0.31,0.312h17.398
					c0.171,0,0.311-0.139,0.311-0.312V40.038C43.26,39.865,43.121,39.727,42.949,39.727z M42.638,53.396H25.862V40.349h16.776
					V53.396z"/>
				<path fill="#010101" d="M30.211,46.605c0.955,0,1.73-0.776,1.73-1.729c0-0.955-0.776-1.731-1.73-1.731
					c-0.953,0-1.73,0.776-1.73,1.73S29.258,46.605,30.211,46.605z M30.211,43.766c0.612,0,1.109,0.498,1.109,1.109
					c0,0.611-0.497,1.109-1.109,1.109c-0.611,0-1.109-0.498-1.109-1.108C29.102,44.264,29.6,43.766,30.211,43.766z"/>
				<path fill="#010101" d="M27.416,52.155c0.072,0,0.145-0.026,0.204-0.078l5.068-4.462l3.2,3.201c0.122,0.121,0.317,0.121,0.439,0
					c0.122-0.122,0.122-0.318,0-0.439l-1.493-1.493l2.852-3.125l3.499,3.207c0.127,0.116,0.323,0.108,0.44-0.02
					c0.115-0.125,0.106-0.323-0.021-0.438l-3.728-3.418c-0.06-0.056-0.142-0.083-0.224-0.081c-0.083,0.003-0.161,0.04-0.216,0.101
					l-3.043,3.333l-1.473-1.473c-0.116-0.117-0.302-0.123-0.425-0.015l-5.288,4.655c-0.128,0.114-0.141,0.311-0.027,0.44
					C27.243,52.119,27.329,52.155,27.416,52.155z"/>
			</g>
		</g>
	</g>
	<g display="inline">
		<g id="image_thumb_5_">
			<rect x="68.76" y="22.383" fill="#D3D3D3" width="48.98" height="48.978"/>
			<g opacity="0.2">
				<path fill="#010101" d="M101.949,39.727H84.551c-0.17,0-0.31,0.139-0.31,0.312v13.669c0,0.173,0.14,0.312,0.31,0.312h17.398
					c0.172,0,0.311-0.139,0.311-0.312V40.038C102.26,39.865,102.121,39.727,101.949,39.727z M101.639,53.396H84.862V40.349h16.777
					V53.396z"/>
				<path fill="#010101" d="M89.211,46.605c0.955,0,1.73-0.776,1.73-1.729c0-0.955-0.776-1.731-1.73-1.731
					c-0.953,0-1.73,0.776-1.73,1.73S88.258,46.605,89.211,46.605z M89.211,43.766c0.612,0,1.109,0.498,1.109,1.109
					c0,0.611-0.497,1.109-1.109,1.109c-0.611,0-1.109-0.498-1.109-1.108C88.102,44.264,88.6,43.766,89.211,43.766z"/>
				<path fill="#010101" d="M86.416,52.155c0.072,0,0.145-0.026,0.204-0.078l5.068-4.462l3.2,3.201c0.122,0.121,0.317,0.121,0.439,0
					c0.121-0.122,0.121-0.318,0-0.439l-1.493-1.493l2.853-3.125l3.498,3.207c0.127,0.116,0.323,0.108,0.439-0.02
					c0.115-0.125,0.107-0.323-0.02-0.438l-3.729-3.418c-0.06-0.056-0.141-0.083-0.223-0.081c-0.083,0.003-0.161,0.04-0.217,0.101
					l-3.043,3.333l-1.473-1.473c-0.116-0.117-0.303-0.123-0.425-0.015l-5.288,4.655c-0.128,0.114-0.141,0.311-0.027,0.44
					C86.243,52.119,86.329,52.155,86.416,52.155z"/>
			</g>
		</g>
	</g>
	<g display="inline">
		<g id="image_thumb_4_">
			<rect x="127.76" y="22.383" fill="#D3D3D3" width="48.98" height="48.978"/>
			<g opacity="0.2">
				<path fill="#010101" d="M160.949,39.727h-17.398c-0.17,0-0.311,0.139-0.311,0.312v13.669c0,0.173,0.141,0.312,0.311,0.312
					h17.398c0.172,0,0.311-0.139,0.311-0.312V40.038C161.26,39.865,161.121,39.727,160.949,39.727z M160.639,53.396h-16.777V40.349
					h16.777V53.396z"/>
				<path fill="#010101" d="M148.211,46.605c0.955,0,1.73-0.776,1.73-1.729c0-0.955-0.775-1.731-1.73-1.731
					c-0.953,0-1.73,0.776-1.73,1.73S147.258,46.605,148.211,46.605z M148.211,43.766c0.611,0,1.109,0.498,1.109,1.109
					c0,0.611-0.498,1.109-1.109,1.109s-1.109-0.498-1.109-1.108C147.102,44.264,147.6,43.766,148.211,43.766z"/>
				<path fill="#010101" d="M145.416,52.155c0.072,0,0.145-0.026,0.204-0.078l5.068-4.462l3.2,3.201
					c0.122,0.121,0.317,0.121,0.439,0c0.121-0.122,0.121-0.318,0-0.439l-1.493-1.493l2.853-3.125l3.498,3.207
					c0.127,0.116,0.323,0.108,0.439-0.02c0.115-0.125,0.107-0.323-0.02-0.438l-3.729-3.418c-0.06-0.056-0.141-0.083-0.223-0.081
					c-0.083,0.003-0.161,0.04-0.217,0.101l-3.043,3.333l-1.473-1.473c-0.116-0.117-0.303-0.123-0.425-0.015l-5.288,4.655
					c-0.128,0.114-0.141,0.311-0.026,0.44C145.243,52.119,145.328,52.155,145.416,52.155z"/>
			</g>
		</g>
		<rect x="127.49" y="21.888" opacity="0.5" fill="#010101" width="49.25" height="49.473"/>
		<g>
			<path fill="#FFFFFF" d="M155.956,58.943l-1.514-1.517c0.405-0.468,0.653-1.08,0.653-1.747c0-1.468-1.195-2.662-2.661-2.662
				c-1.469,0-2.662,1.196-2.662,2.662c0,1.468,1.196,2.663,2.662,2.663c0.665,0,1.274-0.249,1.743-0.657l1.519,1.52
				c0.033,0.035,0.083,0.056,0.128,0.056c0.051,0,0.098-0.018,0.132-0.056C156.029,59.133,156.029,59.013,155.956,58.943z
				 M150.144,55.68c0-1.261,1.026-2.287,2.291-2.287c1.259,0,2.284,1.028,2.284,2.287c0,1.261-1.025,2.29-2.284,2.29
				C151.17,57.969,150.144,56.943,150.144,55.68z"/>
		</g>
		<path fill="#FFFFFF" d="M169.965,41.873c0,0.802-0.649,1.453-1.452,1.453h-32.649c-0.802,0-1.453-0.651-1.453-1.453l0,0
			c0-0.802,0.651-1.452,1.453-1.452h32.649C169.315,40.421,169.965,41.071,169.965,41.873L169.965,41.873z"/>
		<path fill="#FFFFFF" d="M167.757,46.522c0,0.703-0.569,1.272-1.272,1.272h-28.593c-0.702,0-1.272-0.569-1.272-1.272l0,0
			c0-0.703,0.57-1.272,1.272-1.272h28.593C167.188,45.25,167.757,45.82,167.757,46.522L167.757,46.522z"/>
	</g>
	<path display="inline" fill="#010101" d="M140.671,73.917h-0.022c-0.42,0-0.772,0.356-0.772,0.816v0.636
		c0,0.127-0.104,0.229-0.23,0.229c-0.126,0-0.229-0.103-0.229-0.229v-1.175c0-0.459-0.334-0.832-0.754-0.832
		c-0.422,0-0.756,0.373-0.756,0.832v1.244c0,0.128-0.103,0.23-0.229,0.23c-0.128,0-0.23-0.103-0.23-0.23v-1.586
		c0-0.459-0.346-0.821-0.767-0.821h-0.022c-0.409,0-0.752,0.344-0.752,0.786v1.787c0,0.127-0.104,0.229-0.229,0.229
		c-0.127,0-0.229-0.103-0.229-0.229v-1.735c0-0.005-0.001-0.011-0.001-0.017c0-0.015,0.001-0.028,0.001-0.042v-4.056
		c0-0.459-0.347-0.832-0.767-0.832s-0.766,0.373-0.766,0.832l-0.005,6.726c0,0.097-0.062,0.184-0.152,0.216
		c-0.091,0.033-0.193,0.006-0.255-0.07l-0.803-0.978c-0.212-0.265-0.524-0.431-0.863-0.456c-0.331-0.022-0.657,0.096-0.898,0.323
		c-0.003,0.002-0.006,0.005-0.009,0.008l-0.158,0.131l2.784,5.352c0.44,0.844,1.271,1.373,2.17,1.373h3.218
		c1.37,0,2.485-1.205,2.487-2.682c0.001-0.781,0.001-1.368,0.002-1.84c0.001-1.263,0.002-1.727-0.001-3.118
		C141.432,74.281,141.09,73.917,140.671,73.917z"/>
	<path display="inline" fill="#010101" d="M132.593,69.834c0.127,0,0.229-0.103,0.229-0.229c-0.002-0.663,0.35-1.277,0.924-1.609
		c0.574-0.332,1.281-0.332,1.855,0c0.573,0.333,0.926,0.946,0.923,1.609c0,0.127,0.104,0.229,0.229,0.229
		c0.127,0,0.229-0.103,0.229-0.229c0.004-0.827-0.437-1.593-1.152-2.008c-0.716-0.415-1.599-0.415-2.314,0
		c-0.716,0.415-1.156,1.181-1.153,2.008C132.363,69.732,132.467,69.834,132.593,69.834z"/>
</g>
<g id="template_1" display="none">
	<g display="inline">
		<g opacity="0.1">
			<path fill="#010101" d="M58.821,73.157l-1.628-1.631c0.436-0.504,0.702-1.161,0.702-1.879c0-1.58-1.286-2.863-2.863-2.863
				c-1.579,0-2.862,1.286-2.862,2.863c0,1.579,1.286,2.864,2.862,2.864c0.717,0,1.373-0.268,1.876-0.706l1.631,1.634
				c0.038,0.038,0.09,0.061,0.139,0.061c0.054,0,0.106-0.02,0.142-0.061C58.901,73.361,58.901,73.232,58.821,73.157z M52.57,69.647
				c0-1.356,1.104-2.46,2.463-2.46c1.354,0,2.458,1.106,2.458,2.46c0,1.356-1.104,2.463-2.458,2.463
				C53.674,72.11,52.57,71.006,52.57,69.647z"/>
		</g>
		<path opacity="0.1" fill="#010101" d="M48,67.705c0,0.863-0.7,1.563-1.563,1.563H11.323c-0.863,0-1.563-0.7-1.563-1.563l0,0
			c0-0.863,0.7-1.563,1.563-1.563h35.115C47.3,66.142,48,66.842,48,67.705L48,67.705z"/>
		<path opacity="0.1" fill="#010101" d="M43.625,72.705c0,0.756-0.613,1.368-1.369,1.368H11.504c-0.756,0-1.369-0.612-1.369-1.368
			l0,0c0-0.756,0.613-1.369,1.369-1.369h30.752C43.012,71.336,43.625,71.949,43.625,72.705L43.625,72.705z"/>
		<g id="image_thumb_1_">
			<rect x="9.76" y="13.383" fill="#D3D3D3" width="48.979" height="48.979"/>
			<g opacity="0.2">
				<path fill="#010101" d="M42.949,30.727H25.551c-0.17,0-0.31,0.139-0.31,0.312v13.669c0,0.173,0.14,0.312,0.31,0.312h17.398
					c0.171,0,0.311-0.139,0.311-0.312V31.038C43.26,30.865,43.121,30.727,42.949,30.727z M42.638,44.396H25.862V31.349h16.776
					V44.396z"/>
				<path fill="#010101" d="M30.211,37.605c0.955,0,1.73-0.776,1.73-1.729c0-0.955-0.776-1.731-1.73-1.731
					c-0.953,0-1.73,0.776-1.73,1.73S29.258,37.605,30.211,37.605z M30.211,34.766c0.612,0,1.109,0.498,1.109,1.109
					c0,0.611-0.497,1.109-1.109,1.109c-0.611,0-1.109-0.498-1.109-1.108C29.102,35.264,29.6,34.766,30.211,34.766z"/>
				<path fill="#010101" d="M27.416,43.155c0.072,0,0.145-0.026,0.204-0.078l5.068-4.462l3.2,3.201c0.122,0.121,0.317,0.121,0.439,0
					c0.122-0.122,0.122-0.318,0-0.439l-1.493-1.493l2.852-3.125l3.499,3.207c0.127,0.116,0.323,0.108,0.44-0.02
					c0.115-0.125,0.106-0.323-0.021-0.438l-3.728-3.418c-0.06-0.056-0.142-0.083-0.224-0.081c-0.083,0.003-0.161,0.04-0.216,0.101
					l-3.043,3.333l-1.473-1.473c-0.116-0.117-0.302-0.123-0.425-0.015l-5.288,4.655c-0.128,0.114-0.141,0.311-0.027,0.44
					C27.243,43.119,27.329,43.155,27.416,43.155z"/>
			</g>
		</g>
	</g>
	<g display="inline">
		<g opacity="0.1">
			<path fill="#010101" d="M117.821,73.157l-1.628-1.631c0.436-0.504,0.702-1.161,0.702-1.879c0-1.58-1.286-2.863-2.862-2.863
				c-1.579,0-2.862,1.286-2.862,2.863c0,1.579,1.286,2.864,2.862,2.864c0.717,0,1.372-0.268,1.876-0.706l1.632,1.634
				c0.037,0.038,0.09,0.061,0.139,0.061c0.054,0,0.105-0.02,0.142-0.061C117.9,73.361,117.9,73.232,117.821,73.157z M111.57,69.647
				c0-1.356,1.104-2.46,2.463-2.46c1.354,0,2.458,1.106,2.458,2.46c0,1.356-1.104,2.463-2.458,2.463
				C112.674,72.11,111.57,71.006,111.57,69.647z"/>
		</g>
		<path opacity="0.1" fill="#010101" d="M107,67.705c0,0.863-0.699,1.563-1.563,1.563H70.323c-0.863,0-1.563-0.7-1.563-1.563l0,0
			c0-0.863,0.7-1.563,1.563-1.563h35.115C106.301,66.142,107,66.842,107,67.705L107,67.705z"/>
		<path opacity="0.1" fill="#010101" d="M102.625,72.705c0,0.756-0.613,1.368-1.369,1.368H70.504c-0.756,0-1.369-0.612-1.369-1.368
			l0,0c0-0.756,0.613-1.369,1.369-1.369h30.752C102.012,71.336,102.625,71.949,102.625,72.705L102.625,72.705z"/>
		<g id="image_thumb_2_">
			<rect x="68.76" y="13.383" fill="#D3D3D3" width="48.98" height="48.979"/>
			<g opacity="0.2">
				<path fill="#010101" d="M101.949,30.727H84.551c-0.17,0-0.31,0.139-0.31,0.312v13.669c0,0.173,0.14,0.312,0.31,0.312h17.398
					c0.172,0,0.311-0.139,0.311-0.312V31.038C102.26,30.865,102.121,30.727,101.949,30.727z M101.639,44.396H84.862V31.349h16.777
					V44.396z"/>
				<path fill="#010101" d="M89.211,37.605c0.955,0,1.73-0.776,1.73-1.729c0-0.955-0.776-1.731-1.73-1.731
					c-0.953,0-1.73,0.776-1.73,1.73S88.258,37.605,89.211,37.605z M89.211,34.766c0.612,0,1.109,0.498,1.109,1.109
					c0,0.611-0.497,1.109-1.109,1.109c-0.611,0-1.109-0.498-1.109-1.108C88.102,35.264,88.6,34.766,89.211,34.766z"/>
				<path fill="#010101" d="M86.416,43.155c0.072,0,0.145-0.026,0.204-0.078l5.068-4.462l3.2,3.201c0.122,0.121,0.317,0.121,0.439,0
					c0.121-0.122,0.121-0.318,0-0.439l-1.493-1.493l2.853-3.125l3.498,3.207c0.127,0.116,0.323,0.108,0.439-0.02
					c0.115-0.125,0.107-0.323-0.02-0.438l-3.729-3.418c-0.06-0.056-0.141-0.083-0.223-0.081c-0.083,0.003-0.161,0.04-0.217,0.101
					l-3.043,3.333l-1.473-1.473c-0.116-0.117-0.303-0.123-0.425-0.015l-5.288,4.655c-0.128,0.114-0.141,0.311-0.027,0.44
					C86.243,43.119,86.329,43.155,86.416,43.155z"/>
			</g>
		</g>
	</g>
	<g display="inline">
		<g opacity="0.1">
			<path fill="#010101" d="M176.821,73.157l-1.628-1.631c0.436-0.504,0.702-1.161,0.702-1.879c0-1.58-1.286-2.863-2.862-2.863
				c-1.579,0-2.862,1.286-2.862,2.863c0,1.579,1.286,2.864,2.862,2.864c0.717,0,1.372-0.268,1.876-0.706l1.632,1.634
				c0.037,0.038,0.09,0.061,0.139,0.061c0.054,0,0.105-0.02,0.142-0.061C176.9,73.361,176.9,73.232,176.821,73.157z M170.57,69.647
				c0-1.356,1.104-2.46,2.463-2.46c1.354,0,2.458,1.106,2.458,2.46c0,1.356-1.104,2.463-2.458,2.463
				C171.674,72.11,170.57,71.006,170.57,69.647z"/>
		</g>
		<path opacity="0.1" fill="#010101" d="M166,67.705c0,0.863-0.699,1.563-1.563,1.563h-35.115c-0.862,0-1.563-0.7-1.563-1.563l0,0
			c0-0.863,0.7-1.563,1.563-1.563h35.115C165.301,66.142,166,66.842,166,67.705L166,67.705z"/>
		<path opacity="0.1" fill="#010101" d="M161.625,72.705c0,0.756-0.613,1.368-1.369,1.368h-30.752c-0.756,0-1.369-0.612-1.369-1.368
			l0,0c0-0.756,0.613-1.369,1.369-1.369h30.752C161.012,71.336,161.625,71.949,161.625,72.705L161.625,72.705z"/>
		<g id="image_thumb_3_">
			<rect x="127.76" y="13.383" fill="#D3D3D3" width="48.98" height="48.979"/>
			<g opacity="0.2">
				<path fill="#010101" d="M160.949,30.727h-17.398c-0.17,0-0.311,0.139-0.311,0.312v13.669c0,0.173,0.141,0.312,0.311,0.312
					h17.398c0.172,0,0.311-0.139,0.311-0.312V31.038C161.26,30.865,161.121,30.727,160.949,30.727z M160.639,44.396h-16.777V31.349
					h16.777V44.396z"/>
				<path fill="#010101" d="M148.211,37.605c0.955,0,1.73-0.776,1.73-1.729c0-0.955-0.775-1.731-1.73-1.731
					c-0.953,0-1.73,0.776-1.73,1.73S147.258,37.605,148.211,37.605z M148.211,34.766c0.611,0,1.109,0.498,1.109,1.109
					c0,0.611-0.498,1.109-1.109,1.109s-1.109-0.498-1.109-1.108C147.102,35.264,147.6,34.766,148.211,34.766z"/>
				<path fill="#010101" d="M145.416,43.155c0.072,0,0.145-0.026,0.204-0.078l5.068-4.462l3.2,3.201
					c0.122,0.121,0.317,0.121,0.439,0c0.121-0.122,0.121-0.318,0-0.439l-1.493-1.493l2.853-3.125l3.498,3.207
					c0.127,0.116,0.323,0.108,0.439-0.02c0.115-0.125,0.107-0.323-0.02-0.438l-3.729-3.418c-0.06-0.056-0.141-0.083-0.223-0.081
					c-0.083,0.003-0.161,0.04-0.217,0.101l-3.043,3.333l-1.473-1.473c-0.116-0.117-0.303-0.123-0.425-0.015l-5.288,4.655
					c-0.128,0.114-0.141,0.311-0.026,0.44C145.243,43.119,145.328,43.155,145.416,43.155z"/>
			</g>
		</g>
	</g>
</g>
</svg>
