<?xml version="1.0" encoding="utf-8"?>
<!-- Generator: Adobe Illustrator 16.0.0, SVG Export Plug-In . SVG Version: 6.00 Build 0)  -->
<!DOCTYPE svg PUBLIC "-//W3C//DTD SVG 1.1//EN" "http://www.w3.org/Graphics/SVG/1.1/DTD/svg11.dtd">
<svg version="1.1" xmlns="http://www.w3.org/2000/svg" xmlns:xlink="http://www.w3.org/1999/xlink" x="0px" y="0px" width="185px"
	 height="89px" viewBox="0 0 185 89" enable-background="new 0 0 185 89" xml:space="preserve">
<g id="Layer_7">
	<rect fill="#E8E8E8" width="185" height="89"/>
</g>
<g id="template_2" display="none">
	<g display="inline">
		<g opacity="0.1">
			<path fill="#010101" d="M58.821,73.157l-1.628-1.631c0.436-0.504,0.702-1.161,0.702-1.879c0-1.58-1.286-2.863-2.863-2.863
				c-1.579,0-2.862,1.286-2.862,2.863c0,1.579,1.286,2.864,2.862,2.864c0.717,0,1.373-0.268,1.876-0.706l1.631,1.634
				c0.038,0.038,0.09,0.061,0.139,0.061c0.054,0,0.106-0.02,0.142-0.061C58.901,73.361,58.901,73.232,58.821,73.157z M52.57,69.647
				c0-1.356,1.104-2.46,2.463-2.46c1.354,0,2.458,1.106,2.458,2.46c0,1.356-1.104,2.463-2.458,2.463
				C53.674,72.11,52.57,71.006,52.57,69.647z"/>
		</g>
		<path opacity="0.1" fill="#010101" d="M48,67.705c0,0.863-0.7,1.563-1.563,1.563H11.323c-0.863,0-1.563-0.7-1.563-1.563l0,0
			c0-0.863,0.7-1.563,1.563-1.563h35.115C47.3,66.142,48,66.842,48,67.705L48,67.705z"/>
		<path opacity="0.1" fill="#010101" d="M43.625,72.705c0,0.756-0.613,1.368-1.369,1.368H11.504c-0.756,0-1.369-0.612-1.369-1.368
			l0,0c0-0.756,0.613-1.369,1.369-1.369h30.752C43.012,71.336,43.625,71.949,43.625,72.705L43.625,72.705z"/>
		<g id="image_thumb_6_">
			<rect x="9.76" y="13.383" fill="#D3D3D3" width="48.979" height="48.979"/>
			<g opacity="0.2">
				<path fill="#010101" d="M42.949,30.727H25.551c-0.17,0-0.31,0.139-0.31,0.312v13.669c0,0.173,0.14,0.312,0.31,0.312h17.398
					c0.171,0,0.311-0.139,0.311-0.312V31.038C43.26,30.865,43.121,30.727,42.949,30.727z M42.638,44.396H25.862V31.349h16.776
					V44.396z"/>
				<path fill="#010101" d="M30.211,37.605c0.955,0,1.73-0.776,1.73-1.729c0-0.955-0.776-1.731-1.73-1.731
					c-0.953,0-1.73,0.776-1.73,1.73S29.258,37.605,30.211,37.605z M30.211,34.766c0.612,0,1.109,0.498,1.109,1.109
					c0,0.611-0.497,1.109-1.109,1.109c-0.611,0-1.109-0.498-1.109-1.108C29.102,35.264,29.6,34.766,30.211,34.766z"/>
				<path fill="#010101" d="M27.416,43.155c0.072,0,0.145-0.026,0.204-0.078l5.068-4.462l3.2,3.201c0.122,0.121,0.317,0.121,0.439,0
					c0.122-0.122,0.122-0.318,0-0.439l-1.493-1.493l2.852-3.125l3.499,3.207c0.127,0.116,0.323,0.108,0.44-0.02
					c0.115-0.125,0.106-0.323-0.021-0.438l-3.728-3.418c-0.06-0.056-0.142-0.083-0.224-0.081c-0.083,0.003-0.161,0.04-0.216,0.101
					l-3.043,3.333l-1.473-1.473c-0.116-0.117-0.302-0.123-0.425-0.015l-5.288,4.655c-0.128,0.114-0.141,0.311-0.027,0.44
					C27.243,43.119,27.329,43.155,27.416,43.155z"/>
			</g>
		</g>
	</g>
	<g display="inline">
		<g opacity="0.1">
			<path fill="#010101" d="M117.821,73.157l-1.628-1.631c0.436-0.504,0.702-1.161,0.702-1.879c0-1.58-1.286-2.863-2.862-2.863
				c-1.579,0-2.862,1.286-2.862,2.863c0,1.579,1.286,2.864,2.862,2.864c0.717,0,1.372-0.268,1.876-0.706l1.632,1.634
				c0.037,0.038,0.09,0.061,0.139,0.061c0.054,0,0.105-0.02,0.142-0.061C117.9,73.361,117.9,73.232,117.821,73.157z M111.57,69.647
				c0-1.356,1.104-2.46,2.463-2.46c1.354,0,2.458,1.106,2.458,2.46c0,1.356-1.104,2.463-2.458,2.463
				C112.674,72.11,111.57,71.006,111.57,69.647z"/>
		</g>
		<path opacity="0.1" fill="#010101" d="M107,67.705c0,0.863-0.699,1.563-1.563,1.563H70.323c-0.863,0-1.563-0.7-1.563-1.563l0,0
			c0-0.863,0.7-1.563,1.563-1.563h35.115C106.301,66.142,107,66.842,107,67.705L107,67.705z"/>
		<path opacity="0.1" fill="#010101" d="M102.625,72.705c0,0.756-0.613,1.368-1.369,1.368H70.504c-0.756,0-1.369-0.612-1.369-1.368
			l0,0c0-0.756,0.613-1.369,1.369-1.369h30.752C102.012,71.336,102.625,71.949,102.625,72.705L102.625,72.705z"/>
		<g id="image_thumb_5_">
			<rect x="68.76" y="13.383" fill="#D3D3D3" width="48.98" height="48.979"/>
			<g opacity="0.2">
				<path fill="#010101" d="M101.949,30.727H84.551c-0.17,0-0.31,0.139-0.31,0.312v13.669c0,0.173,0.14,0.312,0.31,0.312h17.398
					c0.172,0,0.311-0.139,0.311-0.312V31.038C102.26,30.865,102.121,30.727,101.949,30.727z M101.639,44.396H84.862V31.349h16.777
					V44.396z"/>
				<path fill="#010101" d="M89.211,37.605c0.955,0,1.73-0.776,1.73-1.729c0-0.955-0.776-1.731-1.73-1.731
					c-0.953,0-1.73,0.776-1.73,1.73S88.258,37.605,89.211,37.605z M89.211,34.766c0.612,0,1.109,0.498,1.109,1.109
					c0,0.611-0.497,1.109-1.109,1.109c-0.611,0-1.109-0.498-1.109-1.108C88.102,35.264,88.6,34.766,89.211,34.766z"/>
				<path fill="#010101" d="M86.416,43.155c0.072,0,0.145-0.026,0.204-0.078l5.068-4.462l3.2,3.201c0.122,0.121,0.317,0.121,0.439,0
					c0.121-0.122,0.121-0.318,0-0.439l-1.493-1.493l2.853-3.125l3.498,3.207c0.127,0.116,0.323,0.108,0.439-0.02
					c0.115-0.125,0.107-0.323-0.02-0.438l-3.729-3.418c-0.06-0.056-0.141-0.083-0.223-0.081c-0.083,0.003-0.161,0.04-0.217,0.101
					l-3.043,3.333l-1.473-1.473c-0.116-0.117-0.303-0.123-0.425-0.015l-5.288,4.655c-0.128,0.114-0.141,0.311-0.027,0.44
					C86.243,43.119,86.329,43.155,86.416,43.155z"/>
			</g>
		</g>
	</g>
	<g display="inline">
		<g opacity="0.1">
			<path fill="#010101" d="M176.821,73.157l-1.628-1.631c0.436-0.504,0.702-1.161,0.702-1.879c0-1.58-1.286-2.863-2.862-2.863
				c-1.579,0-2.862,1.286-2.862,2.863c0,1.579,1.286,2.864,2.862,2.864c0.717,0,1.372-0.268,1.876-0.706l1.632,1.634
				c0.037,0.038,0.09,0.061,0.139,0.061c0.054,0,0.105-0.02,0.142-0.061C176.9,73.361,176.9,73.232,176.821,73.157z M170.57,69.647
				c0-1.356,1.104-2.46,2.463-2.46c1.354,0,2.458,1.106,2.458,2.46c0,1.356-1.104,2.463-2.458,2.463
				C171.674,72.11,170.57,71.006,170.57,69.647z"/>
		</g>
		<path opacity="0.1" fill="#010101" d="M166,67.705c0,0.863-0.699,1.563-1.563,1.563h-35.115c-0.862,0-1.563-0.7-1.563-1.563l0,0
			c0-0.863,0.7-1.563,1.563-1.563h35.115C165.301,66.142,166,66.842,166,67.705L166,67.705z"/>
		<path opacity="0.1" fill="#010101" d="M161.625,72.705c0,0.756-0.613,1.368-1.369,1.368h-30.752c-0.756,0-1.369-0.612-1.369-1.368
			l0,0c0-0.756,0.613-1.369,1.369-1.369h30.752C161.012,71.336,161.625,71.949,161.625,72.705L161.625,72.705z"/>
		<g id="image_thumb_4_">
			<rect x="127.76" y="13.383" fill="#D3D3D3" width="48.98" height="48.979"/>
			<g opacity="0.2">
				<path fill="#010101" d="M160.949,30.727h-17.398c-0.17,0-0.311,0.139-0.311,0.312v13.669c0,0.173,0.141,0.312,0.311,0.312
					h17.398c0.172,0,0.311-0.139,0.311-0.312V31.038C161.26,30.865,161.121,30.727,160.949,30.727z M160.639,44.396h-16.777V31.349
					h16.777V44.396z"/>
				<path fill="#010101" d="M148.211,37.605c0.955,0,1.73-0.776,1.73-1.729c0-0.955-0.775-1.731-1.73-1.731
					c-0.953,0-1.73,0.776-1.73,1.73S147.258,37.605,148.211,37.605z M148.211,34.766c0.611,0,1.109,0.498,1.109,1.109
					c0,0.611-0.498,1.109-1.109,1.109s-1.109-0.498-1.109-1.108C147.102,35.264,147.6,34.766,148.211,34.766z"/>
				<path fill="#010101" d="M145.416,43.155c0.072,0,0.145-0.026,0.204-0.078l5.068-4.462l3.2,3.201
					c0.122,0.121,0.317,0.121,0.439,0c0.121-0.122,0.121-0.318,0-0.439l-1.493-1.493l2.853-3.125l3.498,3.207
					c0.127,0.116,0.323,0.108,0.439-0.02c0.115-0.125,0.107-0.323-0.02-0.438l-3.729-3.418c-0.06-0.056-0.141-0.083-0.223-0.081
					c-0.083,0.003-0.161,0.04-0.217,0.101l-3.043,3.333l-1.473-1.473c-0.116-0.117-0.303-0.123-0.425-0.015l-5.288,4.655
					c-0.128,0.114-0.141,0.311-0.026,0.44C145.243,43.119,145.328,43.155,145.416,43.155z"/>
			</g>
		</g>
	</g>
</g>
<g id="template_1">
	<g>
		<g opacity="0.1">
			<path fill="#010101" d="M58.821,73.157l-1.628-1.631c0.436-0.504,0.702-1.161,0.702-1.879c0-1.58-1.286-2.863-2.863-2.863
				c-1.579,0-2.862,1.286-2.862,2.863c0,1.579,1.286,2.864,2.862,2.864c0.717,0,1.373-0.268,1.876-0.706l1.631,1.634
				c0.038,0.038,0.09,0.061,0.139,0.061c0.054,0,0.106-0.02,0.142-0.061C58.901,73.361,58.901,73.232,58.821,73.157z M52.57,69.647
				c0-1.356,1.104-2.46,2.463-2.46c1.354,0,2.458,1.106,2.458,2.46c0,1.356-1.104,2.463-2.458,2.463
				C53.674,72.11,52.57,71.006,52.57,69.647z"/>
		</g>
		<path opacity="0.1" fill="#010101" d="M48,67.705c0,0.863-0.7,1.563-1.563,1.563H11.323c-0.863,0-1.563-0.7-1.563-1.563l0,0
			c0-0.863,0.7-1.563,1.563-1.563h35.115C47.3,66.142,48,66.842,48,67.705L48,67.705z"/>
		<path opacity="0.1" fill="#010101" d="M43.625,72.705c0,0.756-0.613,1.368-1.369,1.368H11.504c-0.756,0-1.369-0.612-1.369-1.368
			l0,0c0-0.756,0.613-1.369,1.369-1.369h30.752C43.012,71.336,43.625,71.949,43.625,72.705L43.625,72.705z"/>
		<g id="image_thumb_1_">
			<rect x="9.76" y="13.383" fill="#D3D3D3" width="48.979" height="48.979"/>
			<g opacity="0.2">
				<path fill="#010101" d="M42.949,30.727H25.551c-0.17,0-0.31,0.139-0.31,0.312v13.669c0,0.173,0.14,0.312,0.31,0.312h17.398
					c0.171,0,0.311-0.139,0.311-0.312V31.038C43.26,30.865,43.121,30.727,42.949,30.727z M42.638,44.396H25.862V31.349h16.776
					V44.396z"/>
				<path fill="#010101" d="M30.211,37.605c0.955,0,1.73-0.776,1.73-1.729c0-0.955-0.776-1.731-1.73-1.731
					c-0.953,0-1.73,0.776-1.73,1.73S29.258,37.605,30.211,37.605z M30.211,34.766c0.612,0,1.109,0.498,1.109,1.109
					c0,0.611-0.497,1.109-1.109,1.109c-0.611,0-1.109-0.498-1.109-1.108C29.102,35.264,29.6,34.766,30.211,34.766z"/>
				<path fill="#010101" d="M27.416,43.155c0.072,0,0.145-0.026,0.204-0.078l5.068-4.462l3.2,3.201c0.122,0.121,0.317,0.121,0.439,0
					c0.122-0.122,0.122-0.318,0-0.439l-1.493-1.493l2.852-3.125l3.499,3.207c0.127,0.116,0.323,0.108,0.44-0.02
					c0.115-0.125,0.106-0.323-0.021-0.438l-3.728-3.418c-0.06-0.056-0.142-0.083-0.224-0.081c-0.083,0.003-0.161,0.04-0.216,0.101
					l-3.043,3.333l-1.473-1.473c-0.116-0.117-0.302-0.123-0.425-0.015l-5.288,4.655c-0.128,0.114-0.141,0.311-0.027,0.44
					C27.243,43.119,27.329,43.155,27.416,43.155z"/>
			</g>
		</g>
	</g>
	<g>
		<g opacity="0.1">
			<path fill="#010101" d="M117.821,73.157l-1.628-1.631c0.436-0.504,0.702-1.161,0.702-1.879c0-1.58-1.286-2.863-2.862-2.863
				c-1.579,0-2.862,1.286-2.862,2.863c0,1.579,1.286,2.864,2.862,2.864c0.717,0,1.372-0.268,1.876-0.706l1.632,1.634
				c0.037,0.038,0.09,0.061,0.139,0.061c0.054,0,0.105-0.02,0.142-0.061C117.9,73.361,117.9,73.232,117.821,73.157z M111.57,69.647
				c0-1.356,1.104-2.46,2.463-2.46c1.354,0,2.458,1.106,2.458,2.46c0,1.356-1.104,2.463-2.458,2.463
				C112.674,72.11,111.57,71.006,111.57,69.647z"/>
		</g>
		<path opacity="0.1" fill="#010101" d="M107,67.705c0,0.863-0.699,1.563-1.563,1.563H70.323c-0.863,0-1.563-0.7-1.563-1.563l0,0
			c0-0.863,0.7-1.563,1.563-1.563h35.115C106.301,66.142,107,66.842,107,67.705L107,67.705z"/>
		<path opacity="0.1" fill="#010101" d="M102.625,72.705c0,0.756-0.613,1.368-1.369,1.368H70.504c-0.756,0-1.369-0.612-1.369-1.368
			l0,0c0-0.756,0.613-1.369,1.369-1.369h30.752C102.012,71.336,102.625,71.949,102.625,72.705L102.625,72.705z"/>
		<g id="image_thumb_2_">
			<rect x="68.76" y="13.383" fill="#D3D3D3" width="48.98" height="48.979"/>
			<g opacity="0.2">
				<path fill="#010101" d="M101.949,30.727H84.551c-0.17,0-0.31,0.139-0.31,0.312v13.669c0,0.173,0.14,0.312,0.31,0.312h17.398
					c0.172,0,0.311-0.139,0.311-0.312V31.038C102.26,30.865,102.121,30.727,101.949,30.727z M101.639,44.396H84.862V31.349h16.777
					V44.396z"/>
				<path fill="#010101" d="M89.211,37.605c0.955,0,1.73-0.776,1.73-1.729c0-0.955-0.776-1.731-1.73-1.731
					c-0.953,0-1.73,0.776-1.73,1.73S88.258,37.605,89.211,37.605z M89.211,34.766c0.612,0,1.109,0.498,1.109,1.109
					c0,0.611-0.497,1.109-1.109,1.109c-0.611,0-1.109-0.498-1.109-1.108C88.102,35.264,88.6,34.766,89.211,34.766z"/>
				<path fill="#010101" d="M86.416,43.155c0.072,0,0.145-0.026,0.204-0.078l5.068-4.462l3.2,3.201c0.122,0.121,0.317,0.121,0.439,0
					c0.121-0.122,0.121-0.318,0-0.439l-1.493-1.493l2.853-3.125l3.498,3.207c0.127,0.116,0.323,0.108,0.439-0.02
					c0.115-0.125,0.107-0.323-0.02-0.438l-3.729-3.418c-0.06-0.056-0.141-0.083-0.223-0.081c-0.083,0.003-0.161,0.04-0.217,0.101
					l-3.043,3.333l-1.473-1.473c-0.116-0.117-0.303-0.123-0.425-0.015l-5.288,4.655c-0.128,0.114-0.141,0.311-0.027,0.44
					C86.243,43.119,86.329,43.155,86.416,43.155z"/>
			</g>
		</g>
	</g>
	<g>
		<g opacity="0.1">
			<path fill="#010101" d="M176.821,73.157l-1.628-1.631c0.436-0.504,0.702-1.161,0.702-1.879c0-1.58-1.286-2.863-2.862-2.863
				c-1.579,0-2.862,1.286-2.862,2.863c0,1.579,1.286,2.864,2.862,2.864c0.717,0,1.372-0.268,1.876-0.706l1.632,1.634
				c0.037,0.038,0.09,0.061,0.139,0.061c0.054,0,0.105-0.02,0.142-0.061C176.9,73.361,176.9,73.232,176.821,73.157z M170.57,69.647
				c0-1.356,1.104-2.46,2.463-2.46c1.354,0,2.458,1.106,2.458,2.46c0,1.356-1.104,2.463-2.458,2.463
				C171.674,72.11,170.57,71.006,170.57,69.647z"/>
		</g>
		<path opacity="0.1" fill="#010101" d="M166,67.705c0,0.863-0.699,1.563-1.563,1.563h-35.115c-0.862,0-1.563-0.7-1.563-1.563l0,0
			c0-0.863,0.7-1.563,1.563-1.563h35.115C165.301,66.142,166,66.842,166,67.705L166,67.705z"/>
		<path opacity="0.1" fill="#010101" d="M161.625,72.705c0,0.756-0.613,1.368-1.369,1.368h-30.752c-0.756,0-1.369-0.612-1.369-1.368
			l0,0c0-0.756,0.613-1.369,1.369-1.369h30.752C161.012,71.336,161.625,71.949,161.625,72.705L161.625,72.705z"/>
		<g id="image_thumb_3_">
			<rect x="127.76" y="13.383" fill="#D3D3D3" width="48.98" height="48.979"/>
			<g opacity="0.2">
				<path fill="#010101" d="M160.949,30.727h-17.398c-0.17,0-0.311,0.139-0.311,0.312v13.669c0,0.173,0.141,0.312,0.311,0.312
					h17.398c0.172,0,0.311-0.139,0.311-0.312V31.038C161.26,30.865,161.121,30.727,160.949,30.727z M160.639,44.396h-16.777V31.349
					h16.777V44.396z"/>
				<path fill="#010101" d="M148.211,37.605c0.955,0,1.73-0.776,1.73-1.729c0-0.955-0.775-1.731-1.73-1.731
					c-0.953,0-1.73,0.776-1.73,1.73S147.258,37.605,148.211,37.605z M148.211,34.766c0.611,0,1.109,0.498,1.109,1.109
					c0,0.611-0.498,1.109-1.109,1.109s-1.109-0.498-1.109-1.108C147.102,35.264,147.6,34.766,148.211,34.766z"/>
				<path fill="#010101" d="M145.416,43.155c0.072,0,0.145-0.026,0.204-0.078l5.068-4.462l3.2,3.201
					c0.122,0.121,0.317,0.121,0.439,0c0.121-0.122,0.121-0.318,0-0.439l-1.493-1.493l2.853-3.125l3.498,3.207
					c0.127,0.116,0.323,0.108,0.439-0.02c0.115-0.125,0.107-0.323-0.02-0.438l-3.729-3.418c-0.06-0.056-0.141-0.083-0.223-0.081
					c-0.083,0.003-0.161,0.04-0.217,0.101l-3.043,3.333l-1.473-1.473c-0.116-0.117-0.303-0.123-0.425-0.015l-5.288,4.655
					c-0.128,0.114-0.141,0.311-0.026,0.44C145.243,43.119,145.328,43.155,145.416,43.155z"/>
			</g>
		</g>
	</g>
</g>
</svg>
