<svg xmlns="http://www.w3.org/2000/svg" viewBox="0 0 141.9 188.74"><defs><style>.cls-1{fill:#e8e8e8;}.cls-2{fill:#d3d3d3;}.cls-3{opacity:0.1;}.cls-4{fill:#010101;}.cls-5{opacity:0.2;}.cls-6,.cls-7{fill:#9f9e9e;}.cls-6{isolation:isolate;}</style></defs><title>blog-grid-template-5</title><g id="background"><rect class="cls-1" y="0.04" width="141.9" height="188.67"/></g><g id="template_5" data-name="template 5"><g id="image_thumb" data-name="image thumb"><rect class="cls-2" width="141.9" height="188.74"/><g class="cls-3"><path class="cls-4" d="M81.09,86H60.81a.36.36,0,0,0-.36.36V102.3a.36.36,0,0,0,.36.36H81.09a.36.36,0,0,0,.36-.36V86.37A.36.36,0,0,0,81.09,86Zm-.36,15.94H61.17V86.73H80.73Z" transform="translate(0 0.04)"/><path class="cls-4" d="M66.24,94a2,2,0,1,0-2-2A2,2,0,0,0,66.24,94Zm0-3.31A1.29,1.29,0,1,1,65,92,1.29,1.29,0,0,1,66.24,90.71Z" transform="translate(0 0.04)"/><path class="cls-4" d="M63,100.49a.36.36,0,0,0,.24-.09l5.91-5.2,3.73,3.73a.36.36,0,1,0,.51-.51l-1.74-1.74L75,93,79,96.77a.36.36,0,1,0,.49-.53l-4.35-4a.37.37,0,0,0-.26-.09.36.36,0,0,0-.25.12l-3.55,3.89L69.4,94.45a.36.36,0,0,0-.5,0l-6.16,5.43a.36.36,0,0,0,.24.63Z" transform="translate(0 0.04)"/></g></g><g id="template_1" data-name="template 1" class="cls-5"><path class="cls-6" d="M87.29,131.5a5.75,5.75,0,0,1-5.75,5.75H60.37a5.75,5.75,0,0,1-5.75-5.75h0a5.75,5.75,0,0,1,5.75-5.75H81.54a5.75,5.75,0,0,1,5.75,5.75Z" transform="translate(0 0.04)"/><path class="cls-7" d="M87.58,66.06a1.41,1.41,0,0,1-1.41,1.41H55.74a1.41,1.41,0,0,1-1.42-1.41h0a1.42,1.42,0,0,1,1.42-1.42H86.16a1.42,1.42,0,0,1,1.41,1.42Z" transform="translate(0 0.04)"/><rect class="cls-7" x="42.48" y="51.46" width="56.95" height="6.54" rx="1.77" ry="1.77"/><path class="cls-7" d="M113.36,81.78a1.44,1.44,0,0,1-1.52,1.33H30.07a1.44,1.44,0,0,1-1.52-1.33h0a1.44,1.44,0,0,1,1.52-1.33h81.77a1.44,1.44,0,0,1,1.52,1.33Z" transform="translate(0 0.04)"/><path class="cls-7" d="M121,91.67A1.47,1.47,0,0,1,119.46,93h-97a1.47,1.47,0,0,1-1.56-1.36h0a1.47,1.47,0,0,1,1.56-1.36h97A1.47,1.47,0,0,1,121,91.67Z" transform="translate(0 0.04)"/><path class="cls-7" d="M105.5,100.87a1.34,1.34,0,0,1-1.42,1.24H37.82a1.34,1.34,0,0,1-1.42-1.24h0a1.34,1.34,0,0,1,1.42-1.24h66.25a1.34,1.34,0,0,1,1.42,1.24Z" transform="translate(0 0.04)"/><path class="cls-7" d="M113.43,110.13a1.4,1.4,0,0,1-1.49,1.3H30a1.4,1.4,0,0,1-1.49-1.3h0a1.4,1.4,0,0,1,1.49-1.3h82a1.4,1.4,0,0,1,1.49,1.3Z" transform="translate(0 0.04)"/></g></g></svg>