<?xml version="1.0" encoding="utf-8"?>
<!-- Generator: Adobe Illustrator 21.0.0, SVG Export Plug-In . SVG Version: 6.00 Build 0)  -->
<svg version="1.1" xmlns="http://www.w3.org/2000/svg" xmlns:xlink="http://www.w3.org/1999/xlink" x="0px" y="0px"
	 viewBox="0 0 185 89" enable-background="new 0 0 185 89" xml:space="preserve">
<g id="template_8" display="none">
	<rect display="inline" fill="#E8E8E8" width="185" height="89"/>
	<g id="Layer_3_copy_2" display="inline">
		<path opacity="0.2" fill="#9F9E9E" d="M14.079,33.183c0,0.301,0.244,0.544,0.543,0.544h80.754c0.3,0,0.544-0.243,0.544-0.544l0,0
			c0-0.3-0.244-0.543-0.544-0.543H14.622C14.323,32.639,14.079,32.882,14.079,33.183L14.079,33.183z"/>
		<path opacity="0.2" fill="#9F9E9E" d="M22.229,36.821c0,0.307,0.249,0.555,0.556,0.555h72.652c0.307,0,0.555-0.249,0.555-0.555
			l0,0c0-0.307-0.248-0.557-0.555-0.557H22.785C22.479,36.265,22.229,36.514,22.229,36.821L22.229,36.821z"/>
		<path opacity="0.2" fill="#9F9E9E" d="M28.81,40.692c0,0.281,0.226,0.507,0.507,0.507h66.047c0.28,0,0.508-0.227,0.508-0.507l0,0
			c0-0.279-0.228-0.506-0.508-0.506H29.316C29.036,40.186,28.81,40.413,28.81,40.692L28.81,40.692z"/>
		<path opacity="0.2" fill="#9F9E9E" d="M23.084,44.556c0,0.313,0.253,0.565,0.565,0.565h71.76c0.313,0,0.565-0.253,0.565-0.565l0,0
			c0-0.312-0.253-0.565-0.565-0.565h-71.76C23.337,43.991,23.084,44.244,23.084,44.556L23.084,44.556z"/>
		<path opacity="0.2" fill="#9F9E9E" d="M48.806,48.681c0,0.336,0.271,0.608,0.607,0.608h45.611c0.336,0,0.608-0.272,0.608-0.608
			l0,0c0-0.335-0.272-0.607-0.608-0.607H49.413C49.077,48.074,48.806,48.346,48.806,48.681L48.806,48.681z"/>
	</g>
	<rect x="106.666" y="10.833" display="inline" fill="#D3D3D3" width="68.168" height="68.166"/>
	<g display="inline" opacity="0.2">
		<path fill="#010101" d="M152.857,34.972h-24.215c-0.238,0-0.432,0.193-0.432,0.433v19.024c0,0.24,0.193,0.433,0.432,0.433h24.215
			c0.238,0,0.432-0.193,0.432-0.433V35.405C153.289,35.165,153.096,34.972,152.857,34.972z M152.424,53.997h-23.348V35.837h23.348
			V53.997z"/>
		<path fill="#010101" d="M135.129,44.544c1.328,0,2.408-1.08,2.408-2.407c0-1.329-1.08-2.409-2.408-2.409
			c-1.327,0-2.408,1.08-2.408,2.408C132.721,43.464,133.802,44.544,135.129,44.544z M135.129,40.593
			c0.852,0,1.543,0.692,1.543,1.543s-0.691,1.543-1.543,1.543c-0.851,0-1.543-0.692-1.543-1.542
			C133.586,41.287,134.278,40.593,135.129,40.593z"/>
		<path fill="#010101" d="M131.238,52.268c0.101,0,0.203-0.036,0.285-0.107l7.053-6.21l4.455,4.454c0.169,0.169,0.441,0.169,0.611,0
			c0.169-0.169,0.169-0.442,0-0.611l-2.078-2.078l3.969-4.348l4.869,4.464c0.176,0.161,0.45,0.149,0.611-0.027
			c0.161-0.176,0.149-0.45-0.027-0.611l-5.188-4.756c-0.085-0.077-0.198-0.115-0.312-0.113c-0.114,0.005-0.224,0.056-0.301,0.141
			l-4.235,4.638l-2.05-2.051c-0.161-0.162-0.421-0.17-0.592-0.019l-7.357,6.478c-0.18,0.158-0.196,0.432-0.038,0.611
			C130.998,52.219,131.117,52.268,131.238,52.268z"/>
	</g>
	<circle display="inline" fill="#9F9E9E" cx="93.262" cy="60.297" r="2.37"/>
	<circle display="inline" fill="#9F9E9E" cx="86.229" cy="60.297" r="2.37"/>
	<circle display="inline" fill="#9F9E9E" cx="78.492" cy="60.297" r="2.371"/>
	<circle display="inline" fill="#9F9E9E" cx="70.756" cy="60.297" r="2.371"/>
	<path display="inline" opacity="0.1" fill="#9F9E9E" d="M62.727,23.144c0,0.781,0.634,1.414,1.414,1.414H94.56
		c0.781,0,1.415-0.633,1.415-1.414l0,0c0-0.781-0.634-1.416-1.415-1.416H64.141C63.36,21.728,62.727,22.363,62.727,23.144
		L62.727,23.144z"/>
	<path display="inline" opacity="0.1" fill="#9F9E9E" d="M38.686,16.997c0,0.977,0.793,1.77,1.77,1.77h53.408
		c0.977,0,1.769-0.793,1.769-1.77v-3.006c0-0.976-0.792-1.768-1.769-1.768H40.455c-0.977,0-1.77,0.792-1.77,1.768V16.997z"/>
	<path display="inline" opacity="0.2" fill="#9F9E9E" enable-background="new    " d="M97.197,74.5c0,3.176-2.574,5.75-5.75,5.75
		H70.279c-3.176,0-5.75-2.574-5.75-5.75l0,0c0-3.176,2.574-5.749,5.75-5.749h21.168C94.623,68.751,97.197,71.324,97.197,74.5
		L97.197,74.5z"/>
</g>
<g id="template_7">
	<rect y="0.417" fill="#E8E8E8" width="185" height="89"/>
	<g id="Layer_3_copy">
	</g>
	<rect x="10.167" y="10.833" fill="#D3D3D3" width="68.167" height="68.166"/>
	<g opacity="0.2">
		<path fill="#010101" d="M56.357,34.972H32.143c-0.238,0-0.432,0.193-0.432,0.433v19.024c0,0.24,0.194,0.433,0.432,0.433h24.214
			c0.239,0,0.433-0.193,0.433-0.433V35.405C56.79,35.165,56.596,34.972,56.357,34.972z M55.924,53.997H32.576V35.837h23.349V53.997z
			"/>
		<path fill="#010101" d="M38.629,44.544c1.328,0,2.409-1.08,2.409-2.407c0-1.329-1.081-2.409-2.409-2.409
			c-1.327,0-2.408,1.08-2.408,2.408C36.221,43.464,37.302,44.544,38.629,44.544z M38.629,40.593c0.851,0,1.544,0.692,1.544,1.543
			s-0.692,1.543-1.544,1.543c-0.851,0-1.543-0.692-1.543-1.542C37.085,41.287,37.778,40.593,38.629,40.593z"/>
		<path fill="#010101" d="M34.738,52.268c0.101,0,0.203-0.036,0.285-0.107l7.053-6.21l4.455,4.454c0.169,0.169,0.442,0.169,0.611,0
			c0.169-0.169,0.169-0.442,0-0.611l-2.078-2.078l3.97-4.348l4.869,4.464c0.176,0.161,0.45,0.149,0.611-0.027
			c0.161-0.176,0.149-0.45-0.027-0.611l-5.188-4.756c-0.084-0.077-0.198-0.115-0.311-0.113c-0.115,0.005-0.223,0.056-0.301,0.141
			l-4.235,4.638l-2.05-2.051c-0.162-0.162-0.421-0.17-0.592-0.019l-7.358,6.478c-0.18,0.158-0.197,0.432-0.038,0.611
			C34.499,52.219,34.618,52.268,34.738,52.268z"/>
	</g>
	<circle display="none" fill="#9F9E9E" cx="91.738" cy="60.297" r="2.37"/>
	<circle display="none" fill="#9F9E9E" cx="98.771" cy="60.297" r="2.37"/>
	<circle display="none" fill="#9F9E9E" cx="106.508" cy="60.297" r="2.371"/>
	<circle display="none" fill="#9F9E9E" cx="114.244" cy="60.297" r="2.371"/>
	<g>
		<path opacity="0.2" fill="#9F9E9E" d="M174.059,36.446c0,0.301-0.244,0.544-0.543,0.544H92.762c-0.3,0-0.543-0.243-0.543-0.544
			l0,0c0-0.3,0.244-0.543,0.543-0.543h80.754C173.815,35.903,174.059,36.146,174.059,36.446L174.059,36.446z"/>
		<path opacity="0.2" fill="#9F9E9E" d="M165.909,40.085c0,0.307-0.249,0.555-0.556,0.555H92.701c-0.307,0-0.556-0.249-0.556-0.555
			l0,0c0-0.307,0.249-0.557,0.556-0.557h72.652C165.66,39.528,165.909,39.778,165.909,40.085L165.909,40.085z"/>
		<path opacity="0.2" fill="#9F9E9E" d="M159.329,43.956c0,0.281-0.227,0.507-0.507,0.507H92.774c-0.28,0-0.507-0.227-0.507-0.507
			l0,0c0-0.279,0.227-0.506,0.507-0.506h66.047C159.102,43.45,159.329,43.677,159.329,43.956L159.329,43.956z"/>
		<path opacity="0.2" fill="#9F9E9E" d="M165.054,47.82c0,0.313-0.253,0.565-0.565,0.565h-71.76c-0.313,0-0.565-0.253-0.565-0.565
			l0,0c0-0.312,0.252-0.565,0.565-0.565h71.76C164.801,47.255,165.054,47.508,165.054,47.82L165.054,47.82z"/>
		<path opacity="0.2" fill="#9F9E9E" d="M139.333,51.945c0,0.336-0.271,0.608-0.607,0.608H93.114c-0.336,0-0.608-0.272-0.608-0.608
			l0,0c0-0.335,0.272-0.607,0.608-0.607h45.611C139.061,51.338,139.333,51.61,139.333,51.945L139.333,51.945z"/>
		<path opacity="0.1" fill="#9F9E9E" d="M125.412,26.408c0,0.781-0.634,1.414-1.414,1.414H93.579c-0.781,0-1.415-0.633-1.415-1.414
			l0,0c0-0.781,0.634-1.416,1.415-1.416h30.419C124.778,24.992,125.412,25.627,125.412,26.408L125.412,26.408z"/>
		<path opacity="0.1" fill="#9F9E9E" d="M149.453,20.26c0,0.976-0.793,1.77-1.77,1.77H94.275c-0.977,0-1.769-0.793-1.769-1.77
			v-3.006c0-0.977,0.792-1.769,1.769-1.769h53.408c0.977,0,1.77,0.792,1.77,1.769V20.26z"/>
		<path opacity="0.2" fill="#9F9E9E" enable-background="new    " d="M90.941,67.764c0-3.176,2.574-5.75,5.75-5.75h21.168
			c3.176,0,5.75,2.574,5.75,5.75l0,0c0,3.176-2.574,5.75-5.75,5.75H96.691C93.515,73.514,90.941,70.94,90.941,67.764L90.941,67.764z
			"/>
	</g>
</g>
</svg>
