<svg id="template_2" data-name="template 2" xmlns="http://www.w3.org/2000/svg" viewBox="0 0 185.23 89"><defs><style>.cls-1{fill:#e8e8e8;}.cls-2{fill:#d3d3d3;}.cls-3,.cls-5,.cls-7{opacity:0.2;}.cls-4{fill:#010101;}.cls-5,.cls-6,.cls-7,.cls-8,.cls-9{fill:#9f9e9e;}.cls-6{opacity:0.1;}.cls-7{isolation:isolate;}.cls-8{opacity:0.31;}</style></defs><title>blog-list-template-2</title><rect class="cls-1" x="0.23" y="0.42" width="185" height="88.58"/><rect class="cls-2" x="0.23" width="83.25" height="89"/><g class="cls-3"><path class="cls-4" d="M56.36,35H32.14a.43.43,0,0,0-.43.43v19a.43.43,0,0,0,.43.43H56.36a.43.43,0,0,0,.43-.43v-19A.43.43,0,0,0,56.36,35Zm-.43,19H32.58V35.84H55.92Z" transform="translate(0.23)"/><path class="cls-4" d="M38.63,44.54a2.41,2.41,0,1,0-2.41-2.41A2.41,2.41,0,0,0,38.63,44.54Zm0-4a1.54,1.54,0,1,1-1.54,1.54A1.55,1.55,0,0,1,38.63,40.59Z" transform="translate(0.23)"/><path class="cls-4" d="M34.74,52.27a.43.43,0,0,0,.29-.11L42.08,46l4.45,4.45a.43.43,0,1,0,.61-.61l-2.08-2.08,4-4.35,4.87,4.46a.43.43,0,1,0,.58-.64L49.3,42.44a.45.45,0,0,0-.31-.11.44.44,0,0,0-.3.14L44.45,47.1,42.4,45.05a.43.43,0,0,0-.59,0l-7.36,6.48a.43.43,0,0,0,0,.61A.43.43,0,0,0,34.74,52.27Z" transform="translate(0.23)"/></g><path class="cls-5" d="M174.06,36.45a.54.54,0,0,1-.54.54H92.76a.54.54,0,0,1-.54-.54h0a.54.54,0,0,1,.54-.54h80.75a.54.54,0,0,1,.54.54Z" transform="translate(0.23)"/><path class="cls-5" d="M165.91,40.09a.56.56,0,0,1-.56.56H92.7a.56.56,0,0,1-.56-.56h0a.56.56,0,0,1,.56-.56h72.65a.56.56,0,0,1,.56.56Z" transform="translate(0.23)"/><path class="cls-5" d="M159.33,44a.51.51,0,0,1-.51.51h-66a.51.51,0,0,1-.51-.51h0a.51.51,0,0,1,.51-.51h66a.51.51,0,0,1,.51.51Z" transform="translate(0.23)"/><path class="cls-5" d="M165.05,47.82a.57.57,0,0,1-.57.57H92.73a.56.56,0,0,1-.56-.57h0a.56.56,0,0,1,.56-.56h71.76a.57.57,0,0,1,.57.56Z" transform="translate(0.23)"/><path class="cls-5" d="M139.33,51.95a.61.61,0,0,1-.61.61H93.11a.61.61,0,0,1-.61-.61h0a.61.61,0,0,1,.61-.61h45.61a.61.61,0,0,1,.61.61Z" transform="translate(0.23)"/><path class="cls-6" d="M125.41,26.41A1.41,1.41,0,0,1,124,27.82H93.58a1.41,1.41,0,0,1-1.41-1.41h0A1.42,1.42,0,0,1,93.58,25H124a1.42,1.42,0,0,1,1.41,1.42Z" transform="translate(0.23)"/><rect class="cls-6" x="92.74" y="15.49" width="56.95" height="6.54" rx="1.77" ry="1.77"/><path class="cls-7" d="M90.94,67.76A5.75,5.75,0,0,1,96.69,62h21.17a5.75,5.75,0,0,1,5.75,5.75h0a5.75,5.75,0,0,1-5.75,5.75H96.69a5.75,5.75,0,0,1-5.75-5.75Z" transform="translate(0.23)"/><rect class="cls-8" y="76.73" width="83.48" height="12.05"/><rect class="cls-9" x="4.15" y="81.19" width="10.44" height="1.1" rx="0.53" ry="0.53"/><rect class="cls-9" x="4.15" y="83.25" width="8.66" height="1.1" rx="0.53" ry="0.53"/><rect class="cls-9" x="18.61" y="81.19" width="10.44" height="1.1" rx="0.53" ry="0.53"/><rect class="cls-9" x="18.61" y="83.25" width="8.66" height="1.1" rx="0.53" ry="0.53"/><rect class="cls-9" x="33.07" y="81.19" width="10.44" height="1.1" rx="0.53" ry="0.53"/><rect class="cls-9" x="33.07" y="83.25" width="8.66" height="1.1" rx="0.53" ry="0.53"/><rect class="cls-9" x="46.92" y="81.19" width="10.44" height="1.1" rx="0.53" ry="0.53"/><rect class="cls-9" x="46.92" y="83.25" width="8.66" height="1.1" rx="0.53" ry="0.53"/><rect class="cls-9" x="61.38" y="81.19" width="10.44" height="1.1" rx="0.53" ry="0.53"/><rect class="cls-9" x="61.38" y="83.25" width="8.66" height="1.1" rx="0.53" ry="0.53"/></svg>