<svg xmlns="http://www.w3.org/2000/svg" viewBox="0 0 141.9 188.74"><defs><style>.cls-1{fill:#e8e8e8;}.cls-2{opacity:0.2;}.cls-3,.cls-4{fill:#9f9e9e;}.cls-3{isolation:isolate;}.cls-5{fill:#d3d3d3;}.cls-6{opacity:0.1;}.cls-7{fill:#010101;}</style></defs><title>blog-grid-template-3</title><g id="background"><rect class="cls-1" y="0.07" width="141.9" height="188.67"/></g><g id="template_3" data-name="template 3"><g id="template_1" data-name="template 1" class="cls-2"><path class="cls-3" d="M47.91,169.75a5.75,5.75,0,0,1-5.75,5.75H21a5.75,5.75,0,0,1-5.75-5.75h0A5.75,5.75,0,0,1,21,164H42.16a5.75,5.75,0,0,1,5.75,5.75Z" transform="translate(0 0.07)"/><path class="cls-4" d="M48.44,108.31A1.41,1.41,0,0,1,47,109.73H16.6a1.41,1.41,0,0,1-1.42-1.41h0a1.42,1.42,0,0,1,1.42-1.42H47a1.42,1.42,0,0,1,1.41,1.42Z" transform="translate(0 0.07)"/><rect class="cls-4" x="15.19" y="93.75" width="56.95" height="6.54" rx="1.77" ry="1.77"/><path class="cls-4" d="M100.82,124a1.44,1.44,0,0,1-1.52,1.33H17.52A1.44,1.44,0,0,1,16,124h0a1.44,1.44,0,0,1,1.52-1.33H99.29a1.44,1.44,0,0,1,1.52,1.33Z" transform="translate(0 0.07)"/><path class="cls-4" d="M116.13,133.92a1.47,1.47,0,0,1-1.56,1.36h-97A1.47,1.47,0,0,1,16,133.92h0a1.47,1.47,0,0,1,1.56-1.36h97a1.47,1.47,0,0,1,1.56,1.36Z" transform="translate(0 0.07)"/><path class="cls-4" d="M85.1,143.13a1.34,1.34,0,0,1-1.42,1.24H17.42A1.34,1.34,0,0,1,16,143.13h0a1.34,1.34,0,0,1,1.42-1.24H83.68a1.34,1.34,0,0,1,1.42,1.24Z" transform="translate(0 0.07)"/><path class="cls-4" d="M101,152.39a1.4,1.4,0,0,1-1.49,1.3h-82a1.4,1.4,0,0,1-1.49-1.3h0a1.4,1.4,0,0,1,1.49-1.3h82a1.4,1.4,0,0,1,1.49,1.3Z" transform="translate(0 0.07)"/></g><g id="image_thumb" data-name="image thumb"><rect class="cls-5" width="141.9" height="84.16"/><g class="cls-6"><path class="cls-7" d="M81.72,35.08H61.44a.39.39,0,0,0-.36.41V53.64a.39.39,0,0,0,.36.41H81.72a.39.39,0,0,0,.36-.41V35.5A.39.39,0,0,0,81.72,35.08Zm-.36,18.15H61.8V35.91H81.36Z" transform="translate(0 0.07)"/><path class="cls-7" d="M66.87,44.22a2.32,2.32,0,1,0-2-2.3A2.17,2.17,0,0,0,66.87,44.22Zm0-3.77a1.48,1.48,0,1,1-1.29,1.47A1.39,1.39,0,0,1,66.87,40.45Z" transform="translate(0 0.07)"/><path class="cls-7" d="M63.61,51.58a.34.34,0,0,0,.24-.1l5.91-5.92,3.73,4.25a.33.33,0,0,0,.51,0,.45.45,0,0,0,0-.58l-1.74-2,3.33-4.15,4.08,4.26a.33.33,0,0,0,.51,0,.46.46,0,0,0,0-.58L75.81,42.2a.33.33,0,0,0-.51,0l-3.55,4.42L70,44.7a.33.33,0,0,0-.5,0l-6.16,6.18a.45.45,0,0,0,0,.58A.34.34,0,0,0,63.61,51.58Z" transform="translate(0 0.07)"/></g></g><g id="Layer_5_copy" data-name="Layer 5 copy"><rect class="cls-4" x="7.3" y="6.91" width="17.9" height="8.73" rx="2" ry="2"/><rect class="cls-4" x="27.8" y="6.91" width="17.9" height="8.73" rx="2" ry="2"/><rect class="cls-4" x="48.44" y="7.07" width="17.9" height="8.73" rx="2" ry="2"/></g></g></svg>