<svg xmlns="http://www.w3.org/2000/svg" viewBox="0 0 141.9 188.67"><defs><style>.cls-1{fill:#e8e8e8;}.cls-2{opacity:0.2;}.cls-3,.cls-4{fill:#9f9e9e;}.cls-3{isolation:isolate;}.cls-5{fill:#d3d3d3;}.cls-6{opacity:0.1;}.cls-7{fill:#010101;}</style></defs><title>blog-grid-template-4</title><g id="background"><rect class="cls-1" width="141.9" height="188.67"/></g><g id="template_4" data-name="template 4"><g id="template_1" data-name="template 1" class="cls-2"><path class="cls-3" d="M127.91,170.75a5.75,5.75,0,0,1-5.75,5.75H101a5.75,5.75,0,0,1-5.75-5.75h0A5.75,5.75,0,0,1,101,165h21.17a5.75,5.75,0,0,1,5.75,5.75Z"/><path class="cls-4" d="M48.44,105.31A1.41,1.41,0,0,1,47,106.73H16.6a1.41,1.41,0,0,1-1.42-1.41h0a1.42,1.42,0,0,1,1.42-1.42H47a1.42,1.42,0,0,1,1.41,1.42Z"/><rect class="cls-4" x="15.19" y="90.68" width="56.95" height="6.54" rx="1.77" ry="1.77"/><path class="cls-4" d="M100.82,121a1.44,1.44,0,0,1-1.52,1.33H17.52A1.44,1.44,0,0,1,16,121h0a1.44,1.44,0,0,1,1.52-1.33H99.29a1.44,1.44,0,0,1,1.52,1.33Z"/><path class="cls-4" d="M116.13,130.92a1.47,1.47,0,0,1-1.56,1.36h-97A1.47,1.47,0,0,1,16,130.92h0a1.47,1.47,0,0,1,1.56-1.36h97a1.47,1.47,0,0,1,1.56,1.36Z"/><path class="cls-4" d="M85.1,140.13a1.34,1.34,0,0,1-1.42,1.24H17.42A1.34,1.34,0,0,1,16,140.13h0a1.34,1.34,0,0,1,1.42-1.24H83.68a1.34,1.34,0,0,1,1.42,1.24Z"/><path class="cls-4" d="M101,149.39a1.4,1.4,0,0,1-1.49,1.3h-82a1.4,1.4,0,0,1-1.49-1.3h0a1.4,1.4,0,0,1,1.49-1.3h82a1.4,1.4,0,0,1,1.49,1.3Z"/><path class="cls-4" d="M44.1,167.11c0,.53-.26,1-.58,1H16.58c-.32,0-.58-.43-.58-1h0c0-.53.26-1,.58-1H43.52c.32,0,.58.43.58,1Z"/><path class="cls-4" d="M50.55,174.34c0,.56-.27,1-.61,1H16.61c-.33,0-.61-.45-.61-1h0c0-.56.27-1,.61-1H49.94c.33,0,.61.45.61,1Z"/></g><g id="image_thumb" data-name="image thumb"><rect class="cls-5" y="-0.07" width="141.9" height="73.91"/><g class="cls-6"><path class="cls-7" d="M81.72,30.8H61.44a.36.36,0,0,0-.36.36V47.1a.36.36,0,0,0,.36.36H81.72a.36.36,0,0,0,.36-.36V31.16A.36.36,0,0,0,81.72,30.8Zm-.36,15.94H61.8V31.53H81.36Z"/><path class="cls-7" d="M66.87,38.82a2,2,0,1,0-2-2A2,2,0,0,0,66.87,38.82Zm0-3.31a1.29,1.29,0,1,1-1.29,1.29A1.29,1.29,0,0,1,66.87,35.51Z"/><path class="cls-7" d="M63.61,45.29a.36.36,0,0,0,.24-.09L69.76,40l3.73,3.73a.36.36,0,1,0,.51-.51l-1.74-1.74,3.33-3.64,4.08,3.74a.36.36,0,1,0,.49-.53l-4.35-4a.37.37,0,0,0-.26-.09.36.36,0,0,0-.25.12L71.75,41,70,39.25a.36.36,0,0,0-.5,0l-6.16,5.43a.36.36,0,0,0,.24.63Z"/></g></g></g></svg>