<svg id="template_1" data-name="template 1" xmlns="http://www.w3.org/2000/svg" viewBox="0 0 185 89"><defs><style>.cls-1{fill:#e8e8e8;}.cls-2{fill:#d3d3d3;}.cls-3,.cls-5,.cls-8{opacity:0.2;}.cls-4{fill:#010101;}.cls-5{fill:#9f9e9e;}.cls-6{opacity:0.65;}.cls-7{opacity:0.1;}.cls-8{fill:#787878;}</style></defs><title>template-1</title><rect class="cls-1" width="185" height="89"/><rect class="cls-2" x="97.68" y="10.92" width="28.17" height="28.17"/><g class="cls-3"><path class="cls-4" d="M116.76,20.89h-10a.18.18,0,0,0-.18.18v7.86a.18.18,0,0,0,.18.18h10a.18.18,0,0,0,.18-.18V21.07A.18.18,0,0,0,116.76,20.89Zm-.18,7.86h-9.65v-7.5h9.65Z"/><path class="cls-4" d="M109.44,24.85a1,1,0,1,0-1-1A1,1,0,0,0,109.44,24.85Zm0-1.63a.64.64,0,1,1-.64.64A.64.64,0,0,1,109.44,23.21Z"/><path class="cls-4" d="M107.83,28a.18.18,0,0,0,.12,0l2.91-2.57,1.84,1.84A.18.18,0,0,0,113,27l-.86-.86,1.64-1.8,2,1.84a.18.18,0,1,0,.24-.26l-2.14-2a.19.19,0,0,0-.13,0,.18.18,0,0,0-.12.06l-1.75,1.92-.85-.85a.18.18,0,0,0-.24,0l-3,2.68a.18.18,0,0,0,0,.25A.18.18,0,0,0,107.83,28Z"/></g><path class="cls-5" d="M168.62,23a.64.64,0,0,1-.64.64H133.93a.64.64,0,0,1-.63-.64h0a.64.64,0,0,1,.63-.63H168a.64.64,0,0,1,.64.63Z"/><path class="cls-5" d="M175,27.29a.65.65,0,0,1-.65.65H133.95a.65.65,0,0,1-.65-.65h0a.65.65,0,0,1,.65-.65h40.41a.65.65,0,0,1,.65.65Z"/><path class="cls-5" d="M162.08,31.81a.59.59,0,0,1-.59.59h-27.6a.59.59,0,0,1-.59-.59h0a.59.59,0,0,1,.59-.59h27.6a.59.59,0,0,1,.59.59Z"/><path class="cls-5" d="M168.65,36.36A.62.62,0,0,1,168,37H133.89a.62.62,0,0,1-.62-.62h0a.62.62,0,0,1,.62-.62H168a.62.62,0,0,1,.62.62Z"/><rect class="cls-5" x="133.87" y="11.19" width="34.11" height="3.92" rx="1.06" ry="1.06"/><rect class="cls-2" x="97.68" y="49.92" width="28.17" height="28.17"/><g class="cls-3"><path class="cls-4" d="M116.76,59.89h-10a.18.18,0,0,0-.18.18v7.86a.18.18,0,0,0,.18.18h10a.18.18,0,0,0,.18-.18V60.07A.18.18,0,0,0,116.76,59.89Zm-.18,7.86h-9.65v-7.5h9.65Z"/><path class="cls-4" d="M109.44,63.85a1,1,0,1,0-1-1A1,1,0,0,0,109.44,63.85Zm0-1.63a.64.64,0,1,1-.64.64A.64.64,0,0,1,109.44,62.21Z"/><path class="cls-4" d="M107.83,67a.18.18,0,0,0,.12,0l2.91-2.57,1.84,1.84A.18.18,0,0,0,113,66l-.86-.86,1.64-1.8,2,1.84a.18.18,0,1,0,.24-.26l-2.14-2a.19.19,0,0,0-.13,0,.18.18,0,0,0-.12.06l-1.75,1.92-.85-.85a.18.18,0,0,0-.24,0l-3,2.68a.18.18,0,0,0,0,.25A.18.18,0,0,0,107.83,67Z"/></g><path class="cls-5" d="M168.62,62a.64.64,0,0,1-.64.64H133.93a.64.64,0,0,1-.63-.64h0a.64.64,0,0,1,.63-.63H168a.64.64,0,0,1,.64.63Z"/><path class="cls-5" d="M175,66.29a.65.65,0,0,1-.65.65H133.95a.65.65,0,0,1-.65-.65h0a.65.65,0,0,1,.65-.65h40.41a.65.65,0,0,1,.65.65Z"/><path class="cls-5" d="M162.08,70.81a.59.59,0,0,1-.59.59h-27.6a.59.59,0,0,1-.59-.59h0a.59.59,0,0,1,.59-.59h27.6a.59.59,0,0,1,.59.59Z"/><path class="cls-5" d="M168.65,75.36A.62.62,0,0,1,168,76H133.89a.62.62,0,0,1-.62-.62h0a.62.62,0,0,1,.62-.62H168a.62.62,0,0,1,.62.62Z"/><rect class="cls-5" x="133.87" y="50.19" width="34.11" height="3.92" rx="1.06" ry="1.06"/><g class="cls-6"><rect class="cls-2" x="9.67" y="10.83" width="74.33" height="68.17"/><g class="cls-7"><path class="cls-4" d="M33.16,35.4v19a.45.45,0,0,0,.47.43H60a.45.45,0,0,0,.47-.43v-19A.45.45,0,0,0,60,35H33.63A.45.45,0,0,0,33.16,35.4Zm.94.43H59.56V54H34.1Z"/><path class="cls-4" d="M55.59,42.14A2.64,2.64,0,1,0,53,44.54,2.53,2.53,0,0,0,55.59,42.14Zm-.94,0A1.69,1.69,0,1,1,53,40.59,1.62,1.62,0,0,1,54.65,42.14Z"/><path class="cls-4" d="M57.56,52.12a.41.41,0,0,0,0-.61l-8-6.48a.5.5,0,0,0-.65,0L46.61,47.1,42,42.46a.49.49,0,0,0-.33-.14.52.52,0,0,0-.34.11l-5.66,4.76a.41.41,0,0,0,0,.61.5.5,0,0,0,.67,0l5.31-4.46,4.33,4.35-2.27,2.08a.41.41,0,0,0,0,.61.5.5,0,0,0,.67,0L49.2,46l7.69,6.21a.5.5,0,0,0,.31.11A.48.48,0,0,0,57.56,52.12Z"/></g></g><path class="cls-8" d="M15,59.52a.9.9,0,0,0,.9.9H64.13a.9.9,0,0,0,.9-.9h0a.9.9,0,0,0-.9-.9H15.9a.9.9,0,0,0-.9.9Z"/><path class="cls-8" d="M15,65.54a.92.92,0,0,0,.92.92H73.14a.92.92,0,0,0,.92-.92h0a.92.92,0,0,0-.92-.92H15.92a.92.92,0,0,0-.92.92Z"/><path class="cls-8" d="M15,71.94a.84.84,0,0,0,.84.84H54.92a.84.84,0,0,0,.84-.84h0a.84.84,0,0,0-.84-.84H15.84a.84.84,0,0,0-.84.84Z"/></svg>