<?xml version="1.0" encoding="utf-8"?>
<!-- Generator: Adobe Illustrator 21.0.0, SVG Export Plug-In . SVG Version: 6.00 Build 0)  -->
<svg version="1.1" id="gray-logo" xmlns="http://www.w3.org/2000/svg" xmlns:xlink="http://www.w3.org/1999/xlink" x="0px" y="0px"
	 viewBox="0 0 44 47" style="enable-background:new 0 0 44 47;" xml:space="preserve">
<path d="M42.4,13.5L26.1,4.1c-0.7-0.4-1.9-0.4-2.7,0L23,4.3c0,0.1,0.1,0.2,0.1,0.3v5.6c0,0.3-0.3,0.6-0.6,0.6h-5.6
	c-0.3,0-0.6-0.3-0.6-0.6v-2l-1.2,0.7V15c0,0.4-0.3,0.7-0.7,0.7H8.2c-0.4,0-0.7-0.3-0.7-0.7v-1.8l-0.4,0.2c-0.7,0.4-1.3,1.5-1.3,2.3
	l0,2.8h3.4c0.3,0,0.6,0.3,0.6,0.6v5.3c0,0.3-0.3,0.6-0.6,0.6H5.7l0,9.5c0,0.8,0.6,1.9,1.3,2.3l16.3,9.5c0.7,0.4,1.9,0.4,2.7,0
	L42.4,37c0.7-0.4,1.3-1.5,1.3-2.3l0-18.8C43.7,15,43.1,14,42.4,13.5z M34.5,30.7l-9.6,5.8L15.1,31l-0.2-11.2l9.6-5.8l9.1,5.1
	l-1.4,2.5l-7.7-4.3l-6.8,4.1l0.1,7.9l6.9,3.9l6.8-4.1V28l-6.1-0.1l0.1-2.9l8.9,0.2L34.5,30.7L34.5,30.7z"/>
<path d="M5.9,11.8c0,0.1-0.1,0.2-0.2,0.2H3.8c-0.1,0-0.2-0.1-0.2-0.2V10c0-0.1,0.1-0.2,0.2-0.2h1.8c0.1,0,0.2,0.1,0.2,0.2V11.8z"/>
<path d="M4,17.1c0,0.2-0.2,0.3-0.3,0.3h-3c-0.2,0-0.3-0.1-0.3-0.3v-3c0-0.2,0.1-0.3,0.3-0.3h3c0.2,0,0.3,0.1,0.3,0.3V17.1z"/>
<rect x="8.8" y="9.4" width="5.2" height="5.2"/>
<rect x="17.3" y="5.1" width="4.8" height="4.8"/>
<path d="M9.3,7.3c0,0.2-0.1,0.3-0.3,0.3H6c-0.2,0-0.3-0.1-0.3-0.3V4.4c0-0.2,0.1-0.3,0.3-0.3h2.9c0.2,0,0.3,0.1,0.3,0.3V7.3z"/>
<path d="M15.3,6c0,0.2-0.1,0.3-0.3,0.3h-2.9c-0.2,0-0.3-0.1-0.3-0.3V3.1c0-0.2,0.1-0.3,0.3-0.3H15c0.2,0,0.3,0.1,0.3,0.3V6z"/>
<path d="M19.7,2.9c0,0.1-0.1,0.3-0.3,0.3H17c-0.2,0-0.3-0.1-0.3-0.3V0.5c0-0.1,0.1-0.3,0.3-0.3h2.5c0.1,0,0.3,0.1,0.3,0.3V2.9z"/>
<rect x="4.2" y="19.7" width="4.5" height="4.5"/>
</svg>
