<svg version="1.1" id="Layer_1" xmlns="http://www.w3.org/2000/svg" xmlns:xlink="http://www.w3.org/1999/xlink" x="0px" y="0px"
     width="39.039px" height="42.75px" viewBox="0 0 39.039 42.75" enable-background="new 0 0 39.039 42.75" xml:space="preserve">
<linearGradient id="SVGID_1_" gradientUnits="userSpaceOnUse" x1="5.9473" y1="14.0264" x2="38.3915" y2="32.2543">
    <stop  offset="0.39" style="stop-color:#F3903F"/>
    <stop  offset="0.86" style="stop-color:#ED683C"/>
</linearGradient>
<path fill="url(#SVGID_1_)" d="M37.84,12.485L23.176,3.98c-0.661-0.383-1.741-0.385-2.403-0.005l-0.394,0.227
    c0.039,0.077,0.063,0.162,0.063,0.255v5.008c0,0.308-0.25,0.556-0.556,0.556h-5.008c-0.307,0-0.557-0.249-0.557-0.556V7.684
    l-1.08,0.621v5.537c0,0.343-0.278,0.621-0.62,0.621H7.033c-0.342,0-0.621-0.278-0.621-0.621v-1.613l-0.336,0.194
    c-0.662,0.38-1.204,1.315-1.207,2.079L4.865,17h3.076c0.296,0,0.536,0.239,0.536,0.535v4.813c0,0.297-0.24,0.535-0.536,0.535H4.853
    l-0.016,8.57c-0.001,0.762,0.537,1.701,1.197,2.082L20.7,42.04c0.659,0.385,1.741,0.387,2.401,0.006l14.698-8.445
    c0.661-0.381,1.205-1.318,1.205-2.078l0.034-16.954C39.039,13.805,38.5,12.868,37.84,12.485z"/>
<g id="G_1_">
    <polyline fill="none" stroke="#FFFFFF" stroke-width="2" stroke-miterlimit="10" points="29.34,18.583 21.803,14.385 
        14.399,18.814 14.534,27.442 22.072,31.64 29.474,27.21 29.474,24.243 22.72,24.108    "/>
</g>
<path fill="#F48132" d="M4.96,10.913c0,0.1-0.082,0.181-0.181,0.181H3.146c-0.1,0-0.182-0.081-0.182-0.181V9.279
    c0-0.1,0.082-0.181,0.182-0.181h1.634c0.099,0,0.181,0.081,0.181,0.181V10.913z"/>
<path fill="#F48132" d="M3.324,15.73c0,0.167-0.136,0.302-0.302,0.302H0.302C0.136,16.033,0,15.897,0,15.73v-2.719
    c0-0.167,0.136-0.302,0.302-0.302h2.721c0.166,0,0.302,0.136,0.302,0.302V15.73z"/>
<rect x="7.591" y="8.804" fill="#F48132" width="4.683" height="4.683"/>
<rect x="15.289" y="4.924" fill="#F48132" width="4.339" height="4.339"/>
<path fill="#F48132" d="M8.016,6.861c0,0.162-0.13,0.292-0.292,0.292H5.103c-0.161,0-0.291-0.13-0.291-0.292V4.24
    c0-0.162,0.13-0.292,0.291-0.292h2.621c0.161,0,0.292,0.13,0.292,0.292V6.861z"/>
<path fill="#F48132" d="M13.45,5.734c0,0.161-0.131,0.292-0.292,0.292h-2.623c-0.16,0-0.29-0.131-0.29-0.292V3.113
    c0-0.161,0.129-0.292,0.29-0.292h2.623c0.161,0,0.292,0.13,0.292,0.292V5.734z"/>
<path fill="#F48132" d="M17.452,2.955c0,0.136-0.11,0.247-0.246,0.247h-2.21c-0.135,0-0.245-0.111-0.245-0.247v-2.21
    c0-0.135,0.11-0.245,0.245-0.245h2.21c0.136,0,0.246,0.11,0.246,0.245V2.955z"/>
<rect x="3.42" y="18.018" fill="#F48132" width="4.091" height="4.092"/>
</svg>