<?xml version="1.0" encoding="utf-8"?>
<!-- Generator: Adobe Illustrator 16.0.0, SVG Export Plug-In . SVG Version: 6.00 Build 0)  -->
<!DOCTYPE svg PUBLIC "-//W3C//DTD SVG 1.1//EN" "http://www.w3.org/Graphics/SVG/1.1/DTD/svg11.dtd">
<svg version="1.1" id="gray-logo" xmlns="http://www.w3.org/2000/svg" xmlns:xlink="http://www.w3.org/1999/xlink" x="0px" y="0px"
	 width="44px" height="47.042px" viewBox="0 0 44 47.042" enable-background="new 0 0 44 47.042" xml:space="preserve">
<path fill="#FFFFFF" d="M42.397,13.536l-16.293-9.45c-0.732-0.424-1.935-0.427-2.667-0.006l-0.44,0.252
	c0.045,0.085,0.071,0.182,0.071,0.284v5.565c0,0.341-0.275,0.616-0.617,0.616h-5.565c-0.341,0-0.619-0.275-0.619-0.616V8.2
	l-1.199,0.69v6.151c0,0.382-0.31,0.69-0.689,0.69h-6.21c-0.38,0-0.688-0.309-0.688-0.69V13.25l-0.376,0.216
	c-0.734,0.422-1.338,1.461-1.339,2.309L5.76,18.553h3.42c0.327,0,0.593,0.265,0.593,0.594v5.348c0,0.329-0.266,0.596-0.593,0.596
	H5.748l-0.019,9.521c-0.001,0.849,0.597,1.89,1.33,2.313l16.295,9.452c0.732,0.424,1.935,0.428,2.669,0.005l16.332-9.388
	c0.732-0.421,1.336-1.461,1.337-2.311l0.039-18.834C43.732,15.003,43.134,13.961,42.397,13.536z M34.535,30.71l-9.631,5.758
	L15.086,31l-0.175-11.235l9.643-5.771l9.1,5.067l-1.393,2.499l-7.657-4.263l-6.807,4.074l0.122,7.935l6.933,3.86l6.82-4.08v-1.083
	l-6.103-0.122l0.059-2.861l8.906,0.179V30.71z"/>
<path fill="#FFFFFF" d="M5.866,11.788c0,0.111-0.09,0.203-0.201,0.203H3.849c-0.11,0-0.202-0.092-0.202-0.203V9.974
	c0-0.113,0.091-0.203,0.202-0.203h1.816c0.111,0,0.201,0.09,0.201,0.203V11.788z"/>
<path fill="#FFFFFF" d="M4.048,17.141c0,0.187-0.15,0.336-0.336,0.336H0.691c-0.187,0-0.336-0.149-0.336-0.336v-3.022
	c0-0.184,0.149-0.334,0.336-0.334h3.021c0.186,0,0.336,0.15,0.336,0.334V17.141z"/>
<rect x="8.79" y="9.445" fill="#FFFFFF" width="5.202" height="5.202"/>
<rect x="17.342" y="5.137" fill="#FFFFFF" width="4.82" height="4.819"/>
<path fill="#FFFFFF" d="M9.261,7.286c0,0.179-0.145,0.324-0.324,0.324H6.025C5.847,7.61,5.7,7.465,5.7,7.286V4.375
	c0-0.178,0.146-0.325,0.325-0.325h2.912c0.179,0,0.324,0.146,0.324,0.325V7.286z"/>
<path fill="#FFFFFF" d="M15.298,6.035c0,0.178-0.145,0.323-0.323,0.323h-2.913c-0.179,0-0.324-0.145-0.324-0.323V3.121
	c0-0.177,0.146-0.323,0.324-0.323h2.913c0.178,0,0.323,0.146,0.323,0.323V6.035z"/>
<path fill="#FFFFFF" d="M19.745,2.948c0,0.149-0.122,0.271-0.272,0.271h-2.455c-0.152,0-0.274-0.123-0.274-0.271V0.491
	c0-0.149,0.122-0.272,0.274-0.272h2.455c0.15,0,0.272,0.124,0.272,0.272V2.948z"/>
<rect x="4.154" y="19.683" fill="#FFFFFF" width="4.546" height="4.546"/>
</svg>
