<?xml version="1.0" encoding="utf-8"?>
<!-- Generator: Adobe Illustrator 16.0.0, SVG Export Plug-In . SVG Version: 6.00 Build 0)  -->
<!DOCTYPE svg PUBLIC "-//W3C//DTD SVG 1.1//EN" "http://www.w3.org/Graphics/SVG/1.1/DTD/svg11.dtd">
<svg version="1.1" xmlns="http://www.w3.org/2000/svg" xmlns:xlink="http://www.w3.org/1999/xlink" x="0px" y="0px"
	 width="141.904px" height="188.668px" viewBox="0 0 141.904 188.668" enable-background="new 0 0 141.904 188.668"
	 xml:space="preserve">
<g id="template_4" display="none">
	<rect display="inline" fill="#E8E7E6" width="141.904" height="188.668"/>
	<g id="template_1_3_" display="inline" opacity="0.2">
		<path fill="#9F9E9E" d="M87.285,105.314c0,0.781-0.634,1.414-1.414,1.414H55.452c-0.781,0-1.415-0.633-1.415-1.414l0,0
			c0-0.781,0.634-1.415,1.415-1.415h30.419C86.651,103.899,87.285,104.533,87.285,105.314L87.285,105.314z"/>
		<path fill="#9F9E9E" d="M99.135,95.453c0,0.977-0.793,1.77-1.77,1.77H43.957c-0.977,0-1.769-0.793-1.769-1.77v-3.006
			c0-0.977,0.792-1.769,1.769-1.769h53.408c0.977,0,1.77,0.792,1.77,1.769V95.453z"/>
		<path fill="#9F9E9E" d="M108.124,121.037c0,0.733-0.594,1.327-1.326,1.327H35.645c-0.732,0-1.327-0.594-1.327-1.327l0,0
			c0-0.732,0.594-1.326,1.327-1.326h71.153C107.53,119.711,108.124,120.305,108.124,121.037L108.124,121.037z"/>
		<path fill="#9F9E9E" d="M114.785,130.922c0,0.749-0.606,1.355-1.355,1.355H29.013c-0.749,0-1.356-0.606-1.356-1.355l0,0
			c0-0.749,0.607-1.356,1.356-1.356h84.417C114.179,129.565,114.785,130.173,114.785,130.922L114.785,130.922z"/>
		<path fill="#9F9E9E" d="M101.286,140.126c0,0.684-0.554,1.237-1.238,1.237H42.395c-0.684,0-1.238-0.554-1.238-1.237l0,0
			c0-0.683,0.554-1.237,1.238-1.237h57.653C100.732,138.889,101.286,139.443,101.286,140.126L101.286,140.126z"/>
		<path fill="#9F9E9E" d="M108.184,149.39c0,0.717-0.581,1.298-1.298,1.298h-71.33c-0.716,0-1.296-0.581-1.296-1.298l0,0
			c0-0.716,0.58-1.297,1.296-1.297h71.33C107.603,148.093,108.184,148.674,108.184,149.39L108.184,149.39z"/>
	</g>
	<g id="Layer_2_copy" display="inline" opacity="0.1">
		<g id="Layer_5" opacity="0.6">
			<rect opacity="0.5" fill="#010101" width="141.904" height="56.93"/>
		</g>
		<rect x="51.545" y="39.099" fill="#787878" width="36.068" height="36.068"/>
	</g>
	<g display="inline" opacity="0.1">
		<path fill="#010101" d="M76.182,51.709H62.977c-0.13,0-0.236,0.105-0.236,0.236v10.375c0,0.13,0.106,0.236,0.236,0.236h13.205
			c0.131,0,0.236-0.105,0.236-0.236V51.945C76.418,51.815,76.313,51.709,76.182,51.709z M75.946,62.085H63.212v-9.904h12.734V62.085
			z"/>
		<path fill="#010101" d="M66.514,56.93c0.725,0,1.313-0.589,1.313-1.313s-0.589-1.313-1.313-1.313
			c-0.724,0-1.313,0.589-1.313,1.313S65.79,56.93,66.514,56.93z M66.514,54.775c0.464,0,0.842,0.377,0.842,0.841
			s-0.377,0.841-0.842,0.841c-0.464,0-0.841-0.377-0.841-0.841S66.05,54.775,66.514,54.775z"/>
		<path fill="#010101" d="M64.392,61.142c0.055,0,0.111-0.02,0.156-0.059l3.847-3.386l2.429,2.429c0.092,0.092,0.241,0.092,0.333,0
			s0.092-0.241,0-0.333l-1.133-1.134l2.165-2.371l2.655,2.435c0.096,0.088,0.245,0.082,0.333-0.015s0.081-0.246-0.015-0.333
			l-2.83-2.594c-0.046-0.042-0.107-0.063-0.17-0.062c-0.063,0.002-0.121,0.03-0.163,0.077l-2.31,2.529l-1.118-1.119
			c-0.088-0.088-0.229-0.092-0.323-0.01l-4.013,3.533c-0.098,0.086-0.107,0.235-0.021,0.333
			C64.261,61.115,64.326,61.142,64.392,61.142z"/>
	</g>
	<circle display="inline" fill="#9F9E9E" cx="54.915" cy="170.297" r="3.37"/>
	<circle display="inline" fill="#9F9E9E" cx="64.915" cy="170.297" r="3.37"/>
	<circle display="inline" fill="#9F9E9E" cx="75.916" cy="170.297" r="3.371"/>
	<circle display="inline" fill="#9F9E9E" cx="86.916" cy="170.297" r="3.371"/>
</g>
<g id="template_1">
	<rect fill="#E8E8E8" width="141.904" height="188.668"/>
	<g id="template_1_1_" opacity="0.2">
		<path fill="#9F9E9E" d="M87.285,115.314c0,0.781-0.634,1.414-1.414,1.414H55.452c-0.781,0-1.415-0.633-1.415-1.414l0,0
			c0-0.781,0.634-1.415,1.415-1.415h30.419C86.651,113.899,87.285,114.533,87.285,115.314L87.285,115.314z"/>
		<path fill="#9F9E9E" d="M99.135,105.453c0,0.977-0.793,1.77-1.77,1.77H43.957c-0.977,0-1.769-0.793-1.769-1.77v-3.006
			c0-0.977,0.792-1.769,1.769-1.769h53.408c0.977,0,1.77,0.792,1.77,1.769V105.453z"/>
		<path fill="#9F9E9E" d="M108.124,136.037c0,0.733-0.594,1.327-1.326,1.327H35.645c-0.732,0-1.327-0.594-1.327-1.327l0,0
			c0-0.732,0.594-1.326,1.327-1.326h71.153C107.53,134.711,108.124,135.305,108.124,136.037L108.124,136.037z"/>
		<path fill="#9F9E9E" d="M114.785,145.922c0,0.749-0.606,1.355-1.355,1.355H29.013c-0.749,0-1.356-0.606-1.356-1.355l0,0
			c0-0.749,0.607-1.356,1.356-1.356h84.417C114.179,144.565,114.785,145.173,114.785,145.922L114.785,145.922z"/>
		<path fill="#9F9E9E" d="M101.286,155.126c0,0.684-0.554,1.237-1.238,1.237H42.395c-0.684,0-1.238-0.554-1.238-1.237l0,0
			c0-0.683,0.554-1.237,1.238-1.237h57.653C100.732,153.889,101.286,154.443,101.286,155.126L101.286,155.126z"/>
		<path fill="#9F9E9E" d="M108.184,164.39c0,0.717-0.581,1.298-1.298,1.298h-71.33c-0.716,0-1.296-0.581-1.296-1.298l0,0
			c0-0.716,0.58-1.297,1.296-1.297h71.33C107.603,163.093,108.184,163.674,108.184,164.39L108.184,164.39z"/>
	</g>
	<rect x="34.456" y="12.01" fill="#D3D3D3" width="70.248" height="70.247"/>
	<g opacity="0.1">
		<path fill="#010101" d="M82.438,36.57H56.72c-0.253,0-0.459,0.205-0.459,0.459v20.208c0,0.254,0.206,0.459,0.459,0.459h25.719
			c0.254,0,0.459-0.206,0.459-0.459V37.029C82.897,36.775,82.692,36.57,82.438,36.57z M81.979,56.778h-24.8v-19.29h24.8V56.778z"/>
		<path fill="#010101" d="M63.609,46.737c1.411,0,2.558-1.147,2.558-2.558c0-1.411-1.147-2.558-2.558-2.558
			c-1.41,0-2.558,1.147-2.558,2.558C61.051,45.59,62.199,46.737,63.609,46.737z M63.609,42.541c0.904,0,1.639,0.735,1.639,1.639
			c0,0.903-0.735,1.639-1.639,1.639s-1.639-0.735-1.639-1.639S62.705,42.541,63.609,42.541z"/>
		<path fill="#010101" d="M59.476,54.941c0.107,0,0.216-0.038,0.303-0.115l7.492-6.596l4.731,4.73c0.18,0.18,0.47,0.18,0.649,0
			s0.18-0.47,0-0.649l-2.208-2.208l4.216-4.618l5.172,4.741c0.187,0.171,0.478,0.159,0.649-0.028
			c0.171-0.187,0.158-0.478-0.029-0.649l-5.511-5.052c-0.091-0.082-0.21-0.123-0.331-0.12c-0.122,0.005-0.236,0.059-0.319,0.149
			l-4.498,4.926l-2.178-2.178c-0.172-0.171-0.446-0.18-0.628-0.02l-7.815,6.881c-0.19,0.167-0.209,0.458-0.041,0.649
			C59.222,54.888,59.349,54.941,59.476,54.941z"/>
	</g>
</g>
</svg>
