<?xml version="1.0" encoding="utf-8"?>
<!-- Generator: Adobe Illustrator 16.0.0, SVG Export Plug-In . SVG Version: 6.00 Build 0)  -->
<!DOCTYPE svg PUBLIC "-//W3C//DTD SVG 1.1//EN" "http://www.w3.org/Graphics/SVG/1.1/DTD/svg11.dtd">
<svg version="1.1" id="template_1" xmlns="http://www.w3.org/2000/svg" xmlns:xlink="http://www.w3.org/1999/xlink" x="0px" y="0px"
	 width="185px" height="89px" viewBox="0 0 185 89" enable-background="new 0 0 185 89" xml:space="preserve">
<rect fill="#E8E8E8" width="185" height="89"/>
<g id="template_6">
	<rect x="15.167" y="11.833" fill="#D3D3D3" width="68.167" height="68.167"/>
	<g opacity="0.2">
		<path fill="#020202" d="M61.357,35.972H37.143c-0.238,0-0.432,0.193-0.432,0.433V55.43c0,0.239,0.194,0.432,0.432,0.432h24.214
			c0.238,0,0.433-0.191,0.433-0.432V36.405C61.79,36.165,61.596,35.972,61.357,35.972z M60.924,54.997H37.576v-18.16h23.349
			L60.924,54.997L60.924,54.997z"/>
		<path fill="#020202" d="M43.629,45.544c1.328,0,2.409-1.081,2.409-2.407c0-1.329-1.081-2.409-2.409-2.409
			c-1.327,0-2.408,1.08-2.408,2.408C41.221,44.464,42.302,45.544,43.629,45.544z M43.629,41.593c0.851,0,1.543,0.692,1.543,1.543
			c0,0.851-0.692,1.543-1.543,1.543s-1.543-0.692-1.543-1.542C42.085,42.287,42.778,41.593,43.629,41.593z"/>
		<path fill="#020202" d="M39.738,53.268c0.101,0,0.203-0.035,0.285-0.105l7.053-6.21l4.455,4.452c0.169,0.171,0.442,0.171,0.611,0
			c0.169-0.168,0.169-0.44,0-0.609l-2.078-2.078l3.97-4.348l4.868,4.464c0.177,0.161,0.451,0.147,0.611-0.026
			c0.161-0.177,0.149-0.449-0.027-0.611l-5.188-4.755c-0.084-0.077-0.197-0.115-0.311-0.113c-0.115,0.005-0.223,0.056-0.301,0.141
			l-4.235,4.638l-2.05-2.051c-0.162-0.162-0.421-0.17-0.592-0.019l-7.357,6.478c-0.18,0.158-0.197,0.432-0.039,0.611
			C39.499,53.219,39.618,53.268,39.738,53.268z"/>
	</g>
	<path opacity="0.2" fill="#9F9E9E" enable-background="new    " d="M154.814,33.252c0,0.586-0.477,1.061-1.063,1.061H96.893
		c-0.584,0-1.061-0.475-1.061-1.061l0,0c0-0.585,0.477-1.06,1.061-1.06h56.86C154.34,32.192,154.814,32.667,154.814,33.252
		L154.814,33.252z"/>
	<path opacity="0.2" fill="#9F9E9E" enable-background="new    " d="M165.461,40.348c0,0.599-0.484,1.083-1.082,1.083H96.916
		c-0.598,0-1.083-0.485-1.083-1.083l0,0c0-0.599,0.485-1.084,1.083-1.084h67.463C164.977,39.264,165.461,39.749,165.461,40.348
		L165.461,40.348z"/>
	<path opacity="0.2" fill="#9F9E9E" enable-background="new    " d="M143.885,47.9c0,0.545-0.441,0.988-0.988,0.988H96.82
		c-0.545,0-0.987-0.441-0.987-0.988l0,0c0-0.547,0.442-0.989,0.987-0.989h46.074C143.441,46.911,143.885,47.354,143.885,47.9
		L143.885,47.9z"/>
	<path opacity="0.2" fill="#9F9E9E" enable-background="new    " d="M154.861,55.5c0,0.573-0.465,1.037-1.037,1.037H96.822
		c-0.573,0-1.037-0.464-1.037-1.037l0,0c0-0.572,0.463-1.037,1.037-1.037h57.002C154.396,54.463,154.861,54.927,154.861,55.5
		L154.861,55.5z"/>
	<path opacity="0.2" fill="#9F9E9E" enable-background="new    " d="M153.732,18.244c0,0.977-0.793,1.769-1.771,1.769H98.555
		c-0.977,0-1.77-0.792-1.77-1.769v-3.006c0-0.977,0.793-1.769,1.77-1.769h53.408c0.977,0,1.77,0.792,1.77,1.769V18.244
		L153.732,18.244z"/>
	<path opacity="0.2" fill="#9F9E9E" enable-background="new    " d="M128.5,72.75c0,3.176-2.574,5.75-5.75,5.75h-21.167
		c-3.176,0-5.75-2.574-5.75-5.75l0,0c0-3.176,2.574-5.75,5.75-5.75h21.167C125.926,67,128.5,69.574,128.5,72.75L128.5,72.75z"/>
</g>
<g id="template_5" display="none">
	<path display="inline" opacity="0.2" fill="#9F9E9E" enable-background="new    " d="M134.768,26.744
		c0,0.977-0.793,1.769-1.771,1.769H79.59c-0.977,0-1.77-0.792-1.77-1.769v-3.006c0-0.977,0.793-1.769,1.77-1.769h53.408
		c0.977,0,1.77,0.792,1.77,1.769V26.744L134.768,26.744z"/>
	<path display="inline" opacity="0.2" fill="#9F9E9E" enable-background="new    " d="M13.785,49.931c0-3.176,2.574-5.75,5.75-5.75
		h21.167c3.176,0,5.75,2.574,5.75,5.75l0,0c0,3.176-2.574,5.75-5.75,5.75H19.535C16.359,55.681,13.785,53.107,13.785,49.931
		L13.785,49.931z"/>
	<path display="inline" opacity="0.2" fill="#9F9E9E" enable-background="new    " d="M168.25,48.848
		c0,0.599-0.281,1.083-0.627,1.083H78.551c-0.347,0-0.627-0.485-0.627-1.083l0,0c0-0.599,0.28-1.083,0.627-1.083h89.072
		C167.969,47.764,168.25,48.249,168.25,48.848L168.25,48.848z"/>
	<path display="inline" opacity="0.2" fill="#9F9E9E" enable-background="new    " d="M157.988,41.752
		c0,0.586-0.273,1.061-0.613,1.061H78.729c-0.338,0-0.612-0.475-0.612-1.061l0,0c0-0.585,0.274-1.061,0.612-1.061h78.646
		C157.715,40.691,157.988,41.167,157.988,41.752L157.988,41.752z"/>
	<path display="inline" opacity="0.2" fill="#9F9E9E" enable-background="new    " d="M147.15,56.4c0,0.546-0.258,0.989-0.572,0.989
		H78.393c-0.316,0-0.572-0.443-0.572-0.989l0,0c0-0.546,0.256-0.989,0.572-0.989h68.186C146.893,55.411,147.15,55.854,147.15,56.4
		L147.15,56.4z"/>
	<path opacity="0.2" fill="#9F9E9E" enable-background="new    " d="M108.025,64c0,0.573,0.27,1.037,0.6,1.037h58.928
		c0.332,0,0.6-0.464,0.6-1.037l0,0c0-0.573-0.268-1.037-0.6-1.037h-58.928C108.295,62.963,108.025,63.427,108.025,64L108.025,64z"/>
</g>
<g id="template_4_2_" display="none">
	<path display="inline" opacity="0.2" fill="#9F9E9E" enable-background="new    " d="M70.732,26.744
		c0,0.977-0.793,1.769-1.771,1.769H15.555c-0.977,0-1.77-0.792-1.77-1.769v-3.006c0-0.977,0.793-1.769,1.77-1.769h53.408
		c0.977,0,1.77,0.792,1.77,1.769V26.744L70.732,26.744z"/>
	<path display="inline" opacity="0.2" fill="#9F9E9E" enable-background="new    " d="M168.25,49.931c0,3.176-2.574,5.75-5.75,5.75
		h-21.167c-3.176,0-5.75-2.574-5.75-5.75l0,0c0-3.176,2.574-5.75,5.75-5.75H162.5C165.676,44.181,168.25,46.755,168.25,49.931
		L168.25,49.931z"/>
	<path display="inline" opacity="0.2" fill="#9F9E9E" enable-background="new    " d="M104.215,48.848
		c0,0.599-0.281,1.083-0.627,1.083H14.515c-0.346,0-0.626-0.485-0.626-1.083l0,0c0-0.599,0.28-1.083,0.626-1.083h89.073
		C103.934,47.764,104.215,48.249,104.215,48.848L104.215,48.848z"/>
	<path display="inline" opacity="0.2" fill="#9F9E9E" enable-background="new    " d="M93.953,41.752
		c0,0.586-0.273,1.061-0.613,1.061H14.694c-0.338,0-0.613-0.475-0.613-1.061l0,0c0-0.585,0.275-1.061,0.613-1.061H93.34
		C93.68,40.691,93.953,41.167,93.953,41.752L93.953,41.752z"/>
	<path display="inline" opacity="0.2" fill="#9F9E9E" enable-background="new    " d="M83.115,56.4c0,0.546-0.257,0.989-0.572,0.989
		H14.357c-0.316,0-0.572-0.443-0.572-0.989l0,0c0-0.546,0.256-0.989,0.572-0.989h68.186C82.858,55.411,83.115,55.854,83.115,56.4
		L83.115,56.4z"/>
	<path opacity="0.2" fill="#9F9E9E" enable-background="new    " d="M74.009,64c0,0.573-0.269,1.037-0.6,1.037H14.482
		c-0.331,0-0.6-0.464-0.6-1.037l0,0c0-0.573,0.269-1.037,0.6-1.037H73.41C73.741,62.963,74.009,63.427,74.009,64L74.009,64z"/>
</g>
<g id="template_3" display="none">
	<path display="inline" opacity="0.2" fill="#9F9E9E" enable-background="new    " d="M64.838,16.744v-3.006
		c0-0.977,0.793-1.769,1.77-1.769h53.408c0.977,0,1.77,0.792,1.77,1.769v3.006c0,0.977-0.793,1.769-1.77,1.769H66.609
		C65.631,18.513,64.838,17.721,64.838,16.744L64.838,16.744z"/>
	<path display="inline" opacity="0.2" fill="#9F9E9E" enable-background="new    " d="M76.07,71.25c0-3.176,2.574-5.75,5.75-5.75
		h21.167c3.176,0,5.75,2.574,5.75,5.75l0,0c0,3.176-2.574,5.75-5.75,5.75H81.82C78.645,77,76.07,74.426,76.07,71.25L76.07,71.25z"/>
	<path display="inline" opacity="0.2" fill="#9F9E9E" enable-background="new    " d="M15.865,38.848
		c0,0.599,0.485,1.083,1.084,1.083h154.083c0.599,0,1.083-0.485,1.083-1.083l0,0c0-0.599-0.484-1.083-1.083-1.083H16.949
		C16.351,37.764,15.865,38.249,15.865,38.848L15.865,38.848z"/>
	<path display="inline" opacity="0.2" fill="#9F9E9E" enable-background="new    " d="M24.906,31.752
		c0,0.586,0.475,1.061,1.061,1.061h136.047c0.586,0,1.061-0.475,1.061-1.061l0,0c0-0.585-0.475-1.061-1.061-1.061H25.967
		C25.381,30.691,24.906,31.167,24.906,31.752L24.906,31.752z"/>
	<path display="inline" opacity="0.2" fill="#9F9E9E" enable-background="new    " d="M34.025,46.4c0,0.546,0.442,0.989,0.988,0.989
		h117.952c0.546,0,0.989-0.443,0.989-0.989l0,0c0-0.546-0.443-0.989-0.989-0.989H35.014C34.468,45.411,34.025,45.854,34.025,46.4
		L34.025,46.4z"/>
	<path display="inline" opacity="0.2" fill="#9F9E9E" enable-background="new    " d="M41.984,54c0,0.573,0.464,1.037,1.037,1.037
		h101.938c0.572,0,1.037-0.464,1.037-1.037l0,0c0-0.573-0.465-1.037-1.037-1.037H43.021C42.448,52.963,41.984,53.427,41.984,54
		L41.984,54z"/>
</g>
<g id="template_2_1_" display="none">
	<path display="inline" opacity="0.2" fill="#9F9E9E" enable-background="new    " d="M110.838,16.744v-3.006
		c0-0.977,0.793-1.769,1.77-1.769h53.408c0.977,0,1.77,0.792,1.77,1.769v3.006c0,0.977-0.793,1.769-1.77,1.769h-53.406
		C111.631,18.513,110.838,17.721,110.838,16.744L110.838,16.744z"/>
	<path display="inline" opacity="0.2" fill="#9F9E9E" enable-background="new    " d="M136.07,71.25c0-3.176,2.574-5.75,5.75-5.75
		h21.167c3.176,0,5.75,2.574,5.75,5.75l0,0c0,3.176-2.574,5.75-5.75,5.75H141.82C138.645,77,136.07,74.426,136.07,71.25
		L136.07,71.25z"/>
	<path display="inline" opacity="0.2" fill="#9F9E9E" enable-background="new    " d="M12.57,38.848
		c0,0.599,0.485,1.083,1.084,1.083h154.083c0.599,0,1.083-0.485,1.083-1.083l0,0c0-0.599-0.484-1.083-1.083-1.083H13.654
		C13.056,37.764,12.57,38.249,12.57,38.848L12.57,38.848z"/>
	<path display="inline" opacity="0.2" fill="#9F9E9E" enable-background="new    " d="M30.32,31.752
		c0,0.586,0.475,1.061,1.061,1.061h136.047c0.586,0,1.061-0.475,1.061-1.061l0,0c0-0.585-0.475-1.061-1.061-1.061H31.381
		C30.795,30.691,30.32,31.167,30.32,31.752L30.32,31.752z"/>
	<path display="inline" opacity="0.2" fill="#9F9E9E" enable-background="new    " d="M49.07,46.4c0,0.546,0.442,0.989,0.988,0.989
		h117.952c0.546,0,0.989-0.443,0.989-0.989l0,0c0-0.546-0.443-0.989-0.989-0.989H50.059C49.513,45.411,49.07,45.854,49.07,46.4
		L49.07,46.4z"/>
	<path display="inline" opacity="0.2" fill="#9F9E9E" enable-background="new    " d="M64.82,54c0,0.573,0.464,1.037,1.037,1.037
		h101.938c0.572,0,1.037-0.464,1.037-1.037l0,0c0-0.573-0.465-1.037-1.037-1.037H65.857C65.284,52.963,64.82,53.427,64.82,54
		L64.82,54z"/>
</g>
<g id="template_1_1_" display="none">
	<path display="inline" opacity="0.2" fill="#9F9E9E" enable-background="new    " d="M70.732,16.744
		c0,0.977-0.793,1.769-1.771,1.769H15.555c-0.977,0-1.77-0.792-1.77-1.769v-3.006c0-0.977,0.793-1.769,1.77-1.769h53.408
		c0.977,0,1.77,0.792,1.77,1.769V16.744L70.732,16.744z"/>
	<path display="inline" opacity="0.2" fill="#9F9E9E" enable-background="new    " d="M45.5,71.25c0,3.176-2.574,5.75-5.75,5.75
		H18.583c-3.176,0-5.75-2.574-5.75-5.75l0,0c0-3.176,2.574-5.75,5.75-5.75H39.75C42.926,65.5,45.5,68.074,45.5,71.25L45.5,71.25z"/>
	<path display="inline" opacity="0.2" fill="#9F9E9E" enable-background="new    " d="M169,38.848c0,0.599-0.485,1.083-1.084,1.083
		H13.833c-0.599,0-1.083-0.485-1.083-1.083l0,0c0-0.599,0.485-1.083,1.083-1.083h154.083C168.515,37.764,169,38.249,169,38.848
		L169,38.848z"/>
	<path display="inline" opacity="0.2" fill="#9F9E9E" enable-background="new    " d="M151.25,31.752
		c0,0.586-0.475,1.061-1.061,1.061H14.143c-0.585,0-1.061-0.475-1.061-1.061l0,0c0-0.585,0.475-1.061,1.061-1.061h136.047
		C150.775,30.691,151.25,31.167,151.25,31.752L151.25,31.752z"/>
	<path display="inline" opacity="0.2" fill="#9F9E9E" enable-background="new    " d="M132.5,46.4c0,0.546-0.442,0.989-0.988,0.989
		H13.56c-0.546,0-0.989-0.443-0.989-0.989l0,0c0-0.546,0.443-0.989,0.989-0.989h117.952C132.058,45.411,132.5,45.854,132.5,46.4
		L132.5,46.4z"/>
	<path display="inline" opacity="0.2" fill="#9F9E9E" enable-background="new    " d="M116.75,54c0,0.573-0.464,1.037-1.037,1.037
		H13.775c-0.573,0-1.037-0.464-1.037-1.037l0,0c0-0.573,0.464-1.037,1.037-1.037h101.938C116.286,52.963,116.75,53.427,116.75,54
		L116.75,54z"/>
</g>
</svg>
