<?xml version="1.0" encoding="utf-8"?>
<!-- Generator: Adobe Illustrator 16.0.0, SVG Export Plug-In . SVG Version: 6.00 Build 0)  -->
<!DOCTYPE svg PUBLIC "-//W3C//DTD SVG 1.1//EN" "http://www.w3.org/Graphics/SVG/1.1/DTD/svg11.dtd">
<svg version="1.1" id="template_1" xmlns="http://www.w3.org/2000/svg" xmlns:xlink="http://www.w3.org/1999/xlink" x="0px" y="0px"
	 width="185px" height="89px" viewBox="0 0 185 89" enable-background="new 0 0 185 89" xml:space="preserve">
<rect fill="#E8E8E8" width="185" height="89"/>
<path opacity="0.2" fill="#9F9E9E" enable-background="new    " d="M70.732,16.744c0,0.977-0.793,1.769-1.771,1.769H15.555
	c-0.977,0-1.77-0.792-1.77-1.769v-3.006c0-0.977,0.793-1.769,1.77-1.769h53.408c0.977,0,1.77,0.792,1.77,1.769V16.744L70.732,16.744
	z"/>
<path opacity="0.2" fill="#9F9E9E" enable-background="new    " d="M45.5,71.25c0,3.176-2.574,5.75-5.75,5.75H18.583
	c-3.176,0-5.75-2.574-5.75-5.75l0,0c0-3.176,2.574-5.75,5.75-5.75H39.75C42.926,65.5,45.5,68.074,45.5,71.25L45.5,71.25z"/>
<path opacity="0.2" fill="#9F9E9E" enable-background="new    " d="M169,38.848c0,0.599-0.485,1.083-1.084,1.083H13.833
	c-0.599,0-1.083-0.485-1.083-1.083l0,0c0-0.599,0.485-1.083,1.083-1.083h154.083C168.515,37.764,169,38.249,169,38.848L169,38.848z"
	/>
<path opacity="0.2" fill="#9F9E9E" enable-background="new    " d="M151.25,31.752c0,0.586-0.475,1.061-1.061,1.061H14.143
	c-0.585,0-1.061-0.475-1.061-1.061l0,0c0-0.585,0.475-1.061,1.061-1.061h136.047C150.775,30.691,151.25,31.167,151.25,31.752
	L151.25,31.752z"/>
<path opacity="0.2" fill="#9F9E9E" enable-background="new    " d="M132.5,46.4c0,0.546-0.442,0.989-0.988,0.989H13.56
	c-0.546,0-0.989-0.443-0.989-0.989l0,0c0-0.546,0.443-0.989,0.989-0.989h117.952C132.058,45.411,132.5,45.854,132.5,46.4L132.5,46.4
	z"/>
<path opacity="0.2" fill="#9F9E9E" enable-background="new    " d="M116.75,54c0,0.573-0.464,1.037-1.037,1.037H13.775
	c-0.573,0-1.037-0.464-1.037-1.037l0,0c0-0.573,0.464-1.037,1.037-1.037h101.938C116.286,52.963,116.75,53.427,116.75,54L116.75,54z
	"/>
</svg>
