<?xml version="1.0" encoding="utf-8"?>
<!-- Generator: Adobe Illustrator 16.0.0, SVG Export Plug-In . SVG Version: 6.00 Build 0)  -->
<!DOCTYPE svg PUBLIC "-//W3C//DTD SVG 1.1//EN" "http://www.w3.org/Graphics/SVG/1.1/DTD/svg11.dtd">
<svg version="1.1" id="template_1" xmlns="http://www.w3.org/2000/svg" xmlns:xlink="http://www.w3.org/1999/xlink" x="0px" y="0px"
	 width="185px" height="89px" viewBox="0 0 185 89" enable-background="new 0 0 185 89" xml:space="preserve">
<rect fill="#E8E8E8" width="185" height="89"/>
<g id="template_2">
	<path opacity="0.2" fill="#9F9E9E" enable-background="new    " d="M64.838,16.744v-3.006c0-0.977,0.793-1.769,1.77-1.769h53.408
		c0.977,0,1.77,0.792,1.77,1.769v3.006c0,0.977-0.793,1.769-1.77,1.769H66.609C65.631,18.513,64.838,17.721,64.838,16.744
		L64.838,16.744z"/>
	<path opacity="0.2" fill="#9F9E9E" enable-background="new    " d="M76.07,71.25c0-3.176,2.574-5.75,5.75-5.75h21.167
		c3.176,0,5.75,2.574,5.75,5.75l0,0c0,3.176-2.574,5.75-5.75,5.75H81.82C78.645,77,76.07,74.426,76.07,71.25L76.07,71.25z"/>
	<path opacity="0.2" fill="#9F9E9E" enable-background="new    " d="M15.865,38.848c0,0.599,0.485,1.083,1.084,1.083h154.083
		c0.599,0,1.083-0.485,1.083-1.083l0,0c0-0.599-0.484-1.083-1.083-1.083H16.949C16.351,37.764,15.865,38.249,15.865,38.848
		L15.865,38.848z"/>
	<path opacity="0.2" fill="#9F9E9E" enable-background="new    " d="M24.906,31.752c0,0.586,0.475,1.061,1.061,1.061h136.047
		c0.586,0,1.061-0.475,1.061-1.061l0,0c0-0.585-0.475-1.061-1.061-1.061H25.967C25.381,30.691,24.906,31.167,24.906,31.752
		L24.906,31.752z"/>
	<path opacity="0.2" fill="#9F9E9E" enable-background="new    " d="M34.025,46.4c0,0.546,0.442,0.989,0.988,0.989h117.952
		c0.546,0,0.989-0.443,0.989-0.989l0,0c0-0.546-0.443-0.989-0.989-0.989H35.014C34.468,45.411,34.025,45.854,34.025,46.4
		L34.025,46.4z"/>
	<path opacity="0.2" fill="#9F9E9E" enable-background="new    " d="M41.984,54c0,0.573,0.464,1.037,1.037,1.037h101.938
		c0.572,0,1.037-0.464,1.037-1.037l0,0c0-0.573-0.465-1.037-1.037-1.037H43.021C42.448,52.963,41.984,53.427,41.984,54L41.984,54z"
		/>
</g>
<g id="template_2_1_" display="none">
	<path display="inline" opacity="0.2" fill="#9F9E9E" enable-background="new    " d="M110.838,16.744v-3.006
		c0-0.977,0.793-1.769,1.77-1.769h53.408c0.977,0,1.77,0.792,1.77,1.769v3.006c0,0.977-0.793,1.769-1.77,1.769h-53.406
		C111.631,18.513,110.838,17.721,110.838,16.744L110.838,16.744z"/>
	<path display="inline" opacity="0.2" fill="#9F9E9E" enable-background="new    " d="M136.07,71.25c0-3.176,2.574-5.75,5.75-5.75
		h21.167c3.176,0,5.75,2.574,5.75,5.75l0,0c0,3.176-2.574,5.75-5.75,5.75H141.82C138.645,77,136.07,74.426,136.07,71.25
		L136.07,71.25z"/>
	<path display="inline" opacity="0.2" fill="#9F9E9E" enable-background="new    " d="M12.57,38.848
		c0,0.599,0.485,1.083,1.084,1.083h154.083c0.599,0,1.083-0.485,1.083-1.083l0,0c0-0.599-0.484-1.083-1.083-1.083H13.654
		C13.056,37.764,12.57,38.249,12.57,38.848L12.57,38.848z"/>
	<path display="inline" opacity="0.2" fill="#9F9E9E" enable-background="new    " d="M30.32,31.752
		c0,0.586,0.475,1.061,1.061,1.061h136.047c0.586,0,1.061-0.475,1.061-1.061l0,0c0-0.585-0.475-1.061-1.061-1.061H31.381
		C30.795,30.691,30.32,31.167,30.32,31.752L30.32,31.752z"/>
	<path display="inline" opacity="0.2" fill="#9F9E9E" enable-background="new    " d="M49.07,46.4c0,0.546,0.442,0.989,0.988,0.989
		h117.952c0.546,0,0.989-0.443,0.989-0.989l0,0c0-0.546-0.443-0.989-0.989-0.989H50.059C49.513,45.411,49.07,45.854,49.07,46.4
		L49.07,46.4z"/>
	<path display="inline" opacity="0.2" fill="#9F9E9E" enable-background="new    " d="M64.82,54c0,0.573,0.464,1.037,1.037,1.037
		h101.938c0.572,0,1.037-0.464,1.037-1.037l0,0c0-0.573-0.465-1.037-1.037-1.037H65.857C65.284,52.963,64.82,53.427,64.82,54
		L64.82,54z"/>
</g>
<g id="template_1_2_" display="none">
	<path display="inline" opacity="0.2" fill="#9F9E9E" enable-background="new    " d="M70.732,16.744
		c0,0.977-0.793,1.769-1.771,1.769H15.555c-0.977,0-1.77-0.792-1.77-1.769v-3.006c0-0.977,0.793-1.769,1.77-1.769h53.408
		c0.977,0,1.77,0.792,1.77,1.769V16.744L70.732,16.744z"/>
	<path display="inline" opacity="0.2" fill="#9F9E9E" enable-background="new    " d="M45.5,71.25c0,3.176-2.574,5.75-5.75,5.75
		H18.583c-3.176,0-5.75-2.574-5.75-5.75l0,0c0-3.176,2.574-5.75,5.75-5.75H39.75C42.926,65.5,45.5,68.074,45.5,71.25L45.5,71.25z"/>
	<path display="inline" opacity="0.2" fill="#9F9E9E" enable-background="new    " d="M169,38.848c0,0.599-0.485,1.083-1.084,1.083
		H13.833c-0.599,0-1.083-0.485-1.083-1.083l0,0c0-0.599,0.485-1.083,1.083-1.083h154.083C168.515,37.764,169,38.249,169,38.848
		L169,38.848z"/>
	<path display="inline" opacity="0.2" fill="#9F9E9E" enable-background="new    " d="M151.25,31.752
		c0,0.586-0.475,1.061-1.061,1.061H14.143c-0.585,0-1.061-0.475-1.061-1.061l0,0c0-0.585,0.475-1.061,1.061-1.061h136.047
		C150.775,30.691,151.25,31.167,151.25,31.752L151.25,31.752z"/>
	<path display="inline" opacity="0.2" fill="#9F9E9E" enable-background="new    " d="M132.5,46.4c0,0.546-0.442,0.989-0.988,0.989
		H13.56c-0.546,0-0.989-0.443-0.989-0.989l0,0c0-0.546,0.443-0.989,0.989-0.989h117.952C132.058,45.411,132.5,45.854,132.5,46.4
		L132.5,46.4z"/>
	<path display="inline" opacity="0.2" fill="#9F9E9E" enable-background="new    " d="M116.75,54c0,0.573-0.464,1.037-1.037,1.037
		H13.775c-0.573,0-1.037-0.464-1.037-1.037l0,0c0-0.573,0.464-1.037,1.037-1.037h101.938C116.286,52.963,116.75,53.427,116.75,54
		L116.75,54z"/>
</g>
</svg>
