<?xml version="1.0" encoding="utf-8"?>
<!-- Generator: Adobe Illustrator 16.0.0, SVG Export Plug-In . SVG Version: 6.00 Build 0)  -->
<!DOCTYPE svg PUBLIC "-//W3C//DTD SVG 1.1//EN" "http://www.w3.org/Graphics/SVG/1.1/DTD/svg11.dtd">
<svg version="1.1" id="Layer_1" xmlns="http://www.w3.org/2000/svg" xmlns:xlink="http://www.w3.org/1999/xlink" x="0px" y="0px"
	 width="141.904px" height="188.668px" viewBox="0 0 141.904 188.668" enable-background="new 0 0 141.904 188.668"
	 xml:space="preserve">
<rect fill="#E8E8E8" width="141.904" height="188.668"/>
<g id="template_3">
	<path opacity="0.2" fill="#9F9E9E" d="M73.135,53.453c0,0.977-0.793,1.77-1.77,1.77H17.957c-0.977,0-1.769-0.793-1.769-1.77v-3.006
		c0-0.977,0.792-1.769,1.769-1.769h53.408c0.977,0,1.77,0.792,1.77,1.769V53.453z"/>
	<path opacity="0.2" fill="#9F9E9E" d="M88.61,70.037c0,0.733-0.594,1.327-1.326,1.327H16.131c-0.732,0-1.327-0.594-1.327-1.327l0,0
		c0-0.732,0.594-1.326,1.327-1.326h71.153C88.017,68.711,88.61,69.305,88.61,70.037L88.61,70.037z"/>
	<path opacity="0.2" fill="#9F9E9E" d="M101.933,80.922c0,0.749-0.606,1.355-1.355,1.355H16.16c-0.749,0-1.356-0.606-1.356-1.355
		l0,0c0-0.749,0.607-1.356,1.356-1.356h84.417C101.326,79.565,101.933,80.173,101.933,80.922L101.933,80.922z"/>
	<path opacity="0.2" fill="#9F9E9E" d="M74.934,92.126c0,0.684-0.554,1.237-1.238,1.237H16.042c-0.684,0-1.238-0.554-1.238-1.237
		l0,0c0-0.683,0.554-1.237,1.238-1.237h57.653C74.38,90.889,74.934,91.443,74.934,92.126L74.934,92.126z"/>
	<path fill="#9B9A9A" d="M128.952,118.834c0,4.234-3.433,7.667-7.667,7.667H21.952c-4.234,0-7.667-3.433-7.667-7.667l0,0
		c0-4.234,3.433-7.666,7.667-7.666h99.333C125.52,111.168,128.952,114.6,128.952,118.834L128.952,118.834z"/>
	<path fill="#DDD9DA" d="M91.952,118.834c0,4.234-3.28,7.667-7.325,7.667H21.611c-4.046,0-7.326-3.433-7.326-7.667l0,0
		c0-4.234,3.28-7.666,7.326-7.666h63.016C88.672,111.168,91.952,114.6,91.952,118.834L91.952,118.834z"/>
</g>
<g id="template_2_1_" display="none">
	<path display="inline" opacity="0.2" fill="#9F9E9E" d="M73.135,96.453c0,0.977-0.793,1.77-1.77,1.77H17.957
		c-0.977,0-1.769-0.793-1.769-1.77v-3.006c0-0.977,0.792-1.769,1.769-1.769h53.408c0.977,0,1.77,0.792,1.77,1.769V96.453z"/>
	<path display="inline" opacity="0.2" fill="#9F9E9E" d="M88.61,113.037c0,0.733-0.594,1.327-1.326,1.327H16.131
		c-0.732,0-1.327-0.594-1.327-1.327l0,0c0-0.732,0.594-1.326,1.327-1.326h71.153C88.017,111.711,88.61,112.305,88.61,113.037
		L88.61,113.037z"/>
	<path display="inline" opacity="0.2" fill="#9F9E9E" d="M101.933,123.922c0,0.749-0.606,1.355-1.355,1.355H16.16
		c-0.749,0-1.356-0.606-1.356-1.355l0,0c0-0.749,0.607-1.356,1.356-1.356h84.417C101.326,122.565,101.933,123.173,101.933,123.922
		L101.933,123.922z"/>
	<path display="inline" opacity="0.2" fill="#9F9E9E" d="M74.934,135.126c0,0.684-0.554,1.237-1.238,1.237H16.042
		c-0.684,0-1.238-0.554-1.238-1.237l0,0c0-0.683,0.554-1.237,1.238-1.237h57.653C74.38,133.889,74.934,134.443,74.934,135.126
		L74.934,135.126z"/>
	<path fill="#9F9E9E" d="M108.331,185.39c0,0.717-0.581,1.298-1.298,1.298h-71.33c-0.716,0-1.296-0.581-1.296-1.298l0,0
		c0-0.716,0.58-1.297,1.296-1.297h71.33C107.75,184.093,108.331,184.674,108.331,185.39L108.331,185.39z"/>
	<path display="inline" fill="#9B9A9A" d="M128.952,58.834c0,4.234-3.433,7.667-7.667,7.667H21.952
		c-4.234,0-7.667-3.433-7.667-7.667l0,0c0-4.234,3.433-7.667,7.667-7.667h99.333C125.52,51.167,128.952,54.6,128.952,58.834
		L128.952,58.834z"/>
	<path display="inline" fill="#DDD9DA" d="M91.952,58.834c0,4.234-3.28,7.667-7.325,7.667H21.611c-4.046,0-7.326-3.433-7.326-7.667
		l0,0c0-4.234,3.28-7.667,7.326-7.667h63.016C88.672,51.167,91.952,54.6,91.952,58.834L91.952,58.834z"/>
</g>
<g id="template_1_2_" display="none">
	<path display="inline" opacity="0.2" fill="#9F9E9E" d="M99.135,128.453c0,0.977-0.793,1.77-1.77,1.77H43.957
		c-0.977,0-1.769-0.793-1.769-1.77v-3.006c0-0.977,0.792-1.769,1.769-1.769h53.408c0.977,0,1.77,0.792,1.77,1.769V128.453z"/>
	<path display="inline" opacity="0.2" fill="#9F9E9E" d="M107.977,145.037c0,0.733-0.594,1.327-1.326,1.327H35.498
		c-0.732,0-1.327-0.594-1.327-1.327l0,0c0-0.732,0.594-1.326,1.327-1.326h71.153C107.383,143.711,107.977,144.305,107.977,145.037
		L107.977,145.037z"/>
	<path display="inline" opacity="0.2" fill="#9F9E9E" d="M114.933,158.922c0,0.749-0.606,1.355-1.355,1.355H29.16
		c-0.749,0-1.356-0.606-1.356-1.355l0,0c0-0.749,0.607-1.356,1.356-1.356h84.417C114.326,157.565,114.933,158.173,114.933,158.922
		L114.933,158.922z"/>
	<path display="inline" opacity="0.2" fill="#9F9E9E" d="M101.139,172.126c0,0.684-0.554,1.237-1.238,1.237H42.247
		c-0.684,0-1.238-0.554-1.238-1.237l0,0c0-0.683,0.554-1.237,1.238-1.237H99.9C100.585,170.889,101.139,171.443,101.139,172.126
		L101.139,172.126z"/>
	<path fill="#9F9E9E" d="M108.331,185.39c0,0.717-0.581,1.298-1.298,1.298h-71.33c-0.716,0-1.296-0.581-1.296-1.298l0,0
		c0-0.716,0.58-1.297,1.296-1.297h71.33C107.75,184.093,108.331,184.674,108.331,185.39L108.331,185.39z"/>
	
		<text transform="matrix(1 0 0 1 84.4873 64.1987)" display="inline" opacity="0.2" font-family="'MyriadPro-Regular'" font-size="12.3796">%</text>
	
		<text transform="matrix(1 0 0 1 46.8267 64.1987)" display="inline" opacity="0.2" font-family="'MongolianBaiti'" font-size="37.1388">00</text>
	<path display="inline" fill="none" stroke="#8C8C8C" stroke-width="2" stroke-miterlimit="10" d="M69.188,15.833
		c20.251,0,36.667,16.417,36.667,36.667c0,20.251-16.416,36.667-36.667,36.667c-20.25,0-36.667-16.416-36.667-36.667
		c0-7.594,2.309-14.648,6.262-20.501"/>
</g>
</svg>
