<?xml version="1.0" encoding="utf-8"?>
<!-- Generator: Adobe Illustrator 16.0.0, SVG Export Plug-In . SVG Version: 6.00 Build 0)  -->
<!DOCTYPE svg PUBLIC "-//W3C//DTD SVG 1.1//EN" "http://www.w3.org/Graphics/SVG/1.1/DTD/svg11.dtd">
<svg version="1.1" id="Layer_1" xmlns="http://www.w3.org/2000/svg" xmlns:xlink="http://www.w3.org/1999/xlink" x="0px" y="0px"
	 width="141.904px" height="188.668px" viewBox="0 0 141.904 188.668" enable-background="new 0 0 141.904 188.668"
	 xml:space="preserve">
<rect fill="#E8E8E8" width="141.904" height="188.668"/>
<g id="template_1_1_" opacity="0.2">
	<path fill="#9F9E9E" d="M99.135,128.453c0,0.977-0.793,1.77-1.77,1.77H43.957c-0.977,0-1.769-0.793-1.769-1.77v-3.006
		c0-0.977,0.792-1.769,1.769-1.769h53.408c0.977,0,1.77,0.792,1.77,1.769V128.453z"/>
	<path fill="#9F9E9E" d="M107.977,145.037c0,0.733-0.594,1.327-1.326,1.327H35.498c-0.732,0-1.327-0.594-1.327-1.327l0,0
		c0-0.732,0.594-1.326,1.327-1.326h71.153C107.383,143.711,107.977,144.305,107.977,145.037L107.977,145.037z"/>
	<path fill="#9F9E9E" d="M114.933,158.922c0,0.749-0.606,1.355-1.355,1.355H29.16c-0.749,0-1.356-0.606-1.356-1.355l0,0
		c0-0.749,0.607-1.356,1.356-1.356h84.417C114.326,157.565,114.933,158.173,114.933,158.922L114.933,158.922z"/>
	<path fill="#9F9E9E" d="M101.139,172.126c0,0.684-0.554,1.237-1.238,1.237H42.247c-0.684,0-1.238-0.554-1.238-1.237l0,0
		c0-0.683,0.554-1.237,1.238-1.237H99.9C100.585,170.889,101.139,171.443,101.139,172.126L101.139,172.126z"/>
	<path display="none" fill="#9F9E9E" d="M108.331,185.39c0,0.717-0.581,1.298-1.298,1.298h-71.33c-0.716,0-1.296-0.581-1.296-1.298
		l0,0c0-0.716,0.58-1.297,1.296-1.297h71.33C107.75,184.093,108.331,184.674,108.331,185.39L108.331,185.39z"/>
	<text transform="matrix(1 0 0 1 84.4873 64.1987)" font-family="'MyriadPro-Regular'" font-size="12.3796">%</text>
	<text transform="matrix(1 0 0 1 46.8267 64.1987)" font-family="'MongolianBaiti'" font-size="37.1388">00</text>
</g>
<path fill="none" stroke="#8C8C8C" stroke-width="2" stroke-miterlimit="10" d="M69.188,15.833
	c20.251,0,36.667,16.417,36.667,36.667c0,20.251-16.416,36.667-36.667,36.667c-20.25,0-36.667-16.416-36.667-36.667
	c0-7.594,2.309-14.648,6.262-20.501"/>
</svg>
