<?xml version="1.0" encoding="utf-8"?>
<!-- Generator: Adobe Illustrator 16.0.0, SVG Export Plug-In . SVG Version: 6.00 Build 0)  -->
<!DOCTYPE svg PUBLIC "-//W3C//DTD SVG 1.1//EN" "http://www.w3.org/Graphics/SVG/1.1/DTD/svg11.dtd">
<svg version="1.1" xmlns="http://www.w3.org/2000/svg" xmlns:xlink="http://www.w3.org/1999/xlink" x="0px" y="0px" width="185px"
	 height="89px" viewBox="0 0 185 89" enable-background="new 0 0 185 89" xml:space="preserve">
<g id="countdown">
	<rect fill="#E8E8E8" width="185" height="89"/>
	<g id="template_1_2_">
		<g id="icon_group_5_">
			<g id="icon_22_">
				<g>
					<g>
						<g>
							<path fill="#898888" d="M28.184,38.261c-0.046-0.026-0.102-0.025-0.147,0.001l-2.69,1.59
								c-0.07,0.042-0.093,0.131-0.052,0.202c0.042,0.069,0.131,0.092,0.201,0.051l1.93-1.141l-3.595,3.73l-1.788-0.547l2.334-1.38
								c0.069-0.042,0.093-0.131,0.051-0.201c-0.041-0.07-0.131-0.093-0.201-0.052l-2.62,1.549c-0.05,0.03-0.078,0.086-0.071,0.144
								c0.007,0.058,0.048,0.106,0.104,0.123l2.135,0.653l0.942,1.715c0.001,0.002,0.002,0.003,0.003,0.004
								c0.016,0.026,0.039,0.048,0.069,0.06c0.018,0.008,0.038,0.012,0.057,0.012c0.038,0,0.075-0.015,0.103-0.042l1.083-1.059
								l2.038,0.624c0.014,0.004,0.029,0.006,0.043,0.006c0.031,0,0.062-0.01,0.087-0.029c0.038-0.027,0.06-0.071,0.06-0.118v-5.769
								C28.258,38.336,28.229,38.288,28.184,38.261z M24.724,43.075c-0.017,0.025-0.026,0.054-0.026,0.083v0.898l-0.643-1.171
								l2.846-2.953L24.724,43.075z M24.991,44.28v-0.923l0.719,0.22L24.991,44.28z M27.964,43.959l-2.884-0.882l2.884-4.164V43.959
								z"/>
						</g>
					</g>
					<g>
						<g>
							<path fill="#898888" d="M23.156,43.344c-0.057-0.057-0.15-0.057-0.208,0l-1.371,1.37c-0.057,0.057-0.057,0.15,0,0.208
								c0.029,0.028,0.066,0.043,0.104,0.043s0.075-0.015,0.104-0.043l1.37-1.371C23.213,43.495,23.213,43.402,23.156,43.344z"/>
						</g>
					</g>
					<g>
						<g>
							<path fill="#898888" d="M21.331,45.169c-0.058-0.057-0.15-0.057-0.208,0l-0.337,0.338c-0.057,0.057-0.057,0.15,0,0.208
								c0.028,0.028,0.066,0.043,0.104,0.043c0.037,0,0.075-0.015,0.104-0.043l0.337-0.338
								C21.388,45.32,21.388,45.227,21.331,45.169z"/>
						</g>
					</g>
					<g>
						<g>
							<path fill="#898888" d="M22.836,45.499c-0.028-0.027-0.065-0.043-0.104-0.043s-0.077,0.016-0.104,0.043
								c-0.028,0.027-0.043,0.065-0.043,0.104c0,0.039,0.015,0.076,0.043,0.104c0.027,0.028,0.065,0.043,0.104,0.043
								s0.076-0.015,0.104-0.043c0.027-0.027,0.042-0.065,0.042-0.104C22.879,45.563,22.863,45.526,22.836,45.499z"/>
						</g>
					</g>
					<g>
						<g>
							<path fill="#898888" d="M23.928,44.406c-0.057-0.058-0.15-0.058-0.208,0l-0.726,0.726c-0.058,0.057-0.058,0.15,0,0.208
								c0.028,0.029,0.066,0.043,0.104,0.043s0.075-0.015,0.104-0.043l0.726-0.726C23.986,44.557,23.986,44.464,23.928,44.406z"/>
						</g>
					</g>
					<g>
						<g>
							<path fill="#898888" d="M26.433,44.351c-0.057-0.057-0.15-0.057-0.208,0l-0.728,0.728c-0.058,0.057-0.058,0.15,0,0.208
								c0.028,0.028,0.066,0.043,0.104,0.043s0.075-0.015,0.104-0.043l0.728-0.728C26.491,44.501,26.491,44.408,26.433,44.351z"/>
						</g>
					</g>
					<g>
						<g>
							<path fill="#898888" d="M24.904,40.243C24.876,40.216,24.839,40.2,24.8,40.2c-0.039,0-0.077,0.016-0.104,0.043
								c-0.028,0.027-0.043,0.065-0.043,0.104c0,0.039,0.016,0.076,0.043,0.104c0.027,0.027,0.065,0.043,0.104,0.043
								c0.039,0,0.076-0.016,0.104-0.043c0.027-0.028,0.043-0.065,0.043-0.104C24.947,40.308,24.931,40.27,24.904,40.243z"/>
						</g>
					</g>
				</g>
			</g>
			<g id="icon_20_">
				<g>
					<g>
						<g>
							<path fill="#898888" d="M72.184,38.261c-0.046-0.026-0.102-0.025-0.147,0.001l-2.69,1.59
								c-0.07,0.042-0.093,0.131-0.052,0.202c0.042,0.069,0.131,0.092,0.201,0.051l1.93-1.141l-3.595,3.73l-1.788-0.547l2.334-1.38
								c0.069-0.042,0.093-0.131,0.051-0.201c-0.041-0.07-0.131-0.093-0.201-0.052l-2.62,1.549c-0.05,0.03-0.078,0.086-0.071,0.144
								c0.007,0.058,0.048,0.106,0.104,0.123l2.135,0.653l0.942,1.715c0.001,0.002,0.002,0.003,0.003,0.004
								c0.016,0.026,0.039,0.048,0.069,0.06c0.018,0.008,0.038,0.012,0.057,0.012c0.038,0,0.075-0.015,0.103-0.042l1.083-1.059
								l2.038,0.624c0.014,0.004,0.029,0.006,0.043,0.006c0.031,0,0.062-0.01,0.087-0.029c0.038-0.027,0.06-0.071,0.06-0.118v-5.769
								C72.258,38.336,72.229,38.288,72.184,38.261z M68.724,43.075c-0.017,0.025-0.026,0.054-0.026,0.083v0.898l-0.643-1.171
								l2.846-2.953L68.724,43.075z M68.991,44.28v-0.923l0.719,0.22L68.991,44.28z M71.964,43.959l-2.884-0.882l2.884-4.164V43.959
								z"/>
						</g>
					</g>
					<g>
						<g>
							<path fill="#898888" d="M67.156,43.344c-0.057-0.057-0.15-0.057-0.208,0l-1.371,1.37c-0.057,0.057-0.057,0.15,0,0.208
								c0.029,0.028,0.066,0.043,0.104,0.043s0.075-0.015,0.104-0.043l1.37-1.371C67.213,43.495,67.213,43.402,67.156,43.344z"/>
						</g>
					</g>
					<g>
						<g>
							<path fill="#898888" d="M65.331,45.169c-0.058-0.057-0.15-0.057-0.208,0l-0.337,0.338c-0.057,0.057-0.057,0.15,0,0.208
								c0.028,0.028,0.066,0.043,0.104,0.043c0.037,0,0.075-0.015,0.104-0.043l0.337-0.338
								C65.388,45.32,65.388,45.227,65.331,45.169z"/>
						</g>
					</g>
					<g>
						<g>
							<path fill="#898888" d="M66.836,45.499c-0.028-0.027-0.065-0.043-0.104-0.043s-0.077,0.016-0.104,0.043
								c-0.028,0.027-0.043,0.065-0.043,0.104c0,0.039,0.015,0.076,0.043,0.104c0.027,0.028,0.065,0.043,0.104,0.043
								s0.076-0.015,0.104-0.043c0.027-0.027,0.042-0.065,0.042-0.104C66.879,45.563,66.863,45.526,66.836,45.499z"/>
						</g>
					</g>
					<g>
						<g>
							<path fill="#898888" d="M67.928,44.406c-0.057-0.058-0.15-0.058-0.208,0l-0.726,0.726c-0.058,0.057-0.058,0.15,0,0.208
								c0.028,0.029,0.066,0.043,0.104,0.043s0.075-0.015,0.104-0.043l0.726-0.726C67.986,44.557,67.986,44.464,67.928,44.406z"/>
						</g>
					</g>
					<g>
						<g>
							<path fill="#898888" d="M70.433,44.351c-0.057-0.057-0.15-0.057-0.208,0l-0.728,0.728c-0.058,0.057-0.058,0.15,0,0.208
								c0.028,0.028,0.066,0.043,0.104,0.043s0.075-0.015,0.104-0.043l0.728-0.728C70.491,44.501,70.491,44.408,70.433,44.351z"/>
						</g>
					</g>
					<g>
						<g>
							<path fill="#898888" d="M68.904,40.243C68.876,40.216,68.839,40.2,68.8,40.2c-0.039,0-0.077,0.016-0.104,0.043
								c-0.028,0.027-0.043,0.065-0.043,0.104c0,0.039,0.016,0.076,0.043,0.104c0.027,0.027,0.065,0.043,0.104,0.043
								c0.039,0,0.076-0.016,0.104-0.043c0.027-0.028,0.043-0.065,0.043-0.104C68.947,40.308,68.931,40.27,68.904,40.243z"/>
						</g>
					</g>
				</g>
			</g>
			<g id="icon_18_">
				<g>
					<g>
						<g>
							<path fill="#898888" d="M114.184,38.261c-0.046-0.026-0.102-0.025-0.146,0.001l-2.69,1.59
								c-0.07,0.042-0.093,0.131-0.052,0.202c0.041,0.069,0.131,0.092,0.201,0.051l1.93-1.141l-3.596,3.73l-1.787-0.547l2.334-1.38
								c0.068-0.042,0.092-0.131,0.051-0.201s-0.131-0.093-0.201-0.052l-2.619,1.549c-0.051,0.03-0.078,0.086-0.072,0.144
								c0.008,0.058,0.049,0.106,0.104,0.123l2.135,0.653l0.943,1.715c0,0.002,0.002,0.003,0.002,0.004
								c0.016,0.026,0.039,0.048,0.069,0.06c0.019,0.008,0.038,0.012,0.057,0.012c0.038,0,0.075-0.015,0.103-0.042l1.083-1.059
								l2.038,0.624c0.014,0.004,0.028,0.006,0.043,0.006c0.031,0,0.061-0.01,0.087-0.029c0.038-0.027,0.06-0.071,0.06-0.118v-5.769
								C114.258,38.336,114.229,38.288,114.184,38.261z M110.725,43.075c-0.018,0.025-0.027,0.054-0.027,0.083v0.898l-0.643-1.171
								l2.846-2.953L110.725,43.075z M110.991,44.28v-0.923l0.72,0.22L110.991,44.28z M113.965,43.959l-2.885-0.882l2.885-4.164
								V43.959z"/>
						</g>
					</g>
					<g>
						<g>
							<path fill="#898888" d="M109.156,43.344c-0.058-0.057-0.15-0.057-0.208,0l-1.37,1.37c-0.058,0.057-0.058,0.15,0,0.208
								c0.028,0.028,0.066,0.043,0.104,0.043s0.075-0.015,0.104-0.043l1.371-1.371C109.213,43.495,109.213,43.402,109.156,43.344z"
								/>
						</g>
					</g>
					<g>
						<g>
							<path fill="#898888" d="M107.33,45.169c-0.057-0.057-0.15-0.057-0.207,0l-0.338,0.338c-0.057,0.057-0.057,0.15,0,0.208
								c0.028,0.028,0.066,0.043,0.104,0.043s0.076-0.015,0.104-0.043l0.337-0.338C107.388,45.32,107.388,45.227,107.33,45.169z"/>
						</g>
					</g>
					<g>
						<g>
							<path fill="#898888" d="M108.836,45.499c-0.027-0.027-0.064-0.043-0.104-0.043s-0.076,0.016-0.104,0.043
								s-0.043,0.065-0.043,0.104c0,0.039,0.016,0.076,0.043,0.104c0.027,0.028,0.064,0.043,0.104,0.043s0.076-0.015,0.104-0.043
								c0.027-0.027,0.043-0.065,0.043-0.104C108.879,45.563,108.863,45.526,108.836,45.499z"/>
						</g>
					</g>
					<g>
						<g>
							<path fill="#898888" d="M109.928,44.406c-0.057-0.058-0.15-0.058-0.207,0l-0.726,0.726c-0.058,0.057-0.058,0.15,0,0.208
								c0.028,0.029,0.065,0.043,0.104,0.043s0.075-0.015,0.104-0.043l0.725-0.726C109.986,44.557,109.986,44.464,109.928,44.406z"
								/>
						</g>
					</g>
					<g>
						<g>
							<path fill="#898888" d="M112.434,44.351c-0.058-0.057-0.15-0.057-0.208,0l-0.728,0.728c-0.058,0.057-0.058,0.15,0,0.208
								c0.028,0.028,0.066,0.043,0.104,0.043s0.075-0.015,0.104-0.043l0.729-0.728C112.49,44.501,112.49,44.408,112.434,44.351z"/>
						</g>
					</g>
					<g>
						<g>
							<path fill="#898888" d="M110.904,40.243c-0.028-0.027-0.065-0.043-0.104-0.043c-0.038,0-0.077,0.016-0.104,0.043
								c-0.028,0.027-0.044,0.065-0.044,0.104c0,0.039,0.016,0.076,0.044,0.104c0.026,0.027,0.065,0.043,0.104,0.043
								c0.039,0,0.076-0.016,0.104-0.043c0.026-0.028,0.043-0.065,0.043-0.104C110.947,40.308,110.931,40.27,110.904,40.243z"/>
						</g>
					</g>
				</g>
			</g>
			<g id="icon_16_">
				<g>
					<g>
						<g>
							<path fill="#898888" d="M158.184,38.261c-0.046-0.026-0.102-0.025-0.146,0.001l-2.69,1.59
								c-0.07,0.042-0.093,0.131-0.052,0.202c0.041,0.069,0.131,0.092,0.201,0.051l1.93-1.141l-3.596,3.73l-1.787-0.547l2.334-1.38
								c0.068-0.042,0.092-0.131,0.051-0.201s-0.131-0.093-0.201-0.052l-2.619,1.549c-0.051,0.03-0.078,0.086-0.072,0.144
								c0.008,0.058,0.049,0.106,0.104,0.123l2.135,0.653l0.943,1.715c0,0.002,0.002,0.003,0.002,0.004
								c0.016,0.026,0.039,0.048,0.069,0.06c0.019,0.008,0.038,0.012,0.057,0.012c0.038,0,0.075-0.015,0.103-0.042l1.083-1.059
								l2.038,0.624c0.014,0.004,0.028,0.006,0.043,0.006c0.031,0,0.061-0.01,0.087-0.029c0.038-0.027,0.06-0.071,0.06-0.118v-5.769
								C158.258,38.336,158.229,38.288,158.184,38.261z M154.725,43.075c-0.018,0.025-0.027,0.054-0.027,0.083v0.898l-0.643-1.171
								l2.846-2.953L154.725,43.075z M154.991,44.28v-0.923l0.72,0.22L154.991,44.28z M157.965,43.959l-2.885-0.882l2.885-4.164
								V43.959z"/>
						</g>
					</g>
					<g>
						<g>
							<path fill="#898888" d="M153.156,43.344c-0.058-0.057-0.15-0.057-0.208,0l-1.37,1.37c-0.058,0.057-0.058,0.15,0,0.208
								c0.028,0.028,0.066,0.043,0.104,0.043s0.075-0.015,0.104-0.043l1.371-1.371C153.213,43.495,153.213,43.402,153.156,43.344z"
								/>
						</g>
					</g>
					<g>
						<g>
							<path fill="#898888" d="M151.33,45.169c-0.057-0.057-0.15-0.057-0.207,0l-0.338,0.338c-0.057,0.057-0.057,0.15,0,0.208
								c0.028,0.028,0.066,0.043,0.104,0.043s0.076-0.015,0.104-0.043l0.337-0.338C151.388,45.32,151.388,45.227,151.33,45.169z"/>
						</g>
					</g>
					<g>
						<g>
							<path fill="#898888" d="M152.836,45.499c-0.027-0.027-0.064-0.043-0.104-0.043s-0.076,0.016-0.104,0.043
								s-0.043,0.065-0.043,0.104c0,0.039,0.016,0.076,0.043,0.104c0.027,0.028,0.064,0.043,0.104,0.043s0.076-0.015,0.104-0.043
								c0.027-0.027,0.043-0.065,0.043-0.104C152.879,45.563,152.863,45.526,152.836,45.499z"/>
						</g>
					</g>
					<g>
						<g>
							<path fill="#898888" d="M153.928,44.406c-0.057-0.058-0.15-0.058-0.207,0l-0.726,0.726c-0.058,0.057-0.058,0.15,0,0.208
								c0.028,0.029,0.065,0.043,0.104,0.043s0.075-0.015,0.104-0.043l0.725-0.726C153.986,44.557,153.986,44.464,153.928,44.406z"
								/>
						</g>
					</g>
					<g>
						<g>
							<path fill="#898888" d="M156.434,44.351c-0.058-0.057-0.15-0.057-0.208,0l-0.728,0.728c-0.058,0.057-0.058,0.15,0,0.208
								c0.028,0.028,0.066,0.043,0.104,0.043s0.075-0.015,0.104-0.043l0.729-0.728C156.49,44.501,156.49,44.408,156.434,44.351z"/>
						</g>
					</g>
					<g>
						<g>
							<path fill="#898888" d="M154.904,40.243c-0.028-0.027-0.065-0.043-0.104-0.043c-0.038,0-0.077,0.016-0.104,0.043
								c-0.028,0.027-0.044,0.065-0.044,0.104c0,0.039,0.016,0.076,0.044,0.104c0.026,0.027,0.065,0.043,0.104,0.043
								c0.039,0,0.076-0.016,0.104-0.043c0.026-0.028,0.043-0.065,0.043-0.104C154.947,40.308,154.931,40.27,154.904,40.243z"/>
						</g>
					</g>
				</g>
			</g>
		</g>
	</g>
</g>
<g id="Layer_2">
</g>
</svg>
