<?xml version="1.0" encoding="utf-8"?>
<!-- Generator: Adobe Illustrator 16.0.0, SVG Export Plug-In . SVG Version: 6.00 Build 0)  -->
<!DOCTYPE svg PUBLIC "-//W3C//DTD SVG 1.1//EN" "http://www.w3.org/Graphics/SVG/1.1/DTD/svg11.dtd">
<svg version="1.1" xmlns="http://www.w3.org/2000/svg" xmlns:xlink="http://www.w3.org/1999/xlink" x="0px" y="0px" width="185px"
	 height="89px" viewBox="0 0 185 89" enable-background="new 0 0 185 89" xml:space="preserve">
<g id="template6" display="none">
	<rect display="inline" fill="#E8E7E6" width="185" height="89"/>
	<rect x="106.666" y="10.833" display="inline" fill="#D3D3D3" width="68.168" height="68.167"/>
	<g display="inline" opacity="0.2">
		<path fill="#010101" d="M128.211,35.405v19.024c0,0.24,0.193,0.433,0.432,0.433h24.215c0.238,0,0.432-0.193,0.432-0.433V35.405
			c0-0.24-0.193-0.433-0.432-0.433h-24.215C128.404,34.972,128.211,35.165,128.211,35.405z M129.076,35.837h23.348v18.159h-23.348
			V35.837z"/>
		<path fill="#010101" d="M148.779,42.136c0-1.328-1.081-2.408-2.408-2.408c-1.328,0-2.408,1.08-2.408,2.409
			c0,1.327,1.08,2.407,2.408,2.407C147.698,44.544,148.779,43.464,148.779,42.136z M147.914,42.137c0,0.85-0.692,1.542-1.543,1.542
			c-0.852,0-1.543-0.693-1.543-1.543s0.691-1.543,1.543-1.543C147.222,40.593,147.914,41.287,147.914,42.137z"/>
		<path fill="#010101" d="M150.586,52.122c0.158-0.18,0.142-0.453-0.038-0.611l-7.357-6.478c-0.171-0.151-0.431-0.143-0.592,0.019
			l-2.05,2.051l-4.235-4.638c-0.077-0.085-0.187-0.135-0.301-0.141c-0.113-0.002-0.227,0.036-0.312,0.113l-5.188,4.756
			c-0.177,0.161-0.188,0.435-0.027,0.611c0.161,0.176,0.436,0.188,0.611,0.027l4.869-4.464l3.969,4.348l-2.078,2.078
			c-0.169,0.168-0.169,0.442,0,0.611c0.17,0.169,0.442,0.169,0.611,0l4.455-4.454l7.053,6.21c0.082,0.072,0.185,0.107,0.285,0.107
			C150.383,52.268,150.502,52.219,150.586,52.122z"/>
	</g>
	<path display="inline" opacity="0.2" fill="#9F9E9E" d="M91.718,32.252c0,0.586-0.475,1.061-1.061,1.061H33.796
		c-0.584,0-1.06-0.475-1.06-1.061l0,0c0-0.585,0.476-1.06,1.06-1.06h56.861C91.243,31.192,91.718,31.667,91.718,32.252
		L91.718,32.252z"/>
	<path display="inline" opacity="0.2" fill="#9F9E9E" d="M91.718,39.348c0,0.599-0.484,1.083-1.082,1.083H23.173
		c-0.598,0-1.083-0.485-1.083-1.083l0,0c0-0.599,0.485-1.084,1.083-1.084h67.463C91.233,38.264,91.718,38.749,91.718,39.348
		L91.718,39.348z"/>
	<path display="inline" opacity="0.2" fill="#9F9E9E" d="M91.718,46.9c0,0.546-0.442,0.989-0.989,0.989H44.654
		c-0.546,0-0.988-0.442-0.988-0.989l0,0c0-0.546,0.442-0.989,0.988-0.989h46.074C91.275,45.911,91.718,46.354,91.718,46.9
		L91.718,46.9z"/>
	<path display="inline" opacity="0.2" fill="#9F9E9E" d="M91.718,54.5c0,0.573-0.465,1.037-1.037,1.037H33.68
		c-0.574,0-1.037-0.464-1.037-1.037l0,0c0-0.572,0.463-1.037,1.037-1.037h57.001C91.253,53.463,91.718,53.927,91.718,54.5
		L91.718,54.5z"/>
	<path display="inline" opacity="0.2" fill="#9F9E9E" d="M91.718,17.244c0,0.977-0.793,1.769-1.77,1.769H36.54
		c-0.977,0-1.77-0.792-1.77-1.769v-3.006c0-0.977,0.793-1.769,1.77-1.769h53.408c0.977,0,1.77,0.792,1.77,1.769V17.244z"/>
	<path display="inline" opacity="0.2" fill="#9F9E9E" d="M91.718,71.75c0,3.176-2.574,5.75-5.75,5.75H64.801
		c-3.176,0-5.75-2.574-5.75-5.75l0,0c0-3.176,2.574-5.75,5.75-5.75h21.167C89.144,66,91.718,68.574,91.718,71.75L91.718,71.75z"/>
</g>
<g id="template_5" display="none">
	<rect display="inline" fill="#E8E7E6" width="185" height="89"/>
	<rect x="106.666" y="10.833" display="inline" fill="#D3D3D3" width="68.168" height="68.167"/>
	<g display="inline" opacity="0.2">
		<path fill="#010101" d="M128.211,35.405v19.024c0,0.24,0.193,0.433,0.432,0.433h24.215c0.238,0,0.432-0.193,0.432-0.433V35.405
			c0-0.24-0.193-0.433-0.432-0.433h-24.215C128.404,34.972,128.211,35.165,128.211,35.405z M129.076,35.837h23.348v18.159h-23.348
			V35.837z"/>
		<path fill="#010101" d="M148.779,42.136c0-1.328-1.081-2.408-2.408-2.408c-1.328,0-2.408,1.08-2.408,2.409
			c0,1.327,1.08,2.407,2.408,2.407C147.698,44.544,148.779,43.464,148.779,42.136z M147.914,42.137c0,0.85-0.692,1.542-1.543,1.542
			c-0.852,0-1.543-0.693-1.543-1.543s0.691-1.543,1.543-1.543C147.222,40.593,147.914,41.287,147.914,42.137z"/>
		<path fill="#010101" d="M150.586,52.122c0.158-0.18,0.142-0.453-0.038-0.611l-7.357-6.478c-0.171-0.151-0.431-0.143-0.592,0.019
			l-2.05,2.051l-4.235-4.638c-0.077-0.085-0.187-0.135-0.301-0.141c-0.113-0.002-0.227,0.036-0.312,0.113l-5.188,4.756
			c-0.177,0.161-0.188,0.435-0.027,0.611c0.161,0.176,0.436,0.188,0.611,0.027l4.869-4.464l3.969,4.348l-2.078,2.078
			c-0.169,0.168-0.169,0.442,0,0.611c0.17,0.169,0.442,0.169,0.611,0l4.455-4.454l7.053,6.21c0.082,0.072,0.185,0.107,0.285,0.107
			C150.383,52.268,150.502,52.219,150.586,52.122z"/>
	</g>
	<path display="inline" opacity="0.2" fill="#9F9E9E" d="M27.413,32.252c0,0.586,0.475,1.061,1.061,1.061h56.861
		c0.584,0,1.06-0.475,1.06-1.061l0,0c0-0.585-0.476-1.06-1.06-1.06H28.474C27.888,31.192,27.413,31.667,27.413,32.252L27.413,32.252
		z"/>
	<path display="inline" opacity="0.2" fill="#9F9E9E" d="M22.09,39.348c0,0.599,0.484,1.083,1.082,1.083h67.463
		c0.598,0,1.083-0.485,1.083-1.083l0,0c0-0.599-0.485-1.084-1.083-1.084H23.172C22.574,38.264,22.09,38.749,22.09,39.348
		L22.09,39.348z"/>
	<path display="inline" opacity="0.2" fill="#9F9E9E" d="M32.878,46.9c0,0.546,0.442,0.989,0.989,0.989h46.074
		c0.546,0,0.988-0.442,0.988-0.989l0,0c0-0.546-0.442-0.989-0.988-0.989H33.867C33.32,45.911,32.878,46.354,32.878,46.9L32.878,46.9
		z"/>
	<path display="inline" opacity="0.2" fill="#9F9E9E" d="M27.366,54.5c0,0.573,0.465,1.037,1.037,1.037h57.001
		c0.574,0,1.037-0.464,1.037-1.037l0,0c0-0.572-0.463-1.037-1.037-1.037H28.403C27.831,53.463,27.366,53.927,27.366,54.5
		L27.366,54.5z"/>
	<path display="inline" opacity="0.2" fill="#9F9E9E" d="M28.43,17.244c0,0.977,0.793,1.769,1.77,1.769h53.408
		c0.977,0,1.77-0.792,1.77-1.769v-3.006c0-0.977-0.793-1.769-1.77-1.769H30.199c-0.977,0-1.77,0.792-1.77,1.769V17.244z"/>
	<path display="inline" opacity="0.2" fill="#9F9E9E" d="M40.57,71.75c0,3.176,2.574,5.75,5.75,5.75h21.167
		c3.176,0,5.75-2.574,5.75-5.75l0,0c0-3.176-2.574-5.75-5.75-5.75H46.32C43.145,66,40.57,68.574,40.57,71.75L40.57,71.75z"/>
</g>
<g id="template4" display="none">
	<rect display="inline" fill="#E8E7E6" width="185" height="89"/>
	<rect x="106.666" y="10.833" display="inline" fill="#D3D3D3" width="68.168" height="68.167"/>
	<g display="inline" opacity="0.2">
		<path fill="#010101" d="M128.211,35.405v19.024c0,0.24,0.193,0.433,0.432,0.433h24.215c0.238,0,0.432-0.193,0.432-0.433V35.405
			c0-0.24-0.193-0.433-0.432-0.433h-24.215C128.404,34.972,128.211,35.165,128.211,35.405z M129.076,35.837h23.348v18.159h-23.348
			V35.837z"/>
		<path fill="#010101" d="M148.779,42.136c0-1.328-1.081-2.408-2.408-2.408c-1.328,0-2.408,1.08-2.408,2.409
			c0,1.327,1.08,2.407,2.408,2.407C147.698,44.544,148.779,43.464,148.779,42.136z M147.914,42.137c0,0.85-0.692,1.542-1.543,1.542
			c-0.852,0-1.543-0.693-1.543-1.543s0.691-1.543,1.543-1.543C147.222,40.593,147.914,41.287,147.914,42.137z"/>
		<path fill="#010101" d="M150.586,52.122c0.158-0.18,0.142-0.453-0.038-0.611l-7.357-6.478c-0.171-0.151-0.431-0.143-0.592,0.019
			l-2.05,2.051l-4.235-4.638c-0.077-0.085-0.187-0.135-0.301-0.141c-0.113-0.002-0.227,0.036-0.312,0.113l-5.188,4.756
			c-0.177,0.161-0.188,0.435-0.027,0.611c0.161,0.176,0.436,0.188,0.611,0.027l4.869-4.464l3.969,4.348l-2.078,2.078
			c-0.169,0.168-0.169,0.442,0,0.611c0.17,0.169,0.442,0.169,0.611,0l4.455-4.454l7.053,6.21c0.082,0.072,0.185,0.107,0.285,0.107
			C150.383,52.268,150.502,52.219,150.586,52.122z"/>
	</g>
	<path display="inline" opacity="0.2" fill="#9F9E9E" d="M83.568,32.252c0,0.586-0.475,1.061-1.061,1.061H25.646
		c-0.584,0-1.06-0.475-1.06-1.061l0,0c0-0.585,0.476-1.06,1.06-1.06h56.861C83.094,31.192,83.568,31.667,83.568,32.252
		L83.568,32.252z"/>
	<path display="inline" opacity="0.2" fill="#9F9E9E" d="M94.215,39.348c0,0.599-0.484,1.083-1.082,1.083H25.67
		c-0.598,0-1.083-0.485-1.083-1.083l0,0c0-0.599,0.485-1.084,1.083-1.084h67.463C93.73,38.264,94.215,38.749,94.215,39.348
		L94.215,39.348z"/>
	<path display="inline" opacity="0.2" fill="#9F9E9E" d="M72.639,46.9c0,0.546-0.442,0.989-0.989,0.989H25.575
		c-0.546,0-0.988-0.442-0.988-0.989l0,0c0-0.546,0.442-0.989,0.988-0.989h46.074C72.196,45.911,72.639,46.354,72.639,46.9
		L72.639,46.9z"/>
	<path display="inline" opacity="0.2" fill="#9F9E9E" d="M83.615,54.5c0,0.573-0.465,1.037-1.037,1.037H25.576
		c-0.573,0-1.037-0.464-1.037-1.037l0,0c0-0.572,0.464-1.037,1.037-1.037h57.002C83.15,53.463,83.615,53.927,83.615,54.5
		L83.615,54.5z"/>
	<path display="inline" opacity="0.2" fill="#9F9E9E" d="M82.486,17.244c0,0.977-0.793,1.769-1.77,1.769H27.309
		c-0.977,0-1.77-0.792-1.77-1.769v-3.006c0-0.977,0.793-1.769,1.77-1.769h53.408c0.977,0,1.77,0.792,1.77,1.769V17.244z"/>
	<path display="inline" opacity="0.2" fill="#9F9E9E" d="M57.254,71.75c0,3.176-2.574,5.75-5.75,5.75H30.337
		c-3.176,0-5.75-2.574-5.75-5.75l0,0c0-3.176,2.574-5.75,5.75-5.75h21.167C54.68,66,57.254,68.574,57.254,71.75L57.254,71.75z"/>
</g>
<g id="template_3" display="none">
	<rect display="inline" fill="#E8E7E6" width="185" height="89"/>
	<rect x="10.167" y="10.833" display="inline" fill="#D3D3D3" width="68.167" height="68.167"/>
	<g display="inline" opacity="0.2">
		<path fill="#010101" d="M56.357,34.972H32.143c-0.238,0-0.432,0.193-0.432,0.433v19.024c0,0.24,0.194,0.433,0.432,0.433h24.214
			c0.239,0,0.433-0.193,0.433-0.433V35.405C56.79,35.165,56.596,34.972,56.357,34.972z M55.924,53.997H32.576V35.837h23.349V53.997z
			"/>
		<path fill="#010101" d="M38.629,44.544c1.328,0,2.409-1.081,2.409-2.407c0-1.329-1.081-2.409-2.409-2.409
			c-1.327,0-2.408,1.08-2.408,2.408S37.302,44.544,38.629,44.544z M38.629,40.593c0.851,0,1.543,0.692,1.543,1.543
			s-0.692,1.543-1.543,1.543c-0.851,0-1.543-0.692-1.543-1.542C37.085,41.287,37.778,40.593,38.629,40.593z"/>
		<path fill="#010101" d="M34.738,52.268c0.101,0,0.203-0.036,0.285-0.107l7.053-6.21l4.455,4.454c0.169,0.169,0.442,0.169,0.611,0
			c0.169-0.169,0.169-0.442,0-0.611l-2.078-2.078l3.97-4.348l4.869,4.464c0.176,0.161,0.45,0.149,0.611-0.027
			c0.161-0.176,0.149-0.45-0.027-0.611l-5.188-4.756c-0.084-0.077-0.198-0.115-0.311-0.113c-0.115,0.005-0.223,0.056-0.301,0.141
			l-4.235,4.638l-2.05-2.051c-0.162-0.162-0.421-0.17-0.592-0.019l-7.357,6.478c-0.18,0.158-0.197,0.432-0.039,0.611
			C34.499,52.219,34.618,52.268,34.738,52.268z"/>
	</g>
	<path display="inline" opacity="0.2" fill="#9F9E9E" d="M162.91,32.252c0,0.586-0.475,1.061-1.061,1.061h-56.861
		c-0.584,0-1.06-0.475-1.06-1.061l0,0c0-0.585,0.476-1.06,1.06-1.06h56.861C162.436,31.192,162.91,31.667,162.91,32.252
		L162.91,32.252z"/>
	<path display="inline" opacity="0.2" fill="#9F9E9E" d="M162.91,39.348c0,0.599-0.484,1.083-1.082,1.083H94.365
		c-0.598,0-1.083-0.485-1.083-1.083l0,0c0-0.599,0.485-1.084,1.083-1.084h67.463C162.426,38.264,162.91,38.749,162.91,39.348
		L162.91,39.348z"/>
	<path display="inline" opacity="0.2" fill="#9F9E9E" d="M162.91,46.9c0,0.546-0.442,0.989-0.989,0.989h-46.074
		c-0.546,0-0.988-0.442-0.988-0.989l0,0c0-0.546,0.442-0.989,0.988-0.989h46.074C162.468,45.911,162.91,46.354,162.91,46.9
		L162.91,46.9z"/>
	<path display="inline" opacity="0.2" fill="#9F9E9E" d="M162.91,54.5c0,0.573-0.465,1.037-1.037,1.037h-57.001
		c-0.574,0-1.037-0.464-1.037-1.037l0,0c0-0.572,0.463-1.037,1.037-1.037h57.001C162.445,53.463,162.91,53.927,162.91,54.5
		L162.91,54.5z"/>
	<path display="inline" opacity="0.2" fill="#9F9E9E" d="M162.91,17.244c0,0.977-0.793,1.769-1.77,1.769h-53.408
		c-0.977,0-1.77-0.792-1.77-1.769v-3.006c0-0.977,0.793-1.769,1.77-1.769h53.408c0.977,0,1.77,0.792,1.77,1.769V17.244z"/>
	<path display="inline" opacity="0.2" fill="#9F9E9E" d="M162.91,71.75c0,3.176-2.574,5.75-5.75,5.75h-21.167
		c-3.176,0-5.75-2.574-5.75-5.75l0,0c0-3.176,2.574-5.75,5.75-5.75h21.167C160.336,66,162.91,68.574,162.91,71.75L162.91,71.75z"/>
</g>
<g id="template_2" display="none">
	<rect display="inline" fill="#E8E8E7" width="185" height="89"/>
	<rect x="10.167" y="10.833" display="inline" fill="#D3D3D3" width="68.167" height="68.167"/>
	<g display="inline" opacity="0.2">
		<path fill="#010101" d="M56.357,34.972H32.143c-0.238,0-0.432,0.193-0.432,0.433v19.024c0,0.24,0.194,0.433,0.432,0.433h24.214
			c0.239,0,0.433-0.193,0.433-0.433V35.405C56.79,35.165,56.596,34.972,56.357,34.972z M55.924,53.997H32.576V35.837h23.349V53.997z
			"/>
		<path fill="#010101" d="M38.629,44.544c1.328,0,2.409-1.081,2.409-2.407c0-1.329-1.081-2.409-2.409-2.409
			c-1.327,0-2.408,1.08-2.408,2.408S37.302,44.544,38.629,44.544z M38.629,40.593c0.851,0,1.543,0.692,1.543,1.543
			s-0.692,1.543-1.543,1.543c-0.851,0-1.543-0.692-1.543-1.542C37.085,41.287,37.778,40.593,38.629,40.593z"/>
		<path fill="#010101" d="M34.738,52.268c0.101,0,0.203-0.036,0.285-0.107l7.053-6.21l4.455,4.454c0.169,0.169,0.442,0.169,0.611,0
			c0.169-0.169,0.169-0.442,0-0.611l-2.078-2.078l3.97-4.348l4.869,4.464c0.176,0.161,0.45,0.149,0.611-0.027
			c0.161-0.176,0.149-0.45-0.027-0.611l-5.188-4.756c-0.084-0.077-0.198-0.115-0.311-0.113c-0.115,0.005-0.223,0.056-0.301,0.141
			l-4.235,4.638l-2.05-2.051c-0.162-0.162-0.421-0.17-0.592-0.019l-7.357,6.478c-0.18,0.158-0.197,0.432-0.039,0.611
			C34.499,52.219,34.618,52.268,34.738,52.268z"/>
	</g>
	<path display="inline" opacity="0.2" fill="#9F9E9E" d="M157.587,32.252c0,0.586-0.475,1.061-1.061,1.061H99.665
		c-0.584,0-1.06-0.475-1.06-1.061l0,0c0-0.585,0.476-1.06,1.06-1.06h56.861C157.112,31.192,157.587,31.667,157.587,32.252
		L157.587,32.252z"/>
	<path display="inline" opacity="0.2" fill="#9F9E9E" d="M162.91,39.348c0,0.599-0.484,1.083-1.082,1.083H94.365
		c-0.598,0-1.083-0.485-1.083-1.083l0,0c0-0.599,0.485-1.084,1.083-1.084h67.463C162.426,38.264,162.91,38.749,162.91,39.348
		L162.91,39.348z"/>
	<path display="inline" opacity="0.2" fill="#9F9E9E" d="M152.122,46.9c0,0.546-0.442,0.989-0.989,0.989h-46.074
		c-0.546,0-0.988-0.442-0.988-0.989l0,0c0-0.546,0.442-0.989,0.988-0.989h46.074C151.68,45.911,152.122,46.354,152.122,46.9
		L152.122,46.9z"/>
	<path display="inline" opacity="0.2" fill="#9F9E9E" d="M157.634,54.5c0,0.573-0.465,1.037-1.037,1.037H99.596
		c-0.574,0-1.037-0.464-1.037-1.037l0,0c0-0.572,0.463-1.037,1.037-1.037h57.001C157.169,53.463,157.634,53.927,157.634,54.5
		L157.634,54.5z"/>
	<path display="inline" opacity="0.2" fill="#9F9E9E" d="M156.57,17.244c0,0.977-0.793,1.769-1.77,1.769h-53.408
		c-0.977,0-1.77-0.792-1.77-1.769v-3.006c0-0.977,0.793-1.769,1.77-1.769h53.408c0.977,0,1.77,0.792,1.77,1.769V17.244z"/>
	<path display="inline" opacity="0.2" fill="#9F9E9E" d="M144.43,71.75c0,3.176-2.574,5.75-5.75,5.75h-21.167
		c-3.176,0-5.75-2.574-5.75-5.75l0,0c0-3.176,2.574-5.75,5.75-5.75h21.167C141.855,66,144.43,68.574,144.43,71.75L144.43,71.75z"/>
</g>
<g id="template_1">
	<rect fill="#E8E8E8" width="185" height="89"/>
	<rect x="3.522" y="4.146" fill="#D3D3D3" width="178.5" height="81.25"/>
	<g opacity="0.2">
		<path fill="#010101" d="M104.857,34.826H80.643c-0.238,0-0.432,0.193-0.432,0.433v19.024c0,0.24,0.194,0.433,0.432,0.433h24.214
			c0.238,0,0.432-0.193,0.432-0.433V35.259C105.289,35.019,105.096,34.826,104.857,34.826z M104.424,53.851H81.076V35.691h23.348
			V53.851z"/>
		<path fill="#010101" d="M87.129,44.398c1.328,0,2.408-1.081,2.408-2.407c0-1.329-1.08-2.409-2.408-2.409
			c-1.327,0-2.408,1.08-2.408,2.408S85.802,44.398,87.129,44.398z M87.129,40.447c0.852,0,1.543,0.692,1.543,1.543
			s-0.691,1.543-1.543,1.543c-0.851,0-1.543-0.692-1.543-1.542C85.586,41.141,86.278,40.447,87.129,40.447z"/>
		<path fill="#010101" d="M83.238,52.122c0.101,0,0.203-0.036,0.285-0.107l7.053-6.21l4.455,4.454c0.169,0.169,0.441,0.169,0.611,0
			c0.169-0.169,0.169-0.442,0-0.611l-2.078-2.078l3.969-4.348l4.869,4.464c0.176,0.161,0.45,0.149,0.611-0.027
			c0.161-0.176,0.149-0.45-0.027-0.611l-5.188-4.756c-0.085-0.077-0.198-0.115-0.312-0.113c-0.114,0.005-0.224,0.056-0.301,0.141
			l-4.235,4.638l-2.05-2.051c-0.161-0.162-0.421-0.17-0.592-0.019l-7.357,6.478c-0.18,0.158-0.197,0.432-0.039,0.611
			C82.999,52.073,83.118,52.122,83.238,52.122z"/>
	</g>
	<path opacity="0.2" fill="#9F9E9E" d="M79.814,45.252c0,0.586-0.475,1.061-1.061,1.061H21.893c-0.584,0-1.06-0.475-1.06-1.061l0,0
		c0-0.585,0.476-1.06,1.06-1.06h56.861C79.34,44.192,79.814,44.667,79.814,45.252L79.814,45.252z"/>
	<path opacity="0.2" fill="#9F9E9E" d="M90.461,52.348c0,0.599-0.484,1.083-1.082,1.083H21.916c-0.598,0-1.083-0.485-1.083-1.083
		l0,0c0-0.599,0.485-1.084,1.083-1.084h67.463C89.977,51.264,90.461,51.749,90.461,52.348L90.461,52.348z"/>
	<path opacity="0.2" fill="#9F9E9E" d="M68.885,59.9c0,0.546-0.442,0.989-0.989,0.989H21.821c-0.546,0-0.988-0.442-0.988-0.989l0,0
		c0-0.546,0.442-0.989,0.988-0.989h46.074C68.442,58.911,68.885,59.354,68.885,59.9L68.885,59.9z"/>
	<path display="none" opacity="0.2" fill="#9F9E9E" d="M69.861,54.5c0,0.573-0.465,1.037-1.037,1.037H11.822
		c-0.573,0-1.037-0.464-1.037-1.037l0,0c0-0.572,0.463-1.037,1.037-1.037h57.002C69.396,53.463,69.861,53.927,69.861,54.5
		L69.861,54.5z"/>
	<path opacity="0.2" fill="#9F9E9E" d="M78.732,36.244c0,0.977-0.793,1.769-1.77,1.769H23.555c-0.977,0-1.77-0.792-1.77-1.769
		v-3.006c0-0.977,0.793-1.769,1.77-1.769h53.408c0.977,0,1.77,0.792,1.77,1.769V36.244z"/>
	<path opacity="0.2" fill="#9F9E9E" d="M53.5,71.75c0,3.176-2.574,5.75-5.75,5.75H26.583c-3.176,0-5.75-2.574-5.75-5.75l0,0
		c0-3.176,2.574-5.75,5.75-5.75H47.75C50.926,66,53.5,68.574,53.5,71.75L53.5,71.75z"/>
</g>
<g id="Layer_7">
	<rect x="91.107" y="76" fill="#9F9E9E" width="3.332" height="3.332"/>
	<rect x="86.107" y="76" fill="#FDFDFE" width="3.332" height="3.332"/>
	<rect x="96.107" y="76" fill="#FDFDFE" width="3.331" height="3.332"/>
</g>
<g id="Layer_8">
	<rect x="3.365" y="38.969" fill="#FDFDFE" width="10.478" height="10.478"/>
	<g>
		<path fill="#010101" d="M7.394,44.325c-0.065-0.065-0.065-0.17,0-0.235l2.184-2.183c0.064-0.065,0.17-0.065,0.235,0
			c0.064,0.064,0.064,0.17,0,0.235l-2.066,2.065l2.066,2.066c0.064,0.065,0.064,0.17,0,0.235c-0.033,0.032-0.073,0.049-0.118,0.049
			s-0.085-0.017-0.117-0.049L7.394,44.325z"/>
	</g>
</g>
<g id="Layer_8_copy">
	<rect x="171.365" y="38.969" fill="#FDFDFE" width="10.477" height="10.478"/>
	<g>
		<path fill="#010101" d="M175.629,46.508c-0.031,0.032-0.072,0.049-0.117,0.049c-0.044,0-0.084-0.017-0.117-0.049
			c-0.064-0.064-0.064-0.17,0-0.235l2.066-2.066l-2.066-2.065c-0.064-0.065-0.064-0.17,0-0.235c0.064-0.065,0.17-0.065,0.234,0
			l2.184,2.183c0.065,0.064,0.065,0.17,0,0.235L175.629,46.508z"/>
	</g>
</g>
</svg>
