<?xml version="1.0" encoding="utf-8"?>
<!-- Generator: Adobe Illustrator 16.0.0, SVG Export Plug-In . SVG Version: 6.00 Build 0)  -->
<!DOCTYPE svg PUBLIC "-//W3C//DTD SVG 1.1//EN" "http://www.w3.org/Graphics/SVG/1.1/DTD/svg11.dtd">
<svg version="1.1" xmlns="http://www.w3.org/2000/svg" xmlns:xlink="http://www.w3.org/1999/xlink" x="0px" y="0px" width="185px"
	 height="89px" viewBox="0 0 185 89" enable-background="new 0 0 185 89" xml:space="preserve">
<g id="template_2">
	<rect fill="#E8E8E8" width="185" height="89"/>
	<rect x="3.522" y="4.146" fill="#D3D3D3" width="178.5" height="81.25"/>
	<g opacity="0.2">
		<path fill="#010101" d="M104.857,34.826H80.643c-0.238,0-0.432,0.193-0.432,0.433v19.024c0,0.24,0.194,0.433,0.432,0.433h24.214
			c0.238,0,0.432-0.193,0.432-0.433V35.259C105.289,35.019,105.096,34.826,104.857,34.826z M104.424,53.851H81.076V35.691h23.348
			V53.851z"/>
		<path fill="#010101" d="M87.129,44.398c1.328,0,2.408-1.081,2.408-2.407c0-1.329-1.08-2.409-2.408-2.409
			c-1.327,0-2.408,1.08-2.408,2.408S85.802,44.398,87.129,44.398z M87.129,40.447c0.852,0,1.543,0.692,1.543,1.543
			s-0.691,1.543-1.543,1.543c-0.851,0-1.543-0.692-1.543-1.542C85.586,41.141,86.278,40.447,87.129,40.447z"/>
		<path fill="#010101" d="M83.238,52.122c0.101,0,0.203-0.036,0.285-0.107l7.053-6.21l4.455,4.454c0.169,0.169,0.441,0.169,0.611,0
			c0.169-0.169,0.169-0.442,0-0.611l-2.078-2.078l3.969-4.348l4.869,4.464c0.176,0.161,0.45,0.149,0.611-0.027
			c0.161-0.176,0.149-0.45-0.027-0.611l-5.188-4.756c-0.085-0.077-0.198-0.115-0.312-0.113c-0.114,0.005-0.224,0.056-0.301,0.141
			l-4.235,4.638l-2.05-2.051c-0.161-0.162-0.421-0.17-0.592-0.019l-7.357,6.478c-0.18,0.158-0.197,0.432-0.039,0.611
			C82.999,52.073,83.118,52.122,83.238,52.122z"/>
	</g>
	<path opacity="0.2" fill="#9F9E9E" d="M79.814,45.252c0,0.586-0.475,1.061-1.061,1.061H21.893c-0.584,0-1.06-0.475-1.06-1.061l0,0
		c0-0.585,0.476-1.06,1.06-1.06h56.861C79.34,44.192,79.814,44.667,79.814,45.252L79.814,45.252z"/>
	<path opacity="0.2" fill="#9F9E9E" d="M90.461,52.348c0,0.599-0.484,1.083-1.082,1.083H21.916c-0.598,0-1.083-0.485-1.083-1.083
		l0,0c0-0.599,0.485-1.084,1.083-1.084h67.463C89.977,51.264,90.461,51.749,90.461,52.348L90.461,52.348z"/>
	<path opacity="0.2" fill="#9F9E9E" d="M68.885,59.9c0,0.546-0.442,0.989-0.989,0.989H21.821c-0.546,0-0.988-0.442-0.988-0.989l0,0
		c0-0.546,0.442-0.989,0.988-0.989h46.074C68.442,58.911,68.885,59.354,68.885,59.9L68.885,59.9z"/>
	<path display="none" opacity="0.2" fill="#9F9E9E" d="M69.861,54.5c0,0.573-0.465,1.037-1.037,1.037H11.822
		c-0.573,0-1.037-0.464-1.037-1.037l0,0c0-0.572,0.463-1.037,1.037-1.037h57.002C69.396,53.463,69.861,53.927,69.861,54.5
		L69.861,54.5z"/>
	<path opacity="0.2" fill="#9F9E9E" d="M78.732,36.244c0,0.977-0.793,1.769-1.77,1.769H23.555c-0.977,0-1.77-0.792-1.77-1.769
		v-3.006c0-0.977,0.793-1.769,1.77-1.769h53.408c0.977,0,1.77,0.792,1.77,1.769V36.244z"/>
	<path opacity="0.2" fill="#9F9E9E" d="M53.5,71.75c0,3.176-2.574,5.75-5.75,5.75H26.583c-3.176,0-5.75-2.574-5.75-5.75l0,0
		c0-3.176,2.574-5.75,5.75-5.75H47.75C50.926,66,53.5,68.574,53.5,71.75L53.5,71.75z"/>
	<g id="caption_image">
		<g id="Layer_6">
			<rect x="121.756" y="21.616" fill="#666766" width="46.604" height="46.604"/>
		</g>
		<g>
			<path fill="#FFFFFF" d="M153.023,38.374h-15.932c-0.157,0-0.284,0.126-0.284,0.284v12.517c0,0.158,0.127,0.285,0.284,0.285
				h15.932c0.157,0,0.284-0.127,0.284-0.285V38.658C153.308,38.5,153.181,38.374,153.023,38.374z M152.738,50.891h-15.361V38.943
				h15.361V50.891z"/>
			<path fill="#FFFFFF" d="M141.359,44.672c0.874,0,1.584-0.711,1.584-1.584c0-0.874-0.71-1.584-1.584-1.584
				c-0.873,0-1.585,0.71-1.585,1.584S140.486,44.672,141.359,44.672z M141.359,42.072c0.561,0,1.015,0.456,1.015,1.015
				s-0.454,1.016-1.015,1.016c-0.56,0-1.016-0.456-1.016-1.015S140.8,42.072,141.359,42.072z"/>
			<path fill="#FFFFFF" d="M138.8,49.753c0.065,0,0.133-0.023,0.188-0.071l4.64-4.085l2.932,2.93c0.111,0.111,0.29,0.111,0.402,0
				c0.111-0.111,0.111-0.291,0-0.402l-1.367-1.367l2.611-2.861l3.203,2.937c0.116,0.106,0.297,0.098,0.402-0.018
				c0.106-0.116,0.099-0.296-0.018-0.402l-3.413-3.129c-0.057-0.051-0.131-0.076-0.205-0.075c-0.075,0.003-0.147,0.037-0.198,0.092
				l-2.786,3.052l-1.349-1.349c-0.106-0.106-0.277-0.112-0.39-0.013l-4.841,4.262c-0.118,0.104-0.129,0.284-0.025,0.402
				C138.642,49.721,138.72,49.753,138.8,49.753z"/>
		</g>
	</g>
	<g id="controls_copy">
		<g>
			<rect x="91.107" y="76" fill="#9F9E9E" width="3.332" height="3.332"/>
			<rect x="86.107" y="76" fill="#FDFDFE" width="3.332" height="3.332"/>
			<rect x="96.107" y="76" fill="#FDFDFE" width="3.331" height="3.332"/>
			<rect x="3.365" y="38.969" fill="#FDFDFE" width="10.478" height="10.478"/>
			<g>
				<path fill="#010101" d="M7.394,44.325c-0.065-0.065-0.065-0.17,0-0.235l2.184-2.183c0.064-0.065,0.17-0.065,0.235,0
					c0.064,0.064,0.064,0.17,0,0.235l-2.066,2.065l2.066,2.066c0.064,0.065,0.064,0.17,0,0.235
					c-0.033,0.032-0.073,0.049-0.118,0.049s-0.085-0.017-0.117-0.049L7.394,44.325z"/>
			</g>
			<rect x="171.365" y="38.969" fill="#FDFDFE" width="10.477" height="10.478"/>
			<g>
				<path fill="#010101" d="M175.629,46.508c-0.031,0.032-0.072,0.049-0.117,0.049c-0.044,0-0.084-0.017-0.117-0.049
					c-0.064-0.064-0.064-0.17,0-0.235l2.066-2.066l-2.066-2.065c-0.064-0.065-0.064-0.17,0-0.235c0.064-0.065,0.17-0.065,0.234,0
					l2.184,2.183c0.065,0.064,0.065,0.17,0,0.235L175.629,46.508z"/>
			</g>
		</g>
	</g>
</g>
<g id="template_1" display="none">
	<rect display="inline" fill="#E8E8E8" width="185" height="89"/>
	<rect x="3.522" y="4.146" display="inline" fill="#D3D3D3" width="178.5" height="81.25"/>
	<g display="inline" opacity="0.2">
		<path fill="#010101" d="M104.857,34.826H80.643c-0.238,0-0.432,0.193-0.432,0.433v19.024c0,0.24,0.194,0.433,0.432,0.433h24.214
			c0.238,0,0.432-0.193,0.432-0.433V35.259C105.289,35.019,105.096,34.826,104.857,34.826z M104.424,53.851H81.076V35.691h23.348
			V53.851z"/>
		<path fill="#010101" d="M87.129,44.398c1.328,0,2.408-1.081,2.408-2.407c0-1.329-1.08-2.409-2.408-2.409
			c-1.327,0-2.408,1.08-2.408,2.408S85.802,44.398,87.129,44.398z M87.129,40.447c0.852,0,1.543,0.692,1.543,1.543
			s-0.691,1.543-1.543,1.543c-0.851,0-1.543-0.692-1.543-1.542C85.586,41.141,86.278,40.447,87.129,40.447z"/>
		<path fill="#010101" d="M83.238,52.122c0.101,0,0.203-0.036,0.285-0.107l7.053-6.21l4.455,4.454c0.169,0.169,0.441,0.169,0.611,0
			c0.169-0.169,0.169-0.442,0-0.611l-2.078-2.078l3.969-4.348l4.869,4.464c0.176,0.161,0.45,0.149,0.611-0.027
			c0.161-0.176,0.149-0.45-0.027-0.611l-5.188-4.756c-0.085-0.077-0.198-0.115-0.312-0.113c-0.114,0.005-0.224,0.056-0.301,0.141
			l-4.235,4.638l-2.05-2.051c-0.161-0.162-0.421-0.17-0.592-0.019l-7.357,6.478c-0.18,0.158-0.197,0.432-0.039,0.611
			C82.999,52.073,83.118,52.122,83.238,52.122z"/>
	</g>
	<path display="inline" opacity="0.2" fill="#9F9E9E" d="M79.814,45.252c0,0.586-0.475,1.061-1.061,1.061H21.893
		c-0.584,0-1.06-0.475-1.06-1.061l0,0c0-0.585,0.476-1.06,1.06-1.06h56.861C79.34,44.192,79.814,44.667,79.814,45.252L79.814,45.252
		z"/>
	<path display="inline" opacity="0.2" fill="#9F9E9E" d="M90.461,52.348c0,0.599-0.484,1.083-1.082,1.083H21.916
		c-0.598,0-1.083-0.485-1.083-1.083l0,0c0-0.599,0.485-1.084,1.083-1.084h67.463C89.977,51.264,90.461,51.749,90.461,52.348
		L90.461,52.348z"/>
	<path display="inline" opacity="0.2" fill="#9F9E9E" d="M68.885,59.9c0,0.546-0.442,0.989-0.989,0.989H21.821
		c-0.546,0-0.988-0.442-0.988-0.989l0,0c0-0.546,0.442-0.989,0.988-0.989h46.074C68.442,58.911,68.885,59.354,68.885,59.9
		L68.885,59.9z"/>
	<path opacity="0.2" fill="#9F9E9E" d="M69.861,54.5c0,0.573-0.465,1.037-1.037,1.037H11.822c-0.573,0-1.037-0.464-1.037-1.037l0,0
		c0-0.572,0.463-1.037,1.037-1.037h57.002C69.396,53.463,69.861,53.927,69.861,54.5L69.861,54.5z"/>
	<path display="inline" opacity="0.2" fill="#9F9E9E" d="M78.732,36.244c0,0.977-0.793,1.769-1.77,1.769H23.555
		c-0.977,0-1.77-0.792-1.77-1.769v-3.006c0-0.977,0.793-1.769,1.77-1.769h53.408c0.977,0,1.77,0.792,1.77,1.769V36.244z"/>
	<path display="inline" opacity="0.2" fill="#9F9E9E" d="M53.5,71.75c0,3.176-2.574,5.75-5.75,5.75H26.583
		c-3.176,0-5.75-2.574-5.75-5.75l0,0c0-3.176,2.574-5.75,5.75-5.75H47.75C50.926,66,53.5,68.574,53.5,71.75L53.5,71.75z"/>
	<g id="controls" display="inline">
		<g>
			<rect x="91.107" y="76" fill="#9F9E9E" width="3.332" height="3.332"/>
			<rect x="86.107" y="76" fill="#FDFDFE" width="3.332" height="3.332"/>
			<rect x="96.107" y="76" fill="#FDFDFE" width="3.331" height="3.332"/>
			<rect x="3.365" y="38.969" fill="#FDFDFE" width="10.478" height="10.478"/>
			<g>
				<path fill="#010101" d="M7.394,44.325c-0.065-0.065-0.065-0.17,0-0.235l2.184-2.183c0.064-0.065,0.17-0.065,0.235,0
					c0.064,0.064,0.064,0.17,0,0.235l-2.066,2.065l2.066,2.066c0.064,0.065,0.064,0.17,0,0.235
					c-0.033,0.032-0.073,0.049-0.118,0.049s-0.085-0.017-0.117-0.049L7.394,44.325z"/>
			</g>
			<rect x="171.365" y="38.969" fill="#FDFDFE" width="10.477" height="10.478"/>
			<g>
				<path fill="#010101" d="M175.629,46.508c-0.031,0.032-0.072,0.049-0.117,0.049c-0.044,0-0.084-0.017-0.117-0.049
					c-0.064-0.064-0.064-0.17,0-0.235l2.066-2.066l-2.066-2.065c-0.064-0.065-0.064-0.17,0-0.235c0.064-0.065,0.17-0.065,0.234,0
					l2.184,2.183c0.065,0.064,0.065,0.17,0,0.235L175.629,46.508z"/>
			</g>
		</g>
	</g>
</g>
</svg>
