<?xml version="1.0" encoding="utf-8"?>
<!-- Generator: Adobe Illustrator 16.0.0, SVG Export Plug-In . SVG Version: 6.00 Build 0)  -->
<!DOCTYPE svg PUBLIC "-//W3C//DTD SVG 1.1//EN" "http://www.w3.org/Graphics/SVG/1.1/DTD/svg11.dtd">
<svg version="1.1" xmlns="http://www.w3.org/2000/svg" xmlns:xlink="http://www.w3.org/1999/xlink" x="0px" y="0px" width="185px"
	 height="89px" viewBox="0 0 185 89" enable-background="new 0 0 185 89" xml:space="preserve">
<g id="template_9">
	<rect fill="#E8E8E8" width="185" height="89"/>
	<g id="Layer_3_copy_3">
		<path opacity="0.2" fill="#9F9E9E" d="M163,9.441c0,0.301-0.449,0.544-0.999,0.544H13.222c-0.552,0-1.001-0.243-1.001-0.544l0,0
			c0-0.3,0.449-0.543,1.001-0.543h148.779C162.551,8.897,163,9.141,163,9.441L163,9.441z"/>
		<path opacity="0.2" fill="#9F9E9E" d="M147.985,13.08c0,0.307-0.46,0.555-1.024,0.555H13.109c-0.565,0-1.023-0.249-1.023-0.555
			l0,0c0-0.307,0.458-0.557,1.023-0.557h133.852C147.525,12.523,147.985,12.772,147.985,13.08L147.985,13.08z"/>
		<path opacity="0.2" fill="#9F9E9E" d="M135.861,16.951c0,0.281-0.417,0.507-0.934,0.507H13.245c-0.516,0-0.935-0.227-0.935-0.507
			l0,0c0-0.279,0.419-0.506,0.935-0.506h121.683C135.444,16.444,135.861,16.671,135.861,16.951L135.861,16.951z"/>
		<path opacity="0.2" fill="#9F9E9E" d="M146.41,20.814c0,0.313-0.466,0.565-1.042,0.565H13.161c-0.576,0-1.041-0.253-1.041-0.565
			l0,0c0-0.312,0.465-0.565,1.041-0.565h132.207C145.944,20.249,146.41,20.502,146.41,20.814L146.41,20.814z"/>
		<path opacity="0.2" fill="#9F9E9E" d="M99.021,24.939c0,0.336-0.5,0.608-1.119,0.608H13.87c-0.619,0-1.12-0.272-1.12-0.608l0,0
			c0-0.335,0.501-0.607,1.12-0.607h84.032C98.521,24.333,99.021,24.604,99.021,24.939L99.021,24.939z"/>
	</g>
	<rect x="11.75" y="33.417" fill="#D3D3D3" width="41" height="41"/>
	<g opacity="0.2">
		<path fill="#010101" d="M39.532,47.936H24.968c-0.143,0-0.259,0.116-0.259,0.26v11.442c0,0.145,0.116,0.261,0.259,0.261h14.564
			c0.143,0,0.26-0.116,0.26-0.261V48.196C39.792,48.051,39.675,47.936,39.532,47.936z M39.271,59.378H25.229V48.456h14.043V59.378z"
			/>
		<path fill="#010101" d="M28.869,53.693c0.799,0,1.449-0.65,1.449-1.448c0-0.799-0.65-1.449-1.449-1.449
			c-0.798,0-1.448,0.65-1.448,1.448S28.071,53.693,28.869,53.693z M28.869,51.316c0.512,0,0.928,0.416,0.928,0.928
			c0,0.512-0.417,0.929-0.928,0.929s-0.928-0.417-0.928-0.928C27.941,51.733,28.357,51.316,28.869,51.316z"/>
		<path fill="#010101" d="M26.529,58.338c0.061,0,0.122-0.021,0.171-0.064l4.242-3.735l2.68,2.679c0.102,0.102,0.266,0.102,0.368,0
			c0.102-0.102,0.102-0.267,0-0.368l-1.25-1.25l2.388-2.616l2.928,2.685c0.106,0.097,0.271,0.089,0.368-0.017
			c0.097-0.105,0.09-0.27-0.016-0.367l-3.121-2.861c-0.05-0.046-0.119-0.069-0.187-0.068c-0.069,0.003-0.134,0.033-0.181,0.084
			l-2.547,2.79l-1.233-1.233c-0.097-0.097-0.253-0.102-0.356-0.012l-4.425,3.896c-0.108,0.095-0.118,0.26-0.023,0.368
			C26.385,58.309,26.457,58.338,26.529,58.338z"/>
	</g>
	<path opacity="0.1" fill="#9F9E9E" d="M98.273,48.144c0,0.781-0.634,1.414-1.414,1.414H66.44c-0.781,0-1.415-0.633-1.415-1.414l0,0
		c0-0.781,0.634-1.416,1.415-1.416h30.419C97.64,46.728,98.273,47.363,98.273,48.144L98.273,48.144z"/>
	<path opacity="0.1" fill="#9F9E9E" d="M122.314,41.997c0,0.977-0.793,1.77-1.77,1.77H67.137c-0.977,0-1.769-0.793-1.769-1.77
		v-3.006c0-0.977,0.792-1.769,1.769-1.769h53.408c0.977,0,1.77,0.792,1.77,1.769V41.997z"/>
	<path opacity="0.2" fill="#9F9E9E" enable-background="new    " d="M64.161,66.75c0-3.176,2.574-5.75,5.75-5.75h21.168
		c3.176,0,5.75,2.574,5.75,5.75l0,0c0,3.176-2.574,5.75-5.75,5.75H69.911C66.735,72.5,64.161,69.926,64.161,66.75L64.161,66.75z"/>
</g>
<g id="template_5" display="none">
	<rect display="inline" fill="#E8E8E8" width="185" height="89"/>
	<g id="Layer_3_copy_2" display="inline">
		<path opacity="0.2" fill="#9F9E9E" d="M14.079,38.183c0,0.301,0.244,0.544,0.543,0.544h80.754c0.3,0,0.544-0.243,0.544-0.544l0,0
			c0-0.3-0.244-0.543-0.544-0.543H14.622C14.323,37.639,14.079,37.882,14.079,38.183L14.079,38.183z"/>
		<path opacity="0.2" fill="#9F9E9E" d="M22.229,41.821c0,0.307,0.249,0.555,0.556,0.555h72.652c0.307,0,0.555-0.249,0.555-0.555
			l0,0c0-0.307-0.248-0.557-0.555-0.557H22.785C22.479,41.265,22.229,41.514,22.229,41.821L22.229,41.821z"/>
		<path opacity="0.2" fill="#9F9E9E" d="M28.81,45.692c0,0.281,0.227,0.507,0.507,0.507h66.047c0.28,0,0.508-0.227,0.508-0.507l0,0
			c0-0.279-0.228-0.506-0.508-0.506H29.316C29.036,45.186,28.81,45.413,28.81,45.692L28.81,45.692z"/>
		<path opacity="0.2" fill="#9F9E9E" d="M23.084,49.556c0,0.313,0.253,0.565,0.565,0.565h71.76c0.313,0,0.565-0.253,0.565-0.565l0,0
			c0-0.312-0.253-0.565-0.565-0.565h-71.76C23.337,48.991,23.084,49.244,23.084,49.556L23.084,49.556z"/>
		<path opacity="0.2" fill="#9F9E9E" d="M48.806,53.681c0,0.336,0.271,0.608,0.607,0.608h45.611c0.336,0,0.608-0.272,0.608-0.608
			l0,0c0-0.335-0.272-0.607-0.608-0.607H49.413C49.077,53.074,48.806,53.346,48.806,53.681L48.806,53.681z"/>
	</g>
	<rect x="106.666" y="10.833" display="inline" fill="#D3D3D3" width="68.168" height="68.167"/>
	<g display="inline" opacity="0.2">
		<path fill="#010101" d="M152.857,34.972h-24.215c-0.238,0-0.432,0.193-0.432,0.433v19.024c0,0.24,0.193,0.433,0.432,0.433h24.215
			c0.238,0,0.432-0.193,0.432-0.433V35.405C153.289,35.165,153.096,34.972,152.857,34.972z M152.424,53.997h-23.348V35.837h23.348
			V53.997z"/>
		<path fill="#010101" d="M135.129,44.544c1.328,0,2.408-1.081,2.408-2.407c0-1.329-1.08-2.409-2.408-2.409
			c-1.327,0-2.408,1.08-2.408,2.408S133.802,44.544,135.129,44.544z M135.129,40.593c0.852,0,1.543,0.692,1.543,1.543
			s-0.691,1.543-1.543,1.543c-0.851,0-1.543-0.692-1.543-1.542C133.586,41.287,134.278,40.593,135.129,40.593z"/>
		<path fill="#010101" d="M131.238,52.268c0.101,0,0.203-0.036,0.285-0.107l7.053-6.21l4.455,4.454c0.169,0.169,0.441,0.169,0.611,0
			c0.169-0.169,0.169-0.442,0-0.611l-2.078-2.078l3.969-4.348l4.869,4.464c0.176,0.161,0.45,0.149,0.611-0.027
			c0.161-0.176,0.149-0.45-0.027-0.611l-5.188-4.756c-0.085-0.077-0.198-0.115-0.312-0.113c-0.114,0.005-0.224,0.056-0.301,0.141
			l-4.235,4.638l-2.05-2.051c-0.161-0.162-0.421-0.17-0.592-0.019l-7.357,6.478c-0.18,0.158-0.196,0.432-0.038,0.611
			C130.998,52.219,131.117,52.268,131.238,52.268z"/>
	</g>
	<circle fill="#9F9E9E" cx="93.263" cy="60.296" r="2.37"/>
	<circle fill="#9F9E9E" cx="86.229" cy="60.296" r="2.37"/>
	<circle fill="#9F9E9E" cx="78.492" cy="60.296" r="2.371"/>
	<circle fill="#9F9E9E" cx="70.756" cy="60.296" r="2.371"/>
	<path display="inline" opacity="0.1" fill="#9F9E9E" d="M62.727,28.144c0,0.781,0.634,1.414,1.414,1.414H94.56
		c0.781,0,1.415-0.633,1.415-1.414l0,0c0-0.781-0.634-1.416-1.415-1.416H64.141C63.36,26.728,62.727,27.363,62.727,28.144
		L62.727,28.144z"/>
	<path display="inline" opacity="0.1" fill="#9F9E9E" d="M38.686,21.997c0,0.977,0.793,1.77,1.77,1.77h53.408
		c0.977,0,1.769-0.793,1.769-1.77v-3.006c0-0.977-0.792-1.769-1.769-1.769H40.455c-0.977,0-1.77,0.792-1.77,1.769V21.997z"/>
	<path display="inline" opacity="0.2" fill="#9F9E9E" enable-background="new    " d="M97.197,70.5c0-3.176-2.574-5.75-5.75-5.75
		H70.279c-3.176,0-5.75,2.574-5.75,5.75l0,0c0,3.176,2.574,5.75,5.75,5.75h21.168C94.623,76.25,97.197,73.676,97.197,70.5
		L97.197,70.5z"/>
</g>
<g id="template_4" display="none">
	<rect display="inline" fill="#E8E8E8" width="185" height="89"/>
	<g id="Layer_3_copy" display="inline">
		<path opacity="0.2" fill="#9F9E9E" d="M170.921,38.183c0,0.301-0.244,0.544-0.543,0.544H89.624c-0.3,0-0.543-0.243-0.543-0.544
			l0,0c0-0.3,0.244-0.543,0.543-0.543h80.754C170.677,37.639,170.921,37.882,170.921,38.183L170.921,38.183z"/>
		<path opacity="0.2" fill="#9F9E9E" d="M162.771,41.821c0,0.307-0.249,0.555-0.556,0.555H89.563c-0.307,0-0.556-0.249-0.556-0.555
			l0,0c0-0.307,0.249-0.557,0.556-0.557h72.652C162.521,41.265,162.771,41.514,162.771,41.821L162.771,41.821z"/>
		<path opacity="0.2" fill="#9F9E9E" d="M156.19,45.692c0,0.281-0.227,0.507-0.507,0.507H89.636c-0.28,0-0.507-0.227-0.507-0.507
			l0,0c0-0.279,0.228-0.506,0.507-0.506h66.047C155.964,45.186,156.19,45.413,156.19,45.692L156.19,45.692z"/>
		<path opacity="0.2" fill="#9F9E9E" d="M161.916,49.556c0,0.313-0.253,0.565-0.565,0.565h-71.76c-0.313,0-0.565-0.253-0.565-0.565
			l0,0c0-0.312,0.252-0.565,0.565-0.565h71.76C161.663,48.991,161.916,49.244,161.916,49.556L161.916,49.556z"/>
		<path opacity="0.2" fill="#9F9E9E" d="M136.194,53.681c0,0.336-0.271,0.608-0.607,0.608H89.976c-0.336,0-0.608-0.272-0.608-0.608
			l0,0c0-0.335,0.272-0.607,0.608-0.607h45.611C135.923,53.074,136.194,53.346,136.194,53.681L136.194,53.681z"/>
	</g>
	<rect x="10.167" y="10.833" display="inline" fill="#D3D3D3" width="68.167" height="68.167"/>
	<g display="inline" opacity="0.2">
		<path fill="#010101" d="M56.357,34.972H32.143c-0.238,0-0.432,0.193-0.432,0.433v19.024c0,0.24,0.194,0.433,0.432,0.433h24.214
			c0.239,0,0.433-0.193,0.433-0.433V35.405C56.79,35.165,56.596,34.972,56.357,34.972z M55.924,53.997H32.576V35.837h23.349V53.997z
			"/>
		<path fill="#010101" d="M38.629,44.544c1.328,0,2.409-1.081,2.409-2.407c0-1.329-1.081-2.409-2.409-2.409
			c-1.327,0-2.408,1.08-2.408,2.408S37.302,44.544,38.629,44.544z M38.629,40.593c0.851,0,1.543,0.692,1.543,1.543
			s-0.692,1.543-1.543,1.543c-0.851,0-1.543-0.692-1.543-1.542C37.085,41.287,37.778,40.593,38.629,40.593z"/>
		<path fill="#010101" d="M34.738,52.268c0.101,0,0.203-0.036,0.285-0.107l7.053-6.21l4.455,4.454c0.169,0.169,0.442,0.169,0.611,0
			c0.169-0.169,0.169-0.442,0-0.611l-2.078-2.078l3.97-4.348l4.869,4.464c0.176,0.161,0.45,0.149,0.611-0.027
			c0.161-0.176,0.149-0.45-0.027-0.611l-5.188-4.756c-0.084-0.077-0.198-0.115-0.311-0.113c-0.115,0.005-0.223,0.056-0.301,0.141
			l-4.235,4.638l-2.05-2.051c-0.162-0.162-0.421-0.17-0.592-0.019l-7.357,6.478c-0.18,0.158-0.197,0.432-0.039,0.611
			C34.499,52.219,34.618,52.268,34.738,52.268z"/>
	</g>
	<circle fill="#9F9E9E" cx="91.738" cy="60.296" r="2.37"/>
	<circle fill="#9F9E9E" cx="98.771" cy="60.296" r="2.37"/>
	<circle fill="#9F9E9E" cx="106.508" cy="60.296" r="2.371"/>
	<circle fill="#9F9E9E" cx="114.244" cy="60.296" r="2.371"/>
	<path display="inline" opacity="0.1" fill="#9F9E9E" d="M122.273,28.144c0,0.781-0.634,1.414-1.414,1.414H90.44
		c-0.781,0-1.415-0.633-1.415-1.414l0,0c0-0.781,0.634-1.416,1.415-1.416h30.419C121.64,26.728,122.273,27.363,122.273,28.144
		L122.273,28.144z"/>
	<path display="inline" opacity="0.1" fill="#9F9E9E" d="M146.314,21.997c0,0.977-0.793,1.77-1.77,1.77H91.137
		c-0.977,0-1.769-0.793-1.769-1.77v-3.006c0-0.977,0.792-1.769,1.769-1.769h53.408c0.977,0,1.77,0.792,1.77,1.769V21.997z"/>
	<path display="inline" opacity="0.2" fill="#9F9E9E" enable-background="new    " d="M87.803,70.5c0-3.176,2.574-5.75,5.75-5.75
		h21.168c3.176,0,5.75,2.574,5.75,5.75l0,0c0,3.176-2.574,5.75-5.75,5.75H93.553C90.377,76.25,87.803,73.676,87.803,70.5
		L87.803,70.5z"/>
</g>
</svg>
