<?xml version="1.0" encoding="utf-8"?>
<!-- Generator: Adobe Illustrator 16.0.0, SVG Export Plug-In . SVG Version: 6.00 Build 0)  -->
<!DOCTYPE svg PUBLIC "-//W3C//DTD SVG 1.1//EN" "http://www.w3.org/Graphics/SVG/1.1/DTD/svg11.dtd">
<svg version="1.1" id="template_4" xmlns="http://www.w3.org/2000/svg" xmlns:xlink="http://www.w3.org/1999/xlink" x="0px" y="0px"
	 width="185px" height="89px" viewBox="0 0 185 89" enable-background="new 0 0 185 89" xml:space="preserve">
<rect fill="#E8E8E8" width="185" height="89"/>
<g id="Layer_3_copy">
	<path opacity="0.2" fill="#9F9E9E" d="M170.921,38.183c0,0.301-0.244,0.544-0.543,0.544H89.624c-0.3,0-0.543-0.243-0.543-0.544l0,0
		c0-0.3,0.244-0.543,0.543-0.543h80.754C170.677,37.639,170.921,37.882,170.921,38.183L170.921,38.183z"/>
	<path opacity="0.2" fill="#9F9E9E" d="M162.771,41.821c0,0.307-0.249,0.555-0.556,0.555H89.563c-0.307,0-0.556-0.249-0.556-0.555
		l0,0c0-0.307,0.249-0.557,0.556-0.557h72.652C162.521,41.265,162.771,41.514,162.771,41.821L162.771,41.821z"/>
	<path opacity="0.2" fill="#9F9E9E" d="M156.19,45.692c0,0.281-0.227,0.507-0.507,0.507H89.636c-0.28,0-0.507-0.227-0.507-0.507l0,0
		c0-0.279,0.228-0.506,0.507-0.506h66.047C155.964,45.186,156.19,45.413,156.19,45.692L156.19,45.692z"/>
	<path opacity="0.2" fill="#9F9E9E" d="M161.916,49.556c0,0.313-0.253,0.565-0.565,0.565h-71.76c-0.313,0-0.565-0.253-0.565-0.565
		l0,0c0-0.312,0.252-0.565,0.565-0.565h71.76C161.663,48.991,161.916,49.244,161.916,49.556L161.916,49.556z"/>
	<path opacity="0.2" fill="#9F9E9E" d="M136.194,53.681c0,0.336-0.271,0.608-0.607,0.608H89.976c-0.336,0-0.608-0.272-0.608-0.608
		l0,0c0-0.335,0.272-0.607,0.608-0.607h45.611C135.923,53.074,136.194,53.346,136.194,53.681L136.194,53.681z"/>
</g>
<rect x="10.167" y="10.833" fill="#D3D3D3" width="68.167" height="68.167"/>
<g opacity="0.2">
	<path fill="#010101" d="M56.357,34.972H32.143c-0.238,0-0.432,0.193-0.432,0.433v19.024c0,0.24,0.194,0.433,0.432,0.433h24.214
		c0.239,0,0.433-0.193,0.433-0.433V35.405C56.79,35.165,56.596,34.972,56.357,34.972z M55.924,53.997H32.576V35.837h23.349V53.997z"
		/>
	<path fill="#010101" d="M38.629,44.544c1.328,0,2.409-1.081,2.409-2.407c0-1.329-1.081-2.409-2.409-2.409
		c-1.327,0-2.408,1.08-2.408,2.408S37.302,44.544,38.629,44.544z M38.629,40.593c0.851,0,1.543,0.692,1.543,1.543
		s-0.692,1.543-1.543,1.543c-0.851,0-1.543-0.692-1.543-1.542C37.085,41.287,37.778,40.593,38.629,40.593z"/>
	<path fill="#010101" d="M34.738,52.268c0.101,0,0.203-0.036,0.285-0.107l7.053-6.21l4.455,4.454c0.169,0.169,0.442,0.169,0.611,0
		c0.169-0.169,0.169-0.442,0-0.611l-2.078-2.078l3.97-4.348l4.869,4.464c0.176,0.161,0.45,0.149,0.611-0.027
		c0.161-0.176,0.149-0.45-0.027-0.611l-5.188-4.756c-0.084-0.077-0.198-0.115-0.311-0.113c-0.115,0.005-0.223,0.056-0.301,0.141
		l-4.235,4.638l-2.05-2.051c-0.162-0.162-0.421-0.17-0.592-0.019l-7.357,6.478c-0.18,0.158-0.197,0.432-0.039,0.611
		C34.499,52.219,34.618,52.268,34.738,52.268z"/>
</g>
<circle display="none" fill="#9F9E9E" cx="91.738" cy="60.296" r="2.37"/>
<circle display="none" fill="#9F9E9E" cx="98.771" cy="60.296" r="2.37"/>
<circle display="none" fill="#9F9E9E" cx="106.508" cy="60.296" r="2.371"/>
<circle display="none" fill="#9F9E9E" cx="114.244" cy="60.296" r="2.371"/>
<path opacity="0.1" fill="#9F9E9E" d="M122.273,28.144c0,0.781-0.634,1.414-1.414,1.414H90.44c-0.781,0-1.415-0.633-1.415-1.414l0,0
	c0-0.781,0.634-1.416,1.415-1.416h30.419C121.64,26.728,122.273,27.363,122.273,28.144L122.273,28.144z"/>
<path opacity="0.1" fill="#9F9E9E" d="M146.314,21.997c0,0.977-0.793,1.77-1.77,1.77H91.137c-0.977,0-1.769-0.793-1.769-1.77v-3.006
	c0-0.977,0.792-1.769,1.769-1.769h53.408c0.977,0,1.77,0.792,1.77,1.769V21.997z"/>
<path opacity="0.2" fill="#9F9E9E" enable-background="new    " d="M87.803,70.5c0-3.176,2.574-5.75,5.75-5.75h21.168
	c3.176,0,5.75,2.574,5.75,5.75l0,0c0,3.176-2.574,5.75-5.75,5.75H93.553C90.377,76.25,87.803,73.676,87.803,70.5L87.803,70.5z"/>
</svg>
