<?xml version="1.0" encoding="utf-8"?>
<!-- Generator: Adobe Illustrator 16.0.0, SVG Export Plug-In . SVG Version: 6.00 Build 0)  -->
<!DOCTYPE svg PUBLIC "-//W3C//DTD SVG 1.1//EN" "http://www.w3.org/Graphics/SVG/1.1/DTD/svg11.dtd">
<svg version="1.1" id="countdown" xmlns="http://www.w3.org/2000/svg" xmlns:xlink="http://www.w3.org/1999/xlink" x="0px" y="0px"
	 width="185px" height="89px" viewBox="0 0 185 89" enable-background="new 0 0 185 89" xml:space="preserve">
<rect fill="#E8E8E8" width="185" height="89"/>
<g id="template_2_4_">
	<g id="template_2">
		<g id="block_2_">
			<g>
				<path opacity="0.2" fill="#9F9E9E" d="M43.327,56.9c0,0.546-0.219,0.989-0.487,0.989H20.163c-0.27,0-0.486-0.442-0.486-0.989
					l0,0c0-0.546,0.217-0.989,0.486-0.989H42.84C43.108,55.911,43.327,56.354,43.327,56.9L43.327,56.9z"/>
				<path opacity="0.2" fill="#9F9E9E" d="M46.04,62.5c0,0.573-0.229,1.037-0.511,1.037H17.474c-0.281,0-0.51-0.464-0.51-1.037l0,0
					c0-0.572,0.229-1.037,0.51-1.037h28.056C45.812,61.463,46.04,61.927,46.04,62.5L46.04,62.5z"/>
			</g>
			<rect x="18.332" y="24.512" fill="#D3D3D3" width="26.34" height="26.34"/>
			<text transform="matrix(1 0 0 1 23.0425 42.3218)" opacity="0.2" fill="#7D7D7D" font-family="'NuevaStd-Bold'" font-size="16">00</text>
		</g>
	</g>
	<g id="template_2_1_">
		<g id="block_1_">
			<g>
				<path opacity="0.2" fill="#9F9E9E" d="M84.327,56.9c0,0.546-0.219,0.989-0.487,0.989H61.163c-0.27,0-0.486-0.442-0.486-0.989
					l0,0c0-0.546,0.217-0.989,0.486-0.989H83.84C84.108,55.911,84.327,56.354,84.327,56.9L84.327,56.9z"/>
				<path opacity="0.2" fill="#9F9E9E" d="M87.04,62.5c0,0.573-0.229,1.037-0.511,1.037H58.474c-0.281,0-0.51-0.464-0.51-1.037l0,0
					c0-0.572,0.229-1.037,0.51-1.037h28.056C86.812,61.463,87.04,61.927,87.04,62.5L87.04,62.5z"/>
			</g>
			<rect x="59.332" y="24.512" fill="#D3D3D3" width="26.34" height="26.34"/>
			<text transform="matrix(1 0 0 1 64.0425 42.3218)" opacity="0.2" fill="#7D7D7D" font-family="'NuevaStd-Bold'" font-size="16">00</text>
		</g>
	</g>
	<g id="template_2_3_">
		<g id="block_8_">
			<g>
				<path opacity="0.2" fill="#9F9E9E" d="M124.327,56.9c0,0.546-0.219,0.989-0.487,0.989h-22.677c-0.27,0-0.486-0.442-0.486-0.989
					l0,0c0-0.546,0.217-0.989,0.486-0.989h22.677C124.108,55.911,124.327,56.354,124.327,56.9L124.327,56.9z"/>
				<path opacity="0.2" fill="#9F9E9E" d="M127.04,62.5c0,0.573-0.229,1.037-0.511,1.037H98.474c-0.281,0-0.51-0.464-0.51-1.037l0,0
					c0-0.572,0.229-1.037,0.51-1.037h28.056C126.812,61.463,127.04,61.927,127.04,62.5L127.04,62.5z"/>
			</g>
			<rect x="99.332" y="24.512" fill="#D3D3D3" width="26.34" height="26.34"/>
			<text transform="matrix(1 0 0 1 104.043 42.3218)" opacity="0.2" fill="#7D7D7D" font-family="'NuevaStd-Bold'" font-size="16">00</text>
		</g>
	</g>
	<g id="template_2_2_">
		<g id="block_3_">
			<g>
				<path opacity="0.2" fill="#9F9E9E" d="M165.327,56.9c0,0.546-0.219,0.989-0.487,0.989h-22.677c-0.27,0-0.486-0.442-0.486-0.989
					l0,0c0-0.546,0.217-0.989,0.486-0.989h22.677C165.108,55.911,165.327,56.354,165.327,56.9L165.327,56.9z"/>
				<path opacity="0.2" fill="#9F9E9E" d="M168.04,62.5c0,0.573-0.229,1.037-0.511,1.037h-28.056c-0.281,0-0.51-0.464-0.51-1.037
					l0,0c0-0.572,0.229-1.037,0.51-1.037h28.056C167.812,61.463,168.04,61.927,168.04,62.5L168.04,62.5z"/>
			</g>
			<rect x="140.332" y="24.512" fill="#D3D3D3" width="26.34" height="26.34"/>
			<text transform="matrix(1 0 0 1 145.043 42.3218)" opacity="0.2" fill="#7D7D7D" font-family="'NuevaStd-Bold'" font-size="16">00</text>
		</g>
	</g>
</g>
<g id="template_1_1_" display="none">
	<g id="block_7_" display="inline">
		<path opacity="0.2" fill="#9F9E9E" d="M81.673,51.9c0,0.546-0.218,0.989-0.487,0.989H58.51c-0.269,0-0.487-0.442-0.487-0.989l0,0
			c0-0.546,0.218-0.989,0.487-0.989h22.677C81.456,50.911,81.673,51.354,81.673,51.9L81.673,51.9z"/>
		<path opacity="0.2" fill="#9F9E9E" d="M87.076,59.5c0,0.573-0.229,1.037-0.51,1.037H58.51c-0.282,0-0.51-0.464-0.51-1.037l0,0
			c0-0.572,0.228-1.037,0.51-1.037h28.055C86.847,58.463,87.076,58.927,87.076,59.5L87.076,59.5z"/>
		<text transform="matrix(1 0 0 1 58.0229 40)" opacity="0.2" fill="#9F9E9E" font-family="'NuevaStd-Bold'" font-size="16">00</text>
	</g>
	<g id="block_6_" display="inline">
		<path opacity="0.2" fill="#9F9E9E" d="M36.673,51.9c0,0.546-0.218,0.989-0.487,0.989H13.51c-0.269,0-0.487-0.442-0.487-0.989l0,0
			c0-0.546,0.218-0.989,0.487-0.989h22.677C36.456,50.911,36.673,51.354,36.673,51.9L36.673,51.9z"/>
		<path opacity="0.2" fill="#9F9E9E" d="M42.076,59.5c0,0.573-0.229,1.037-0.51,1.037H13.51c-0.282,0-0.51-0.464-0.51-1.037l0,0
			c0-0.572,0.228-1.037,0.51-1.037h28.055C41.847,58.463,42.076,58.927,42.076,59.5L42.076,59.5z"/>
		<text transform="matrix(1 0 0 1 13.0229 40)" opacity="0.2" fill="#9F9E9E" font-family="'NuevaStd-Bold'" font-size="16">00</text>
	</g>
	<g id="block_5_" display="inline">
		<path opacity="0.2" fill="#9F9E9E" d="M167.674,51.9c0,0.546-0.219,0.989-0.487,0.989H144.51c-0.27,0-0.486-0.442-0.486-0.989l0,0
			c0-0.546,0.217-0.989,0.486-0.989h22.677C167.455,50.911,167.674,51.354,167.674,51.9L167.674,51.9z"/>
		<path opacity="0.2" fill="#9F9E9E" d="M173.076,59.5c0,0.573-0.229,1.037-0.511,1.037H144.51c-0.281,0-0.51-0.464-0.51-1.037l0,0
			c0-0.572,0.229-1.037,0.51-1.037h28.056C172.848,58.463,173.076,58.927,173.076,59.5L173.076,59.5z"/>
		<text transform="matrix(1 0 0 1 144.0234 40)" opacity="0.2" fill="#9F9E9E" font-family="'NuevaStd-Bold'" font-size="16">00</text>
	</g>
	<g id="block_4_" display="inline">
		<path opacity="0.2" fill="#9F9E9E" d="M124.674,51.9c0,0.546-0.219,0.989-0.487,0.989H101.51c-0.27,0-0.486-0.442-0.486-0.989l0,0
			c0-0.546,0.217-0.989,0.486-0.989h22.677C124.455,50.911,124.674,51.354,124.674,51.9L124.674,51.9z"/>
		<path opacity="0.2" fill="#9F9E9E" d="M130.076,59.5c0,0.573-0.229,1.037-0.511,1.037H101.51c-0.281,0-0.51-0.464-0.51-1.037l0,0
			c0-0.572,0.229-1.037,0.51-1.037h28.056C129.848,58.463,130.076,58.927,130.076,59.5L130.076,59.5z"/>
		<text transform="matrix(1 0 0 1 101.0234 40)" opacity="0.2" fill="#9F9E9E" font-family="'NuevaStd-Bold'" font-size="16">00</text>
	</g>
</g>
</svg>
