<?xml version="1.0" encoding="utf-8"?>
<!-- Generator: Adobe Illustrator 16.0.0, SVG Export Plug-In . SVG Version: 6.00 Build 0)  -->
<!DOCTYPE svg PUBLIC "-//W3C//DTD SVG 1.1//EN" "http://www.w3.org/Graphics/SVG/1.1/DTD/svg11.dtd">
<svg version="1.1" id="template_1" xmlns="http://www.w3.org/2000/svg" xmlns:xlink="http://www.w3.org/1999/xlink" x="0px" y="0px"
	 width="185px" height="89px" viewBox="0 0 185 89" enable-background="new 0 0 185 89" xml:space="preserve">
<rect fill="#E8E8E8" width="185" height="89"/>
<path opacity="0.2" fill="#9F9E9E" d="M74.564,28.81c0,0.586-0.475,1.061-1.061,1.061H16.643c-0.584,0-1.06-0.475-1.06-1.061l0,0
	c0-0.585,0.476-1.06,1.06-1.06h56.861C74.09,27.75,74.564,28.225,74.564,28.81L74.564,28.81z"/>
<path opacity="0.2" fill="#9F9E9E" d="M165.5,28.811c0,0.585-0.475,1.06-1.061,1.06h-25.129c-0.586,0-1.061-0.475-1.061-1.06l0,0
	c0-0.586,0.475-1.061,1.061-1.061h25.129C165.025,27.75,165.5,28.225,165.5,28.811L165.5,28.811z"/>
<path opacity="0.2" fill="#9F9E9E" d="M74.564,39.81c0,0.586-0.475,1.061-1.061,1.061H16.643c-0.584,0-1.06-0.475-1.06-1.061l0,0
	c0-0.585,0.476-1.06,1.06-1.06h56.861C74.09,38.75,74.564,39.225,74.564,39.81L74.564,39.81z"/>
<path opacity="0.2" fill="#9F9E9E" d="M165.5,39.811c0,0.585-0.475,1.06-1.061,1.06h-25.129c-0.586,0-1.061-0.475-1.061-1.06l0,0
	c0-0.586,0.475-1.061,1.061-1.061h25.129C165.025,38.75,165.5,39.225,165.5,39.811L165.5,39.811z"/>
<path opacity="0.2" fill="#9F9E9E" d="M74.564,50.81c0,0.586-0.475,1.061-1.061,1.061H16.643c-0.584,0-1.06-0.475-1.06-1.061l0,0
	c0-0.585,0.476-1.06,1.06-1.06h56.861C74.09,49.75,74.564,50.225,74.564,50.81L74.564,50.81z"/>
<path opacity="0.2" fill="#9F9E9E" d="M165.5,50.811c0,0.585-0.475,1.06-1.061,1.06h-25.129c-0.586,0-1.061-0.475-1.061-1.06l0,0
	c0-0.586,0.475-1.061,1.061-1.061h25.129C165.025,49.75,165.5,50.225,165.5,50.811L165.5,50.811z"/>
<path opacity="0.2" fill="#9F9E9E" d="M74.564,61.81c0,0.586-0.475,1.061-1.061,1.061H16.643c-0.584,0-1.06-0.475-1.06-1.061l0,0
	c0-0.585,0.476-1.06,1.06-1.06h56.861C74.09,60.75,74.564,61.225,74.564,61.81L74.564,61.81z"/>
<path fill="#9F9E9E" d="M165.5,61.81c0,0.542-0.439,0.982-0.982,0.982h-9.948c-0.543,0-0.982-0.44-0.982-0.982l0,0
	c0-0.542,0.439-0.982,0.982-0.982h9.948C165.061,60.828,165.5,61.268,165.5,61.81L165.5,61.81z"/>
</svg>
