<?xml version="1.0" encoding="utf-8"?>
<!-- Generator: Adobe Illustrator 16.0.0, SVG Export Plug-In . SVG Version: 6.00 Build 0)  -->
<!DOCTYPE svg PUBLIC "-//W3C//DTD SVG 1.1//EN" "http://www.w3.org/Graphics/SVG/1.1/DTD/svg11.dtd">
<svg version="1.1" id="opening_hours" xmlns="http://www.w3.org/2000/svg" xmlns:xlink="http://www.w3.org/1999/xlink" x="0px"
	 y="0px" width="185px" height="89px" viewBox="0 0 185 89" enable-background="new 0 0 185 89" xml:space="preserve">
<g>
	<rect fill="#E8E8E8" width="185" height="89"/>
</g>
<g id="template_3">
	<path opacity="0.2" fill="#9F9E9E" d="M75.583,13.81c0,0.586,0.797,1.061,1.78,1.061h95.423c0.979,0,1.778-0.475,1.778-1.061l0,0
		c0-0.585-0.799-1.06-1.778-1.06H77.363C76.38,12.75,75.583,13.225,75.583,13.81L75.583,13.81z"/>
	<path opacity="0.2" fill="#9F9E9E" d="M128.834,18.69c0,0.585,0.797,1.06,1.78,1.06h42.17c0.983,0,1.78-0.475,1.78-1.06l0,0
		c0-0.586-0.797-1.061-1.78-1.061h-42.17C129.631,17.629,128.834,18.104,128.834,18.69L128.834,18.69z"/>
	<path opacity="0.2" fill="#9F9E9E" d="M75.583,32.81c0,0.586,0.797,1.061,1.78,1.061h95.423c0.979,0,1.778-0.475,1.778-1.061l0,0
		c0-0.585-0.799-1.06-1.778-1.06H77.363C76.38,31.75,75.583,32.225,75.583,32.81L75.583,32.81z"/>
	<path opacity="0.2" fill="#9F9E9E" d="M128.834,37.561c0,0.585,0.797,1.06,1.78,1.06h42.17c0.983,0,1.78-0.475,1.78-1.06l0,0
		c0-0.586-0.797-1.061-1.78-1.061h-42.17C129.631,36.5,128.834,36.975,128.834,37.561L128.834,37.561z"/>
	<path opacity="0.2" fill="#9F9E9E" d="M75.583,51.81c0,0.586,0.797,1.061,1.78,1.061h95.423c0.979,0,1.778-0.475,1.778-1.061l0,0
		c0-0.585-0.799-1.06-1.778-1.06H77.363C76.38,50.75,75.583,51.225,75.583,51.81L75.583,51.81z"/>
	<path opacity="0.2" fill="#9F9E9E" d="M128.834,56.561c0,0.585,0.797,1.06,1.78,1.06h42.17c0.983,0,1.78-0.475,1.78-1.06l0,0
		c0-0.586-0.797-1.061-1.78-1.061h-42.17C129.631,55.5,128.834,55.975,128.834,56.561L128.834,56.561z"/>
	<path opacity="0.2" fill="#9F9E9E" d="M75.583,68.811c0,0.586,0.797,1.061,1.78,1.061h95.423c0.979,0,1.778-0.475,1.778-1.061l0,0
		c0-0.586-0.799-1.061-1.778-1.061H77.363C76.38,67.75,75.583,68.225,75.583,68.811L75.583,68.811z"/>
	<path fill="#9F9E9E" d="M154.572,75.268c0,0.543,0.737,0.982,1.648,0.982h16.695c0.911,0,1.648-0.439,1.648-0.982l0,0
		c0-0.543-0.737-0.982-1.648-0.982h-16.695C155.31,74.285,154.572,74.725,154.572,75.268L154.572,75.268z"/>
</g>
<g id="template_1_2_" display="none">
	<path display="inline" opacity="0.2" fill="#9F9E9E" d="M74.564,29.81c0,0.586-0.475,1.061-1.061,1.061H16.643
		c-0.584,0-1.06-0.475-1.06-1.061l0,0c0-0.585,0.476-1.06,1.06-1.06h56.861C74.09,28.75,74.564,29.225,74.564,29.81L74.564,29.81z"
		/>
	<path display="inline" opacity="0.2" fill="#9F9E9E" d="M165.5,29.811c0,0.585-0.475,1.06-1.061,1.06h-25.129
		c-0.586,0-1.061-0.475-1.061-1.06l0,0c0-0.586,0.475-1.061,1.061-1.061h25.129C165.025,28.75,165.5,29.225,165.5,29.811
		L165.5,29.811z"/>
	<path display="inline" opacity="0.2" fill="#9F9E9E" d="M74.564,40.81c0,0.586-0.475,1.061-1.061,1.061H16.643
		c-0.584,0-1.06-0.475-1.06-1.061l0,0c0-0.585,0.476-1.06,1.06-1.06h56.861C74.09,39.75,74.564,40.225,74.564,40.81L74.564,40.81z"
		/>
	<path display="inline" opacity="0.2" fill="#9F9E9E" d="M165.5,40.811c0,0.585-0.475,1.06-1.061,1.06h-25.129
		c-0.586,0-1.061-0.475-1.061-1.06l0,0c0-0.586,0.475-1.061,1.061-1.061h25.129C165.025,39.75,165.5,40.225,165.5,40.811
		L165.5,40.811z"/>
	<path display="inline" opacity="0.2" fill="#9F9E9E" d="M74.564,51.81c0,0.586-0.475,1.061-1.061,1.061H16.643
		c-0.584,0-1.06-0.475-1.06-1.061l0,0c0-0.585,0.476-1.06,1.06-1.06h56.861C74.09,50.75,74.564,51.225,74.564,51.81L74.564,51.81z"
		/>
	<path display="inline" opacity="0.2" fill="#9F9E9E" d="M165.5,51.811c0,0.585-0.475,1.06-1.061,1.06h-25.129
		c-0.586,0-1.061-0.475-1.061-1.06l0,0c0-0.586,0.475-1.061,1.061-1.061h25.129C165.025,50.75,165.5,51.225,165.5,51.811
		L165.5,51.811z"/>
	<path display="inline" opacity="0.2" fill="#9F9E9E" d="M74.564,62.81c0,0.586-0.475,1.061-1.061,1.061H16.643
		c-0.584,0-1.06-0.475-1.06-1.061l0,0c0-0.585,0.476-1.06,1.06-1.06h56.861C74.09,61.75,74.564,62.225,74.564,62.81L74.564,62.81z"
		/>
	<path display="inline" fill="#9F9E9E" d="M165.5,62.81c0,0.542-0.439,0.982-0.982,0.982h-9.948c-0.543,0-0.982-0.44-0.982-0.982
		l0,0c0-0.542,0.439-0.982,0.982-0.982h9.948C165.061,61.828,165.5,62.268,165.5,62.81L165.5,62.81z"/>
</g>
</svg>
