<?xml version="1.0" encoding="utf-8"?>
<!-- Generator: Adobe Illustrator 16.0.0, SVG Export Plug-In . SVG Version: 6.00 Build 0)  -->
<!DOCTYPE svg PUBLIC "-//W3C//DTD SVG 1.1//EN" "http://www.w3.org/Graphics/SVG/1.1/DTD/svg11.dtd">
<svg version="1.1" id="Layer_1" xmlns="http://www.w3.org/2000/svg" xmlns:xlink="http://www.w3.org/1999/xlink" x="0px" y="0px"
	 width="141.904px" height="188.668px" viewBox="0 0 141.904 188.668" enable-background="new 0 0 141.904 188.668"
	 xml:space="preserve">
<rect fill="#E8E8E8" width="141.904" height="188.668"/>
<g id="template_3">
	<path opacity="0.2" fill="#9F9E9E" d="M130.904,35.454c0,0.977-0.793,1.769-1.77,1.769H75.728c-0.977,0-1.77-0.792-1.77-1.769
		v-3.006c0-0.977,0.793-1.769,1.77-1.769h53.407c0.977,0,1.77,0.792,1.77,1.769V35.454z"/>
	<g opacity="0.2">
		<path fill="#9F9E9E" d="M130.904,62.037c0,0.733-0.818,1.327-1.827,1.327H30.975c-1.01,0-1.83-0.594-1.83-1.327l0,0
			c0-0.732,0.82-1.326,1.83-1.326h98.103C130.086,60.711,130.904,61.305,130.904,62.037L130.904,62.037z"/>
		<path fill="#9F9E9E" d="M130.904,75.922c0,0.749-0.837,1.355-1.87,1.355H12.646c-1.031,0-1.87-0.606-1.87-1.355l0,0
			c0-0.749,0.839-1.356,1.87-1.356h116.389C130.067,74.565,130.904,75.173,130.904,75.922L130.904,75.922z"/>
		<path fill="#9F9E9E" d="M130.904,89.126c0,0.684-0.763,1.237-1.705,1.237h-79.49c-0.941,0-1.707-0.554-1.707-1.237l0,0
			c0-0.683,0.766-1.237,1.707-1.237h79.49C130.142,87.889,130.904,88.443,130.904,89.126L130.904,89.126z"/>
		<path fill="#9F9E9E" d="M130.904,102.39c0,0.717-0.799,1.298-1.788,1.298H30.771c-0.987,0-1.788-0.581-1.788-1.298l0,0
			c0-0.716,0.801-1.297,1.788-1.297h98.346C130.105,101.093,130.904,101.674,130.904,102.39L130.904,102.39z"/>
		<path fill="#9F9E9E" d="M130.904,115.037c0,0.733-0.818,1.327-1.827,1.327H30.975c-1.01,0-1.83-0.594-1.83-1.327l0,0
			c0-0.732,0.82-1.326,1.83-1.326h98.103C130.086,113.711,130.904,114.305,130.904,115.037L130.904,115.037z"/>
		<path fill="#9F9E9E" d="M130.904,128.922c0,0.749-0.837,1.355-1.87,1.355H12.646c-1.031,0-1.87-0.606-1.87-1.355l0,0
			c0-0.749,0.839-1.356,1.87-1.356h116.389C130.067,127.565,130.904,128.173,130.904,128.922L130.904,128.922z"/>
		<path fill="#9F9E9E" d="M131.553,154.398c0,4.623-3.749,8.371-8.372,8.371H81.68c-4.624,0-8.371-3.748-8.371-8.371l0,0
			c0-4.623,3.747-8.371,8.371-8.371h41.501C127.804,146.027,131.553,149.775,131.553,154.398L131.553,154.398z"/>
	</g>
</g>
<g id="template_2_1_" display="none">
	<path display="inline" opacity="0.2" fill="#9F9E9E" d="M99.425,35.454c0,0.977-0.793,1.769-1.77,1.769H44.248
		c-0.977,0-1.769-0.792-1.769-1.769v-3.006c0-0.977,0.792-1.769,1.769-1.769h53.408c0.977,0,1.77,0.792,1.77,1.769V35.454z"/>
	<g display="inline" opacity="0.2">
		<path fill="#9F9E9E" d="M121.832,62.037c0,0.733-0.818,1.327-1.827,1.327H21.902c-1.01,0-1.83-0.594-1.83-1.327l0,0
			c0-0.732,0.82-1.326,1.83-1.326h98.103C121.014,60.711,121.832,61.305,121.832,62.037L121.832,62.037z"/>
		<path fill="#9F9E9E" d="M131.017,75.922c0,0.749-0.837,1.355-1.87,1.355H12.758c-1.031,0-1.87-0.606-1.87-1.355l0,0
			c0-0.749,0.839-1.356,1.87-1.356h116.389C130.18,74.565,131.017,75.173,131.017,75.922L131.017,75.922z"/>
		<path fill="#9F9E9E" d="M112.403,89.126c0,0.684-0.763,1.237-1.705,1.237h-79.49c-0.941,0-1.707-0.554-1.707-1.237l0,0
			c0-0.683,0.766-1.237,1.707-1.237h79.49C111.641,87.889,112.403,88.443,112.403,89.126L112.403,89.126z"/>
		<path fill="#9F9E9E" d="M121.913,102.39c0,0.717-0.799,1.298-1.788,1.298H21.779c-0.987,0-1.788-0.581-1.788-1.298l0,0
			c0-0.716,0.801-1.297,1.788-1.297h98.346C121.114,101.093,121.913,101.674,121.913,102.39L121.913,102.39z"/>
		<path fill="#9F9E9E" d="M121.832,115.037c0,0.733-0.818,1.327-1.827,1.327H21.902c-1.01,0-1.83-0.594-1.83-1.327l0,0
			c0-0.732,0.82-1.326,1.83-1.326h98.103C121.014,113.711,121.832,114.305,121.832,115.037L121.832,115.037z"/>
		<path fill="#9F9E9E" d="M131.017,128.922c0,0.749-0.837,1.355-1.87,1.355H12.758c-1.031,0-1.87-0.606-1.87-1.355l0,0
			c0-0.749,0.839-1.356,1.87-1.356h116.389C130.18,127.565,131.017,128.173,131.017,128.922L131.017,128.922z"/>
		<path fill="#9F9E9E" d="M100.074,162.731c0,4.623-3.749,8.371-8.372,8.371H50.201c-4.624,0-8.371-3.748-8.371-8.371l0,0
			c0-4.623,3.748-8.371,8.371-8.371h41.501C96.325,154.36,100.074,158.108,100.074,162.731L100.074,162.731z"/>
	</g>
</g>
<g id="template_1_1_" display="none">
	<path display="inline" opacity="0.2" fill="#9F9E9E" d="M68.25,35.454c0,0.977-0.793,1.769-1.77,1.769H13.073
		c-0.977,0-1.769-0.792-1.769-1.769v-3.006c0-0.977,0.792-1.769,1.769-1.769h53.408c0.977,0,1.77,0.792,1.77,1.769V35.454z"/>
	<g display="inline" opacity="0.2">
		<g>
			<path fill="#9F9E9E" d="M113.063,62.037c0,0.733-0.818,1.327-1.827,1.327H13.134c-1.01,0-1.83-0.594-1.83-1.327l0,0
				c0-0.732,0.82-1.326,1.83-1.326h98.103C112.245,60.711,113.063,61.305,113.063,62.037L113.063,62.037z"/>
			<path fill="#9F9E9E" d="M131.433,75.922c0,0.749-0.837,1.355-1.87,1.355H13.174c-1.032,0-1.87-0.606-1.87-1.355l0,0
				c0-0.749,0.838-1.356,1.87-1.356h116.388C130.596,74.565,131.433,75.173,131.433,75.922L131.433,75.922z"/>
			<path fill="#9F9E9E" d="M94.206,89.126c0,0.684-0.763,1.237-1.705,1.237h-79.49c-0.942,0-1.707-0.554-1.707-1.237l0,0
				c0-0.683,0.765-1.237,1.707-1.237h79.49C93.443,87.889,94.206,88.443,94.206,89.126L94.206,89.126z"/>
			<path fill="#9F9E9E" d="M113.226,102.39c0,0.717-0.799,1.298-1.788,1.298H13.092c-0.987,0-1.788-0.581-1.788-1.298l0,0
				c0-0.716,0.801-1.297,1.788-1.297h98.345C112.427,101.093,113.226,101.674,113.226,102.39L113.226,102.39z"/>
		</g>
		<g>
			<path fill="#9F9E9E" d="M113.063,115.037c0,0.733-0.818,1.327-1.827,1.327H13.134c-1.01,0-1.83-0.594-1.83-1.327l0,0
				c0-0.732,0.82-1.326,1.83-1.326h98.103C112.245,113.711,113.063,114.305,113.063,115.037L113.063,115.037z"/>
			<path fill="#9F9E9E" d="M131.433,128.922c0,0.749-0.837,1.355-1.87,1.355H13.174c-1.032,0-1.87-0.606-1.87-1.355l0,0
				c0-0.749,0.838-1.356,1.87-1.356h116.388C130.596,127.565,131.433,128.173,131.433,128.922L131.433,128.922z"/>
		</g>
		<path fill="#9F9E9E" d="M68.899,162.731c0,4.623-3.749,8.371-8.372,8.371H19.026c-4.624,0-8.371-3.748-8.371-8.371l0,0
			c0-4.623,3.748-8.371,8.371-8.371h41.501C65.15,154.36,68.899,158.108,68.899,162.731L68.899,162.731z"/>
	</g>
</g>
</svg>
