<?xml version="1.0" encoding="utf-8"?>
<!-- Generator: Adobe Illustrator 16.0.0, SVG Export Plug-In . SVG Version: 6.00 Build 0)  -->
<!DOCTYPE svg PUBLIC "-//W3C//DTD SVG 1.1//EN" "http://www.w3.org/Graphics/SVG/1.1/DTD/svg11.dtd">
<svg version="1.1" id="Layer_1" xmlns="http://www.w3.org/2000/svg" xmlns:xlink="http://www.w3.org/1999/xlink" x="0px" y="0px"
	 width="141.904px" height="188.668px" viewBox="0 0 141.904 188.668" enable-background="new 0 0 141.904 188.668"
	 xml:space="preserve">
<rect fill="#E8E8E8" width="141.904" height="188.668"/>
<g id="template_1_2_">
	<path opacity="0.2" fill="#9F9E9E" d="M68.25,35.454c0,0.977-0.793,1.769-1.77,1.769H13.073c-0.977,0-1.769-0.792-1.769-1.769
		v-3.006c0-0.977,0.792-1.769,1.769-1.769h53.408c0.977,0,1.77,0.792,1.77,1.769V35.454z"/>
	<g opacity="0.2">
		<g>
			<path fill="#9F9E9E" d="M113.063,62.037c0,0.733-0.818,1.327-1.827,1.327H13.134c-1.01,0-1.83-0.594-1.83-1.327l0,0
				c0-0.732,0.82-1.326,1.83-1.326h98.103C112.245,60.711,113.063,61.305,113.063,62.037L113.063,62.037z"/>
			<path fill="#9F9E9E" d="M131.433,75.922c0,0.749-0.837,1.355-1.87,1.355H13.174c-1.032,0-1.87-0.606-1.87-1.355l0,0
				c0-0.749,0.838-1.356,1.87-1.356h116.388C130.596,74.565,131.433,75.173,131.433,75.922L131.433,75.922z"/>
			<path fill="#9F9E9E" d="M94.206,89.126c0,0.684-0.763,1.237-1.705,1.237h-79.49c-0.942,0-1.707-0.554-1.707-1.237l0,0
				c0-0.683,0.765-1.237,1.707-1.237h79.49C93.443,87.889,94.206,88.443,94.206,89.126L94.206,89.126z"/>
			<path fill="#9F9E9E" d="M113.226,102.39c0,0.717-0.799,1.298-1.788,1.298H13.092c-0.987,0-1.788-0.581-1.788-1.298l0,0
				c0-0.716,0.801-1.297,1.788-1.297h98.345C112.427,101.093,113.226,101.674,113.226,102.39L113.226,102.39z"/>
		</g>
		<g>
			<path fill="#9F9E9E" d="M113.063,115.037c0,0.733-0.818,1.327-1.827,1.327H13.134c-1.01,0-1.83-0.594-1.83-1.327l0,0
				c0-0.732,0.82-1.326,1.83-1.326h98.103C112.245,113.711,113.063,114.305,113.063,115.037L113.063,115.037z"/>
			<path fill="#9F9E9E" d="M131.433,128.922c0,0.749-0.837,1.355-1.87,1.355H13.174c-1.032,0-1.87-0.606-1.87-1.355l0,0
				c0-0.749,0.838-1.356,1.87-1.356h116.388C130.596,127.565,131.433,128.173,131.433,128.922L131.433,128.922z"/>
		</g>
		<path fill="#9F9E9E" d="M68.899,162.731c0,4.623-3.749,8.371-8.372,8.371H19.026c-4.624,0-8.371-3.748-8.371-8.371l0,0
			c0-4.623,3.748-8.371,8.371-8.371h41.501C65.15,154.36,68.899,158.108,68.899,162.731L68.899,162.731z"/>
	</g>
</g>
</svg>
