<?xml version="1.0" encoding="utf-8"?>
<!-- Generator: Adobe Illustrator 16.0.0, SVG Export Plug-In . SVG Version: 6.00 Build 0)  -->
<!DOCTYPE svg PUBLIC "-//W3C//DTD SVG 1.1//EN" "http://www.w3.org/Graphics/SVG/1.1/DTD/svg11.dtd">
<svg version="1.1" xmlns="http://www.w3.org/2000/svg" xmlns:xlink="http://www.w3.org/1999/xlink" x="0px" y="0px" width="185px"
	 height="89px" viewBox="0 0 185 89" enable-background="new 0 0 185 89" xml:space="preserve">
<g id="countdown">
	<rect fill="#E8E8E8" width="185" height="89"/>
	<g id="template_2_4_">
		<g id="template_2">
			<g id="block_2_">
				<g>
					<path opacity="0.2" fill="#9F9E9E" d="M43.327,61.9c0,0.546-0.219,0.989-0.487,0.989H20.163c-0.27,0-0.486-0.442-0.486-0.989
						l0,0c0-0.546,0.217-0.989,0.486-0.989H42.84C43.108,60.911,43.327,61.354,43.327,61.9L43.327,61.9z"/>
					<path opacity="0.2" fill="#9F9E9E" d="M46.04,67.5c0,0.572-0.229,1.037-0.511,1.037H17.474c-0.281,0-0.51-0.465-0.51-1.037l0,0
						c0-0.572,0.229-1.037,0.51-1.037h28.056C45.812,66.463,46.04,66.928,46.04,67.5L46.04,67.5z"/>
				</g>
				<rect x="18.332" y="29.512" display="none" fill="#D3D3D3" width="26.34" height="26.34"/>
				<text transform="matrix(1 0 0 1 23.0425 54.3218)" opacity="0.2" fill="#7D7D7D" font-family="'NuevaStd-Bold'" font-size="16">00</text>
			</g>
		</g>
		<g id="template_2_1_">
			<g id="block_1_">
				<g>
					<path opacity="0.2" fill="#9F9E9E" d="M84.327,61.9c0,0.546-0.219,0.989-0.487,0.989H61.163c-0.27,0-0.486-0.442-0.486-0.989
						l0,0c0-0.546,0.217-0.989,0.486-0.989H83.84C84.108,60.911,84.327,61.354,84.327,61.9L84.327,61.9z"/>
					<path opacity="0.2" fill="#9F9E9E" d="M87.04,67.5c0,0.572-0.229,1.037-0.511,1.037H58.474c-0.281,0-0.51-0.465-0.51-1.037l0,0
						c0-0.572,0.229-1.037,0.51-1.037h28.056C86.812,66.463,87.04,66.928,87.04,67.5L87.04,67.5z"/>
				</g>
				<rect x="59.332" y="29.512" display="none" fill="#D3D3D3" width="26.34" height="26.34"/>
				<text transform="matrix(1 0 0 1 64.0425 54.3218)" opacity="0.2" fill="#7D7D7D" font-family="'NuevaStd-Bold'" font-size="16">00</text>
			</g>
		</g>
		<g id="template_2_3_">
			<g id="block_8_">
				<g>
					<path opacity="0.2" fill="#9F9E9E" d="M124.327,61.9c0,0.546-0.219,0.989-0.487,0.989h-22.677c-0.27,0-0.486-0.442-0.486-0.989
						l0,0c0-0.546,0.217-0.989,0.486-0.989h22.677C124.108,60.911,124.327,61.354,124.327,61.9L124.327,61.9z"/>
					<path opacity="0.2" fill="#9F9E9E" d="M127.04,67.5c0,0.572-0.229,1.037-0.511,1.037H98.474c-0.281,0-0.51-0.465-0.51-1.037
						l0,0c0-0.572,0.229-1.037,0.51-1.037h28.056C126.812,66.463,127.04,66.928,127.04,67.5L127.04,67.5z"/>
				</g>
				<rect x="99.332" y="29.512" display="none" fill="#D3D3D3" width="26.34" height="26.34"/>
				<text transform="matrix(1 0 0 1 104.043 54.3218)" opacity="0.2" fill="#7D7D7D" font-family="'NuevaStd-Bold'" font-size="16">00</text>
			</g>
		</g>
		<g id="template_2_2_">
			<g id="block_3_">
				<g>
					<path opacity="0.2" fill="#9F9E9E" d="M165.327,61.9c0,0.546-0.219,0.989-0.487,0.989h-22.677c-0.27,0-0.486-0.442-0.486-0.989
						l0,0c0-0.546,0.217-0.989,0.486-0.989h22.677C165.108,60.911,165.327,61.354,165.327,61.9L165.327,61.9z"/>
					<path opacity="0.2" fill="#9F9E9E" d="M168.04,67.5c0,0.572-0.229,1.037-0.511,1.037h-28.056c-0.281,0-0.51-0.465-0.51-1.037
						l0,0c0-0.572,0.229-1.037,0.51-1.037h28.056C167.812,66.463,168.04,66.928,168.04,67.5L168.04,67.5z"/>
				</g>
				<rect x="140.332" y="29.512" display="none" fill="#D3D3D3" width="26.34" height="26.34"/>
				<text transform="matrix(1 0 0 1 145.043 54.3218)" opacity="0.2" fill="#7D7D7D" font-family="'NuevaStd-Bold'" font-size="16">00</text>
			</g>
		</g>
		<g id="icon_group_1_">
			<circle fill="#C6C6C5" cx="31.915" cy="28.375" r="8.125"/>
			<g id="icon_8_">
				<g>
					<g>
						<g>
							<path fill="#898888" d="M35.184,24.261c-0.046-0.026-0.102-0.025-0.146,0.001l-2.69,1.59
								c-0.07,0.042-0.093,0.131-0.052,0.202c0.041,0.069,0.131,0.092,0.201,0.051l1.93-1.141l-3.596,3.73l-1.787-0.547l2.334-1.38
								c0.068-0.042,0.092-0.131,0.051-0.201s-0.131-0.093-0.201-0.052l-2.619,1.549c-0.051,0.03-0.078,0.086-0.072,0.144
								c0.008,0.058,0.049,0.106,0.104,0.123l2.135,0.653l0.943,1.715c0,0.002,0.002,0.003,0.002,0.004
								c0.016,0.026,0.039,0.048,0.069,0.06c0.019,0.008,0.038,0.012,0.057,0.012c0.038,0,0.075-0.015,0.103-0.042l1.083-1.059
								l2.038,0.624c0.014,0.004,0.028,0.006,0.043,0.006c0.031,0,0.061-0.01,0.087-0.029c0.038-0.027,0.06-0.071,0.06-0.118v-5.769
								C35.258,24.336,35.229,24.288,35.184,24.261z M31.725,29.075c-0.018,0.025-0.027,0.054-0.027,0.083v0.898l-0.643-1.171
								l2.846-2.953L31.725,29.075z M31.991,30.28v-0.923l0.72,0.22L31.991,30.28z M34.965,29.959l-2.885-0.882l2.885-4.164V29.959z
								"/>
						</g>
					</g>
					<g>
						<g>
							<path fill="#898888" d="M30.156,29.344c-0.058-0.057-0.15-0.057-0.208,0l-1.37,1.37c-0.058,0.057-0.058,0.15,0,0.208
								c0.028,0.028,0.066,0.043,0.104,0.043s0.075-0.015,0.104-0.043l1.371-1.371C30.213,29.495,30.213,29.402,30.156,29.344z"/>
						</g>
					</g>
					<g>
						<g>
							<path fill="#898888" d="M28.33,31.169c-0.057-0.057-0.15-0.057-0.207,0l-0.338,0.338c-0.057,0.057-0.057,0.15,0,0.208
								c0.028,0.028,0.066,0.043,0.104,0.043s0.076-0.015,0.104-0.043l0.337-0.338C28.388,31.32,28.388,31.227,28.33,31.169z"/>
						</g>
					</g>
					<g>
						<g>
							<path fill="#898888" d="M29.836,31.499c-0.027-0.027-0.064-0.043-0.104-0.043s-0.076,0.016-0.104,0.043
								s-0.043,0.065-0.043,0.104c0,0.039,0.016,0.076,0.043,0.104c0.027,0.028,0.064,0.043,0.104,0.043s0.076-0.015,0.104-0.043
								c0.027-0.027,0.043-0.065,0.043-0.104C29.879,31.563,29.863,31.526,29.836,31.499z"/>
						</g>
					</g>
					<g>
						<g>
							<path fill="#898888" d="M30.928,30.406c-0.057-0.058-0.15-0.058-0.207,0l-0.726,0.726c-0.058,0.057-0.058,0.15,0,0.208
								c0.028,0.029,0.065,0.043,0.104,0.043s0.075-0.015,0.104-0.043l0.725-0.726C30.986,30.557,30.986,30.464,30.928,30.406z"/>
						</g>
					</g>
					<g>
						<g>
							<path fill="#898888" d="M33.434,30.351c-0.058-0.057-0.15-0.057-0.208,0l-0.728,0.728c-0.058,0.057-0.058,0.15,0,0.208
								c0.028,0.028,0.066,0.043,0.104,0.043s0.075-0.015,0.104-0.043l0.729-0.728C33.49,30.501,33.49,30.408,33.434,30.351z"/>
						</g>
					</g>
					<g>
						<g>
							<path fill="#898888" d="M31.904,26.243C31.876,26.216,31.839,26.2,31.8,26.2c-0.038,0-0.077,0.016-0.104,0.043
								c-0.028,0.027-0.044,0.065-0.044,0.104c0,0.039,0.016,0.076,0.044,0.104c0.026,0.027,0.065,0.043,0.104,0.043
								c0.039,0,0.076-0.016,0.104-0.043c0.026-0.028,0.043-0.065,0.043-0.104C31.947,26.308,31.931,26.27,31.904,26.243z"/>
						</g>
					</g>
				</g>
			</g>
		</g>
		<g id="icon_group_2_">
			<circle fill="#C6C6C5" cx="72.915" cy="28.375" r="8.125"/>
			<g id="icon_10_">
				<g>
					<g>
						<g>
							<path fill="#898888" d="M76.184,24.261c-0.046-0.026-0.102-0.025-0.146,0.001l-2.69,1.59
								c-0.07,0.042-0.093,0.131-0.052,0.202c0.041,0.069,0.131,0.092,0.201,0.051l1.93-1.141l-3.596,3.73l-1.787-0.547l2.334-1.38
								c0.068-0.042,0.092-0.131,0.051-0.201s-0.131-0.093-0.201-0.052l-2.619,1.549c-0.051,0.03-0.078,0.086-0.072,0.144
								c0.008,0.058,0.049,0.106,0.104,0.123l2.135,0.653l0.943,1.715c0,0.002,0.002,0.003,0.002,0.004
								c0.016,0.026,0.039,0.048,0.069,0.06c0.019,0.008,0.038,0.012,0.057,0.012c0.038,0,0.075-0.015,0.103-0.042l1.083-1.059
								l2.038,0.624c0.014,0.004,0.028,0.006,0.043,0.006c0.031,0,0.061-0.01,0.087-0.029c0.038-0.027,0.06-0.071,0.06-0.118v-5.769
								C76.258,24.336,76.229,24.288,76.184,24.261z M72.725,29.075c-0.018,0.025-0.027,0.054-0.027,0.083v0.898l-0.643-1.171
								l2.846-2.953L72.725,29.075z M72.991,30.28v-0.923l0.72,0.22L72.991,30.28z M75.965,29.959l-2.885-0.882l2.885-4.164V29.959z
								"/>
						</g>
					</g>
					<g>
						<g>
							<path fill="#898888" d="M71.156,29.344c-0.058-0.057-0.15-0.057-0.208,0l-1.37,1.37c-0.058,0.057-0.058,0.15,0,0.208
								c0.028,0.028,0.066,0.043,0.104,0.043s0.075-0.015,0.104-0.043l1.371-1.371C71.213,29.495,71.213,29.402,71.156,29.344z"/>
						</g>
					</g>
					<g>
						<g>
							<path fill="#898888" d="M69.33,31.169c-0.057-0.057-0.15-0.057-0.207,0l-0.338,0.338c-0.057,0.057-0.057,0.15,0,0.208
								c0.028,0.028,0.066,0.043,0.104,0.043s0.076-0.015,0.104-0.043l0.337-0.338C69.388,31.32,69.388,31.227,69.33,31.169z"/>
						</g>
					</g>
					<g>
						<g>
							<path fill="#898888" d="M70.836,31.499c-0.027-0.027-0.064-0.043-0.104-0.043s-0.076,0.016-0.104,0.043
								s-0.043,0.065-0.043,0.104c0,0.039,0.016,0.076,0.043,0.104c0.027,0.028,0.064,0.043,0.104,0.043s0.076-0.015,0.104-0.043
								c0.027-0.027,0.043-0.065,0.043-0.104C70.879,31.563,70.863,31.526,70.836,31.499z"/>
						</g>
					</g>
					<g>
						<g>
							<path fill="#898888" d="M71.928,30.406c-0.057-0.058-0.15-0.058-0.207,0l-0.726,0.726c-0.058,0.057-0.058,0.15,0,0.208
								c0.028,0.029,0.065,0.043,0.104,0.043s0.075-0.015,0.104-0.043l0.725-0.726C71.986,30.557,71.986,30.464,71.928,30.406z"/>
						</g>
					</g>
					<g>
						<g>
							<path fill="#898888" d="M74.434,30.351c-0.058-0.057-0.15-0.057-0.208,0l-0.728,0.728c-0.058,0.057-0.058,0.15,0,0.208
								c0.028,0.028,0.066,0.043,0.104,0.043s0.075-0.015,0.104-0.043l0.729-0.728C74.49,30.501,74.49,30.408,74.434,30.351z"/>
						</g>
					</g>
					<g>
						<g>
							<path fill="#898888" d="M72.904,26.243C72.876,26.216,72.839,26.2,72.8,26.2c-0.038,0-0.077,0.016-0.104,0.043
								c-0.028,0.027-0.044,0.065-0.044,0.104c0,0.039,0.016,0.076,0.044,0.104c0.026,0.027,0.065,0.043,0.104,0.043
								c0.039,0,0.076-0.016,0.104-0.043c0.026-0.028,0.043-0.065,0.043-0.104C72.947,26.308,72.931,26.27,72.904,26.243z"/>
						</g>
					</g>
				</g>
			</g>
		</g>
		<g id="icon_group_3_">
			<circle fill="#C6C6C5" cx="112.914" cy="28.375" r="8.125"/>
			<g id="icon_12_">
				<g>
					<g>
						<g>
							<path fill="#898888" d="M116.184,24.261c-0.046-0.026-0.102-0.025-0.146,0.001l-2.69,1.59
								c-0.07,0.042-0.093,0.131-0.052,0.202c0.041,0.069,0.131,0.092,0.201,0.051l1.93-1.141l-3.596,3.73l-1.787-0.547l2.334-1.38
								c0.068-0.042,0.092-0.131,0.051-0.201s-0.131-0.093-0.201-0.052l-2.619,1.549c-0.051,0.03-0.078,0.086-0.072,0.144
								c0.008,0.058,0.049,0.106,0.104,0.123l2.135,0.653l0.943,1.715c0,0.002,0.002,0.003,0.002,0.004
								c0.016,0.026,0.039,0.048,0.069,0.06c0.019,0.008,0.038,0.012,0.057,0.012c0.038,0,0.075-0.015,0.103-0.042l1.083-1.059
								l2.038,0.624c0.014,0.004,0.028,0.006,0.043,0.006c0.031,0,0.061-0.01,0.087-0.029c0.038-0.027,0.06-0.071,0.06-0.118v-5.769
								C116.258,24.336,116.229,24.288,116.184,24.261z M112.725,29.075c-0.018,0.025-0.027,0.054-0.027,0.083v0.898l-0.643-1.171
								l2.846-2.953L112.725,29.075z M112.991,30.28v-0.923l0.72,0.22L112.991,30.28z M115.965,29.959l-2.885-0.882l2.885-4.164
								V29.959z"/>
						</g>
					</g>
					<g>
						<g>
							<path fill="#898888" d="M111.156,29.344c-0.058-0.057-0.15-0.057-0.208,0l-1.37,1.37c-0.058,0.057-0.058,0.15,0,0.208
								c0.028,0.028,0.066,0.043,0.104,0.043s0.075-0.015,0.104-0.043l1.371-1.371C111.213,29.495,111.213,29.402,111.156,29.344z"
								/>
						</g>
					</g>
					<g>
						<g>
							<path fill="#898888" d="M109.33,31.169c-0.057-0.057-0.15-0.057-0.207,0l-0.338,0.338c-0.057,0.057-0.057,0.15,0,0.208
								c0.028,0.028,0.066,0.043,0.104,0.043s0.076-0.015,0.104-0.043l0.337-0.338C109.388,31.32,109.388,31.227,109.33,31.169z"/>
						</g>
					</g>
					<g>
						<g>
							<path fill="#898888" d="M110.836,31.499c-0.027-0.027-0.064-0.043-0.104-0.043s-0.076,0.016-0.104,0.043
								s-0.043,0.065-0.043,0.104c0,0.039,0.016,0.076,0.043,0.104c0.027,0.028,0.064,0.043,0.104,0.043s0.076-0.015,0.104-0.043
								c0.027-0.027,0.043-0.065,0.043-0.104C110.879,31.563,110.863,31.526,110.836,31.499z"/>
						</g>
					</g>
					<g>
						<g>
							<path fill="#898888" d="M111.928,30.406c-0.057-0.058-0.15-0.058-0.207,0l-0.726,0.726c-0.058,0.057-0.058,0.15,0,0.208
								c0.028,0.029,0.065,0.043,0.104,0.043s0.075-0.015,0.104-0.043l0.725-0.726C111.986,30.557,111.986,30.464,111.928,30.406z"
								/>
						</g>
					</g>
					<g>
						<g>
							<path fill="#898888" d="M114.434,30.351c-0.058-0.057-0.15-0.057-0.208,0l-0.728,0.728c-0.058,0.057-0.058,0.15,0,0.208
								c0.028,0.028,0.066,0.043,0.104,0.043s0.075-0.015,0.104-0.043l0.729-0.728C114.49,30.501,114.49,30.408,114.434,30.351z"/>
						</g>
					</g>
					<g>
						<g>
							<path fill="#898888" d="M112.904,26.243c-0.028-0.027-0.065-0.043-0.104-0.043c-0.038,0-0.077,0.016-0.104,0.043
								c-0.028,0.027-0.044,0.065-0.044,0.104c0,0.039,0.016,0.076,0.044,0.104c0.026,0.027,0.065,0.043,0.104,0.043
								c0.039,0,0.076-0.016,0.104-0.043c0.026-0.028,0.043-0.065,0.043-0.104C112.947,26.308,112.931,26.27,112.904,26.243z"/>
						</g>
					</g>
				</g>
			</g>
		</g>
		<g id="icon_group_4_">
			<circle fill="#C6C6C5" cx="153.914" cy="28.375" r="8.125"/>
			<g id="icon_14_">
				<g>
					<g>
						<g>
							<path fill="#898888" d="M157.184,24.261c-0.046-0.026-0.102-0.025-0.146,0.001l-2.69,1.59
								c-0.07,0.042-0.093,0.131-0.052,0.202c0.041,0.069,0.131,0.092,0.201,0.051l1.93-1.141l-3.596,3.73l-1.787-0.547l2.334-1.38
								c0.068-0.042,0.092-0.131,0.051-0.201s-0.131-0.093-0.201-0.052l-2.619,1.549c-0.051,0.03-0.078,0.086-0.072,0.144
								c0.008,0.058,0.049,0.106,0.104,0.123l2.135,0.653l0.943,1.715c0,0.002,0.002,0.003,0.002,0.004
								c0.016,0.026,0.039,0.048,0.069,0.06c0.019,0.008,0.038,0.012,0.057,0.012c0.038,0,0.075-0.015,0.103-0.042l1.083-1.059
								l2.038,0.624c0.014,0.004,0.028,0.006,0.043,0.006c0.031,0,0.061-0.01,0.087-0.029c0.038-0.027,0.06-0.071,0.06-0.118v-5.769
								C157.258,24.336,157.229,24.288,157.184,24.261z M153.725,29.075c-0.018,0.025-0.027,0.054-0.027,0.083v0.898l-0.643-1.171
								l2.846-2.953L153.725,29.075z M153.991,30.28v-0.923l0.72,0.22L153.991,30.28z M156.965,29.959l-2.885-0.882l2.885-4.164
								V29.959z"/>
						</g>
					</g>
					<g>
						<g>
							<path fill="#898888" d="M152.156,29.344c-0.058-0.057-0.15-0.057-0.208,0l-1.37,1.37c-0.058,0.057-0.058,0.15,0,0.208
								c0.028,0.028,0.066,0.043,0.104,0.043s0.075-0.015,0.104-0.043l1.371-1.371C152.213,29.495,152.213,29.402,152.156,29.344z"
								/>
						</g>
					</g>
					<g>
						<g>
							<path fill="#898888" d="M150.33,31.169c-0.057-0.057-0.15-0.057-0.207,0l-0.338,0.338c-0.057,0.057-0.057,0.15,0,0.208
								c0.028,0.028,0.066,0.043,0.104,0.043s0.076-0.015,0.104-0.043l0.337-0.338C150.388,31.32,150.388,31.227,150.33,31.169z"/>
						</g>
					</g>
					<g>
						<g>
							<path fill="#898888" d="M151.836,31.499c-0.027-0.027-0.064-0.043-0.104-0.043s-0.076,0.016-0.104,0.043
								s-0.043,0.065-0.043,0.104c0,0.039,0.016,0.076,0.043,0.104c0.027,0.028,0.064,0.043,0.104,0.043s0.076-0.015,0.104-0.043
								c0.027-0.027,0.043-0.065,0.043-0.104C151.879,31.563,151.863,31.526,151.836,31.499z"/>
						</g>
					</g>
					<g>
						<g>
							<path fill="#898888" d="M152.928,30.406c-0.057-0.058-0.15-0.058-0.207,0l-0.726,0.726c-0.058,0.057-0.058,0.15,0,0.208
								c0.028,0.029,0.065,0.043,0.104,0.043s0.075-0.015,0.104-0.043l0.725-0.726C152.986,30.557,152.986,30.464,152.928,30.406z"
								/>
						</g>
					</g>
					<g>
						<g>
							<path fill="#898888" d="M155.434,30.351c-0.058-0.057-0.15-0.057-0.208,0l-0.728,0.728c-0.058,0.057-0.058,0.15,0,0.208
								c0.028,0.028,0.066,0.043,0.104,0.043s0.075-0.015,0.104-0.043l0.729-0.728C155.49,30.501,155.49,30.408,155.434,30.351z"/>
						</g>
					</g>
					<g>
						<g>
							<path fill="#898888" d="M153.904,26.243c-0.028-0.027-0.065-0.043-0.104-0.043c-0.038,0-0.077,0.016-0.104,0.043
								c-0.028,0.027-0.044,0.065-0.044,0.104c0,0.039,0.016,0.076,0.044,0.104c0.026,0.027,0.065,0.043,0.104,0.043
								c0.039,0,0.076-0.016,0.104-0.043c0.026-0.028,0.043-0.065,0.043-0.104C153.947,26.308,153.931,26.27,153.904,26.243z"/>
						</g>
					</g>
				</g>
			</g>
		</g>
	</g>
	<g id="template_1_1_" display="none">
		<g id="block_7_" display="inline">
			<path opacity="0.2" fill="#9F9E9E" d="M81.673,59.9c0,0.546-0.218,0.989-0.487,0.989H58.51c-0.269,0-0.487-0.442-0.487-0.989l0,0
				c0-0.546,0.218-0.989,0.487-0.989h22.677C81.456,58.911,81.673,59.354,81.673,59.9L81.673,59.9z"/>
			<path opacity="0.2" fill="#9F9E9E" d="M87.076,67.5c0,0.572-0.229,1.037-0.51,1.037H58.51c-0.282,0-0.51-0.465-0.51-1.037l0,0
				c0-0.572,0.228-1.037,0.51-1.037h28.055C86.847,66.463,87.076,66.928,87.076,67.5L87.076,67.5z"/>
			<text transform="matrix(1 0 0 1 58.0229 48)" opacity="0.2" fill="#9F9E9E" font-family="'NuevaStd-Bold'" font-size="16">00</text>
		</g>
		<g id="block_6_" display="inline">
			<path opacity="0.2" fill="#9F9E9E" d="M36.673,59.9c0,0.546-0.218,0.989-0.487,0.989H13.51c-0.269,0-0.487-0.442-0.487-0.989l0,0
				c0-0.546,0.218-0.989,0.487-0.989h22.677C36.456,58.911,36.673,59.354,36.673,59.9L36.673,59.9z"/>
			<path opacity="0.2" fill="#9F9E9E" d="M42.076,67.5c0,0.572-0.229,1.037-0.51,1.037H13.51c-0.282,0-0.51-0.465-0.51-1.037l0,0
				c0-0.572,0.228-1.037,0.51-1.037h28.055C41.847,66.463,42.076,66.928,42.076,67.5L42.076,67.5z"/>
			<text transform="matrix(1 0 0 1 13.0229 48)" opacity="0.2" fill="#9F9E9E" font-family="'NuevaStd-Bold'" font-size="16">00</text>
		</g>
		<g id="block_5_" display="inline">
			<path opacity="0.2" fill="#9F9E9E" d="M167.674,59.9c0,0.546-0.219,0.989-0.487,0.989H144.51c-0.27,0-0.486-0.442-0.486-0.989
				l0,0c0-0.546,0.217-0.989,0.486-0.989h22.677C167.455,58.911,167.674,59.354,167.674,59.9L167.674,59.9z"/>
			<path opacity="0.2" fill="#9F9E9E" d="M173.076,67.5c0,0.572-0.229,1.037-0.511,1.037H144.51c-0.281,0-0.51-0.465-0.51-1.037l0,0
				c0-0.572,0.229-1.037,0.51-1.037h28.056C172.848,66.463,173.076,66.928,173.076,67.5L173.076,67.5z"/>
			<text transform="matrix(1 0 0 1 144.0234 48)" opacity="0.2" fill="#9F9E9E" font-family="'NuevaStd-Bold'" font-size="16">00</text>
		</g>
		<g id="icon_group" display="inline">
			<g id="icon">
				<g>
					<g>
						<g>
							<path fill="#898888" d="M23.184,23.261c-0.046-0.026-0.102-0.025-0.147,0.001l-2.69,1.59
								c-0.07,0.042-0.093,0.131-0.052,0.202c0.042,0.069,0.131,0.092,0.201,0.051l1.93-1.141l-3.595,3.73l-1.788-0.547l2.334-1.38
								c0.069-0.042,0.093-0.131,0.051-0.201c-0.041-0.07-0.131-0.093-0.201-0.052l-2.62,1.549c-0.05,0.03-0.078,0.086-0.071,0.144
								c0.007,0.058,0.048,0.106,0.104,0.123l2.135,0.653l0.942,1.715c0.001,0.002,0.002,0.003,0.003,0.004
								c0.016,0.026,0.039,0.048,0.069,0.06c0.018,0.008,0.038,0.012,0.057,0.012c0.038,0,0.075-0.015,0.103-0.042l1.083-1.059
								l2.038,0.624c0.014,0.004,0.029,0.006,0.043,0.006c0.031,0,0.062-0.01,0.087-0.029c0.038-0.027,0.06-0.071,0.06-0.118v-5.769
								C23.258,23.336,23.229,23.288,23.184,23.261z M19.724,28.075c-0.017,0.025-0.026,0.054-0.026,0.083v0.898l-0.643-1.171
								l2.846-2.953L19.724,28.075z M19.991,29.28v-0.923l0.719,0.22L19.991,29.28z M22.964,28.959l-2.884-0.882l2.884-4.164V28.959
								z"/>
						</g>
					</g>
					<g>
						<g>
							<path fill="#898888" d="M18.156,28.344c-0.057-0.057-0.15-0.057-0.208,0l-1.371,1.37c-0.057,0.057-0.057,0.15,0,0.208
								c0.029,0.028,0.066,0.043,0.104,0.043s0.075-0.015,0.104-0.043l1.37-1.371C18.213,28.495,18.213,28.402,18.156,28.344z"/>
						</g>
					</g>
					<g>
						<g>
							<path fill="#898888" d="M16.331,30.169c-0.058-0.057-0.15-0.057-0.208,0l-0.337,0.338c-0.057,0.057-0.057,0.15,0,0.208
								c0.028,0.028,0.066,0.043,0.104,0.043c0.037,0,0.075-0.015,0.104-0.043l0.337-0.338
								C16.388,30.32,16.388,30.227,16.331,30.169z"/>
						</g>
					</g>
					<g>
						<g>
							<path fill="#898888" d="M17.836,30.499c-0.028-0.027-0.065-0.043-0.104-0.043s-0.077,0.016-0.104,0.043
								c-0.028,0.027-0.043,0.065-0.043,0.104c0,0.039,0.015,0.076,0.043,0.104c0.027,0.028,0.065,0.043,0.104,0.043
								s0.076-0.015,0.104-0.043c0.027-0.027,0.042-0.065,0.042-0.104C17.879,30.563,17.863,30.526,17.836,30.499z"/>
						</g>
					</g>
					<g>
						<g>
							<path fill="#898888" d="M18.928,29.406c-0.057-0.058-0.15-0.058-0.208,0l-0.726,0.726c-0.058,0.057-0.058,0.15,0,0.208
								c0.028,0.029,0.066,0.043,0.104,0.043s0.075-0.015,0.104-0.043l0.726-0.726C18.986,29.557,18.986,29.464,18.928,29.406z"/>
						</g>
					</g>
					<g>
						<g>
							<path fill="#898888" d="M21.433,29.351c-0.057-0.057-0.15-0.057-0.208,0l-0.728,0.728c-0.058,0.057-0.058,0.15,0,0.208
								c0.028,0.028,0.066,0.043,0.104,0.043s0.075-0.015,0.104-0.043l0.728-0.728C21.491,29.501,21.491,29.408,21.433,29.351z"/>
						</g>
					</g>
					<g>
						<g>
							<path fill="#898888" d="M19.904,25.243C19.876,25.216,19.839,25.2,19.8,25.2c-0.039,0-0.077,0.016-0.104,0.043
								c-0.028,0.027-0.043,0.065-0.043,0.104c0,0.039,0.016,0.076,0.043,0.104c0.027,0.027,0.065,0.043,0.104,0.043
								c0.039,0,0.076-0.016,0.104-0.043c0.027-0.028,0.043-0.065,0.043-0.104C19.947,25.308,19.931,25.27,19.904,25.243z"/>
						</g>
					</g>
				</g>
			</g>
			<g id="icon_1_">
				<g>
					<g>
						<g>
							<path fill="#898888" d="M67.184,23.261c-0.046-0.026-0.102-0.025-0.147,0.001l-2.69,1.59
								c-0.07,0.042-0.093,0.131-0.052,0.202c0.042,0.069,0.131,0.092,0.201,0.051l1.93-1.141l-3.595,3.73l-1.788-0.547l2.334-1.38
								c0.069-0.042,0.093-0.131,0.051-0.201c-0.041-0.07-0.131-0.093-0.201-0.052l-2.62,1.549c-0.05,0.03-0.078,0.086-0.071,0.144
								c0.007,0.058,0.048,0.106,0.104,0.123l2.135,0.653l0.942,1.715c0.001,0.002,0.002,0.003,0.003,0.004
								c0.016,0.026,0.039,0.048,0.069,0.06c0.018,0.008,0.038,0.012,0.057,0.012c0.038,0,0.075-0.015,0.103-0.042l1.083-1.059
								l2.038,0.624c0.014,0.004,0.029,0.006,0.043,0.006c0.031,0,0.062-0.01,0.087-0.029c0.038-0.027,0.06-0.071,0.06-0.118v-5.769
								C67.258,23.336,67.229,23.288,67.184,23.261z M63.724,28.075c-0.017,0.025-0.026,0.054-0.026,0.083v0.898l-0.643-1.171
								l2.846-2.953L63.724,28.075z M63.991,29.28v-0.923l0.719,0.22L63.991,29.28z M66.964,28.959l-2.884-0.882l2.884-4.164V28.959
								z"/>
						</g>
					</g>
					<g>
						<g>
							<path fill="#898888" d="M62.156,28.344c-0.057-0.057-0.15-0.057-0.208,0l-1.371,1.37c-0.057,0.057-0.057,0.15,0,0.208
								c0.029,0.028,0.066,0.043,0.104,0.043s0.075-0.015,0.104-0.043l1.37-1.371C62.213,28.495,62.213,28.402,62.156,28.344z"/>
						</g>
					</g>
					<g>
						<g>
							<path fill="#898888" d="M60.331,30.169c-0.058-0.057-0.15-0.057-0.208,0l-0.337,0.338c-0.057,0.057-0.057,0.15,0,0.208
								c0.028,0.028,0.066,0.043,0.104,0.043c0.037,0,0.075-0.015,0.104-0.043l0.337-0.338
								C60.388,30.32,60.388,30.227,60.331,30.169z"/>
						</g>
					</g>
					<g>
						<g>
							<path fill="#898888" d="M61.836,30.499c-0.028-0.027-0.065-0.043-0.104-0.043s-0.077,0.016-0.104,0.043
								c-0.028,0.027-0.043,0.065-0.043,0.104c0,0.039,0.015,0.076,0.043,0.104c0.027,0.028,0.065,0.043,0.104,0.043
								s0.076-0.015,0.104-0.043c0.027-0.027,0.042-0.065,0.042-0.104C61.879,30.563,61.863,30.526,61.836,30.499z"/>
						</g>
					</g>
					<g>
						<g>
							<path fill="#898888" d="M62.928,29.406c-0.057-0.058-0.15-0.058-0.208,0l-0.726,0.726c-0.058,0.057-0.058,0.15,0,0.208
								c0.028,0.029,0.066,0.043,0.104,0.043s0.075-0.015,0.104-0.043l0.726-0.726C62.986,29.557,62.986,29.464,62.928,29.406z"/>
						</g>
					</g>
					<g>
						<g>
							<path fill="#898888" d="M65.433,29.351c-0.057-0.057-0.15-0.057-0.208,0l-0.728,0.728c-0.058,0.057-0.058,0.15,0,0.208
								c0.028,0.028,0.066,0.043,0.104,0.043s0.075-0.015,0.104-0.043l0.728-0.728C65.491,29.501,65.491,29.408,65.433,29.351z"/>
						</g>
					</g>
					<g>
						<g>
							<path fill="#898888" d="M63.904,25.243C63.876,25.216,63.839,25.2,63.8,25.2c-0.039,0-0.077,0.016-0.104,0.043
								c-0.028,0.027-0.043,0.065-0.043,0.104c0,0.039,0.016,0.076,0.043,0.104c0.027,0.027,0.065,0.043,0.104,0.043
								c0.039,0,0.076-0.016,0.104-0.043c0.027-0.028,0.043-0.065,0.043-0.104C63.947,25.308,63.931,25.27,63.904,25.243z"/>
						</g>
					</g>
				</g>
			</g>
			<g id="icon_4_">
				<g>
					<g>
						<g>
							<path fill="#898888" d="M109.184,23.261c-0.046-0.026-0.102-0.025-0.146,0.001l-2.69,1.59
								c-0.07,0.042-0.093,0.131-0.052,0.202c0.041,0.069,0.131,0.092,0.201,0.051l1.93-1.141l-3.596,3.73l-1.787-0.547l2.334-1.38
								c0.068-0.042,0.092-0.131,0.051-0.201s-0.131-0.093-0.201-0.052l-2.619,1.549c-0.051,0.03-0.078,0.086-0.072,0.144
								c0.008,0.058,0.049,0.106,0.104,0.123l2.135,0.653l0.943,1.715c0,0.002,0.002,0.003,0.002,0.004
								c0.016,0.026,0.039,0.048,0.069,0.06c0.019,0.008,0.038,0.012,0.057,0.012c0.038,0,0.075-0.015,0.103-0.042l1.083-1.059
								l2.038,0.624c0.014,0.004,0.028,0.006,0.043,0.006c0.031,0,0.061-0.01,0.087-0.029c0.038-0.027,0.06-0.071,0.06-0.118v-5.769
								C109.258,23.336,109.229,23.288,109.184,23.261z M105.725,28.075c-0.018,0.025-0.027,0.054-0.027,0.083v0.898l-0.643-1.171
								l2.846-2.953L105.725,28.075z M105.991,29.28v-0.923l0.72,0.22L105.991,29.28z M108.965,28.959l-2.885-0.882l2.885-4.164
								V28.959z"/>
						</g>
					</g>
					<g>
						<g>
							<path fill="#898888" d="M104.156,28.344c-0.058-0.057-0.15-0.057-0.208,0l-1.37,1.37c-0.058,0.057-0.058,0.15,0,0.208
								c0.028,0.028,0.066,0.043,0.104,0.043s0.075-0.015,0.104-0.043l1.371-1.371C104.213,28.495,104.213,28.402,104.156,28.344z"
								/>
						</g>
					</g>
					<g>
						<g>
							<path fill="#898888" d="M102.33,30.169c-0.057-0.057-0.15-0.057-0.207,0l-0.338,0.338c-0.057,0.057-0.057,0.15,0,0.208
								c0.028,0.028,0.066,0.043,0.104,0.043s0.076-0.015,0.104-0.043l0.337-0.338C102.388,30.32,102.388,30.227,102.33,30.169z"/>
						</g>
					</g>
					<g>
						<g>
							<path fill="#898888" d="M103.836,30.499c-0.027-0.027-0.064-0.043-0.104-0.043s-0.076,0.016-0.104,0.043
								s-0.043,0.065-0.043,0.104c0,0.039,0.016,0.076,0.043,0.104c0.027,0.028,0.064,0.043,0.104,0.043s0.076-0.015,0.104-0.043
								c0.027-0.027,0.043-0.065,0.043-0.104C103.879,30.563,103.863,30.526,103.836,30.499z"/>
						</g>
					</g>
					<g>
						<g>
							<path fill="#898888" d="M104.928,29.406c-0.057-0.058-0.15-0.058-0.207,0l-0.726,0.726c-0.058,0.057-0.058,0.15,0,0.208
								c0.028,0.029,0.065,0.043,0.104,0.043s0.075-0.015,0.104-0.043l0.725-0.726C104.986,29.557,104.986,29.464,104.928,29.406z"
								/>
						</g>
					</g>
					<g>
						<g>
							<path fill="#898888" d="M107.434,29.351c-0.058-0.057-0.15-0.057-0.208,0l-0.728,0.728c-0.058,0.057-0.058,0.15,0,0.208
								c0.028,0.028,0.066,0.043,0.104,0.043s0.075-0.015,0.104-0.043l0.729-0.728C107.49,29.501,107.49,29.408,107.434,29.351z"/>
						</g>
					</g>
					<g>
						<g>
							<path fill="#898888" d="M105.904,25.243c-0.028-0.027-0.065-0.043-0.104-0.043c-0.038,0-0.077,0.016-0.104,0.043
								c-0.028,0.027-0.044,0.065-0.044,0.104c0,0.039,0.016,0.076,0.044,0.104c0.026,0.027,0.065,0.043,0.104,0.043
								c0.039,0,0.076-0.016,0.104-0.043c0.026-0.028,0.043-0.065,0.043-0.104C105.947,25.308,105.931,25.27,105.904,25.243z"/>
						</g>
					</g>
				</g>
			</g>
			<g id="icon_6_">
				<g>
					<g>
						<g>
							<path fill="#898888" d="M153.184,23.261c-0.046-0.026-0.102-0.025-0.146,0.001l-2.69,1.59
								c-0.07,0.042-0.093,0.131-0.052,0.202c0.041,0.069,0.131,0.092,0.201,0.051l1.93-1.141l-3.596,3.73l-1.787-0.547l2.334-1.38
								c0.068-0.042,0.092-0.131,0.051-0.201s-0.131-0.093-0.201-0.052l-2.619,1.549c-0.051,0.03-0.078,0.086-0.072,0.144
								c0.008,0.058,0.049,0.106,0.104,0.123l2.135,0.653l0.943,1.715c0,0.002,0.002,0.003,0.002,0.004
								c0.016,0.026,0.039,0.048,0.069,0.06c0.019,0.008,0.038,0.012,0.057,0.012c0.038,0,0.075-0.015,0.103-0.042l1.083-1.059
								l2.038,0.624c0.014,0.004,0.028,0.006,0.043,0.006c0.031,0,0.061-0.01,0.087-0.029c0.038-0.027,0.06-0.071,0.06-0.118v-5.769
								C153.258,23.336,153.229,23.288,153.184,23.261z M149.725,28.075c-0.018,0.025-0.027,0.054-0.027,0.083v0.898l-0.643-1.171
								l2.846-2.953L149.725,28.075z M149.991,29.28v-0.923l0.72,0.22L149.991,29.28z M152.965,28.959l-2.885-0.882l2.885-4.164
								V28.959z"/>
						</g>
					</g>
					<g>
						<g>
							<path fill="#898888" d="M148.156,28.344c-0.058-0.057-0.15-0.057-0.208,0l-1.37,1.37c-0.058,0.057-0.058,0.15,0,0.208
								c0.028,0.028,0.066,0.043,0.104,0.043s0.075-0.015,0.104-0.043l1.371-1.371C148.213,28.495,148.213,28.402,148.156,28.344z"
								/>
						</g>
					</g>
					<g>
						<g>
							<path fill="#898888" d="M146.33,30.169c-0.057-0.057-0.15-0.057-0.207,0l-0.338,0.338c-0.057,0.057-0.057,0.15,0,0.208
								c0.028,0.028,0.066,0.043,0.104,0.043s0.076-0.015,0.104-0.043l0.337-0.338C146.388,30.32,146.388,30.227,146.33,30.169z"/>
						</g>
					</g>
					<g>
						<g>
							<path fill="#898888" d="M147.836,30.499c-0.027-0.027-0.064-0.043-0.104-0.043s-0.076,0.016-0.104,0.043
								s-0.043,0.065-0.043,0.104c0,0.039,0.016,0.076,0.043,0.104c0.027,0.028,0.064,0.043,0.104,0.043s0.076-0.015,0.104-0.043
								c0.027-0.027,0.043-0.065,0.043-0.104C147.879,30.563,147.863,30.526,147.836,30.499z"/>
						</g>
					</g>
					<g>
						<g>
							<path fill="#898888" d="M148.928,29.406c-0.057-0.058-0.15-0.058-0.207,0l-0.726,0.726c-0.058,0.057-0.058,0.15,0,0.208
								c0.028,0.029,0.065,0.043,0.104,0.043s0.075-0.015,0.104-0.043l0.725-0.726C148.986,29.557,148.986,29.464,148.928,29.406z"
								/>
						</g>
					</g>
					<g>
						<g>
							<path fill="#898888" d="M151.434,29.351c-0.058-0.057-0.15-0.057-0.208,0l-0.728,0.728c-0.058,0.057-0.058,0.15,0,0.208
								c0.028,0.028,0.066,0.043,0.104,0.043s0.075-0.015,0.104-0.043l0.729-0.728C151.49,29.501,151.49,29.408,151.434,29.351z"/>
						</g>
					</g>
					<g>
						<g>
							<path fill="#898888" d="M149.904,25.243c-0.028-0.027-0.065-0.043-0.104-0.043c-0.038,0-0.077,0.016-0.104,0.043
								c-0.028,0.027-0.044,0.065-0.044,0.104c0,0.039,0.016,0.076,0.044,0.104c0.026,0.027,0.065,0.043,0.104,0.043
								c0.039,0,0.076-0.016,0.104-0.043c0.026-0.028,0.043-0.065,0.043-0.104C149.947,25.308,149.931,25.27,149.904,25.243z"/>
						</g>
					</g>
				</g>
			</g>
		</g>
		<g id="block_4_" display="inline">
			<path opacity="0.2" fill="#9F9E9E" d="M124.674,59.9c0,0.546-0.219,0.989-0.487,0.989H101.51c-0.27,0-0.486-0.442-0.486-0.989
				l0,0c0-0.546,0.217-0.989,0.486-0.989h22.677C124.455,58.911,124.674,59.354,124.674,59.9L124.674,59.9z"/>
			<path opacity="0.2" fill="#9F9E9E" d="M130.076,67.5c0,0.572-0.229,1.037-0.511,1.037H101.51c-0.281,0-0.51-0.465-0.51-1.037l0,0
				c0-0.572,0.229-1.037,0.51-1.037h28.056C129.848,66.463,130.076,66.928,130.076,67.5L130.076,67.5z"/>
			<text transform="matrix(1 0 0 1 101.0234 48)" opacity="0.2" fill="#9F9E9E" font-family="'NuevaStd-Bold'" font-size="16">00</text>
		</g>
	</g>
</g>
<g id="Layer_2">
</g>
</svg>
