<svg id="Layer_1" data-name="Layer 1" xmlns="http://www.w3.org/2000/svg" viewBox="0 0 145 144"><defs><style>.cls-1{fill:#f4812e;}.cls-2,.cls-3{fill:none;stroke:#f4812d;stroke-miterlimit:10;}.cls-2{stroke-width:4px;}.cls-3{stroke-width:2px;}</style></defs><title>about</title><path class="cls-1" d="M53,78A21,21,0,1,1,74,57,21,21,0,0,1,53,78Zm0-36A15,15,0,1,0,68,57,15,15,0,0,0,53,42Z"/><path class="cls-1" d="M89,126a3,3,0,0,1-3-3,33,33,0,0,0-66,0,3,3,0,1,1-6,0,39,39,0,0,1,78,0A3,3,0,0,1,89,126Z"/><path class="cls-2" d="M108,48h-6L90,58V48H83a2,2,0,0,1-2-2V15a2,2,0,0,1,2-2h46a2,2,0,0,1,2,2V46a2,2,0,0,1-2,2H108"/><circle class="cls-3" cx="106" cy="30" r="3"/><circle class="cls-3" cx="93" cy="30" r="3"/><circle class="cls-3" cx="118" cy="30" r="3"/></svg>