<?xml version="1.0" encoding="utf-8"?>
<!-- Generator: Adobe Illustrator 16.0.0, SVG Export Plug-In . SVG Version: 6.00 Build 0)  -->
<!DOCTYPE svg PUBLIC "-//W3C//DTD SVG 1.1//EN" "http://www.w3.org/Graphics/SVG/1.1/DTD/svg11.dtd">
<svg version="1.1" id="Layer_1" xmlns="http://www.w3.org/2000/svg" xmlns:xlink="http://www.w3.org/1999/xlink" x="0px" y="0px"
	 width="144.25px" height="120.5px" viewBox="0 0 144.25 120.5" enable-background="new 0 0 144.25 120.5" xml:space="preserve">
<path fill="none" stroke="#F38030" stroke-width="7" stroke-miterlimit="10" d="M140.777,116.313c0,0.518-0.426,0.938-0.949,0.938
	H5.172c-0.523,0-0.949-0.42-0.949-0.938V34.853c0-0.517,0.426-0.937,0.949-0.937h134.656c0.523,0,0.949,0.42,0.949,0.937V116.313
	L140.777,116.313z"/>
<path fill="none" stroke="#F38030" stroke-width="7" stroke-miterlimit="10" d="M140.777,20.084c0,1.104-0.854,2-1.903,2H6.126
	c-1.051,0-1.903-0.896-1.903-2V5.5c0-1.104,0.853-2,1.903-2h132.748c1.051,0,1.903,0.896,1.903,2V20.084L140.777,20.084z"/>
<line fill="none" stroke="#F38030" stroke-width="6" stroke-miterlimit="10" x1="71.528" y1="37.416" x2="71.528" y2="113.75"/>
</svg>
