<?xml version="1.0" encoding="utf-8"?>
<!-- Generator: Adobe Illustrator 16.0.0, SVG Export Plug-In . SVG Version: 6.00 Build 0)  -->
<!DOCTYPE svg PUBLIC "-//W3C//DTD SVG 1.1//EN" "http://www.w3.org/Graphics/SVG/1.1/DTD/svg11.dtd">
<svg version="1.1" id="Layer_1" xmlns="http://www.w3.org/2000/svg" xmlns:xlink="http://www.w3.org/1999/xlink" x="0px" y="0px"
	 width="145px" height="144.411px" viewBox="0 0 145 144.411" enable-background="new 0 0 145 144.411" xml:space="preserve">
<path fill="#F38030" d="M57.744,45.155h10.184v5.091h10.186V34.971H27.191v15.276h10.185v-5.091h10.185v50.921H37.376v10.183h30.547
	V96.077H57.744V45.155L57.744,45.155z"/>
<path fill="#F38030" d="M71.802,60.431v15.275h10.184v-5.092h5.091v25.459h-5.091v10.186h20.368V96.074h-5.092V70.614h5.092v5.091
	h10.184V60.43L71.802,60.431L71.802,60.431z"/>
<rect x="6.176" y="7.509" fill="none" stroke="#F38030" stroke-miterlimit="10" width="132.647" height="126.098"/>
<circle fill="#F38030" cx="6.176" cy="7.509" r="5.424"/>
<circle fill="#F38030" cx="138.823" cy="7.509" r="5.424"/>
<circle fill="#F38030" cx="138.823" cy="133.607" r="5.424"/>
<circle fill="#F38030" cx="6.176" cy="133.607" r="5.424"/>
<rect x="3.612" y="64.411" fill="#F38030" width="5.063" height="12.295"/>
<rect x="136.292" y="60.43" fill="#F38030" width="5.063" height="12.296"/>
<rect x="66.352" y="4.862" fill="#F38030" width="12.295" height="5.063"/>
<rect x="64.635" y="131.078" fill="#F38030" width="12.296" height="5.062"/>
</svg>
