<svg id="Layer_1" data-name="Layer 1" xmlns="http://www.w3.org/2000/svg" viewBox="0 0 145 144.41"><defs><style>.cls-1{fill:#f4812e;}</style></defs><title>advanced-post-module</title><path class="cls-1" d="M51.32,47.57H24.88a2.2,2.2,0,0,0-2.2,2.2v22a2.2,2.2,0,0,0,2.2,2.2H51.32a2.2,2.2,0,0,0,2.2-2.2v-22A2.2,2.2,0,0,0,51.32,47.57Zm-2.2,22h-22V52h22Z"/><path class="cls-1" d="M62.33,47.57h8.81V52H62.33Z"/><path class="cls-1" d="M75.55,47.57h35.25V52H75.55Z"/><path class="cls-1" d="M62.33,56.38h48.46v4.41H62.33Z"/><path class="cls-1" d="M62.33,65.19h22v4.41h-22Z"/><path class="cls-1" d="M88.76,65.19H102v4.41H88.76Z"/><path class="cls-1" d="M22.68,82.81H53.52v4.41H22.68Z"/><path class="cls-1" d="M22.68,91.62H53.52V96H22.68Z"/><path class="cls-1" d="M22.68,100.43H53.52v4.41H22.68Z"/><path class="cls-1" d="M22.68,109.25H53.52v4.41H22.68Z"/><path class="cls-1" d="M135,45.56a10.72,10.72,0,0,0-11,0V23.33a6.61,6.61,0,0,0-6.61-6.61H16.07a6.61,6.61,0,0,0-6.61,6.61V124.67a6.61,6.61,0,0,0,6.61,6.61H117.4a6.61,6.61,0,0,0,6.61-6.61v-38l15-26.06A11,11,0,0,0,135,45.56Zm-15.42,79.1a2.2,2.2,0,0,1-2.2,2.2H16.07a2.2,2.2,0,0,1-2.2-2.2V43.75h0v-10h0V23.33a2.2,2.2,0,0,1,2.2-2.2H117.4a2.2,2.2,0,0,1,2.2,2.2V50.24L100.8,82.81H64.53a2.2,2.2,0,0,0-2.2,2.2v26.43a2.2,2.2,0,0,0,2.2,2.2H88.81a6.61,6.61,0,0,0,12.29,3.89l3-5.15,6.52-3.22a2.2,2.2,0,0,0,.93-.88l8.08-14ZM97,105l-.34-5.29,10.67,6.17-4.74,2.35Zm2.5,6.53-2.2,3.82a2.2,2.2,0,0,1-3.82-2.2l2.2-3.82Zm-7-14.24a2.19,2.19,0,0,0-.29,1.24l.47,7.27-2,3.45H66.74v-22H98.26Zm17.46,5-3.82-2.2,16.52-28.61-3.82-2.2L102.28,97.87l-3.82-2.2,18.72-32.43,11.45,6.61ZM130.83,66l-11.45-6.61,1.1-1.91,11.45,6.61Zm4.41-7.63-1.1,1.91-11.45-6.61,1.1-1.91a6.61,6.61,0,1,1,11.45,6.61Z"/></svg>