<?xml version="1.0" encoding="utf-8"?>
<!-- Generator: Adobe Illustrator 16.0.0, SVG Export Plug-In . SVG Version: 6.00 Build 0)  -->
<!DOCTYPE svg PUBLIC "-//W3C//DTD SVG 1.1//EN" "http://www.w3.org/Graphics/SVG/1.1/DTD/svg11.dtd">
<svg version="1.1" id="Layer_1" xmlns="http://www.w3.org/2000/svg" xmlns:xlink="http://www.w3.org/1999/xlink" x="0px" y="0px"
	 width="148px" height="140.75px" viewBox="15.5 -25.25 148 140.75" enable-background="new 15.5 -25.25 148 140.75"
	 xml:space="preserve">
<g display="none">
	<line fill="#F4A36C" x1="112.143" y1="32.262" x2="112.143" y2="32.262"/>
	<g display="inline">
		<rect x="22.5" y="4" fill="#F4A36C" width="126.75" height="49.5"/>
		<line fill="none" stroke="#FFFFFF" stroke-miterlimit="10" x1="31.565" y1="27.926" x2="58.888" y2="27.926"/>
		<line fill="none" stroke="#FFFFFF" stroke-miterlimit="10" x1="77.899" y1="27.926" x2="138.106" y2="27.926"/>
	</g>
</g>
<g>
	<g>
		
			<rect x="22" y="-13.687" fill="none" stroke="#F38030" stroke-width="7" stroke-miterlimit="10" width="136.667" height="57.104"/>
		<line fill="none" stroke="#F38030" stroke-width="7" stroke-miterlimit="10" x1="31.774" y1="17.161" x2="61.235" y2="17.161"/>
		<line fill="none" stroke="#F38030" stroke-width="7" stroke-miterlimit="10" x1="81.734" y1="17.161" x2="146.651" y2="17.161"/>
	</g>
</g>
<path fill="#F38030" d="M108.363,76.96H95.374V63.97c0-3.191-2.681-5.804-5.874-5.804c-3.192,0-5.872,2.612-5.872,5.804v12.99
	H70.637c-3.191,0-5.804,2.681-5.804,5.873s2.612,5.873,5.804,5.873h12.991v12.99c0,3.191,2.68,5.804,5.872,5.804
	c3.193,0,5.874-2.612,5.874-5.804v-12.99h12.989c3.192,0,5.804-2.681,5.804-5.873S111.556,76.96,108.363,76.96z"/>
</svg>
