<?xml version="1.0" encoding="utf-8"?>
<!-- Generator: Adobe Illustrator 16.0.0, SVG Export Plug-In . SVG Version: 6.00 Build 0)  -->
<!DOCTYPE svg PUBLIC "-//W3C//DTD SVG 1.1//EN" "http://www.w3.org/Graphics/SVG/1.1/DTD/svg11.dtd">
<svg version="1.1" id="Layer_1" xmlns="http://www.w3.org/2000/svg" xmlns:xlink="http://www.w3.org/1999/xlink" x="0px" y="0px"
	 width="145px" height="120px" viewBox="0 0 145 120" enable-background="new 0 0 145 120" xml:space="preserve">
<path fill="none" stroke="#000000" stroke-width="6" stroke-miterlimit="10" d="M72.5,82.618"/>
<polyline fill="none" stroke="#F38030" stroke-width="6" stroke-miterlimit="10" points="72.5,85 11,85 11,16 134,16 134,85 
	100.5,85 "/>
<line fill="none" stroke="#F38030" stroke-width="6" stroke-miterlimit="10" x1="27" y1="54" x2="58" y2="54"/>
<line fill="none" stroke="#F38030" stroke-width="6" stroke-miterlimit="10" x1="72.5" y1="54" x2="125" y2="52.916"/>
<path fill="#F38030" d="M97.271,85.611h-0.065c-1.261,0-2.321,1.072-2.321,2.449v1.908c0,0.381-0.309,0.689-0.688,0.689
	c-0.381,0-0.689-0.309-0.689-0.689v-3.523c0-1.377-0.999-2.497-2.26-2.497c-1.268,0-2.268,1.12-2.268,2.497v3.734
	c0,0.381-0.309,0.689-0.688,0.689c-0.381,0-0.688-0.309-0.688-0.689v-4.761c0-1.376-1.041-2.464-2.301-2.464h-0.07
	c-1.229,0-2.256,1.031-2.256,2.359v5.36c0,0.38-0.309,0.689-0.688,0.689c-0.381,0-0.688-0.31-0.688-0.689v-5.204
	c0-0.018-0.002-0.035-0.002-0.052c0-0.043,0.002-0.085,0.002-0.127v-12.17c0-1.377-1.039-2.497-2.299-2.497
	c-1.261,0-2.3,1.12-2.301,2.496L76.99,93.302c0,0.292-0.184,0.55-0.457,0.648c-0.274,0.098-0.58,0.014-0.766-0.211l-2.408-2.933
	c-0.636-0.797-1.574-1.293-2.59-1.369c-0.994-0.066-1.972,0.285-2.697,0.967c-0.008,0.009-0.018,0.018-0.026,0.025l-0.472,0.396
	l8.355,16.055c1.317,2.534,3.813,4.121,6.506,4.121h9.658c4.109,0,7.456-3.616,7.461-8.045c0.002-2.347,0.004-4.104,0.006-5.522
	c0.006-3.789,0.008-5.182-0.002-9.354C99.553,86.705,98.527,85.611,97.271,85.611z"/>
<path fill="#F38030" d="M73.033,73.363c0.381,0,0.688-0.309,0.688-0.689c-0.008-1.99,1.049-3.832,2.771-4.828
	c1.722-0.998,3.846-0.998,5.566,0c1.721,0.996,2.778,2.838,2.771,4.828c0,0.381,0.31,0.689,0.688,0.689
	c0.381,0,0.688-0.309,0.688-0.689c0.01-2.482-1.31-4.781-3.458-6.023c-2.148-1.244-4.798-1.244-6.945,0
	c-2.148,1.244-3.469,3.541-3.458,6.023C72.345,73.055,72.653,73.363,73.033,73.363z"/>
</svg>
