<svg id="Layer_1" data-name="Layer 1" xmlns="http://www.w3.org/2000/svg" viewBox="0 0 145 144"><defs><style>.cls-1,.cls-2{fill:none;stroke:#f4812d;stroke-width:6px;}.cls-1{stroke-miterlimit:10;}.cls-2{stroke-linecap:round;stroke-linejoin:round;}</style></defs><title>calltoaction-39</title><path class="cls-1" d="M100,44a20,20,0,0,1,0,39"/><rect class="cls-1" x="84" y="14" width="16" height="101.04" rx="8" ry="8"/><rect class="cls-1" x="30" y="42" width="20" height="44.75"/><path class="cls-1" d="M30,87C18,87,9,77,9,65S18,42,30,42"/><polygon class="cls-2" points="30 88 43 128 60 128 50 88 30 88"/><line class="cls-2" x1="48" y1="42" x2="83" y2="30"/><line class="cls-2" x1="51" y1="87" x2="84" y2="101"/><line class="cls-2" x1="129" y1="65" x2="137" y2="64"/><line class="cls-2" x1="125" y1="44" x2="139" y2="31"/><line class="cls-2" x1="125" y1="81" x2="139" y2="94"/></svg>