<?xml version="1.0" encoding="utf-8"?>
<!-- Generator: Adobe Illustrator 16.0.0, SVG Export Plug-In . SVG Version: 6.00 Build 0)  -->
<!DOCTYPE svg PUBLIC "-//W3C//DTD SVG 1.1//EN" "http://www.w3.org/Graphics/SVG/1.1/DTD/svg11.dtd">
<svg version="1.1" id="Layer_1" xmlns="http://www.w3.org/2000/svg" xmlns:xlink="http://www.w3.org/1999/xlink" x="0px" y="0px"
	 width="197.403px" height="106.06px" viewBox="0 0 197.403 106.06" enable-background="new 0 0 197.403 106.06"
	 xml:space="preserve">
<rect x="66.837" y="4.134" fill="none" stroke="#F48131" stroke-width="4" stroke-linecap="round" stroke-linejoin="round" stroke-miterlimit="10" width="65.333" height="77.5"/>
<polyline fill="none" stroke="#F48131" stroke-width="4" stroke-linecap="round" stroke-linejoin="round" stroke-miterlimit="10" points="
	143.168,11.613 171.826,11.613 171.826,74.724 143.834,74.724 "/>
<polyline fill="none" stroke="#F48131" stroke-width="4" stroke-linecap="round" stroke-linejoin="round" stroke-miterlimit="10" points="
	55.835,11.692 27.178,11.692 27.178,74.804 55.169,74.804 "/>
<g>
	<g>
		<rect x="79.024" y="28.647" fill="#F48131" width="42.153" height="3.254"/>
		<rect x="79.024" y="37.427" fill="#F48131" width="29.069" height="3.252"/>
		<rect x="79.024" y="46.126" fill="#F48131" width="42.153" height="3.252"/>
		<rect x="79.024" y="54.904" fill="#F48131" width="29.069" height="3.254"/>
	</g>
</g>
<line fill="none" stroke="#F48131" stroke-width="3" stroke-linecap="round" stroke-linejoin="round" stroke-miterlimit="10" x1="17.048" y1="29.948" x2="3.758" y2="43.248"/>
<line fill="none" stroke="#F48131" stroke-width="3" stroke-linecap="round" stroke-linejoin="round" stroke-miterlimit="10" x1="17.048" y1="56.548" x2="3.758" y2="43.248"/>
<line fill="none" stroke="#F48131" stroke-width="3" stroke-linecap="round" stroke-linejoin="round" stroke-miterlimit="10" x1="193.909" y1="42.888" x2="180.609" y2="29.588"/>
<line fill="none" stroke="#F48131" stroke-width="3" stroke-linecap="round" stroke-linejoin="round" stroke-miterlimit="10" x1="193.909" y1="42.888" x2="180.609" y2="56.178"/>
<rect x="99.02" y="94.466" fill="#F48131" width="8" height="7.998"/>
<rect x="84.5" y="94.466" fill="#F48131" width="8" height="7.998"/>
<rect x="114.168" y="94.466" fill="#F48131" width="8" height="7.998"/>
</svg>
