<?xml version="1.0" encoding="utf-8"?>
<!-- Generator: Adobe Illustrator 16.0.0, SVG Export Plug-In . SVG Version: 6.00 Build 0)  -->
<!DOCTYPE svg PUBLIC "-//W3C//DTD SVG 1.1//EN" "http://www.w3.org/Graphics/SVG/1.1/DTD/svg11.dtd">
<svg version="1.1" id="Layer_1" xmlns="http://www.w3.org/2000/svg" xmlns:xlink="http://www.w3.org/1999/xlink" x="0px" y="0px"
	 width="116.045px" height="121.768px" viewBox="0 0 116.045 121.768" enable-background="new 0 0 116.045 121.768"
	 xml:space="preserve">
<path fill="#F38030" d="M104.372,119.594c0-1.2-0.973-2.175-2.174-2.175H4.349V34.79h39.14v32.617c0,1.2,0.973,2.174,2.174,2.174
	h21.744c1.201,0,2.175-0.974,2.175-2.174V34.79h39.14v20.483c0,1.201,0.975,2.174,2.174,2.174c1.201,0,2.176-0.973,2.176-2.174
	V32.615c0-0.028-0.016-0.052-0.016-0.077c-0.01-0.229-0.055-0.455-0.135-0.67c-0.021-0.048-0.031-0.096-0.05-0.144
	c-0.021-0.049-0.017-0.056-0.028-0.08L97.621,1.202C97.252,0.465,96.499,0,95.674,0H17.395c-0.824,0-1.577,0.465-1.946,1.202
	L0.228,31.645C0.215,31.67,0.213,31.7,0.2,31.725c-0.013,0.025-0.03,0.096-0.05,0.144c-0.079,0.214-0.125,0.439-0.134,0.668
	C0.015,32.563,0,32.587,0,32.615v86.979c0,1.199,0.973,2.174,2.174,2.174h100.022C103.399,121.767,104.372,120.793,104.372,119.594
	L104.372,119.594z M65.233,65.232H47.837V34.79h17.396V65.232z M107.377,30.442H69.295L65.565,4.347h28.766L107.377,30.442z
	 M61.172,4.348l3.728,26.094H48.17l3.728-26.095L61.172,4.348L61.172,4.348z M18.739,4.348h28.766l-3.729,26.095H5.693L18.739,4.348
	z"/>
<path fill="#F38030" d="M45.663,86.977h-4.349c-1.201,0-2.174,0.974-2.174,2.175c0,1.2,0.973,2.175,2.174,2.175h4.349
	c1.201,0,2.174-0.975,2.174-2.175C47.837,87.95,46.864,86.977,45.663,86.977L45.663,86.977z"/>
<path fill="#F38030" d="M32.616,95.675H15.221c-1.201,0-2.174,0.975-2.174,2.176c0,1.198,0.974,2.173,2.174,2.173h17.396
	c1.201,0,2.174-0.975,2.174-2.173C34.791,96.648,33.817,95.675,32.616,95.675L32.616,95.675z"/>
<path fill="#F38030" d="M32.616,104.373H15.221c-1.201,0-2.174,0.974-2.174,2.173c0,1.201,0.974,2.176,2.174,2.176h17.396
	c1.201,0,2.174-0.975,2.174-2.176C34.791,105.346,33.817,104.373,32.616,104.373L32.616,104.373z"/>
<path fill="#F38030" d="M32.616,86.977H15.221c-1.201,0-2.174,0.974-2.174,2.175c0,1.2,0.974,2.175,2.174,2.175h17.396
	c1.201,0,2.174-0.975,2.174-2.175C34.791,87.95,33.817,86.977,32.616,86.977L32.616,86.977z"/>
<path fill="#F38030" d="M45.663,95.675h-4.349c-1.201,0-2.174,0.975-2.174,2.176c0,1.198,0.973,2.173,2.174,2.173h4.349
	c1.201,0,2.174-0.975,2.174-2.173C47.837,96.648,46.864,95.675,45.663,95.675L45.663,95.675z"/>
<path fill="#F38030" d="M45.663,104.373h-4.349c-1.201,0-2.174,0.974-2.174,2.173c0,1.201,0.973,2.176,2.174,2.176h4.349
	c1.201,0,2.174-0.975,2.174-2.176C47.837,105.346,46.864,104.373,45.663,104.373L45.663,104.373z"/>
<path fill="#F38030" d="M107.202,60.331c-4.876,0-8.844,4.331-8.844,9.657v35.022c0,0.807-0.308,0.081,7.373,12.659
	c0.697,1.145,2.242,1.147,2.942,0c7.652-12.536,7.371-11.844,7.371-12.659V69.988C116.045,64.662,112.079,60.331,107.202,60.331
	L107.202,60.331z M112.508,103.08h-3.536V75.782h3.536V103.08z M101.896,103.08V75.782h3.537v27.298H101.896z M107.202,64.194
	c2.926,0,5.307,2.6,5.307,5.794v1.932h-10.611v-1.932C101.896,66.794,104.276,64.194,107.202,64.194L107.202,64.194z
	 M107.202,113.118l-3.77-6.175h7.539L107.202,113.118z"/>
</svg>
