<?xml version="1.0" encoding="utf-8"?>
<!-- Generator: Adobe Illustrator 16.0.0, SVG Export Plug-In . SVG Version: 6.00 Build 0)  -->
<!DOCTYPE svg PUBLIC "-//W3C//DTD SVG 1.1//EN" "http://www.w3.org/Graphics/SVG/1.1/DTD/svg11.dtd">
<svg version="1.1" id="Layer_1" xmlns="http://www.w3.org/2000/svg" xmlns:xlink="http://www.w3.org/1999/xlink" x="0px" y="0px"
	 width="166.086px" height="166.957px" viewBox="0 0 166.086 166.957" enable-background="new 0 0 166.086 166.957"
	 xml:space="preserve">
<path fill="none" stroke="#F38030" stroke-width="6" stroke-linecap="round" stroke-miterlimit="10" d="M154.038,84.16
	c0.078,1.342,0.116-0.305,0.116,1.059c0,38.107-30.893,69-69,69c-38.106,0-69-30.893-69-69s30.893-69,69-69
	c15.365,0,29.558,5.022,41.023,13.515"/>
<path fill="none" stroke="#F38030" stroke-width="6" stroke-linecap="round" stroke-miterlimit="10" d="M59.522,46.629
	c7.34-4.885,16.153-7.731,25.632-7.731c25.582,0,46.32,20.738,46.32,46.32c0,25.58-20.738,46.318-46.32,46.318
	c-25.583,0-46.319-20.738-46.319-46.318c0-4.604,0.672-9.05,1.923-13.247"/>
<line fill="none" stroke="#F38030" stroke-width="6" stroke-linecap="round" stroke-miterlimit="10" x1="85.154" y1="6.531" x2="85.154" y2="24.031"/>
<line fill="none" stroke="#F38030" stroke-width="6" stroke-linecap="round" stroke-miterlimit="10" x1="85.154" y1="144.531" x2="85.154" y2="162.031"/>
<line fill="none" stroke="#F38030" stroke-width="6" stroke-linecap="round" stroke-miterlimit="10" x1="23.905" y1="83.531" x2="6.405" y2="83.531"/>
<line fill="none" stroke="#F38030" stroke-width="6" stroke-linecap="round" stroke-miterlimit="10" x1="162.404" y1="83.531" x2="144.904" y2="83.531"/>
<text transform="matrix(1 0 0 1 70.1548 102.4175)" fill="#F38030" font-family="'ComicSansMS-Bold'" font-size="55">1</text>
</svg>
