<svg id="Layer_1" data-name="Layer 1" xmlns="http://www.w3.org/2000/svg" viewBox="0 0 145 144.41"><defs><style>.cls-1{fill:#f4812f;}.cls-2{fill:none;stroke:#f4812f;stroke-miterlimit:10;stroke-width:3px;}</style></defs><title>duplex-post-module</title><path class="cls-1" d="M51.31,40.44H23.75a2.3,2.3,0,0,0-2.3,2.3v23a2.3,2.3,0,0,0,2.3,2.3H51.31a2.3,2.3,0,0,0,2.3-2.3v-23A2.3,2.3,0,0,0,51.31,40.44Zm-2.3,23h-23V45H49Z"/><path class="cls-1" d="M99.9,45h5.51v2.76H99.9Z"/><path class="cls-1" d="M108.16,45h22v2.76h-22Z"/><path class="cls-1" d="M99.9,50.55h30.31V53.3H99.9Z"/><path class="cls-1" d="M99.9,56.06h13.78v2.76H99.9Z"/><path class="cls-1" d="M116.43,56.06h8.27v2.76h-8.27Z"/><path class="cls-1" d="M21.46,77.19H53.61v4.59H21.46Z"/><path class="cls-1" d="M21.46,86.37H53.61V91H21.46Z"/><path class="cls-1" d="M21.46,95.56H53.61v4.59H21.46Z"/><path class="cls-1" d="M21.46,104.74H53.61v4.59H21.46Z"/><rect class="cls-2" x="5.67" y="6.78" width="133.67" height="133.67" rx="2" ry="2"/><rect class="cls-2" x="64.57" y="43.42" width="24.36" height="17.01"/><path class="cls-1" d="M99.9,91h5.51v2.76H99.9Z"/><path class="cls-1" d="M108.16,91h22v2.76h-22Z"/><path class="cls-1" d="M99.9,96.47h30.31v2.76H99.9Z"/><path class="cls-1" d="M99.9,102h13.78v2.76H99.9Z"/><rect class="cls-2" x="64.57" y="89.35" width="24.36" height="17.01"/></svg>