<?xml version="1.0" encoding="utf-8"?>
<!-- Generator: Adobe Illustrator 16.0.0, SVG Export Plug-In . SVG Version: 6.00 Build 0)  -->
<!DOCTYPE svg PUBLIC "-//W3C//DTD SVG 1.1//EN" "http://www.w3.org/Graphics/SVG/1.1/DTD/svg11.dtd">
<svg version="1.1" id="Layer_1" xmlns="http://www.w3.org/2000/svg" xmlns:xlink="http://www.w3.org/1999/xlink" x="0px" y="0px"
	 width="145px" height="115px" viewBox="0 -10.5 145 115" enable-background="new 0 -10.5 145 115" xml:space="preserve">
<rect x="7.697" y="-2" fill="none" stroke="#F38030" stroke-width="4" stroke-miterlimit="10" width="129.605" height="98"/>
<g>
	<g>
		<path fill="#F38030" d="M55.325,26.47H18.878c-1.464,0-2.651,1.501-2.651,3.351v34.357c0,1.853,1.188,3.352,2.651,3.352h36.447
			c1.464,0,2.651-1.503,2.651-3.352V29.82C57.977,27.971,56.789,26.47,55.325,26.47z M55.325,29.821v24.378l-5.224-6.006
			c-0.786-0.903-1.993-0.866-2.743,0.083l-5.287,6.683L31.646,39.216c-0.788-1.19-2.23-1.201-3.03-0.026l-9.738,14.312v-23.68
			H55.325z M44.06,38.619c0-2.544,1.631-4.609,3.646-4.609c2.013,0,3.645,2.065,3.645,4.609c0,2.547-1.632,4.61-3.645,4.61
			C45.69,43.229,44.06,41.166,44.06,38.619z"/>
	</g>
	<g>
		<rect x="74.5" y="28.999" fill="#F38030" width="42.152" height="4.114"/>
		<rect x="74.5" y="40.1" fill="#F38030" width="29.068" height="4.114"/>
		<rect x="74.5" y="51.102" fill="#F38030" width="42.152" height="4.112"/>
		<rect x="74.5" y="62.199" fill="#F38030" width="29.068" height="4.114"/>
	</g>
</g>
</svg>
