<svg id="Layer_1" data-name="Layer 1" xmlns="http://www.w3.org/2000/svg" viewBox="0 0 145 144"><defs><style>.cls-1{fill:#f48131;}</style></defs><title>list</title><path class="cls-1" d="M42,12H16a4,4,0,0,0-4,4V42a4,4,0,0,0,4,4H42a4,4,0,0,0,4-4V16A4,4,0,0,0,42,12ZM38,38H21V20H38Z"/><path class="cls-1" d="M42,55H16a4,4,0,0,0-4,4V85a4,4,0,0,0,4,4H42a4,4,0,0,0,4-4V59A4,4,0,0,0,42,55ZM38,81H21V64H38Z"/><path class="cls-1" d="M42,98H16a4,4,0,0,0-4,4v26a4,4,0,0,0,4,4H42a4,4,0,0,0,4-4V103A4,4,0,0,0,42,98Zm-4,26H21V107H38Z"/><path class="cls-1" d="M129,17H60a4,4,0,1,0,0,9h69a4,4,0,0,0,0-9Z"/><path class="cls-1" d="M121,34H59a4,4,0,0,0-4,4,4,4,0,0,0,4,4h62a4,4,0,0,0,4-4A4,4,0,0,0,121,34Z"/><path class="cls-1" d="M129,59H60a4,4,0,1,0,0,9h69a4,4,0,1,0,0-9Z"/><path class="cls-1" d="M121,76H59a4,4,0,0,0,0,9h62a4,4,0,0,0,0-9Z"/><path class="cls-1" d="M129,103H60a4,4,0,1,0,0,9h69a4,4,0,1,0,0-9Z"/><path class="cls-1" d="M121,120H59a4,4,0,0,0,0,9h62a4,4,0,0,0,0-9Z"/></svg>