<svg id="Layer_1" data-name="Layer 1" xmlns="http://www.w3.org/2000/svg" viewBox="0 0 145 144.41"><defs><style>.cls-1{fill:#f4812e;}</style></defs><title>map</title><path class="cls-1" d="M130.94,9.27a4.5,4.5,0,0,0-2,.47l-34.07,17L56.34,9.66l-.2-.06a4.49,4.49,0,0,0-.53-.16,4.67,4.67,0,0,0-.54-.11,6.69,6.69,0,0,0-1.1,0,4.67,4.67,0,0,0-.54.11,4.49,4.49,0,0,0-.53.16l-.2.06-40.46,18a4.49,4.49,0,0,0-2.67,4.11v98.9a4.5,4.5,0,0,0,6.32,4.11l38.63-17.17,38.63,17.17c.07,0,.14,0,.21,0a4,4,0,0,0,3.4-.08c.07,0,.15,0,.22,0l36-18a4.5,4.5,0,0,0,2.49-4V13.77A4.49,4.49,0,0,0,130.94,9.27ZM50,109.74l-31.47,14V34.67L50,20.68Zm40.46,14L59,109.74V20.68l31.47,14Zm36-13.84-27,13.49V34.53l27-13.49Z"/></svg>