<?xml version="1.0" encoding="utf-8"?>
<!-- Generator: Adobe Illustrator 16.0.0, SVG Export Plug-In . SVG Version: 6.00 Build 0)  -->
<!DOCTYPE svg PUBLIC "-//W3C//DTD SVG 1.1//EN" "http://www.w3.org/Graphics/SVG/1.1/DTD/svg11.dtd">
<svg version="1.1" id="Layer_1" xmlns="http://www.w3.org/2000/svg" xmlns:xlink="http://www.w3.org/1999/xlink" x="0px" y="0px"
	 width="145px" height="145px" viewBox="0 0 145 145" enable-background="new 0 0 145 145" xml:space="preserve">
<path fill="none" stroke="#F2802E" stroke-width="5" stroke-linecap="round" stroke-linejoin="round" stroke-miterlimit="10" d="
	M123.496,68.956c0.24,1.976,0.364,3.988,0.364,6.029v44.431"/>
<path fill="none" stroke="#F2802E" stroke-width="5" stroke-linecap="round" stroke-linejoin="round" stroke-miterlimit="10" d="
	M25.14,119.416V74.985c0-27.26,22.101-49.36,49.36-49.36c9.775,0,18.887,2.842,26.555,7.745"/>
<path fill="none" stroke="#F2802E" stroke-width="3" stroke-linecap="round" stroke-linejoin="round" stroke-miterlimit="10" d="
	M63.435,37.658c3.513-1.017,7.226-1.562,11.065-1.562c1.526,0,3.032,0.086,4.514,0.253"/>
<path fill="none" stroke="#F2802E" stroke-width="3" stroke-linecap="round" stroke-linejoin="round" stroke-miterlimit="10" d="
	M35.422,68.692c2.05-11.324,8.901-20.978,18.369-26.775"/>
<line fill="none" stroke="#F2802E" stroke-width="8" stroke-linecap="round" stroke-linejoin="round" stroke-miterlimit="10" x1="10.328" y1="119.412" x2="135.5" y2="119.412"/>
<path fill="#F2802E" d="M83.167,127.373c0,4.785-3.881,8.666-8.667,8.666s-8.667-3.881-8.667-8.666"/>
<path fill="none" stroke="#F2802E" stroke-width="4" stroke-miterlimit="10" d="M62.646,26.718c0-7.238,5.867-13.105,13.105-13.105
	c7.237,0,13.104,5.867,13.104,13.105"/>
<path fill="none" stroke="#F2802E" stroke-width="2" stroke-miterlimit="10" d="M105.342,44.274
	c2.09-4.417,6.586-7.473,11.797-7.473c7.202,0,13.042,5.839,13.042,13.042c0,7.203-5.84,13.042-13.042,13.042
	s-13.041-5.839-13.041-13.042C104.098,47.851,104.543,45.963,105.342,44.274"/>
<g>
	<path fill="none" stroke="#F2802E" stroke-width="2" stroke-miterlimit="10" d="M118.556,54.844h-1.318v-8.401
		c-0.317,0.303-0.733,0.605-1.248,0.908c-0.516,0.303-0.979,0.53-1.389,0.681v-1.274c0.737-0.347,1.382-0.767,1.934-1.26
		s0.942-0.972,1.172-1.436h0.85V54.844z"/>
</g>
</svg>
