<?xml version="1.0" encoding="utf-8"?>
<!-- Generator: Adobe Illustrator 16.0.0, SVG Export Plug-In . SVG Version: 6.00 Build 0)  -->
<!DOCTYPE svg PUBLIC "-//W3C//DTD SVG 1.1//EN" "http://www.w3.org/Graphics/SVG/1.1/DTD/svg11.dtd">
<svg version="1.1" id="Layer_1" xmlns="http://www.w3.org/2000/svg" xmlns:xlink="http://www.w3.org/1999/xlink" x="0px" y="0px"
	 width="141.992px" height="141.558px" viewBox="0 0 141.992 141.558" enable-background="new 0 0 141.992 141.558"
	 xml:space="preserve">
<g>
	
		<circle fill="none" stroke="#F2802E" stroke-width="5" stroke-linecap="round" stroke-linejoin="round" stroke-miterlimit="10" cx="71.024" cy="80.386" r="57.488"/>
</g>
<path fill="none" stroke="#F2802E" stroke-width="5" stroke-linecap="round" stroke-linejoin="round" stroke-miterlimit="10" d="
	M79.186,23.475c2.118-2.096,3.425-5.014,3.425-8.227c0-6.394-5.183-11.587-11.587-11.587S59.437,8.854,59.437,15.249
	c0,3.212,1.307,6.13,3.424,8.227"/>
<line fill="none" stroke="#F2802E" stroke-width="5" stroke-linecap="round" stroke-linejoin="round" stroke-miterlimit="10" x1="107.213" y1="25.688" x2="94.538" y2="18.818"/>
<line fill="none" stroke="#F2802E" stroke-width="5" stroke-linecap="round" stroke-linejoin="round" stroke-miterlimit="10" x1="35.284" y1="24.596" x2="47.96" y2="17.727"/>
<line fill="none" stroke="#F2802E" stroke-width="5" stroke-linecap="round" stroke-linejoin="round" stroke-miterlimit="10" x1="71.024" y1="24.596" x2="71.024" y2="31.796"/>
<line fill="none" stroke="#F2802E" stroke-width="5" stroke-linecap="round" stroke-linejoin="round" stroke-miterlimit="10" x1="127.115" y1="77.09" x2="115.265" y2="77.09"/>
<line fill="none" stroke="#F2802E" stroke-width="5" stroke-linecap="round" stroke-linejoin="round" stroke-miterlimit="10" x1="20.542" y1="83.334" x2="27.958" y2="83.334"/>
<line fill="none" stroke="#F2802E" stroke-width="5" stroke-linecap="round" stroke-linejoin="round" stroke-miterlimit="10" x1="71.024" y1="135.551" x2="71.024" y2="125.545"/>
<g>
	<path fill="#F2802E" d="M68.524,77.09l2.5-26.108l2.5,26.108c0.132,1.381-0.88,2.607-2.261,2.739
		c-1.381,0.133-2.607-0.88-2.739-2.261C68.509,77.412,68.51,77.243,68.524,77.09z"/>
</g>
<g>
	<path fill="#F2802E" d="M72.95,75.497c0,0,1.338,1.885,3.344,4.713c0.997,1.418,2.186,3.052,3.456,4.806
		c1.271,1.753,2.629,3.621,3.986,5.49c1.369,1.858,2.738,3.718,4.021,5.46c1.287,1.739,2.474,3.376,3.517,4.756
		c1.038,1.385,1.978,2.479,2.628,3.249c0.669,0.755,1.072,1.169,1.071,1.17c0.218,0.225,0.213,0.584-0.013,0.802
		c-0.225,0.219-0.584,0.213-0.802-0.013c-0.021-0.021-0.041-0.045-0.057-0.068c-0.001,0.001-0.333-0.473-0.949-1.271
		c-0.636-0.783-1.533-1.909-2.7-3.188c-1.161-1.282-2.547-2.754-4.015-4.344c-1.472-1.587-3.042-3.279-4.612-4.972
		c-1.582-1.683-3.164-3.365-4.647-4.942c-1.485-1.575-2.868-3.049-4.076-4.293c-2.402-2.5-4.004-4.166-4.004-4.166
		c-0.959-0.998-0.928-2.585,0.07-3.544c0.998-0.96,2.584-0.929,3.544,0.069C72.796,75.297,72.881,75.401,72.95,75.497z"/>
</g>
</svg>
