<svg id="Layer_1" data-name="Layer 1" xmlns="http://www.w3.org/2000/svg" viewBox="0 0 145 144.41"><defs><style>.cls-1{fill:#f4812f;}.cls-2{fill:none;stroke:#f4812f;stroke-miterlimit:10;stroke-width:3px;}</style></defs><title>post-module</title><path class="cls-1" d="M51.31,40.44H23.75a2.3,2.3,0,0,0-2.3,2.3v23a2.3,2.3,0,0,0,2.3,2.3H51.31a2.3,2.3,0,0,0,2.3-2.3v-23A2.3,2.3,0,0,0,51.31,40.44Zm-2.3,23h-23V45H49Z"/><path class="cls-1" d="M72.79,40.44H82V45H72.79Z"/><path class="cls-1" d="M86.57,40.44h36.74V45H86.57Z"/><path class="cls-1" d="M72.79,49.63h50.52v4.59H72.79Z"/><path class="cls-1" d="M72.79,58.81h23v4.59h-23Z"/><path class="cls-1" d="M100.35,58.81h13.78v4.59H100.35Z"/><path class="cls-1" d="M21.46,77.19H53.61v4.59H21.46Z"/><path class="cls-1" d="M21.46,86.37H53.61V91H21.46Z"/><path class="cls-1" d="M21.46,95.56H53.61v4.59H21.46Z"/><path class="cls-1" d="M21.46,104.74H53.61v4.59H21.46Z"/><rect class="cls-2" x="5.67" y="6.78" width="133.67" height="133.67" rx="2" ry="2"/><rect class="cls-2" x="72.65" y="73.96" width="50.67" height="35.38"/></svg>