<svg id="Layer_1" data-name="Layer 1" xmlns="http://www.w3.org/2000/svg" viewBox="0 0 145 144.41"><defs><style>.cls-1,.cls-2,.cls-3{fill:none;stroke:#f4812f;stroke-miterlimit:10;}.cls-1{stroke-width:3px;}.cls-3{stroke-width:2px;}</style></defs><title>post-feature-module-15-15</title><rect class="cls-1" x="5.67" y="6.78" width="133.67" height="133.67" rx="2" ry="2"/><rect class="cls-1" x="18.82" y="22.63" width="108.68" height="42.03"/><rect class="cls-1" x="18.81" y="82.14" width="45.69" height="42.03"/><rect class="cls-1" x="82.23" y="82.24" width="45.27" height="42.03"/><polyline class="cls-1" points="75.38 64.66 111.63 38.41 127.5 51.36"/><polyline class="cls-1" points="40.46 64.93 73 41.91 88.88 54.86"/><circle class="cls-2" cx="90.33" cy="37.33" r="3.25"/><polyline class="cls-3" points="37.79 123.46 56.61 109.83 64.84 116.56"/><polyline class="cls-3" points="20.31 124.01 37.2 112.06 45.44 118.79"/><circle class="cls-2" cx="46.46" cy="109.83" r="1.69"/><polyline class="cls-3" points="101.7 124.02 120.52 110.4 128.12 116.6"/><polyline class="cls-3" points="83.58 124.16 100.47 112.21 108.71 118.93"/><circle class="cls-2" cx="109.46" cy="109.83" r="1.69"/></svg>