<?xml version="1.0" encoding="utf-8"?>
<!-- Generator: Adobe Illustrator 16.0.0, SVG Export Plug-In . SVG Version: 6.00 Build 0)  -->
<!DOCTYPE svg PUBLIC "-//W3C//DTD SVG 1.1//EN" "http://www.w3.org/Graphics/SVG/1.1/DTD/svg11.dtd">
<svg version="1.1" id="Layer_1" xmlns="http://www.w3.org/2000/svg" xmlns:xlink="http://www.w3.org/1999/xlink" x="0px" y="0px"
	 width="147.619px" height="145.022px" viewBox="0 0 147.619 145.022" enable-background="new 0 0 147.619 145.022"
	 xml:space="preserve">
<path fill="none" stroke="#F2802E" stroke-width="3" stroke-linecap="round" stroke-linejoin="round" stroke-miterlimit="10" d="
	M5.523,90.686c-1.46-5.631-2.237-11.535-2.237-17.623c0-35.783,26.851-65.294,61.501-69.489"/>
<path fill="none" stroke="#F2802E" stroke-width="3" stroke-linecap="round" stroke-linejoin="round" stroke-miterlimit="10" stroke-dasharray="9" d="
	M34.575,131.395c-14.145-9.406-24.672-23.82-29.052-40.709"/>
<path fill="none" stroke="#F2802E" stroke-width="3" stroke-linecap="round" stroke-linejoin="round" stroke-miterlimit="10" d="
	M141.004,90.856c-6.412,24.475-25.743,43.721-50.268,50.014"/>
<path fill="none" stroke="#F2802E" stroke-width="3" stroke-linecap="round" stroke-linejoin="round" stroke-miterlimit="10" stroke-dasharray="6" d="
	M126.61,27.712c10.4,12.216,16.676,28.051,16.676,45.351c0,6.148-0.793,12.111-2.281,17.793"/>
<g>
	<g>
		<path fill="none" stroke="#F2802E" stroke-width="3" stroke-linecap="round" stroke-linejoin="round" d="M76,19.785
			c27.709,1.661,49.667,24.659,49.667,52.784c0,29.205-23.676,52.881-52.881,52.881c-28.125,0-51.122-21.957-52.785-49.664"/>
		<g>
			<circle fill="#F2802E" cx="76.165" cy="19.859" r="3.384"/>
		</g>
		<g>
			<circle fill="#F2802E" cx="20.075" cy="75.949" r="3.384"/>
		</g>
	</g>
</g>
<g>
	<path fill="none" stroke="#F2802E" stroke-width="3" stroke-linecap="round" stroke-linejoin="round" stroke-miterlimit="10" d="
		M86.32,65.718c2.434,2.502,3.651,5.762,3.651,9.782v2.212c0,5.404-1.229,9.234-3.685,11.49c-2.457,2.256-6.143,3.518-11.056,3.785
		v5.762h-7.235v-5.695c-4.422-0.268-8.532-0.893-12.328-1.875V80.86c4.466,0.402,9.581,0.604,15.343,0.604
		c2.278,0,3.953-0.258,5.025-0.771c1.071-0.513,1.607-1.395,1.607-2.646v-0.804c0-0.938-0.335-1.663-1.005-2.177
		s-1.497-0.771-2.479-0.771h-3.552c-5.315,0-9.279-1.172-11.893-3.517c-2.612-2.345-3.919-6.131-3.919-11.356v-2.211
		c0-4.288,1.116-7.638,3.35-10.05s5.517-3.886,9.85-4.422v-5.226h7.235v5.092c3.573,0.179,7.66,0.804,12.262,1.876v10.318
		c-5.003-0.402-9.648-0.603-13.937-0.603c-2.144,0-3.752,0.257-4.824,0.771c-1.071,0.514-1.607,1.485-1.607,2.915v0.67
		c0,2.278,1.451,3.417,4.354,3.417h4.422C80.413,61.966,83.884,63.217,86.32,65.718z"/>
</g>
</svg>
