<svg id="Layer_1" data-name="Layer 1" xmlns="http://www.w3.org/2000/svg" xmlns:xlink="http://www.w3.org/1999/xlink" viewBox="0 0 145 144.41"><defs><style>.cls-1,.cls-2{fill:none;}.cls-2{stroke:#f4812d;stroke-linecap:round;stroke-linejoin:round;stroke-width:6px;}.cls-3{clip-path:url(#clip-path);}.cls-4{fill:#f4812e;}</style><clipPath id="clip-path"><rect class="cls-1" x="35.99" y="45.5" width="73.02" height="53.42"/></clipPath></defs><title>quote</title><polyline class="cls-2" points="89.33 6.65 138.3 6.65 138.3 54.28"/><polyline class="cls-2" points="5.8 88.62 5.8 139.15 55 139.15"/><polyline class="cls-2" points="138.3 88.62 138.3 139.15 89.33 139.15"/><polyline class="cls-2" points="5.8 54.28 5.8 6.65 55 6.65"/><g class="cls-3"><path class="cls-4" d="M93,65.6c-.15-1.57,0-5.84,4.06-11.77A1.13,1.13,0,0,0,97,52.39c-1.67-1.67-2.7-2.72-3.42-3.46-1-1-1.39-1.41-2-2a1.13,1.13,0,0,0-1.5,0,43.21,43.21,0,0,0-13.9,34.72c.67,9.22,7.4,15.91,16,15.91a16,16,0,0,0,.93-32ZM92.11,95.3c-7.38,0-13.16-5.81-13.74-13.82h0c-1.29-17.66,9.21-29.13,12.38-32.17l1.18,1.19c.63.64,1.48,1.51,2.78,2.82-5,7.65-4,13.09-3.62,13.88a1.17,1.17,0,0,0,1,.62,13.74,13.74,0,1,1,0,27.48Zm0,0"/><path class="cls-4" d="M53,65.6c-.14-1.56,0-5.83,4.06-11.77a1.13,1.13,0,0,0-.13-1.44c-1.66-1.66-2.69-2.71-3.42-3.45-1-1-1.39-1.41-2-2a1.13,1.13,0,0,0-1.5,0A43.18,43.18,0,0,0,36.1,81.65c.68,9.22,7.4,15.91,16,15.91a16,16,0,0,0,.92-32ZM52.09,95.3c-7.38,0-13.16-5.81-13.75-13.82h0c-1.29-17.67,9.21-29.14,12.38-32.17l1.19,1.2c.63.64,1.48,1.51,2.78,2.81-5,7.65-4,13.09-3.61,13.88a1.16,1.16,0,0,0,1,.62,13.74,13.74,0,1,1,0,27.48Zm0,0"/></g></svg>