<?xml version="1.0" encoding="utf-8"?>
<!-- Generator: Adobe Illustrator 16.0.0, SVG Export Plug-In . SVG Version: 6.00 Build 0)  -->
<!DOCTYPE svg PUBLIC "-//W3C//DTD SVG 1.1//EN" "http://www.w3.org/Graphics/SVG/1.1/DTD/svg11.dtd">
<svg version="1.1" id="Layer_1" xmlns="http://www.w3.org/2000/svg" xmlns:xlink="http://www.w3.org/1999/xlink" x="0px" y="0px"
	 width="131.602px" height="123.81px" viewBox="0 0 131.602 123.81" enable-background="new 0 0 131.602 123.81"
	 xml:space="preserve">
<path fill="none" stroke="#F2802E" stroke-width="3" stroke-linecap="round" stroke-linejoin="round" stroke-miterlimit="10" d="
	M36.646,30.247v21.638h14.426v-7.213h7.215V80.74h-7.215v14.428h28.854V80.74h-7.213V44.672h7.213v7.213h14.428V30.243H36.646
	V30.247z"/>
<g>
	<g>
		<polyline fill="none" stroke="#F2802E" stroke-width="3" stroke-linecap="round" stroke-linejoin="round" points="
			128.542,114.824 128.542,120.824 122.542,120.824 		"/>
		
			<line fill="none" stroke="#F2802E" stroke-width="3" stroke-linecap="round" stroke-linejoin="round" stroke-dasharray="12.5753,12.5753" x1="109.967" y1="120.824" x2="15.652" y2="120.824"/>
		<polyline fill="none" stroke="#F2802E" stroke-width="3" stroke-linecap="round" stroke-linejoin="round" points="9.364,120.824 
			3.364,120.824 3.364,114.824 		"/>
		
			<line fill="none" stroke="#F2802E" stroke-width="3" stroke-linecap="round" stroke-linejoin="round" stroke-dasharray="11.5818,11.5818" x1="3.364" y1="103.242" x2="3.364" y2="16.378"/>
		<polyline fill="none" stroke="#F2802E" stroke-width="3" stroke-linecap="round" stroke-linejoin="round" points="3.364,10.587 
			3.364,4.587 9.364,4.587 		"/>
		
			<line fill="none" stroke="#F2802E" stroke-width="3" stroke-linecap="round" stroke-linejoin="round" stroke-dasharray="12.5753,12.5753" x1="21.939" y1="4.587" x2="116.254" y2="4.587"/>
		<polyline fill="none" stroke="#F2802E" stroke-width="3" stroke-linecap="round" stroke-linejoin="round" points="122.542,4.587 
			128.542,4.587 128.542,10.587 		"/>
		
			<line fill="none" stroke="#F2802E" stroke-width="3" stroke-linecap="round" stroke-linejoin="round" stroke-dasharray="11.5818,11.5818" x1="128.542" y1="22.169" x2="128.542" y2="109.033"/>
	</g>
</g>
</svg>
