<?xml version="1.0" encoding="utf-8"?>
<!-- Generator: Adobe Illustrator 16.0.0, SVG Export Plug-In . SVG Version: 6.00 Build 0)  -->
<!DOCTYPE svg PUBLIC "-//W3C//DTD SVG 1.1//EN" "http://www.w3.org/Graphics/SVG/1.1/DTD/svg11.dtd">
<svg version="1.1" id="Layer_1" xmlns="http://www.w3.org/2000/svg" xmlns:xlink="http://www.w3.org/1999/xlink" x="0px" y="0px"
	 width="200.433px" height="108.226px" viewBox="0 0 200.433 108.226" enable-background="new 0 0 200.433 108.226"
	 xml:space="preserve">
<rect x="36.953" y="5.66" fill="none" stroke="#F48131" stroke-width="4" stroke-linecap="round" stroke-linejoin="round" stroke-miterlimit="10" width="129.605" height="77.5"/>
<g>
	<g>
		<path fill="#F48131" d="M84.581,28.175H48.134c-1.464,0-2.651,1.187-2.651,2.649v27.17c0,1.465,1.188,2.65,2.651,2.65h36.447
			c1.464,0,2.651-1.186,2.651-2.65v-27.17C87.232,29.361,86.045,28.175,84.581,28.175z M84.581,30.824v19.279l-5.224-4.75
			c-0.786-0.715-1.993-0.686-2.743,0.066l-5.287,5.285L60.902,38.254c-0.788-0.941-2.23-0.951-3.03-0.021l-9.738,11.318V30.824
			H84.581z M73.315,37.781c0-2.012,1.631-3.645,3.646-3.645c2.013,0,3.645,1.633,3.645,3.645c0,2.014-1.632,3.646-3.645,3.646
			C74.946,41.428,73.315,39.795,73.315,37.781z"/>
	</g>
	<g>
		<rect x="103.756" y="30.174" fill="#F48131" width="42.153" height="3.254"/>
		<rect x="103.756" y="38.953" fill="#F48131" width="29.069" height="3.252"/>
		<rect x="103.756" y="47.652" fill="#F48131" width="42.153" height="3.252"/>
		<rect x="103.756" y="56.43" fill="#F48131" width="29.069" height="3.254"/>
	</g>
</g>
<line fill="none" stroke="#F48131" stroke-width="3" stroke-linecap="round" stroke-linejoin="round" stroke-miterlimit="10" x1="18.78" y1="31.47" x2="5.48" y2="44.771"/>
<line fill="none" stroke="#F48131" stroke-width="3" stroke-linecap="round" stroke-linejoin="round" stroke-miterlimit="10" x1="18.78" y1="58.07" x2="5.48" y2="44.771"/>
<line fill="none" stroke="#F48131" stroke-width="3" stroke-linecap="round" stroke-linejoin="round" stroke-miterlimit="10" x1="195.641" y1="44.41" x2="182.341" y2="31.11"/>
<line fill="none" stroke="#F48131" stroke-width="3" stroke-linecap="round" stroke-linejoin="round" stroke-miterlimit="10" x1="195.641" y1="44.41" x2="182.341" y2="57.71"/>
<rect x="96.752" y="95.992" fill="#F48131" width="8" height="7.999"/>
<rect x="82.232" y="95.992" fill="#F48131" width="8" height="7.999"/>
<rect x="111.9" y="95.992" fill="#F48131" width="8" height="7.999"/>
</svg>
