<?xml version="1.0" encoding="utf-8"?>
<!-- Generator: Adobe Illustrator 21.0.0, SVG Export Plug-In . SVG Version: 6.00 Build 0)  -->
<svg version="1.1" id="Layer_1" xmlns="http://www.w3.org/2000/svg" xmlns:xlink="http://www.w3.org/1999/xlink" x="0px" y="0px"
	 viewBox="0 0 145.2 116.5" style="enable-background:new 0 0 145.2 116.5;" xml:space="preserve">
<style type="text/css">
	.st0{fill:none;stroke:#F38030;stroke-width:6;stroke-miterlimit:10;}
</style>
<path class="st0" d="M26.2,7.5H136c1.5,0,2.7,0.9,2.7,1.9v100c0,1.1-1.2,1.9-2.7,1.9H27.2c-1.5,0-2.7-0.9-2.7-1.9V36.1"/>
<path class="st0" d="M26.7,39.1h-17c-0.9,0-1.6-0.7-1.6-1.6V9c0-0.9,0.7-1.6,1.6-1.6h16.7"/>
<path class="st0" d="M22.1,72.7H9.4c-0.7,0-1.2-0.6-1.2-1.2v-23c0-0.7,0.6-1.2,1.2-1.2h13"/>
<path class="st0" d="M22.1,104.5H9.4c-0.7,0-1.2-0.6-1.2-1.2v-23c0-0.7,0.6-1.2,1.2-1.2h13"/>
</svg>
