<?xml version="1.0" encoding="utf-8"?>
<!-- Generator: Adobe Illustrator 16.0.0, SVG Export Plug-In . SVG Version: 6.00 Build 0)  -->
<!DOCTYPE svg PUBLIC "-//W3C//DTD SVG 1.1//EN" "http://www.w3.org/Graphics/SVG/1.1/DTD/svg11.dtd">
<svg version="1.1" id="Layer_1" xmlns="http://www.w3.org/2000/svg" xmlns:xlink="http://www.w3.org/1999/xlink" x="0px" y="0px"
	 width="145.217px" height="116.521px" viewBox="0 0 145.217 116.521" enable-background="new 0 0 145.217 116.521"
	 xml:space="preserve">
<path fill="none" stroke="#F38030" stroke-width="6" stroke-miterlimit="10" d="M49.043,28.159h88.037c1.36,0,2.463,0.896,2.463,2
	v79.333c0,1.104-1.103,2-2.463,2H8.173c-1.36,0-2.463-0.896-2.463-2V30.159"/>
<path fill="none" stroke="#F38030" stroke-width="6" stroke-miterlimit="10" d="M5.71,30.764V9.23c0-1.104,0.896-2,2-2h36.833
	c1.104,0,2,0.896,2,2v21.908"/>
<path fill="none" stroke="#F38030" stroke-width="6" stroke-miterlimit="10" d="M57.043,25.589V8.838
	c0-0.888,0.72-1.607,1.608-1.607h29.616c0.889,0,1.608,0.72,1.608,1.607v16.35"/>
<path fill="none" stroke="#F38030" stroke-width="6" stroke-miterlimit="10" d="M98.043,25.589V8.838
	c0-0.888,0.722-1.607,1.608-1.607h29.615c0.89,0,1.608,0.72,1.608,1.607v16.35"/>
</svg>
