<svg id="Layer_1" data-name="Layer 1" xmlns="http://www.w3.org/2000/svg" viewBox="0 0 145 144"><defs><style>.cls-1{fill:#f4812e;}</style></defs><title>team</title><path class="cls-1" d="M114,51a15,15,0,1,0,15,15A15,15,0,0,0,114,51Zm0,24a9,9,0,1,1,9-9A9,9,0,0,1,114,75Z"/><path class="cls-1" d="M31,51A15,15,0,1,0,46,66,15,15,0,0,0,31,51Zm0,24a9,9,0,1,1,9-9A9,9,0,0,1,31,75Z"/><path class="cls-1" d="M114,87a27,27,0,0,0-14,4,3,3,0,0,0,3,5,21,21,0,0,1,32,18,3,3,0,1,0,6,0A27,27,0,0,0,114,87Z"/><path class="cls-1" d="M45,91A27,27,0,0,0,4,114a3,3,0,0,0,6,0A21,21,0,0,1,42,96a3,3,0,0,0,3-5Z"/><path class="cls-1" d="M73,70A21,21,0,1,1,94,49,21,21,0,0,1,73,70Zm0-36A15,15,0,1,0,88,49,15,15,0,0,0,73,34Z"/><path class="cls-1" d="M109,118a3,3,0,0,1-3-3,33,33,0,0,0-66,0,3,3,0,0,1-6,0,39,39,0,0,1,78,0A3,3,0,0,1,109,118Z"/></svg>