<svg id="Layer_1" data-name="Layer 1" xmlns="http://www.w3.org/2000/svg" viewBox="0 0 145 144"><defs><style>.cls-1,.cls-2{fill:none;stroke:#f4812d;stroke-miterlimit:10;}.cls-1{stroke-width:4px;}.cls-2{stroke-width:2px;}</style></defs><title>testimonial</title><path class="cls-1" d="M60,51H14a3,3,0,0,0-3,3v49a3,3,0,0,0,3,3H25v17l19-17H88a3,3,0,0,0,3-3V54a3,3,0,0,0-3-3H60"/><path class="cls-1" d="M60,51V23a3,3,0,0,1,3-3h69a3,3,0,0,1,3,3V69a3,3,0,0,1-3,3H122V88L104,72H91"/><circle class="cls-2" cx="51" cy="78" r="5"/><circle class="cls-2" cx="30" cy="78" r="5"/><circle class="cls-2" cx="70" cy="78" r="5"/></svg>