<svg id="Layer_1" data-name="Layer 1" xmlns="http://www.w3.org/2000/svg" viewBox="0 0 145 144.41"><defs><style>.cls-1{fill:#f4812e;}</style></defs><title>toc</title><path class="cls-1" d="M24,16A12.33,12.33,0,1,0,36.33,28.29,12.35,12.35,0,0,0,24,16Zm0,18.5a6.17,6.17,0,1,1,6.17-6.17A6.17,6.17,0,0,1,24,34.46Z"/><path class="cls-1" d="M46,59.87A12.33,12.33,0,1,0,58.33,72.21,12.35,12.35,0,0,0,46,59.87Zm0,18.5a6.17,6.17,0,1,1,6.17-6.17A6.17,6.17,0,0,1,46,78.37Z"/><path class="cls-1" d="M47,103.79a12.33,12.33,0,1,0,12.33,12.33A12.35,12.35,0,0,0,47,103.79Zm0,18.5a6.17,6.17,0,1,1,6.17-6.17A6.17,6.17,0,0,1,47,122.29Z"/><rect class="cls-1" x="48.67" y="19.04" width="18.5" height="6.17"/><rect class="cls-1" x="48.67" y="31.37" width="61.66" height="6.17"/><rect class="cls-1" x="70.67" y="62.96" width="18.5" height="6.17"/><rect class="cls-1" x="70.67" y="75.29" width="61.66" height="6.17"/><rect class="cls-1" x="71.67" y="106.87" width="18.5" height="6.17"/><rect class="cls-1" x="71.67" y="119.2" width="61.66" height="6.17"/></svg>