<svg id="Layer_1" data-name="Layer 1" xmlns="http://www.w3.org/2000/svg" viewBox="0 0 145 144"><defs><style>.cls-1{fill:none;stroke:#f4812f;stroke-miterlimit:10;stroke-width:4px;}.cls-2{fill:#f4812e;}</style></defs><title>vide</title><path class="cls-1" d="M20,61H131a0,0,0,0,1,0,0v73a5,5,0,0,1-5,5H25a5,5,0,0,1-5-5V61A0,0,0,0,1,20,61Z"/><path class="cls-1" d="M19,18H120a5,5,0,0,1,5,5V47a0,0,0,0,1,0,0H14a0,0,0,0,1,0,0V23A5,5,0,0,1,19,18Z" transform="translate(-6 20) rotate(-16)"/><line class="cls-1" x1="28" y1="29" x2="57" y2="51"/><line class="cls-1" x1="57" y1="21" x2="86" y2="43"/><line class="cls-1" x1="89" y1="12" x2="114" y2="35"/><line class="cls-1" x1="20" y1="86" x2="131" y2="86"/><line class="cls-1" x1="51" y1="61" x2="35" y2="86"/><line class="cls-1" x1="72" y1="61" x2="57" y2="86"/><line class="cls-1" x1="93" y1="61" x2="79" y2="86"/><line class="cls-1" x1="114" y1="61" x2="100" y2="86"/><polygon class="cls-2" points="83 112 67 103 67 121 83 112"/></svg>