<?xml version="1.0" encoding="utf-8"?>
<!-- Generator: Adobe Illustrator 16.0.0, SVG Export Plug-In . SVG Version: 6.00 Build 0)  -->
<!DOCTYPE svg PUBLIC "-//W3C//DTD SVG 1.1//EN" "http://www.w3.org/Graphics/SVG/1.1/DTD/svg11.dtd">
<svg version="1.1" id="template_4" xmlns="http://www.w3.org/2000/svg" xmlns:xlink="http://www.w3.org/1999/xlink" x="0px" y="0px"
	 width="185px" height="89px" viewBox="0 0 185 89" enable-background="new 0 0 185 89" xml:space="preserve">
<rect fill="#E8E8E8" width="185" height="89"/>
<rect x="10.167" y="10.833" fill="#D3D3D3" width="68.167" height="68.167"/>
<g id="Layer_3" opacity="0.2">
	<g>
		<g>
			<path fill="#010101" d="M56.165,28.087c-0.207-0.118-0.462-0.116-0.667,0.005l-12.169,7.196c-0.316,0.187-0.42,0.594-0.234,0.91
				c0.187,0.315,0.594,0.42,0.91,0.233l8.731-5.163L36.473,48.144l-8.089-2.475l10.557-6.242c0.315-0.187,0.42-0.594,0.233-0.91
				c-0.187-0.315-0.594-0.42-0.91-0.233l-11.852,7.009c-0.227,0.133-0.353,0.389-0.321,0.649c0.031,0.262,0.213,0.48,0.465,0.557
				l9.66,2.956l4.262,7.757c0.004,0.008,0.009,0.015,0.014,0.021c0.071,0.119,0.177,0.216,0.31,0.271
				c0.083,0.035,0.171,0.052,0.257,0.052c0.17,0,0.338-0.065,0.464-0.189l4.901-4.789l9.217,2.82
				c0.064,0.019,0.129,0.029,0.194,0.029c0.141,0,0.279-0.044,0.395-0.13C56.4,55.17,56.5,54.972,56.5,54.762V28.664
				C56.5,28.426,56.372,28.205,56.165,28.087z M40.514,49.863c-0.077,0.111-0.118,0.243-0.118,0.378v4.063l-2.91-5.297
				l12.878-13.362L40.514,49.863z M41.724,55.313v-4.174l3.253,0.995L41.724,55.313z M55.172,53.864l-13.049-3.992l13.049-18.837
				V53.864z"/>
		</g>
	</g>
	<g>
		<g>
			<path fill="#010101" d="M33.419,51.082c-0.259-0.26-0.68-0.26-0.939,0l-6.199,6.199c-0.259,0.26-0.259,0.68,0,0.939
				c0.129,0.13,0.299,0.195,0.469,0.195s0.34-0.065,0.47-0.195l6.199-6.199C33.678,51.761,33.678,51.34,33.419,51.082z"/>
		</g>
	</g>
	<g>
		<g>
			<path fill="#010101" d="M25.161,59.339c-0.259-0.259-0.68-0.259-0.939,0l-1.527,1.527c-0.259,0.259-0.259,0.68,0,0.939
				C22.824,61.935,22.994,62,23.164,62s0.34-0.065,0.47-0.195l1.527-1.527C25.42,60.019,25.42,59.599,25.161,59.339z"/>
		</g>
	</g>
	<g>
		<g>
			<path fill="#010101" d="M31.973,60.827c-0.124-0.124-0.295-0.194-0.47-0.194c-0.175,0-0.346,0.071-0.47,0.194
				c-0.123,0.124-0.194,0.294-0.194,0.47c0,0.174,0.071,0.346,0.194,0.469c0.124,0.124,0.295,0.195,0.47,0.195
				s0.346-0.071,0.47-0.195c0.123-0.124,0.194-0.295,0.194-0.469C32.167,61.122,32.096,60.951,31.973,60.827z"/>
		</g>
	</g>
	<g>
		<g>
			<path fill="#010101" d="M36.914,55.886c-0.259-0.259-0.679-0.259-0.939,0l-3.284,3.284c-0.259,0.259-0.259,0.68,0,0.939
				c0.13,0.13,0.3,0.194,0.47,0.194s0.34-0.065,0.469-0.194l3.284-3.283C37.173,56.566,37.173,56.146,36.914,55.886z"/>
		</g>
	</g>
	<g>
		<g>
			<path fill="#010101" d="M48.246,55.634c-0.259-0.259-0.68-0.259-0.939,0l-3.293,3.292c-0.259,0.259-0.259,0.68,0,0.939
				c0.13,0.129,0.3,0.194,0.47,0.194c0.17,0,0.339-0.065,0.469-0.194l3.293-3.293C48.505,56.314,48.505,55.894,48.246,55.634z"/>
		</g>
	</g>
	<g>
		<g>
			<path fill="#010101" d="M41.326,37.052c-0.124-0.124-0.295-0.194-0.469-0.194c-0.175,0-0.346,0.071-0.47,0.194
				s-0.194,0.295-0.194,0.47c0,0.175,0.071,0.345,0.194,0.469c0.124,0.125,0.295,0.195,0.47,0.195c0.174,0,0.346-0.07,0.469-0.195
				c0.123-0.124,0.195-0.294,0.195-0.469C41.521,37.347,41.45,37.175,41.326,37.052z"/>
		</g>
	</g>
</g>
<path opacity="0.2" fill="#9F9E9E" d="M149.814,32.252c0,0.586-0.475,1.061-1.061,1.061H91.893c-0.584,0-1.06-0.475-1.06-1.061l0,0
	c0-0.585,0.476-1.06,1.06-1.06h56.861C149.34,31.192,149.814,31.667,149.814,32.252L149.814,32.252z"/>
<path opacity="0.2" fill="#9F9E9E" d="M160.461,39.348c0,0.599-0.484,1.083-1.082,1.083H91.916c-0.598,0-1.083-0.485-1.083-1.083
	l0,0c0-0.599,0.485-1.084,1.083-1.084h67.463C159.977,38.264,160.461,38.749,160.461,39.348L160.461,39.348z"/>
<path opacity="0.2" fill="#9F9E9E" d="M138.885,46.9c0,0.546-0.442,0.989-0.989,0.989H91.821c-0.546,0-0.988-0.442-0.988-0.989l0,0
	c0-0.546,0.442-0.989,0.988-0.989h46.074C138.442,45.911,138.885,46.354,138.885,46.9L138.885,46.9z"/>
<path opacity="0.2" fill="#9F9E9E" d="M149.861,54.5c0,0.573-0.465,1.037-1.037,1.037H91.822c-0.573,0-1.037-0.464-1.037-1.037l0,0
	c0-0.572,0.463-1.037,1.037-1.037h57.002C149.396,53.463,149.861,53.927,149.861,54.5L149.861,54.5z"/>
<path opacity="0.2" fill="#9F9E9E" d="M148.732,17.244c0,0.977-0.793,1.769-1.77,1.769H93.555c-0.977,0-1.77-0.792-1.77-1.769
	v-3.006c0-0.977,0.793-1.769,1.77-1.769h53.408c0.977,0,1.77,0.792,1.77,1.769V17.244z"/>
<path opacity="0.2" fill="#9F9E9E" d="M123.5,71.75c0,3.176-2.574,5.75-5.75,5.75H96.583c-3.176,0-5.75-2.574-5.75-5.75l0,0
	c0-3.176,2.574-5.75,5.75-5.75h21.167C120.926,66,123.5,68.574,123.5,71.75L123.5,71.75z"/>
</svg>
