<?xml version="1.0" encoding="utf-8"?>
<!-- Generator: Adobe Illustrator 16.0.0, SVG Export Plug-In . SVG Version: 6.00 Build 0)  -->
<!DOCTYPE svg PUBLIC "-//W3C//DTD SVG 1.1//EN" "http://www.w3.org/Graphics/SVG/1.1/DTD/svg11.dtd">
<svg version="1.1" xmlns="http://www.w3.org/2000/svg" xmlns:xlink="http://www.w3.org/1999/xlink" x="0px" y="0px"
	 width="141.904px" height="188.668px" viewBox="0 0 141.904 188.668" enable-background="new 0 0 141.904 188.668"
	 xml:space="preserve">
<g id="Layer_1">
	<rect fill="#E8E8E8" width="141.904" height="188.668"/>
	<g id="template6">
		<path opacity="0.2" fill="#9F9E9E" d="M104.387,98.299c0,0.664-0.538,1.201-1.202,1.201H38.72c-0.664,0-1.202-0.537-1.202-1.201
			l0,0c0-0.664,0.538-1.202,1.202-1.202h64.465C103.849,97.097,104.387,97.635,104.387,98.299L104.387,98.299z"/>
		<path opacity="0.2" fill="#9F9E9E" d="M110.422,110.877c0,0.679-0.55,1.229-1.229,1.229H32.711c-0.678,0-1.229-0.55-1.229-1.229
			l0,0c0-0.678,0.55-1.229,1.229-1.229h76.482C109.872,109.648,110.422,110.199,110.422,110.877L110.422,110.877z"/>
		<path opacity="0.2" fill="#9F9E9E" d="M98.191,122.841c0,0.619-0.503,1.122-1.122,1.122H44.835c-0.62,0-1.122-0.503-1.122-1.122
			l0,0c0-0.619,0.502-1.121,1.122-1.121h52.234C97.688,121.72,98.191,122.222,98.191,122.841L98.191,122.841z"/>
		<path opacity="0.2" fill="#9F9E9E" d="M104.439,134.857c0,0.649-0.526,1.176-1.175,1.176H38.64c-0.649,0-1.175-0.526-1.175-1.176
			l0,0c0-0.648,0.526-1.175,1.175-1.175h64.625C103.913,133.683,104.439,134.209,104.439,134.857L104.439,134.857z"/>
		<path opacity="0.2" fill="#9F9E9E" d="M97.202,162.951c0,4.188-3.396,7.584-7.584,7.584h-37.6c-4.189,0-7.584-3.396-7.584-7.584
			l0,0c0-4.188,3.395-7.584,7.584-7.584h37.6C93.807,155.367,97.202,158.763,97.202,162.951L97.202,162.951z"/>
		<rect x="0.452" opacity="0.2" fill="#E0E0E0" width="141" height="61.206"/>
		<circle fill="#B2B3B3" cx="70.031" cy="36.417" r="19.975"/>
		<path opacity="0.2" fill="#9F9E9E" d="M96.241,78.155c0,0.885-0.717,1.602-1.602,1.602H46.25c-0.885,0-1.602-0.717-1.602-1.602
			v-2.724c0-0.885,0.717-1.603,1.602-1.603H94.64c0.885,0,1.602,0.717,1.602,1.603V78.155z"/>
		<g opacity="0.2">
			<g>
				<g>
					<path fill="#010101" d="M80.187,24.399c-0.134-0.076-0.298-0.075-0.431,0.003l-7.844,4.639
						c-0.204,0.121-0.271,0.383-0.15,0.586c0.121,0.203,0.383,0.271,0.586,0.15l5.629-3.328L67.493,37.326l-5.214-1.595l6.804-4.024
						c0.204-0.12,0.271-0.383,0.15-0.586c-0.12-0.204-0.382-0.271-0.586-0.151l-7.639,4.518c-0.146,0.086-0.228,0.25-0.208,0.419
						s0.138,0.31,0.3,0.359l6.227,1.905l2.748,5c0.002,0.004,0.005,0.009,0.008,0.013c0.046,0.077,0.115,0.139,0.2,0.175
						c0.054,0.022,0.11,0.034,0.166,0.034c0.11,0,0.218-0.042,0.299-0.122l3.159-3.087l5.941,1.818
						c0.042,0.012,0.084,0.019,0.125,0.019c0.091,0,0.181-0.028,0.256-0.084c0.108-0.081,0.173-0.208,0.173-0.344V24.771
						C80.402,24.617,80.319,24.475,80.187,24.399z M70.098,38.435c-0.05,0.072-0.077,0.157-0.077,0.244v2.618l-1.875-3.414
						l8.3-8.613L70.098,38.435z M70.877,41.948v-2.691l2.097,0.641L70.877,41.948z M79.546,41.014l-8.411-2.573l8.411-12.142V41.014
						z"/>
				</g>
			</g>
			<g>
				<g>
					<path fill="#010101" d="M65.524,39.22c-0.167-0.167-0.438-0.167-0.605,0l-3.996,3.996c-0.167,0.167-0.167,0.438,0,0.605
						c0.084,0.084,0.193,0.125,0.303,0.125c0.109,0,0.219-0.042,0.303-0.125l3.996-3.996C65.692,39.658,65.692,39.387,65.524,39.22z
						"/>
				</g>
			</g>
			<g>
				<g>
					<path fill="#010101" d="M60.202,44.543c-0.167-0.167-0.438-0.167-0.605,0l-0.985,0.984c-0.167,0.167-0.167,0.438,0,0.605
						c0.083,0.083,0.193,0.125,0.303,0.125c0.109,0,0.219-0.042,0.302-0.125l0.984-0.984C60.369,44.981,60.369,44.71,60.202,44.543z
						"/>
				</g>
			</g>
			<g>
				<g>
					<path fill="#010101" d="M64.592,45.502c-0.08-0.079-0.19-0.125-0.302-0.125c-0.113,0-0.223,0.046-0.303,0.125
						c-0.08,0.08-0.125,0.19-0.125,0.303s0.046,0.223,0.125,0.303c0.08,0.079,0.19,0.125,0.303,0.125
						c0.112,0,0.223-0.046,0.302-0.125c0.08-0.08,0.126-0.19,0.126-0.303S64.672,45.582,64.592,45.502z"/>
				</g>
			</g>
			<g>
				<g>
					<path fill="#010101" d="M67.777,42.317c-0.167-0.167-0.438-0.167-0.605,0l-2.116,2.116c-0.167,0.167-0.167,0.438,0,0.606
						c0.083,0.083,0.193,0.125,0.302,0.125s0.219-0.042,0.303-0.125l2.117-2.117C67.945,42.755,67.945,42.484,67.777,42.317z"/>
				</g>
			</g>
			<g>
				<g>
					<path fill="#010101" d="M75.082,42.155c-0.168-0.167-0.438-0.167-0.605,0l-2.122,2.123c-0.168,0.167-0.168,0.438,0,0.605
						c0.083,0.083,0.192,0.125,0.303,0.125c0.109,0,0.219-0.042,0.302-0.125l2.123-2.123C75.249,42.593,75.249,42.322,75.082,42.155
						z"/>
				</g>
			</g>
			<g>
				<g>
					<path fill="#010101" d="M70.622,30.177c-0.08-0.08-0.19-0.125-0.303-0.125c-0.113,0-0.223,0.046-0.303,0.125
						c-0.079,0.08-0.125,0.19-0.125,0.303s0.046,0.223,0.125,0.303c0.08,0.08,0.19,0.125,0.303,0.125
						c0.112,0,0.223-0.045,0.303-0.125c0.08-0.08,0.125-0.19,0.125-0.303S70.701,30.257,70.622,30.177z"/>
				</g>
			</g>
		</g>
	</g>
	<g id="template_3" display="none">
		<path display="inline" opacity="0.2" fill="#9F9E9E" d="M131.251,72.454c0,0.977-0.793,1.769-1.77,1.769H76.073
			c-0.977,0-1.77-0.792-1.77-1.769v-3.006c0-0.977,0.793-1.769,1.77-1.769h53.408c0.977,0,1.77,0.792,1.77,1.769V72.454z"/>
		<g display="inline" opacity="0.2">
			<path fill="#9F9E9E" d="M131.433,93.037c0,0.733-0.818,1.327-1.827,1.327H31.503c-1.01,0-1.83-0.594-1.83-1.327l0,0
				c0-0.732,0.82-1.326,1.83-1.326h98.103C130.614,91.711,131.433,92.305,131.433,93.037L131.433,93.037z"/>
			<path fill="#9F9E9E" d="M131.433,106.922c0,0.749-0.837,1.355-1.87,1.355H13.174c-1.032,0-1.87-0.606-1.87-1.355l0,0
				c0-0.749,0.838-1.356,1.87-1.356h116.388C130.596,105.565,131.433,106.173,131.433,106.922L131.433,106.922z"/>
			<path fill="#9F9E9E" d="M131.433,120.126c0,0.684-0.763,1.237-1.705,1.237h-79.49c-0.942,0-1.707-0.554-1.707-1.237l0,0
				c0-0.683,0.765-1.237,1.707-1.237h79.49C130.67,118.889,131.433,119.443,131.433,120.126L131.433,120.126z"/>
			<path fill="#9F9E9E" d="M131.433,133.39c0,0.717-0.799,1.298-1.788,1.298H31.299c-0.987,0-1.788-0.581-1.788-1.298l0,0
				c0-0.716,0.801-1.297,1.788-1.297h98.345C130.634,132.093,131.433,132.674,131.433,133.39L131.433,133.39z"/>
			<path fill="#9F9E9E" d="M129.899,162.731c0,4.623-3.749,8.371-8.372,8.371H80.026c-4.623,0-8.371-3.748-8.371-8.371l0,0
				c0-4.623,3.748-8.371,8.371-8.371h41.501C126.15,154.36,129.899,158.108,129.899,162.731L129.899,162.731z"/>
		</g>
		<g display="inline" opacity="0.2">
			<g>
				<g>
					<path fill="#010101" d="M128.697,17.622c-0.151-0.087-0.338-0.085-0.488,0.004l-8.907,5.267
						c-0.23,0.137-0.307,0.435-0.17,0.666c0.137,0.23,0.434,0.307,0.665,0.17l6.391-3.779l-11.903,12.351l-5.92-1.812l7.727-4.568
						c0.23-0.137,0.307-0.435,0.17-0.666s-0.434-0.308-0.665-0.171l-8.675,5.129c-0.166,0.098-0.258,0.285-0.235,0.476
						s0.156,0.351,0.341,0.407l7.07,2.163l3.119,5.677c0.003,0.006,0.006,0.011,0.01,0.015c0.053,0.087,0.131,0.158,0.228,0.199
						c0.061,0.026,0.124,0.038,0.188,0.038c0.125,0,0.247-0.048,0.34-0.138l3.586-3.505l6.746,2.064
						c0.047,0.015,0.096,0.021,0.143,0.021c0.104,0,0.205-0.033,0.289-0.095c0.124-0.091,0.197-0.236,0.197-0.391V18.043
						C128.942,17.869,128.849,17.708,128.697,17.622z M117.241,33.559c-0.056,0.082-0.086,0.178-0.086,0.277v2.973l-2.129-3.877
						l9.424-9.779L117.241,33.559z M118.128,37.548v-3.055l2.381,0.728L118.128,37.548z M127.97,36.487l-9.551-2.921l9.551-13.787
						V36.487z"/>
				</g>
			</g>
			<g>
				<g>
					<path fill="#010101" d="M112.049,34.451c-0.189-0.19-0.497-0.19-0.687,0l-4.537,4.537c-0.19,0.19-0.19,0.497,0,0.687
						c0.095,0.095,0.219,0.143,0.344,0.143c0.123,0,0.248-0.047,0.344-0.143l4.536-4.537
						C112.239,34.949,112.239,34.641,112.049,34.451z"/>
				</g>
			</g>
			<g>
				<g>
					<path fill="#010101" d="M106.005,40.495c-0.189-0.189-0.497-0.189-0.688,0l-1.117,1.118c-0.189,0.19-0.189,0.498,0,0.687
						c0.096,0.095,0.219,0.143,0.344,0.143c0.124,0,0.248-0.047,0.344-0.143l1.117-1.118
						C106.195,40.992,106.195,40.685,106.005,40.495z"/>
				</g>
			</g>
			<g>
				<g>
					<path fill="#010101" d="M110.991,41.584c-0.091-0.09-0.216-0.142-0.344-0.142c-0.129,0-0.254,0.052-0.344,0.142
						s-0.143,0.215-0.143,0.344c0,0.127,0.053,0.253,0.143,0.344s0.215,0.142,0.344,0.142c0.128,0,0.253-0.052,0.344-0.142
						c0.09-0.09,0.143-0.216,0.143-0.344C111.134,41.799,111.081,41.674,110.991,41.584z"/>
				</g>
			</g>
			<g>
				<g>
					<path fill="#010101" d="M114.606,37.968c-0.189-0.19-0.497-0.19-0.688,0l-2.402,2.403c-0.189,0.19-0.189,0.498,0,0.688
						c0.095,0.095,0.219,0.143,0.344,0.143c0.124,0,0.248-0.048,0.344-0.143l2.402-2.403
						C114.797,38.465,114.797,38.158,114.606,37.968z"/>
				</g>
			</g>
			<g>
				<g>
					<path fill="#010101" d="M122.901,37.783c-0.189-0.189-0.498-0.189-0.688,0l-2.41,2.41c-0.189,0.189-0.189,0.497,0,0.687
						c0.096,0.095,0.22,0.143,0.344,0.143c0.125,0,0.25-0.048,0.344-0.143l2.41-2.41C123.091,38.281,123.091,37.973,122.901,37.783z
						"/>
				</g>
			</g>
			<g>
				<g>
					<path fill="#010101" d="M117.837,24.183c-0.091-0.091-0.216-0.143-0.344-0.143s-0.253,0.052-0.344,0.143
						c-0.09,0.09-0.143,0.216-0.143,0.344c0,0.127,0.053,0.252,0.143,0.343c0.091,0.091,0.216,0.142,0.344,0.142
						s0.253-0.051,0.344-0.142c0.09-0.091,0.143-0.216,0.143-0.343C117.979,24.398,117.927,24.273,117.837,24.183z"/>
				</g>
			</g>
		</g>
	</g>
	<g id="template_2_1_" display="none">
		<path display="inline" opacity="0.2" fill="#9F9E9E" d="M104.387,98.299c0,0.664-0.538,1.201-1.202,1.201H38.72
			c-0.664,0-1.202-0.537-1.202-1.201l0,0c0-0.664,0.538-1.202,1.202-1.202h64.465C103.849,97.097,104.387,97.635,104.387,98.299
			L104.387,98.299z"/>
		<path display="inline" opacity="0.2" fill="#9F9E9E" d="M110.422,110.877c0,0.679-0.55,1.229-1.229,1.229H32.711
			c-0.678,0-1.229-0.55-1.229-1.229l0,0c0-0.678,0.55-1.229,1.229-1.229h76.482C109.872,109.648,110.422,110.199,110.422,110.877
			L110.422,110.877z"/>
		<path display="inline" opacity="0.2" fill="#9F9E9E" d="M98.191,122.841c0,0.619-0.503,1.122-1.122,1.122H44.835
			c-0.62,0-1.122-0.503-1.122-1.122l0,0c0-0.619,0.502-1.121,1.122-1.121h52.234C97.688,121.72,98.191,122.222,98.191,122.841
			L98.191,122.841z"/>
		<path display="inline" opacity="0.2" fill="#9F9E9E" d="M104.439,134.857c0,0.649-0.526,1.176-1.175,1.176H38.64
			c-0.649,0-1.175-0.526-1.175-1.176l0,0c0-0.648,0.526-1.175,1.175-1.175h64.625C103.913,133.683,104.439,134.209,104.439,134.857
			L104.439,134.857z"/>
		<path display="inline" opacity="0.2" fill="#9F9E9E" d="M97.202,162.951c0,4.188-3.396,7.584-7.584,7.584h-37.6
			c-4.189,0-7.584-3.396-7.584-7.584l0,0c0-4.188,3.395-7.584,7.584-7.584h37.6C93.807,155.367,97.202,158.763,97.202,162.951
			L97.202,162.951z"/>
		<rect x="0.452" display="inline" opacity="0.2" fill="#E0E0E0" width="141" height="61.206"/>
		<circle fill="#B2B3B3" cx="68.335" cy="61.099" r="19.975"/>
		<path display="inline" opacity="0.2" fill="#9F9E9E" d="M96.241,78.155c0,0.885-0.717,1.602-1.602,1.602H46.25
			c-0.885,0-1.602-0.717-1.602-1.602v-2.724c0-0.885,0.717-1.603,1.602-1.603H94.64c0.885,0,1.602,0.717,1.602,1.603V78.155z"/>
		<g display="inline" opacity="0.2">
			<g>
				<g>
					<path fill="#010101" d="M83.566,23.969c-0.176-0.101-0.392-0.099-0.565,0.004l-10.313,6.098
						c-0.268,0.158-0.355,0.503-0.197,0.771c0.158,0.267,0.503,0.355,0.771,0.198l7.399-4.375l-13.782,14.3l-6.854-2.097l8.946-5.29
						c0.268-0.158,0.355-0.503,0.197-0.771c-0.158-0.268-0.502-0.357-0.771-0.198l-10.043,5.939
						c-0.191,0.114-0.299,0.33-0.272,0.551c0.026,0.222,0.181,0.407,0.394,0.472l8.186,2.504l3.612,6.573
						c0.003,0.006,0.007,0.012,0.011,0.018c0.061,0.101,0.151,0.183,0.263,0.23c0.071,0.029,0.145,0.044,0.218,0.044
						c0.145,0,0.286-0.055,0.394-0.16l4.152-4.059l7.812,2.39c0.055,0.016,0.109,0.024,0.164,0.024c0.119,0,0.237-0.038,0.336-0.11
						c0.143-0.106,0.228-0.274,0.228-0.453V24.457C83.851,24.255,83.741,24.068,83.566,23.969z M70.304,42.421
						c-0.065,0.094-0.101,0.206-0.101,0.321v3.442l-2.465-4.488l10.912-11.323L70.304,42.421z M71.328,47.04v-3.538l2.758,0.843
						L71.328,47.04z M82.725,45.812l-11.058-3.382l11.058-15.963V45.812z"/>
				</g>
			</g>
			<g>
				<g>
					<path fill="#010101" d="M64.291,43.454c-0.219-0.22-0.576-0.22-0.796,0l-5.253,5.253c-0.22,0.22-0.22,0.576,0,0.796
						c0.11,0.11,0.254,0.165,0.398,0.165s0.289-0.055,0.398-0.165l5.253-5.253C64.511,44.03,64.511,43.673,64.291,43.454z"/>
				</g>
			</g>
			<g>
				<g>
					<path fill="#010101" d="M57.293,50.451c-0.22-0.219-0.576-0.219-0.796,0l-1.294,1.294c-0.22,0.22-0.22,0.576,0,0.796
						c0.11,0.11,0.254,0.165,0.398,0.165s0.288-0.055,0.397-0.165l1.294-1.294C57.513,51.027,57.513,50.671,57.293,50.451z"/>
				</g>
			</g>
			<g>
				<g>
					<path fill="#010101" d="M63.065,51.712c-0.104-0.104-0.25-0.164-0.397-0.164c-0.149,0-0.293,0.06-0.398,0.164
						c-0.104,0.105-0.165,0.25-0.165,0.398c0,0.148,0.061,0.293,0.165,0.398c0.105,0.104,0.25,0.165,0.398,0.165
						c0.148,0,0.293-0.061,0.397-0.165c0.105-0.105,0.166-0.25,0.166-0.398C63.231,51.962,63.17,51.817,63.065,51.712z"/>
				</g>
			</g>
			<g>
				<g>
					<path fill="#010101" d="M67.253,47.525c-0.22-0.22-0.576-0.22-0.796,0l-2.783,2.782c-0.22,0.22-0.22,0.577,0,0.796
						c0.11,0.11,0.254,0.164,0.397,0.164c0.144,0,0.288-0.055,0.398-0.164l2.783-2.783C67.473,48.102,67.473,47.745,67.253,47.525z"
						/>
				</g>
			</g>
			<g>
				<g>
					<path fill="#010101" d="M76.855,47.312c-0.22-0.22-0.576-0.22-0.796,0l-2.789,2.791c-0.221,0.219-0.221,0.576,0,0.796
						c0.109,0.11,0.253,0.165,0.397,0.165c0.144,0,0.288-0.055,0.397-0.165l2.79-2.791C77.076,47.888,77.076,47.531,76.855,47.312z"
						/>
				</g>
			</g>
			<g>
				<g>
					<path fill="#010101" d="M70.992,31.565c-0.105-0.104-0.25-0.165-0.398-0.165s-0.293,0.061-0.397,0.165
						c-0.104,0.105-0.165,0.25-0.165,0.398c0,0.148,0.061,0.292,0.165,0.397s0.25,0.165,0.397,0.165s0.293-0.06,0.398-0.165
						c0.104-0.105,0.164-0.25,0.164-0.397C71.156,31.815,71.097,31.67,70.992,31.565z"/>
				</g>
			</g>
		</g>
	</g>
	<g id="template_1_2_" display="none">
		<path display="inline" opacity="0.2" fill="#9F9E9E" d="M68.25,72.454c0,0.977-0.793,1.769-1.77,1.769H13.073
			c-0.977,0-1.769-0.792-1.769-1.769v-3.006c0-0.977,0.792-1.769,1.769-1.769h53.408c0.977,0,1.77,0.792,1.77,1.769V72.454z"/>
		<g display="inline" opacity="0.2">
			<g>
				<path fill="#9F9E9E" d="M113.063,93.037c0,0.733-0.818,1.327-1.827,1.327H13.134c-1.01,0-1.83-0.594-1.83-1.327l0,0
					c0-0.732,0.82-1.326,1.83-1.326h98.103C112.245,91.711,113.063,92.305,113.063,93.037L113.063,93.037z"/>
				<path fill="#9F9E9E" d="M131.433,106.922c0,0.749-0.837,1.355-1.87,1.355H13.174c-1.032,0-1.87-0.606-1.87-1.355l0,0
					c0-0.749,0.838-1.356,1.87-1.356h116.388C130.596,105.565,131.433,106.173,131.433,106.922L131.433,106.922z"/>
				<path fill="#9F9E9E" d="M94.206,120.126c0,0.684-0.763,1.237-1.705,1.237h-79.49c-0.942,0-1.707-0.554-1.707-1.237l0,0
					c0-0.683,0.765-1.237,1.707-1.237h79.49C93.443,118.889,94.206,119.443,94.206,120.126L94.206,120.126z"/>
				<path fill="#9F9E9E" d="M113.226,133.39c0,0.717-0.799,1.298-1.788,1.298H13.092c-0.987,0-1.788-0.581-1.788-1.298l0,0
					c0-0.716,0.801-1.297,1.788-1.297h98.345C112.427,132.093,113.226,132.674,113.226,133.39L113.226,133.39z"/>
			</g>
			<path fill="#9F9E9E" d="M68.899,162.731c0,4.623-3.749,8.371-8.372,8.371H19.026c-4.624,0-8.371-3.748-8.371-8.371l0,0
				c0-4.623,3.748-8.371,8.371-8.371h41.501C65.15,154.36,68.899,158.108,68.899,162.731L68.899,162.731z"/>
		</g>
		<g display="inline" opacity="0.2">
			<g>
				<g>
					<path fill="#010101" d="M38.697,17.622c-0.152-0.087-0.338-0.085-0.488,0.004l-8.907,5.267
						c-0.231,0.137-0.307,0.435-0.171,0.666c0.137,0.23,0.435,0.307,0.666,0.17l6.391-3.779L24.284,32.301l-5.92-1.812l7.726-4.568
						c0.231-0.137,0.308-0.435,0.171-0.666s-0.435-0.308-0.666-0.171l-8.675,5.129c-0.166,0.098-0.258,0.285-0.235,0.476
						c0.023,0.191,0.156,0.351,0.341,0.407l7.07,2.163l3.119,5.677c0.003,0.006,0.007,0.011,0.01,0.015
						c0.052,0.087,0.13,0.158,0.228,0.199c0.061,0.026,0.125,0.038,0.188,0.038c0.125,0,0.248-0.048,0.34-0.138l3.587-3.505
						l6.746,2.064c0.047,0.015,0.095,0.021,0.143,0.021c0.103,0,0.204-0.033,0.289-0.095c0.124-0.091,0.197-0.236,0.197-0.391
						V18.043C38.942,17.869,38.849,17.708,38.697,17.622z M27.242,33.559c-0.056,0.082-0.086,0.178-0.086,0.277v2.973l-2.13-3.877
						l9.425-9.779L27.242,33.559z M28.128,37.548v-3.055l2.381,0.728L28.128,37.548z M37.97,36.487l-9.551-2.921l9.551-13.787
						V36.487z"/>
				</g>
			</g>
			<g>
				<g>
					<path fill="#010101" d="M22.049,34.451c-0.189-0.19-0.497-0.19-0.687,0l-4.537,4.537c-0.19,0.19-0.19,0.497,0,0.687
						c0.095,0.095,0.219,0.143,0.344,0.143c0.124,0,0.249-0.047,0.344-0.143l4.537-4.537C22.239,34.949,22.239,34.641,22.049,34.451
						z"/>
				</g>
			</g>
			<g>
				<g>
					<path fill="#010101" d="M16.005,40.495c-0.19-0.189-0.498-0.189-0.688,0L14.2,41.613c-0.19,0.19-0.19,0.498,0,0.687
						c0.095,0.095,0.219,0.143,0.344,0.143c0.124,0,0.249-0.047,0.344-0.143l1.118-1.118C16.195,40.992,16.195,40.685,16.005,40.495
						z"/>
				</g>
			</g>
			<g>
				<g>
					<path fill="#010101" d="M20.991,41.584c-0.09-0.09-0.215-0.142-0.344-0.142c-0.128,0-0.253,0.052-0.343,0.142
						s-0.143,0.215-0.143,0.344c0,0.127,0.052,0.253,0.143,0.344s0.215,0.142,0.343,0.142c0.128,0,0.253-0.052,0.344-0.142
						c0.091-0.09,0.143-0.216,0.143-0.344C21.133,41.799,21.082,41.674,20.991,41.584z"/>
				</g>
			</g>
			<g>
				<g>
					<path fill="#010101" d="M24.607,37.968c-0.189-0.19-0.498-0.19-0.688,0l-2.403,2.403c-0.189,0.19-0.189,0.498,0,0.688
						c0.095,0.095,0.22,0.143,0.344,0.143c0.125,0,0.249-0.048,0.344-0.143l2.403-2.403C24.797,38.465,24.797,38.158,24.607,37.968z
						"/>
				</g>
			</g>
			<g>
				<g>
					<path fill="#010101" d="M32.901,37.783c-0.19-0.189-0.498-0.189-0.687,0l-2.41,2.41c-0.189,0.189-0.189,0.497,0,0.687
						c0.095,0.095,0.219,0.143,0.344,0.143c0.124,0,0.249-0.048,0.344-0.143l2.41-2.41C33.091,38.281,33.091,37.973,32.901,37.783z"
						/>
				</g>
			</g>
			<g>
				<g>
					<path fill="#010101" d="M27.836,24.183c-0.09-0.091-0.215-0.143-0.344-0.143c-0.127,0-0.252,0.052-0.343,0.143
						c-0.09,0.09-0.142,0.216-0.142,0.344c0,0.127,0.052,0.252,0.142,0.343c0.091,0.091,0.216,0.142,0.343,0.142
						c0.128,0,0.253-0.051,0.344-0.142s0.143-0.216,0.143-0.343C27.979,24.398,27.927,24.273,27.836,24.183z"/>
				</g>
			</g>
		</g>
	</g>
</g>
<g id="Layer_2">
</g>
</svg>
