<?xml version="1.0" encoding="utf-8"?>
<!-- Generator: Adobe Illustrator 16.0.0, SVG Export Plug-In . SVG Version: 6.00 Build 0)  -->
<!DOCTYPE svg PUBLIC "-//W3C//DTD SVG 1.1//EN" "http://www.w3.org/Graphics/SVG/1.1/DTD/svg11.dtd">
<svg version="1.1" xmlns="http://www.w3.org/2000/svg" xmlns:xlink="http://www.w3.org/1999/xlink" x="0px" y="0px"
	 width="141.904px" height="188.668px" viewBox="0 0 141.904 188.668" enable-background="new 0 0 141.904 188.668"
	 xml:space="preserve">
<g id="Layer_1">
	<rect fill="#E8E8E8" width="141.904" height="188.668"/>
	<g id="template_3">
		<path opacity="0.2" fill="#9F9E9E" d="M131.251,72.454c0,0.977-0.793,1.769-1.77,1.769H76.073c-0.977,0-1.77-0.792-1.77-1.769
			v-3.006c0-0.977,0.793-1.769,1.77-1.769h53.408c0.977,0,1.77,0.792,1.77,1.769V72.454z"/>
		<g opacity="0.2">
			<path fill="#9F9E9E" d="M131.433,93.037c0,0.733-0.818,1.327-1.827,1.327H31.503c-1.01,0-1.83-0.594-1.83-1.327l0,0
				c0-0.732,0.82-1.326,1.83-1.326h98.103C130.614,91.711,131.433,92.305,131.433,93.037L131.433,93.037z"/>
			<path fill="#9F9E9E" d="M131.433,106.922c0,0.749-0.837,1.355-1.87,1.355H13.174c-1.032,0-1.87-0.606-1.87-1.355l0,0
				c0-0.749,0.838-1.356,1.87-1.356h116.388C130.596,105.565,131.433,106.173,131.433,106.922L131.433,106.922z"/>
			<path fill="#9F9E9E" d="M131.433,120.126c0,0.684-0.763,1.237-1.705,1.237h-79.49c-0.942,0-1.707-0.554-1.707-1.237l0,0
				c0-0.683,0.765-1.237,1.707-1.237h79.49C130.67,118.889,131.433,119.443,131.433,120.126L131.433,120.126z"/>
			<path fill="#9F9E9E" d="M131.433,133.39c0,0.717-0.799,1.298-1.788,1.298H31.299c-0.987,0-1.788-0.581-1.788-1.298l0,0
				c0-0.716,0.801-1.297,1.788-1.297h98.345C130.634,132.093,131.433,132.674,131.433,133.39L131.433,133.39z"/>
			<path fill="#9F9E9E" d="M129.899,162.731c0,4.623-3.749,8.371-8.372,8.371H80.026c-4.623,0-8.371-3.748-8.371-8.371l0,0
				c0-4.623,3.748-8.371,8.371-8.371h41.501C126.15,154.36,129.899,158.108,129.899,162.731L129.899,162.731z"/>
		</g>
		<g opacity="0.2">
			<g>
				<g>
					<path fill="#010101" d="M128.697,17.622c-0.151-0.087-0.338-0.085-0.488,0.004l-8.907,5.267
						c-0.23,0.137-0.307,0.435-0.17,0.666c0.137,0.23,0.434,0.307,0.665,0.17l6.391-3.779l-11.903,12.351l-5.92-1.812l7.727-4.568
						c0.23-0.137,0.307-0.435,0.17-0.666s-0.434-0.308-0.665-0.171l-8.675,5.129c-0.166,0.098-0.258,0.285-0.235,0.476
						s0.156,0.351,0.341,0.407l7.07,2.163l3.119,5.677c0.003,0.006,0.006,0.011,0.01,0.015c0.053,0.087,0.131,0.158,0.228,0.199
						c0.061,0.026,0.124,0.038,0.188,0.038c0.125,0,0.247-0.048,0.34-0.138l3.586-3.505l6.746,2.064
						c0.047,0.015,0.096,0.021,0.143,0.021c0.104,0,0.205-0.033,0.289-0.095c0.124-0.091,0.197-0.236,0.197-0.391V18.043
						C128.942,17.869,128.849,17.708,128.697,17.622z M117.241,33.559c-0.056,0.082-0.086,0.178-0.086,0.277v2.973l-2.129-3.877
						l9.424-9.779L117.241,33.559z M118.128,37.548v-3.055l2.381,0.728L118.128,37.548z M127.97,36.487l-9.551-2.921l9.551-13.787
						V36.487z"/>
				</g>
			</g>
			<g>
				<g>
					<path fill="#010101" d="M112.049,34.451c-0.189-0.19-0.497-0.19-0.687,0l-4.537,4.537c-0.19,0.19-0.19,0.497,0,0.687
						c0.095,0.095,0.219,0.143,0.344,0.143c0.123,0,0.248-0.047,0.344-0.143l4.536-4.537
						C112.239,34.949,112.239,34.641,112.049,34.451z"/>
				</g>
			</g>
			<g>
				<g>
					<path fill="#010101" d="M106.005,40.495c-0.189-0.189-0.497-0.189-0.688,0l-1.117,1.118c-0.189,0.19-0.189,0.498,0,0.687
						c0.096,0.095,0.219,0.143,0.344,0.143c0.124,0,0.248-0.047,0.344-0.143l1.117-1.118
						C106.195,40.992,106.195,40.685,106.005,40.495z"/>
				</g>
			</g>
			<g>
				<g>
					<path fill="#010101" d="M110.991,41.584c-0.091-0.09-0.216-0.142-0.344-0.142c-0.129,0-0.254,0.052-0.344,0.142
						s-0.143,0.215-0.143,0.344c0,0.127,0.053,0.253,0.143,0.344s0.215,0.142,0.344,0.142c0.128,0,0.253-0.052,0.344-0.142
						c0.09-0.09,0.143-0.216,0.143-0.344C111.134,41.799,111.081,41.674,110.991,41.584z"/>
				</g>
			</g>
			<g>
				<g>
					<path fill="#010101" d="M114.606,37.968c-0.189-0.19-0.497-0.19-0.688,0l-2.402,2.403c-0.189,0.19-0.189,0.498,0,0.688
						c0.095,0.095,0.219,0.143,0.344,0.143c0.124,0,0.248-0.048,0.344-0.143l2.402-2.403
						C114.797,38.465,114.797,38.158,114.606,37.968z"/>
				</g>
			</g>
			<g>
				<g>
					<path fill="#010101" d="M122.901,37.783c-0.189-0.189-0.498-0.189-0.688,0l-2.41,2.41c-0.189,0.189-0.189,0.497,0,0.687
						c0.096,0.095,0.22,0.143,0.344,0.143c0.125,0,0.25-0.048,0.344-0.143l2.41-2.41C123.091,38.281,123.091,37.973,122.901,37.783z
						"/>
				</g>
			</g>
			<g>
				<g>
					<path fill="#010101" d="M117.837,24.183c-0.091-0.091-0.216-0.143-0.344-0.143s-0.253,0.052-0.344,0.143
						c-0.09,0.09-0.143,0.216-0.143,0.344c0,0.127,0.053,0.252,0.143,0.343c0.091,0.091,0.216,0.142,0.344,0.142
						s0.253-0.051,0.344-0.142c0.09-0.091,0.143-0.216,0.143-0.343C117.979,24.398,117.927,24.273,117.837,24.183z"/>
				</g>
			</g>
		</g>
	</g>
	<g id="template_2_1_" display="none" opacity="0.2">
		<path display="inline" fill="#9F9E9E" d="M104.253,98.299c0,0.664-0.538,1.201-1.202,1.201H38.586
			c-0.664,0-1.202-0.537-1.202-1.201l0,0c0-0.664,0.538-1.202,1.202-1.202h64.464C103.715,97.097,104.253,97.635,104.253,98.299
			L104.253,98.299z"/>
		<path display="inline" fill="#9F9E9E" d="M110.555,110.877c0,0.679-0.55,1.229-1.229,1.229H32.845
			c-0.678,0-1.229-0.55-1.229-1.229l0,0c0-0.678,0.55-1.229,1.229-1.229h76.481C110.005,109.648,110.555,110.199,110.555,110.877
			L110.555,110.877z"/>
		<path display="inline" fill="#9F9E9E" d="M98.058,122.841c0,0.619-0.503,1.122-1.122,1.122H44.702
			c-0.62,0-1.122-0.503-1.122-1.122l0,0c0-0.619,0.502-1.121,1.122-1.121h52.234C97.555,121.72,98.058,122.222,98.058,122.841
			L98.058,122.841z"/>
		<path display="inline" fill="#9F9E9E" d="M104.573,134.857c0,0.649-0.526,1.176-1.175,1.176H38.773
			c-0.649,0-1.175-0.526-1.175-1.176l0,0c0-0.648,0.526-1.175,1.175-1.175h64.625C104.047,133.683,104.573,134.209,104.573,134.857
			L104.573,134.857z"/>
		<path display="inline" fill="#9F9E9E" d="M97.202,162.951c0,4.188-3.396,7.584-7.584,7.584h-37.6
			c-4.189,0-7.584-3.396-7.584-7.584l0,0c0-4.188,3.395-7.584,7.584-7.584h37.6C93.807,155.367,97.202,158.763,97.202,162.951
			L97.202,162.951z"/>
		<rect x="0.452" display="inline" fill="#E0E0E0" width="141" height="61.206"/>
		<circle display="inline" fill="#B2B3B3" cx="68.335" cy="61.099" r="19.975"/>
		<text transform="matrix(1 0 0 1 53.1406 60.7256)" display="inline" font-family="'MyriadPro-Regular'" font-size="11.2159">$</text>
		<text transform="matrix(1 0 0 1 59.5234 68.2031)" display="inline" font-family="'MongolianBaiti'" font-size="21.7909">00</text>
		<path display="inline" fill="#9F9E9E" d="M85.506,15.969c0,0.708-0.573,1.282-1.281,1.282H56.666
			c-0.708,0-1.282-0.574-1.282-1.282l0,0c0-0.708,0.574-1.282,1.282-1.282h27.559C84.933,14.687,85.506,15.261,85.506,15.969
			L85.506,15.969z"/>
		<path display="inline" fill="#9F9E9E" d="M96.241,25.155c0,0.885-0.717,1.602-1.602,1.602H46.25c-0.885,0-1.602-0.717-1.602-1.602
			v-2.724c0-0.885,0.717-1.603,1.602-1.603H94.64c0.885,0,1.602,0.717,1.602,1.603V25.155z"/>
	</g>
	<g id="template_1_2_" display="none">
		<path display="inline" opacity="0.2" fill="#9F9E9E" d="M68.25,72.454c0,0.977-0.793,1.769-1.77,1.769H13.073
			c-0.977,0-1.769-0.792-1.769-1.769v-3.006c0-0.977,0.792-1.769,1.769-1.769h53.408c0.977,0,1.77,0.792,1.77,1.769V72.454z"/>
		<g display="inline" opacity="0.2">
			<g>
				<path fill="#9F9E9E" d="M113.063,93.037c0,0.733-0.818,1.327-1.827,1.327H13.134c-1.01,0-1.83-0.594-1.83-1.327l0,0
					c0-0.732,0.82-1.326,1.83-1.326h98.103C112.245,91.711,113.063,92.305,113.063,93.037L113.063,93.037z"/>
				<path fill="#9F9E9E" d="M131.433,106.922c0,0.749-0.837,1.355-1.87,1.355H13.174c-1.032,0-1.87-0.606-1.87-1.355l0,0
					c0-0.749,0.838-1.356,1.87-1.356h116.388C130.596,105.565,131.433,106.173,131.433,106.922L131.433,106.922z"/>
				<path fill="#9F9E9E" d="M94.206,120.126c0,0.684-0.763,1.237-1.705,1.237h-79.49c-0.942,0-1.707-0.554-1.707-1.237l0,0
					c0-0.683,0.765-1.237,1.707-1.237h79.49C93.443,118.889,94.206,119.443,94.206,120.126L94.206,120.126z"/>
				<path fill="#9F9E9E" d="M113.226,133.39c0,0.717-0.799,1.298-1.788,1.298H13.092c-0.987,0-1.788-0.581-1.788-1.298l0,0
					c0-0.716,0.801-1.297,1.788-1.297h98.345C112.427,132.093,113.226,132.674,113.226,133.39L113.226,133.39z"/>
			</g>
			<path fill="#9F9E9E" d="M68.899,162.731c0,4.623-3.749,8.371-8.372,8.371H19.026c-4.624,0-8.371-3.748-8.371-8.371l0,0
				c0-4.623,3.748-8.371,8.371-8.371h41.501C65.15,154.36,68.899,158.108,68.899,162.731L68.899,162.731z"/>
		</g>
		<g display="inline" opacity="0.2">
			<g>
				<g>
					<path fill="#010101" d="M38.697,17.622c-0.152-0.087-0.338-0.085-0.488,0.004l-8.907,5.267
						c-0.231,0.137-0.307,0.435-0.171,0.666c0.137,0.23,0.435,0.307,0.666,0.17l6.391-3.779L24.284,32.301l-5.92-1.812l7.726-4.568
						c0.231-0.137,0.308-0.435,0.171-0.666s-0.435-0.308-0.666-0.171l-8.675,5.129c-0.166,0.098-0.258,0.285-0.235,0.476
						c0.023,0.191,0.156,0.351,0.341,0.407l7.07,2.163l3.119,5.677c0.003,0.006,0.007,0.011,0.01,0.015
						c0.052,0.087,0.13,0.158,0.228,0.199c0.061,0.026,0.125,0.038,0.188,0.038c0.125,0,0.248-0.048,0.34-0.138l3.587-3.505
						l6.746,2.064c0.047,0.015,0.095,0.021,0.143,0.021c0.103,0,0.204-0.033,0.289-0.095c0.124-0.091,0.197-0.236,0.197-0.391
						V18.043C38.942,17.869,38.849,17.708,38.697,17.622z M27.242,33.559c-0.056,0.082-0.086,0.178-0.086,0.277v2.973l-2.13-3.877
						l9.425-9.779L27.242,33.559z M28.128,37.548v-3.055l2.381,0.728L28.128,37.548z M37.97,36.487l-9.551-2.921l9.551-13.787
						V36.487z"/>
				</g>
			</g>
			<g>
				<g>
					<path fill="#010101" d="M22.049,34.451c-0.189-0.19-0.497-0.19-0.687,0l-4.537,4.537c-0.19,0.19-0.19,0.497,0,0.687
						c0.095,0.095,0.219,0.143,0.344,0.143c0.124,0,0.249-0.047,0.344-0.143l4.537-4.537C22.239,34.949,22.239,34.641,22.049,34.451
						z"/>
				</g>
			</g>
			<g>
				<g>
					<path fill="#010101" d="M16.005,40.495c-0.19-0.189-0.498-0.189-0.688,0L14.2,41.613c-0.19,0.19-0.19,0.498,0,0.687
						c0.095,0.095,0.219,0.143,0.344,0.143c0.124,0,0.249-0.047,0.344-0.143l1.118-1.118C16.195,40.992,16.195,40.685,16.005,40.495
						z"/>
				</g>
			</g>
			<g>
				<g>
					<path fill="#010101" d="M20.991,41.584c-0.09-0.09-0.215-0.142-0.344-0.142c-0.128,0-0.253,0.052-0.343,0.142
						s-0.143,0.215-0.143,0.344c0,0.127,0.052,0.253,0.143,0.344s0.215,0.142,0.343,0.142c0.128,0,0.253-0.052,0.344-0.142
						c0.091-0.09,0.143-0.216,0.143-0.344C21.133,41.799,21.082,41.674,20.991,41.584z"/>
				</g>
			</g>
			<g>
				<g>
					<path fill="#010101" d="M24.607,37.968c-0.189-0.19-0.498-0.19-0.688,0l-2.403,2.403c-0.189,0.19-0.189,0.498,0,0.688
						c0.095,0.095,0.22,0.143,0.344,0.143c0.125,0,0.249-0.048,0.344-0.143l2.403-2.403C24.797,38.465,24.797,38.158,24.607,37.968z
						"/>
				</g>
			</g>
			<g>
				<g>
					<path fill="#010101" d="M32.901,37.783c-0.19-0.189-0.498-0.189-0.687,0l-2.41,2.41c-0.189,0.189-0.189,0.497,0,0.687
						c0.095,0.095,0.219,0.143,0.344,0.143c0.124,0,0.249-0.048,0.344-0.143l2.41-2.41C33.091,38.281,33.091,37.973,32.901,37.783z"
						/>
				</g>
			</g>
			<g>
				<g>
					<path fill="#010101" d="M27.836,24.183c-0.09-0.091-0.215-0.143-0.344-0.143c-0.127,0-0.252,0.052-0.343,0.143
						c-0.09,0.09-0.142,0.216-0.142,0.344c0,0.127,0.052,0.252,0.142,0.343c0.091,0.091,0.216,0.142,0.343,0.142
						c0.128,0,0.253-0.051,0.344-0.142s0.143-0.216,0.143-0.343C27.979,24.398,27.927,24.273,27.836,24.183z"/>
				</g>
			</g>
		</g>
	</g>
</g>
<g id="Layer_2">
</g>
</svg>
