<?xml version="1.0" encoding="utf-8"?>
<!-- Generator: Adobe Illustrator 16.0.0, SVG Export Plug-In . SVG Version: 6.00 Build 0)  -->
<!DOCTYPE svg PUBLIC "-//W3C//DTD SVG 1.1//EN" "http://www.w3.org/Graphics/SVG/1.1/DTD/svg11.dtd">
<svg version="1.1" xmlns="http://www.w3.org/2000/svg" xmlns:xlink="http://www.w3.org/1999/xlink" x="0px" y="0px" width="185px"
	 height="89px" viewBox="0 0 185 89" enable-background="new 0 0 185 89" xml:space="preserve">
<g id="Layer_2">
	<rect x="0" y="0" fill="#E8E8E8" width="185" height="89"/>
</g>
<g id="template_1">
	<path opacity="0.2" fill="#9F9E9E" d="M138.652,40.252c0,0.586-1.027,1.061-2.295,1.061H13.394c-1.263,0-2.292-0.475-2.292-1.061
		l0,0c0-0.585,1.029-1.06,2.292-1.06h122.963C137.625,39.192,138.652,39.667,138.652,40.252L138.652,40.252z"/>
	<path opacity="0.2" fill="#9F9E9E" d="M161.676,47.348c0,0.599-1.049,1.083-2.34,1.083H13.445c-1.292,0-2.342-0.485-2.342-1.083
		l0,0c0-0.599,1.05-1.084,2.342-1.084h145.891C160.627,46.264,161.676,46.749,161.676,47.348L161.676,47.348z"/>
	<path opacity="0.2" fill="#9F9E9E" d="M115.016,54.9c0,0.546-0.956,0.989-2.139,0.989H13.24c-1.181,0-2.138-0.442-2.138-0.989l0,0
		c0-0.546,0.957-0.989,2.138-0.989h99.637C114.06,53.911,115.016,54.354,115.016,54.9L115.016,54.9z"/>
	<path opacity="0.2" fill="#9F9E9E" d="M138.752,62.5c0,0.573-1.004,1.037-2.242,1.037H13.242C12.003,63.537,11,63.072,11,62.5l0,0
		c0-0.572,1.003-1.037,2.242-1.037H136.51C137.748,61.463,138.752,61.927,138.752,62.5L138.752,62.5z"/>
	<path opacity="0.2" fill="#9F9E9E" d="M173.732,19.764c0,0.488-0.372,0.884-0.831,0.884h-25.07c-0.459,0-0.831-0.396-0.831-0.884
		V18.26c0-0.488,0.372-0.884,0.831-0.884h25.07c0.459,0,0.831,0.396,0.831,0.884V19.764z"/>
	<path opacity="0.2" fill="#9F9E9E" d="M139.866,19.764c0,0.488-0.372,0.884-0.831,0.884h-25.07c-0.459,0-0.831-0.396-0.831-0.884
		V18.26c0-0.488,0.372-0.884,0.831-0.884h25.07c0.459,0,0.831,0.396,0.831,0.884V19.764z"/>
	<path opacity="0.2" fill="#9F9E9E" d="M104.866,19.764c0,0.488-0.372,0.884-0.831,0.884h-25.07c-0.459,0-0.831-0.396-0.831-0.884
		V18.26c0-0.488,0.372-0.884,0.831-0.884h25.07c0.459,0,0.831,0.396,0.831,0.884V19.764z"/>
	<path opacity="0.2" fill="#9F9E9E" d="M65.366,19.764c0,0.488-0.372,0.884-0.831,0.884h-25.07c-0.459,0-0.831-0.396-0.831-0.884
		V18.26c0-0.488,0.372-0.884,0.831-0.884h25.07c0.459,0,0.831,0.396,0.831,0.884V19.764z"/>
</g>
<g id="Layer_3">
	<path fill="none" stroke="#000000" stroke-width="0.5" stroke-miterlimit="10" d="M33,27"/>
	<polyline opacity="0.2" fill="none" stroke="#000000" stroke-width="0.5" stroke-miterlimit="10" points="7.771,27 32,27 32,10.75 
		69.5,10.75 69.5,26.906 175,26.906 	"/>
</g>
</svg>
