<?xml version="1.0" encoding="utf-8"?>
<!-- Generator: Adobe Illustrator 16.0.0, SVG Export Plug-In . SVG Version: 6.00 Build 0)  -->
<!DOCTYPE svg PUBLIC "-//W3C//DTD SVG 1.1//EN" "http://www.w3.org/Graphics/SVG/1.1/DTD/svg11.dtd">
<svg version="1.1" xmlns="http://www.w3.org/2000/svg" xmlns:xlink="http://www.w3.org/1999/xlink" x="0px" y="0px" width="185px"
	 height="89px" viewBox="0 0 185 89" enable-background="new 0 0 185 89" xml:space="preserve">
<g id="Layer_2">
	<rect x="0" y="0" fill="#E8E8E8" width="185" height="89"/>
</g>
<g id="template_vertical_1">
	<path opacity="0.2" fill="#9F9E9E" d="M148.292,17.252c0,0.586-0.687,1.061-1.533,1.061H64.6c-0.844,0-1.531-0.475-1.531-1.061l0,0
		c0-0.585,0.687-1.06,1.531-1.06h82.159C147.605,16.192,148.292,16.667,148.292,17.252L148.292,17.252z"/>
	<path opacity="0.2" fill="#9F9E9E" d="M163.676,24.348c0,0.599-0.701,1.083-1.563,1.083H64.634c-0.863,0-1.565-0.485-1.565-1.083
		l0,0c0-0.599,0.702-1.084,1.565-1.084h97.479C162.975,23.264,163.676,23.749,163.676,24.348L163.676,24.348z"/>
	<path opacity="0.2" fill="#9F9E9E" d="M132.499,31.9c0,0.546-0.639,0.989-1.429,0.989H64.497c-0.789,0-1.428-0.442-1.428-0.989l0,0
		c0-0.546,0.639-0.989,1.428-0.989h66.573C131.86,30.911,132.499,31.354,132.499,31.9L132.499,31.9z"/>
	<path opacity="0.2" fill="#9F9E9E" d="M148.358,39.5c0,0.573-0.671,1.037-1.498,1.037H64.498C63.67,40.537,63,40.072,63,39.5l0,0
		c0-0.572,0.67-1.037,1.498-1.037h82.362C147.688,38.463,148.358,38.927,148.358,39.5L148.358,39.5z"/>
	<path opacity="0.2" fill="#9F9E9E" d="M148.292,48.252c0,0.586-0.687,1.061-1.533,1.061H64.6c-0.844,0-1.531-0.475-1.531-1.061l0,0
		c0-0.585,0.687-1.06,1.531-1.06h82.159C147.605,47.192,148.292,47.667,148.292,48.252L148.292,48.252z"/>
	<path opacity="0.2" fill="#9F9E9E" d="M163.676,55.348c0,0.599-0.701,1.083-1.563,1.083H64.634c-0.863,0-1.565-0.485-1.565-1.083
		l0,0c0-0.599,0.702-1.084,1.565-1.084h97.479C162.975,54.264,163.676,54.749,163.676,55.348L163.676,55.348z"/>
	<path opacity="0.2" fill="#9F9E9E" d="M132.499,62.9c0,0.546-0.639,0.989-1.429,0.989H64.497c-0.789,0-1.428-0.442-1.428-0.989l0,0
		c0-0.546,0.639-0.989,1.428-0.989h66.573C131.86,61.911,132.499,62.354,132.499,62.9L132.499,62.9z"/>
	<path opacity="0.2" fill="#9F9E9E" d="M148.358,70.5c0,0.572-0.671,1.037-1.498,1.037H64.498C63.67,71.537,63,71.072,63,70.5l0,0
		c0-0.572,0.67-1.037,1.498-1.037h82.362C147.688,69.463,148.358,69.928,148.358,70.5L148.358,70.5z"/>
	<path opacity="0.2" fill="#9F9E9E" d="M43.366,71.752c0,0.488-0.372,0.884-0.831,0.884h-25.07c-0.459,0-0.831-0.396-0.831-0.884
		v-1.504c0-0.488,0.372-0.884,0.831-0.884h25.07c0.459,0,0.831,0.396,0.831,0.884V71.752z"/>
	<path opacity="0.2" fill="#9F9E9E" d="M43.366,55.252c0,0.488-0.372,0.884-0.831,0.884h-25.07c-0.459,0-0.831-0.396-0.831-0.884
		v-1.503c0-0.488,0.372-0.884,0.831-0.884h25.07c0.459,0,0.831,0.396,0.831,0.884V55.252z"/>
	<path opacity="0.2" fill="#9F9E9E" d="M43.366,39.752c0,0.488-0.372,0.884-0.831,0.884h-25.07c-0.459,0-0.831-0.396-0.831-0.884
		v-1.503c0-0.488,0.372-0.884,0.831-0.884h25.07c0.459,0,0.831,0.396,0.831,0.884V39.752z"/>
	<path opacity="0.2" fill="#9F9E9E" d="M43.366,23.764c0,0.488-0.372,0.884-0.831,0.884h-25.07c-0.459,0-0.831-0.396-0.831-0.884
		V22.26c0-0.488,0.372-0.884,0.831-0.884h25.07c0.459,0,0.831,0.396,0.831,0.884V23.764z"/>
	<polyline opacity="0.2" fill="none" stroke="#9F9E9E" stroke-width="0.75" stroke-miterlimit="10" points="52,7.5 52,16.25 
		11.25,16.25 11.25,30.75 52,30.75 52,77.5 	"/>
</g>
<g id="template_horizontal_3" display="none">
	<path display="inline" opacity="0.2" fill="#9F9E9E" d="M136.778,40.544c0,0.562-0.985,1.018-2.201,1.018H16.593
		c-1.211,0-2.199-0.456-2.199-1.018l0,0c0-0.562,0.987-1.017,2.199-1.017h117.984C135.793,39.527,136.778,39.982,136.778,40.544
		L136.778,40.544z"/>
	<path display="inline" opacity="0.2" fill="#9F9E9E" d="M158.87,47.352c0,0.575-1.007,1.04-2.245,1.04H16.642
		c-1.24,0-2.248-0.465-2.248-1.04l0,0c0-0.574,1.008-1.04,2.248-1.04h139.983C157.863,46.312,158.87,46.778,158.87,47.352
		L158.87,47.352z"/>
	<path display="inline" opacity="0.2" fill="#9F9E9E" d="M114.1,54.599c0,0.524-0.918,0.949-2.053,0.949H16.445
		c-1.133,0-2.051-0.424-2.051-0.949l0,0c0-0.524,0.918-0.949,2.051-0.949h95.602C113.182,53.65,114.1,54.075,114.1,54.599
		L114.1,54.599z"/>
	<path display="inline" opacity="0.2" fill="#9F9E9E" d="M136.874,61.891c0,0.549-0.963,0.995-2.151,0.995H16.447
		c-1.189,0-2.151-0.446-2.151-0.995l0,0c0-0.549,0.962-0.995,2.151-0.995h118.275C135.911,60.896,136.874,61.341,136.874,61.891
		L136.874,61.891z"/>
	<path display="inline" opacity="0.2" fill="#9F9E9E" d="M171.397,20.885c0,0.468-0.356,0.848-0.797,0.848h-24.056
		c-0.44,0-0.797-0.38-0.797-0.848v-1.443c0-0.468,0.356-0.848,0.797-0.848h24.056c0.44,0,0.797,0.38,0.797,0.848V20.885z"/>
	<path display="inline" opacity="0.2" fill="#9F9E9E" d="M135.065,20.885c0,0.468-0.357,0.848-0.798,0.848h-24.055
		c-0.44,0-0.798-0.38-0.798-0.848v-1.443c0-0.468,0.357-0.848,0.798-0.848h24.055c0.44,0,0.798,0.38,0.798,0.848V20.885z"/>
	<path display="inline" opacity="0.2" fill="#9F9E9E" d="M99.563,20.885c0,0.468-0.357,0.848-0.798,0.848H74.711
		c-0.44,0-0.797-0.38-0.797-0.848v-1.443c0-0.468,0.357-0.848,0.797-0.848h24.055c0.44,0,0.798,0.38,0.798,0.848V20.885z"/>
	<path display="inline" opacity="0.2" fill="#9F9E9E" d="M61.663,20.885c0,0.468-0.357,0.848-0.797,0.848H36.811
		c-0.44,0-0.798-0.38-0.798-0.848v-1.443c0-0.468,0.357-0.848,0.798-0.848h24.055c0.44,0,0.797,0.38,0.797,0.848V20.885z"/>
	<polyline opacity="0.2" fill="none" stroke="#000000" stroke-width="0.5" stroke-miterlimit="10" points="105.609,27.574 
		105.609,11.917 139.031,11.917 139.031,27.574 	"/>
	<polyline opacity="0.2" fill="none" stroke="#000000" stroke-width="0.5" stroke-miterlimit="10" points="141.11,27.574 
		141.11,11.917 174.533,11.917 174.533,27.574 	"/>
	<polyline opacity="0.2" fill="none" stroke="#000000" stroke-width="0.5" stroke-miterlimit="10" points="70.107,27.574 
		70.107,11.917 103.529,11.917 103.529,27.574 	"/>
	<polygon display="inline" opacity="0.2" fill="none" stroke="#000000" stroke-width="0.5" stroke-miterlimit="10" points="
		177.411,27.738 70.267,27.738 66.589,27.738 66.589,12.236 30.607,12.236 30.607,27.829 7.359,27.829 7.359,83 177.411,83 	"/>
</g>
<g id="template_horizontal_2" display="none">
	<path display="inline" opacity="0.2" fill="#9F9E9E" d="M136.778,40.544c0,0.562-0.985,1.018-2.201,1.018H16.593
		c-1.211,0-2.199-0.456-2.199-1.018l0,0c0-0.562,0.987-1.017,2.199-1.017h117.984C135.793,39.527,136.778,39.982,136.778,40.544
		L136.778,40.544z"/>
	<path display="inline" opacity="0.2" fill="#9F9E9E" d="M158.87,47.352c0,0.575-1.007,1.04-2.245,1.04H16.642
		c-1.24,0-2.248-0.465-2.248-1.04l0,0c0-0.574,1.008-1.04,2.248-1.04h139.983C157.863,46.312,158.87,46.778,158.87,47.352
		L158.87,47.352z"/>
	<path display="inline" opacity="0.2" fill="#9F9E9E" d="M114.1,54.599c0,0.524-0.918,0.949-2.053,0.949H16.445
		c-1.133,0-2.051-0.424-2.051-0.949l0,0c0-0.524,0.918-0.949,2.051-0.949h95.602C113.182,53.65,114.1,54.075,114.1,54.599
		L114.1,54.599z"/>
	<path display="inline" opacity="0.2" fill="#9F9E9E" d="M136.874,61.891c0,0.549-0.963,0.995-2.151,0.995H16.447
		c-1.189,0-2.151-0.446-2.151-0.995l0,0c0-0.549,0.962-0.995,2.151-0.995h118.275C135.911,60.896,136.874,61.341,136.874,61.891
		L136.874,61.891z"/>
	<path display="inline" opacity="0.2" fill="#9F9E9E" d="M171.397,20.885c0,0.468-0.356,0.848-0.797,0.848h-24.056
		c-0.44,0-0.797-0.38-0.797-0.848v-1.443c0-0.468,0.356-0.848,0.797-0.848h24.056c0.44,0,0.797,0.38,0.797,0.848V20.885z"/>
	<path display="inline" opacity="0.2" fill="#9F9E9E" d="M135.065,20.885c0,0.468-0.357,0.848-0.798,0.848h-24.055
		c-0.44,0-0.798-0.38-0.798-0.848v-1.443c0-0.468,0.357-0.848,0.798-0.848h24.055c0.44,0,0.798,0.38,0.798,0.848V20.885z"/>
	<path display="inline" opacity="0.2" fill="#9F9E9E" d="M99.563,20.885c0,0.468-0.357,0.848-0.798,0.848H74.711
		c-0.44,0-0.797-0.38-0.797-0.848v-1.443c0-0.468,0.357-0.848,0.797-0.848h24.055c0.44,0,0.798,0.38,0.798,0.848V20.885z"/>
	<path display="inline" opacity="0.2" fill="#9F9E9E" d="M61.663,20.885c0,0.468-0.357,0.848-0.797,0.848H36.811
		c-0.44,0-0.798-0.38-0.798-0.848v-1.443c0-0.468,0.357-0.848,0.798-0.848h24.055c0.44,0,0.797,0.38,0.797,0.848V20.885z"/>
	<polyline display="inline" opacity="0.2" fill="none" stroke="#000000" stroke-width="0.5" stroke-miterlimit="10" points="
		105.609,27.574 105.609,11.917 139.031,11.917 139.031,27.574 	"/>
	<polyline display="inline" opacity="0.2" fill="none" stroke="#000000" stroke-width="0.5" stroke-miterlimit="10" points="
		141.11,27.574 141.11,11.917 174.533,11.917 174.533,27.574 	"/>
	<polyline display="inline" opacity="0.2" fill="none" stroke="#000000" stroke-width="0.5" stroke-miterlimit="10" points="
		70.107,27.574 70.107,11.917 103.529,11.917 103.529,27.574 	"/>
	<polygon display="inline" opacity="0.2" fill="none" stroke="#000000" stroke-width="0.5" stroke-miterlimit="10" points="
		177.411,27.738 70.267,27.738 66.589,27.738 66.589,12.236 30.607,12.236 30.607,27.829 7.359,27.829 7.359,83 177.411,83 	"/>
</g>
<g id="template_horizontal_1" display="none">
	<path display="inline" opacity="0.2" fill="#9F9E9E" d="M138.652,40.252c0,0.586-1.027,1.061-2.295,1.061H13.394
		c-1.263,0-2.292-0.475-2.292-1.061l0,0c0-0.585,1.029-1.06,2.292-1.06h122.963C137.625,39.192,138.652,39.667,138.652,40.252
		L138.652,40.252z"/>
	<path display="inline" opacity="0.2" fill="#9F9E9E" d="M161.676,47.348c0,0.599-1.049,1.083-2.34,1.083H13.445
		c-1.292,0-2.342-0.485-2.342-1.083l0,0c0-0.599,1.05-1.084,2.342-1.084h145.891C160.627,46.264,161.676,46.749,161.676,47.348
		L161.676,47.348z"/>
	<path display="inline" opacity="0.2" fill="#9F9E9E" d="M115.016,54.9c0,0.546-0.956,0.989-2.139,0.989H13.24
		c-1.181,0-2.138-0.442-2.138-0.989l0,0c0-0.546,0.957-0.989,2.138-0.989h99.637C114.06,53.911,115.016,54.354,115.016,54.9
		L115.016,54.9z"/>
	<path display="inline" opacity="0.2" fill="#9F9E9E" d="M138.752,62.5c0,0.573-1.004,1.037-2.242,1.037H13.242
		C12.003,63.537,11,63.072,11,62.5l0,0c0-0.572,1.003-1.037,2.242-1.037H136.51C137.748,61.463,138.752,61.927,138.752,62.5
		L138.752,62.5z"/>
	<path display="inline" opacity="0.2" fill="#9F9E9E" d="M173.732,19.764c0,0.488-0.372,0.884-0.831,0.884h-25.07
		c-0.459,0-0.831-0.396-0.831-0.884V18.26c0-0.488,0.372-0.884,0.831-0.884h25.07c0.459,0,0.831,0.396,0.831,0.884V19.764z"/>
	<path display="inline" opacity="0.2" fill="#9F9E9E" d="M139.866,19.764c0,0.488-0.372,0.884-0.831,0.884h-25.07
		c-0.459,0-0.831-0.396-0.831-0.884V18.26c0-0.488,0.372-0.884,0.831-0.884h25.07c0.459,0,0.831,0.396,0.831,0.884V19.764z"/>
	<path display="inline" opacity="0.2" fill="#9F9E9E" d="M104.866,19.764c0,0.488-0.372,0.884-0.831,0.884h-25.07
		c-0.459,0-0.831-0.396-0.831-0.884V18.26c0-0.488,0.372-0.884,0.831-0.884h25.07c0.459,0,0.831,0.396,0.831,0.884V19.764z"/>
	<path display="inline" opacity="0.2" fill="#9F9E9E" d="M65.366,19.764c0,0.488-0.372,0.884-0.831,0.884h-25.07
		c-0.459,0-0.831-0.396-0.831-0.884V18.26c0-0.488,0.372-0.884,0.831-0.884h25.07c0.459,0,0.831,0.396,0.831,0.884V19.764z"/>
	<polyline display="inline" opacity="0.2" fill="none" stroke="#000000" stroke-width="0.5" stroke-miterlimit="10" points="
		7.771,27 32,27 32,10.75 69.5,10.75 69.5,26.906 175,26.906 	"/>
</g>
</svg>
