<?xml version="1.0" encoding="utf-8"?>
<!-- Generator: Adobe Illustrator 16.0.0, SVG Export Plug-In . SVG Version: 6.00 Build 0)  -->
<!DOCTYPE svg PUBLIC "-//W3C//DTD SVG 1.1//EN" "http://www.w3.org/Graphics/SVG/1.1/DTD/svg11.dtd">
<svg version="1.1" id="Layer_1" xmlns="http://www.w3.org/2000/svg" xmlns:xlink="http://www.w3.org/1999/xlink" x="0px" y="0px"
	 width="141.904px" height="188.668px" viewBox="0 0 141.904 188.668" enable-background="new 0 0 141.904 188.668"
	 xml:space="preserve">
<rect fill="#E8E8E8" width="141.904" height="188.668"/>
<g id="template_1_1_">
	<path opacity="0.2" fill="#9F9E9E" d="M99.135,80.454c0,0.977-0.793,1.769-1.77,1.769H43.957c-0.977,0-1.769-0.792-1.769-1.769
		v-3.006c0-0.977,0.792-1.769,1.769-1.769h53.408c0.977,0,1.77,0.792,1.77,1.769V80.454z"/>
	<path opacity="0.2" fill="#9F9E9E" d="M107.977,102.037c0,0.733-0.594,1.327-1.326,1.327H35.498c-0.732,0-1.327-0.594-1.327-1.327
		l0,0c0-0.732,0.594-1.326,1.327-1.326h71.153C107.383,100.711,107.977,101.305,107.977,102.037L107.977,102.037z"/>
	<path opacity="0.2" fill="#9F9E9E" d="M114.933,115.922c0,0.749-0.606,1.355-1.355,1.355H29.16c-0.749,0-1.356-0.606-1.356-1.355
		l0,0c0-0.749,0.607-1.356,1.356-1.356h84.417C114.326,114.565,114.933,115.173,114.933,115.922L114.933,115.922z"/>
	<path opacity="0.2" fill="#9F9E9E" d="M101.139,129.126c0,0.684-0.554,1.237-1.238,1.237H42.247c-0.684,0-1.238-0.554-1.238-1.237
		l0,0c0-0.683,0.554-1.237,1.238-1.237H99.9C100.585,127.889,101.139,128.443,101.139,129.126L101.139,129.126z"/>
	<path opacity="0.2" fill="#9F9E9E" d="M108.331,142.39c0,0.717-0.581,1.298-1.298,1.298h-71.33c-0.716,0-1.296-0.581-1.296-1.298
		l0,0c0-0.716,0.58-1.297,1.296-1.297h71.33C107.75,141.093,108.331,141.674,108.331,142.39L108.331,142.39z"/>
	<path opacity="0.2" fill="#9F9E9E" d="M100.196,166.398c0,4.623-3.749,8.371-8.372,8.371H50.323c-4.624,0-8.371-3.748-8.371-8.371
		l0,0c0-4.623,3.748-8.371,8.371-8.371h41.501C96.447,158.027,100.196,161.775,100.196,166.398L100.196,166.398z"/>
	<g id="image_thumb">
		<rect x="50.834" y="15.5" fill="#D3D3D3" width="40.833" height="40.832"/>
		<g opacity="0.2">
			<path fill="#020202" d="M78.502,29.96H63.998c-0.143,0-0.259,0.115-0.259,0.259v11.396c0,0.144,0.116,0.259,0.259,0.259h14.504
				c0.144,0,0.26-0.115,0.26-0.259V30.219C78.762,30.075,78.646,29.96,78.502,29.96z M78.243,41.356H64.258V30.478h13.985V41.356
				L78.243,41.356z"/>
			<path fill="#020202" d="M67.883,35.693c0.795,0,1.443-0.647,1.443-1.441c0-0.796-0.647-1.443-1.443-1.443
				c-0.795,0-1.442,0.647-1.442,1.442S67.088,35.693,67.883,35.693z M67.883,33.327c0.51,0,0.924,0.415,0.924,0.924
				s-0.415,0.924-0.924,0.924s-0.924-0.415-0.924-0.923C66.958,33.743,67.374,33.327,67.883,33.327z"/>
			<path fill="#020202" d="M65.552,40.32c0.061,0,0.122-0.021,0.171-0.063l4.225-3.72l2.668,2.667c0.102,0.103,0.266,0.103,0.366,0
				c0.102-0.101,0.102-0.264,0-0.365l-1.245-1.245l2.379-2.604l2.916,2.674c0.105,0.096,0.27,0.088,0.366-0.016
				c0.097-0.105,0.089-0.269-0.016-0.366l-3.108-2.849c-0.05-0.046-0.119-0.069-0.187-0.068c-0.068,0.003-0.134,0.034-0.181,0.084
				l-2.536,2.778l-1.228-1.229c-0.097-0.097-0.252-0.102-0.354-0.011l-4.407,3.88c-0.108,0.095-0.118,0.259-0.023,0.366
				C65.409,40.291,65.481,40.32,65.552,40.32z"/>
		</g>
	</g>
</g>
</svg>
