<?xml version="1.0" encoding="utf-8"?>
<!-- Generator: Adobe Illustrator 16.0.0, SVG Export Plug-In . SVG Version: 6.00 Build 0)  -->
<!DOCTYPE svg PUBLIC "-//W3C//DTD SVG 1.1//EN" "http://www.w3.org/Graphics/SVG/1.1/DTD/svg11.dtd">
<svg version="1.1" xmlns="http://www.w3.org/2000/svg" xmlns:xlink="http://www.w3.org/1999/xlink" x="0px" y="0px" width="185px"
	 height="89px" viewBox="0 0 185 89" enable-background="new 0 0 185 89" xml:space="preserve">
<g id="template_10" display="none">
	<rect display="inline" fill="#E8E8E7" width="185" height="89"/>
	<rect x="10.167" y="10.833" display="inline" fill="#D3D3D3" width="68.167" height="68.167"/>
	<g display="inline" opacity="0.2">
		<path fill="#010101" d="M56.357,34.972H32.143c-0.238,0-0.432,0.193-0.432,0.433v19.024c0,0.24,0.194,0.433,0.432,0.433h24.214
			c0.239,0,0.433-0.193,0.433-0.433V35.405C56.79,35.165,56.596,34.972,56.357,34.972z M55.924,53.997H32.576V35.837h23.349V53.997z
			"/>
		<path fill="#010101" d="M38.629,44.544c1.328,0,2.409-1.081,2.409-2.407c0-1.329-1.081-2.409-2.409-2.409
			c-1.327,0-2.408,1.08-2.408,2.408S37.302,44.544,38.629,44.544z M38.629,40.593c0.851,0,1.543,0.692,1.543,1.543
			s-0.692,1.543-1.543,1.543c-0.851,0-1.543-0.692-1.543-1.542C37.085,41.287,37.778,40.593,38.629,40.593z"/>
		<path fill="#010101" d="M34.738,52.268c0.101,0,0.203-0.036,0.285-0.107l7.053-6.21l4.455,4.454c0.169,0.169,0.442,0.169,0.611,0
			c0.169-0.169,0.169-0.442,0-0.611l-2.078-2.078l3.97-4.348l4.869,4.464c0.176,0.161,0.45,0.149,0.611-0.027
			c0.161-0.176,0.149-0.45-0.027-0.611l-5.188-4.756c-0.084-0.077-0.198-0.115-0.311-0.113c-0.115,0.005-0.223,0.056-0.301,0.141
			l-4.235,4.638l-2.05-2.051c-0.162-0.162-0.421-0.17-0.592-0.019l-7.357,6.478c-0.18,0.158-0.197,0.432-0.039,0.611
			C34.499,52.219,34.618,52.268,34.738,52.268z"/>
	</g>
	<path display="inline" opacity="0.2" fill="#9F9E9E" d="M157.587,32.252c0,0.586-0.475,1.061-1.061,1.061H99.665
		c-0.584,0-1.06-0.475-1.06-1.061l0,0c0-0.585,0.476-1.06,1.06-1.06h56.861C157.112,31.192,157.587,31.667,157.587,32.252
		L157.587,32.252z"/>
	<path display="inline" opacity="0.2" fill="#9F9E9E" d="M162.91,39.348c0,0.599-0.484,1.083-1.082,1.083H94.365
		c-0.598,0-1.083-0.485-1.083-1.083l0,0c0-0.599,0.485-1.084,1.083-1.084h67.463C162.426,38.264,162.91,38.749,162.91,39.348
		L162.91,39.348z"/>
	<path display="inline" opacity="0.2" fill="#9F9E9E" d="M152.122,46.9c0,0.546-0.442,0.989-0.989,0.989h-46.074
		c-0.546,0-0.988-0.442-0.988-0.989l0,0c0-0.546,0.442-0.989,0.988-0.989h46.074C151.68,45.911,152.122,46.354,152.122,46.9
		L152.122,46.9z"/>
	<path display="inline" opacity="0.2" fill="#9F9E9E" d="M157.634,54.5c0,0.573-0.465,1.037-1.037,1.037H99.596
		c-0.574,0-1.037-0.464-1.037-1.037l0,0c0-0.572,0.463-1.037,1.037-1.037h57.001C157.169,53.463,157.634,53.927,157.634,54.5
		L157.634,54.5z"/>
	<path display="inline" opacity="0.2" fill="#9F9E9E" d="M156.57,17.244c0,0.977-0.793,1.769-1.77,1.769h-53.408
		c-0.977,0-1.77-0.792-1.77-1.769v-3.006c0-0.977,0.793-1.769,1.77-1.769h53.408c0.977,0,1.77,0.792,1.77,1.769V17.244z"/>
	<path display="inline" opacity="0.2" fill="#9F9E9E" d="M144.43,71.75c0,3.176-2.574,5.75-5.75,5.75h-21.167
		c-3.176,0-5.75-2.574-5.75-5.75l0,0c0-3.176,2.574-5.75,5.75-5.75h21.167C141.855,66,144.43,68.574,144.43,71.75L144.43,71.75z"/>
</g>
<g id="template_4">
	<rect fill="#E8E8E8" width="185" height="89"/>
	<rect x="8" y="15.667" fill="#D3D3D3" width="58.5" height="58.5"/>
	<g opacity="0.2">
		<path fill="#010101" d="M47.64,36.382H26.86c-0.205,0-0.371,0.166-0.371,0.372V53.08c0,0.206,0.166,0.372,0.371,0.372h20.78
			c0.205,0,0.371-0.166,0.371-0.372V36.754C48.011,36.548,47.845,36.382,47.64,36.382z M47.269,52.709H27.231V37.125h20.037V52.709z
			"/>
		<path fill="#010101" d="M32.426,44.597c1.14,0,2.067-0.927,2.067-2.066c0-1.14-0.927-2.067-2.067-2.067
			c-1.139,0-2.066,0.927-2.066,2.066C30.36,43.67,31.287,44.597,32.426,44.597z M32.426,41.207c0.73,0,1.324,0.594,1.324,1.324
			s-0.594,1.324-1.324,1.324s-1.325-0.594-1.325-1.324C31.102,41.801,31.696,41.207,32.426,41.207z"/>
		<path fill="#010101" d="M29.087,51.225c0.086,0,0.174-0.031,0.245-0.092l6.053-5.329l3.823,3.822c0.145,0.145,0.379,0.145,0.524,0
			c0.146-0.145,0.146-0.379,0-0.524l-1.783-1.784l3.407-3.731l4.178,3.831c0.151,0.138,0.386,0.128,0.525-0.023
			c0.138-0.151,0.128-0.386-0.023-0.524l-4.453-4.082c-0.073-0.066-0.17-0.099-0.267-0.097c-0.099,0.005-0.191,0.048-0.258,0.121
			l-3.634,3.98l-1.759-1.76c-0.139-0.139-0.361-0.146-0.508-0.017l-6.314,5.56c-0.154,0.136-0.169,0.371-0.033,0.524
			C28.881,51.183,28.984,51.225,29.087,51.225z"/>
	</g>
	<path opacity="0.2" fill="#9F9E9E" d="M160.577,32.252c0,0.586-0.686,1.061-1.532,1.061h-82.16c-0.844,0-1.531-0.475-1.531-1.061
		l0,0c0-0.585,0.688-1.06,1.531-1.06h82.16C159.892,31.192,160.577,31.667,160.577,32.252L160.577,32.252z"/>
	<path opacity="0.2" fill="#9F9E9E" d="M175.961,39.348c0,0.599-0.7,1.083-1.563,1.083H76.919c-0.863,0-1.565-0.485-1.565-1.083l0,0
		c0-0.599,0.702-1.084,1.565-1.084h97.479C175.261,38.264,175.961,38.749,175.961,39.348L175.961,39.348z"/>
	<path opacity="0.2" fill="#9F9E9E" d="M144.785,46.9c0,0.546-0.64,0.989-1.43,0.989H76.782c-0.789,0-1.428-0.442-1.428-0.989l0,0
		c0-0.546,0.64-0.989,1.428-0.989h66.573C144.146,45.911,144.785,46.354,144.785,46.9L144.785,46.9z"/>
	<path opacity="0.2" fill="#9F9E9E" d="M160.646,54.5c0,0.573-0.672,1.037-1.499,1.037H76.784c-0.829,0-1.498-0.464-1.498-1.037l0,0
		c0-0.572,0.669-1.037,1.498-1.037h82.363C159.974,53.463,160.646,53.927,160.646,54.5L160.646,54.5z"/>
	<path opacity="0.2" fill="#9F9E9E" d="M132.732,20.244c0,0.977-0.793,1.769-1.77,1.769H77.555c-0.977,0-1.77-0.792-1.77-1.769
		v-3.006c0-0.977,0.793-1.769,1.77-1.769h53.408c0.977,0,1.77,0.792,1.77,1.769V20.244z"/>
	<path opacity="0.2" fill="#9F9E9E" d="M108.5,69.75c0,3.176-2.574,5.75-5.75,5.75H81.583c-3.176,0-5.75-2.574-5.75-5.75l0,0
		c0-3.176,2.574-5.75,5.75-5.75h21.167C105.926,64,108.5,66.574,108.5,69.75L108.5,69.75z"/>
</g>
<g id="template_3" display="none">
	<rect display="inline" fill="#E8E8E8" width="185" height="89"/>
	<rect x="118.5" y="15.667" display="inline" fill="#D3D3D3" width="58.5" height="58.5"/>
	<g display="inline" opacity="0.2">
		<path fill="#010101" d="M158.141,36.382h-20.781c-0.204,0-0.37,0.166-0.37,0.372V53.08c0,0.206,0.166,0.372,0.37,0.372h20.781
			c0.204,0,0.371-0.166,0.371-0.372V36.754C158.512,36.548,158.345,36.382,158.141,36.382z M157.769,52.709h-20.037V37.125h20.037
			V52.709z"/>
		<path fill="#010101" d="M142.926,44.597c1.141,0,2.067-0.927,2.067-2.066c0-1.14-0.927-2.067-2.067-2.067
			c-1.139,0-2.066,0.927-2.066,2.066C140.859,43.67,141.787,44.597,142.926,44.597z M142.926,41.207c0.73,0,1.324,0.594,1.324,1.324
			s-0.594,1.324-1.324,1.324c-0.729,0-1.324-0.594-1.324-1.324C141.602,41.801,142.196,41.207,142.926,41.207z"/>
		<path fill="#010101" d="M139.587,51.225c0.087,0,0.175-0.031,0.245-0.092l6.053-5.329l3.822,3.822c0.146,0.145,0.38,0.145,0.525,0
			c0.145-0.145,0.145-0.379,0-0.524l-1.783-1.784l3.406-3.731l4.178,3.831c0.151,0.138,0.387,0.128,0.525-0.023
			c0.138-0.151,0.128-0.386-0.023-0.524l-4.453-4.082c-0.072-0.066-0.17-0.099-0.267-0.097c-0.099,0.005-0.191,0.048-0.259,0.121
			l-3.634,3.98l-1.759-1.76c-0.139-0.139-0.361-0.146-0.508-0.017l-6.314,5.56c-0.154,0.136-0.169,0.371-0.033,0.524
			C139.381,51.183,139.484,51.225,139.587,51.225z"/>
	</g>
	<path display="inline" opacity="0.2" fill="#9F9E9E" d="M94.331,32.252c0,0.586-0.686,1.061-1.532,1.061h-82.16
		c-0.844,0-1.531-0.475-1.531-1.061l0,0c0-0.585,0.688-1.06,1.531-1.06h82.16C93.646,31.192,94.331,31.667,94.331,32.252
		L94.331,32.252z"/>
	<path display="inline" opacity="0.2" fill="#9F9E9E" d="M109.715,39.348c0,0.599-0.7,1.083-1.563,1.083H10.673
		c-0.863,0-1.565-0.485-1.565-1.083l0,0c0-0.599,0.702-1.084,1.565-1.084h97.479C109.015,38.264,109.715,38.749,109.715,39.348
		L109.715,39.348z"/>
	<path display="inline" opacity="0.2" fill="#9F9E9E" d="M78.539,46.9c0,0.546-0.64,0.989-1.43,0.989H10.536
		c-0.788,0-1.429-0.442-1.429-0.989l0,0c0-0.546,0.641-0.989,1.429-0.989h66.573C77.899,45.911,78.539,46.354,78.539,46.9
		L78.539,46.9z"/>
	<path display="inline" opacity="0.2" fill="#9F9E9E" d="M94.399,54.5c0,0.573-0.672,1.037-1.499,1.037H10.537
		c-0.828,0-1.498-0.464-1.498-1.037l0,0c0-0.572,0.67-1.037,1.498-1.037H92.9C93.728,53.463,94.399,53.927,94.399,54.5L94.399,54.5z
		"/>
	<path display="inline" opacity="0.2" fill="#9F9E9E" d="M66.486,20.244c0,0.977-0.793,1.769-1.77,1.769H11.309
		c-0.977,0-1.77-0.792-1.77-1.769v-3.006c0-0.977,0.793-1.769,1.77-1.769h53.408c0.977,0,1.77,0.792,1.77,1.769V20.244z"/>
	<path display="inline" opacity="0.2" fill="#9F9E9E" d="M42.254,69.75c0,3.176-2.574,5.75-5.75,5.75H15.337
		c-3.176,0-5.75-2.574-5.75-5.75l0,0c0-3.176,2.574-5.75,5.75-5.75h21.167C39.68,64,42.254,66.574,42.254,69.75L42.254,69.75z"/>
</g>
<g id="template_2_1_" display="none">
	<rect display="inline" fill="#E8E7E6" width="185" height="89"/>
	<rect x="106.666" y="10.833" display="inline" fill="#D3D3D3" width="68.168" height="68.167"/>
	<g display="inline" opacity="0.2">
		<path fill="#010101" d="M152.857,34.972h-24.215c-0.238,0-0.432,0.193-0.432,0.433v19.024c0,0.24,0.193,0.433,0.432,0.433h24.215
			c0.238,0,0.432-0.193,0.432-0.433V35.405C153.289,35.165,153.096,34.972,152.857,34.972z M152.424,53.997h-23.348V35.837h23.348
			V53.997z"/>
		<path fill="#010101" d="M135.129,44.544c1.328,0,2.408-1.081,2.408-2.407c0-1.329-1.08-2.409-2.408-2.409
			c-1.327,0-2.408,1.08-2.408,2.408S133.802,44.544,135.129,44.544z M135.129,40.593c0.852,0,1.543,0.692,1.543,1.543
			s-0.691,1.543-1.543,1.543c-0.851,0-1.543-0.692-1.543-1.542C133.586,41.287,134.278,40.593,135.129,40.593z"/>
		<path fill="#010101" d="M131.238,52.268c0.101,0,0.203-0.036,0.285-0.107l7.053-6.21l4.455,4.454c0.169,0.169,0.441,0.169,0.611,0
			c0.169-0.169,0.169-0.442,0-0.611l-2.078-2.078l3.969-4.348l4.869,4.464c0.176,0.161,0.45,0.149,0.611-0.027
			c0.161-0.176,0.149-0.45-0.027-0.611l-5.188-4.756c-0.085-0.077-0.198-0.115-0.312-0.113c-0.114,0.005-0.224,0.056-0.301,0.141
			l-4.235,4.638l-2.05-2.051c-0.161-0.162-0.421-0.17-0.592-0.019l-7.357,6.478c-0.18,0.158-0.196,0.432-0.038,0.611
			C130.998,52.219,131.117,52.268,131.238,52.268z"/>
	</g>
	<path display="inline" opacity="0.2" fill="#9F9E9E" d="M22.09,32.252c0,0.586,0.475,1.061,1.061,1.061h56.861
		c0.584,0,1.06-0.475,1.06-1.061l0,0c0-0.585-0.476-1.06-1.06-1.06H23.15C22.564,31.192,22.09,31.667,22.09,32.252L22.09,32.252z"/>
	<path display="inline" opacity="0.2" fill="#9F9E9E" d="M22.09,39.348c0,0.599,0.484,1.083,1.082,1.083h67.463
		c0.598,0,1.083-0.485,1.083-1.083l0,0c0-0.599-0.485-1.084-1.083-1.084H23.172C22.574,38.264,22.09,38.749,22.09,39.348
		L22.09,39.348z"/>
	<path display="inline" opacity="0.2" fill="#9F9E9E" d="M22.09,46.9c0,0.546,0.442,0.989,0.989,0.989h46.074
		c0.546,0,0.988-0.442,0.988-0.989l0,0c0-0.546-0.442-0.989-0.988-0.989H23.079C22.532,45.911,22.09,46.354,22.09,46.9L22.09,46.9z"
		/>
	<path display="inline" opacity="0.2" fill="#9F9E9E" d="M22.09,54.5c0,0.573,0.465,1.037,1.037,1.037h57.001
		c0.574,0,1.037-0.464,1.037-1.037l0,0c0-0.572-0.463-1.037-1.037-1.037H23.127C22.555,53.463,22.09,53.927,22.09,54.5L22.09,54.5z"
		/>
	<path display="inline" opacity="0.2" fill="#9F9E9E" d="M22.09,17.244c0,0.977,0.793,1.769,1.77,1.769h53.408
		c0.977,0,1.77-0.792,1.77-1.769v-3.006c0-0.977-0.793-1.769-1.77-1.769H23.859c-0.977,0-1.77,0.792-1.77,1.769V17.244z"/>
	<path display="inline" opacity="0.2" fill="#9F9E9E" d="M22.09,71.75c0,3.176,2.574,5.75,5.75,5.75h21.167
		c3.176,0,5.75-2.574,5.75-5.75l0,0c0-3.176-2.574-5.75-5.75-5.75H27.84C24.664,66,22.09,68.574,22.09,71.75L22.09,71.75z"/>
</g>
<g id="template_1" display="none">
	<rect display="inline" fill="#E8E8E8" width="185" height="89"/>
	<rect x="10.167" y="10.833" display="inline" fill="#D3D3D3" width="68.167" height="68.167"/>
	<g display="inline" opacity="0.2">
		<path fill="#010101" d="M56.357,34.972H32.143c-0.238,0-0.432,0.193-0.432,0.433v19.024c0,0.24,0.194,0.433,0.432,0.433h24.214
			c0.239,0,0.433-0.193,0.433-0.433V35.405C56.79,35.165,56.596,34.972,56.357,34.972z M55.924,53.997H32.576V35.837h23.349V53.997z
			"/>
		<path fill="#010101" d="M38.629,44.544c1.328,0,2.409-1.081,2.409-2.407c0-1.329-1.081-2.409-2.409-2.409
			c-1.327,0-2.408,1.08-2.408,2.408S37.302,44.544,38.629,44.544z M38.629,40.593c0.851,0,1.543,0.692,1.543,1.543
			s-0.692,1.543-1.543,1.543c-0.851,0-1.543-0.692-1.543-1.542C37.085,41.287,37.778,40.593,38.629,40.593z"/>
		<path fill="#010101" d="M34.738,52.268c0.101,0,0.203-0.036,0.285-0.107l7.053-6.21l4.455,4.454c0.169,0.169,0.442,0.169,0.611,0
			c0.169-0.169,0.169-0.442,0-0.611l-2.078-2.078l3.97-4.348l4.869,4.464c0.176,0.161,0.45,0.149,0.611-0.027
			c0.161-0.176,0.149-0.45-0.027-0.611l-5.188-4.756c-0.084-0.077-0.198-0.115-0.311-0.113c-0.115,0.005-0.223,0.056-0.301,0.141
			l-4.235,4.638l-2.05-2.051c-0.162-0.162-0.421-0.17-0.592-0.019l-7.357,6.478c-0.18,0.158-0.197,0.432-0.039,0.611
			C34.499,52.219,34.618,52.268,34.738,52.268z"/>
	</g>
	<path display="inline" opacity="0.2" fill="#9F9E9E" d="M149.814,32.252c0,0.586-0.475,1.061-1.061,1.061H91.893
		c-0.584,0-1.06-0.475-1.06-1.061l0,0c0-0.585,0.476-1.06,1.06-1.06h56.861C149.34,31.192,149.814,31.667,149.814,32.252
		L149.814,32.252z"/>
	<path display="inline" opacity="0.2" fill="#9F9E9E" d="M160.461,39.348c0,0.599-0.484,1.083-1.082,1.083H91.916
		c-0.598,0-1.083-0.485-1.083-1.083l0,0c0-0.599,0.485-1.084,1.083-1.084h67.463C159.977,38.264,160.461,38.749,160.461,39.348
		L160.461,39.348z"/>
	<path display="inline" opacity="0.2" fill="#9F9E9E" d="M138.885,46.9c0,0.546-0.442,0.989-0.989,0.989H91.821
		c-0.546,0-0.988-0.442-0.988-0.989l0,0c0-0.546,0.442-0.989,0.988-0.989h46.074C138.442,45.911,138.885,46.354,138.885,46.9
		L138.885,46.9z"/>
	<path display="inline" opacity="0.2" fill="#9F9E9E" d="M149.861,54.5c0,0.573-0.465,1.037-1.037,1.037H91.822
		c-0.573,0-1.037-0.464-1.037-1.037l0,0c0-0.572,0.463-1.037,1.037-1.037h57.002C149.396,53.463,149.861,53.927,149.861,54.5
		L149.861,54.5z"/>
	<path display="inline" opacity="0.2" fill="#9F9E9E" d="M148.732,17.244c0,0.977-0.793,1.769-1.77,1.769H93.555
		c-0.977,0-1.77-0.792-1.77-1.769v-3.006c0-0.977,0.793-1.769,1.77-1.769h53.408c0.977,0,1.77,0.792,1.77,1.769V17.244z"/>
	<path display="inline" opacity="0.2" fill="#9F9E9E" d="M123.5,71.75c0,3.176-2.574,5.75-5.75,5.75H96.583
		c-3.176,0-5.75-2.574-5.75-5.75l0,0c0-3.176,2.574-5.75,5.75-5.75h21.167C120.926,66,123.5,68.574,123.5,71.75L123.5,71.75z"/>
</g>
</svg>
