<?xml version="1.0" encoding="utf-8"?>
<!-- Generator: Adobe Illustrator 16.0.0, SVG Export Plug-In . SVG Version: 6.00 Build 0)  -->
<!DOCTYPE svg PUBLIC "-//W3C//DTD SVG 1.1//EN" "http://www.w3.org/Graphics/SVG/1.1/DTD/svg11.dtd">
<svg version="1.1" xmlns="http://www.w3.org/2000/svg" xmlns:xlink="http://www.w3.org/1999/xlink" x="0px" y="0px" width="185px"
	 height="89px" viewBox="0 0 185 89" enable-background="new 0 0 185 89" xml:space="preserve">
<g id="background">
	<rect x="0.25" y="0.375" fill="#E8E7E6" width="185" height="89"/>
</g>
<g id="template_2">
	<rect x="10.381" y="42.723" fill="#B2B1B1" width="163.738" height="2.306"/>
	<g id="Layer_4_copy">
		<g>
			<rect x="13.756" y="3.87" fill="#DEDDDD" width="31.738" height="32.532"/>
		</g>
		<path opacity="0.2" fill="#B2B1B1" d="M32.529,31.562c0,0.605-0.52,1.096-1.161,1.096H17.924c-0.641,0-1.161-0.491-1.161-1.096
			l0,0c0-0.605,0.52-1.096,1.161-1.096h13.444C32.009,30.466,32.529,30.957,32.529,31.562L32.529,31.562z"/>
		<path opacity="0.2" fill="#B2B1B1" d="M41.034,27.858c0,0.486-0.418,0.881-0.934,0.881H17.489c-0.515,0-0.934-0.395-0.934-0.881
			l0,0c0-0.487,0.418-0.882,0.934-0.882H40.1C40.616,26.977,41.034,27.372,41.034,27.858L41.034,27.858z"/>
		
			<rect x="26.136" y="35.507" transform="matrix(0.7071 0.7071 -0.7071 0.7071 33.592 -8.4245)" fill="#DEDDDD" width="1.659" height="1.659"/>
		<circle fill="#5E5F5F" cx="26.663" cy="44.134" r="2.12"/>
		<path opacity="0.2" fill="#9F9E9E" d="M38.477,7.811c0,0.453-0.173,0.821-0.388,0.821H17.26c-0.214,0-0.389-0.368-0.389-0.821l0,0
			c0-0.452,0.174-0.82,0.389-0.82h20.829C38.304,6.99,38.477,7.358,38.477,7.811L38.477,7.811z"/>
		<path opacity="0.2" fill="#9F9E9E" d="M42.378,11.641c0,0.463-0.178,0.838-0.396,0.838H17.269c-0.219,0-0.397-0.375-0.397-0.838
			l0,0c0-0.463,0.178-0.838,0.397-0.838h24.713C42.2,10.802,42.378,11.178,42.378,11.641L42.378,11.641z"/>
		<path opacity="0.2" fill="#9F9E9E" d="M34.474,15.824c0,0.422-0.162,0.765-0.363,0.765H17.234c-0.2,0-0.362-0.343-0.362-0.765l0,0
			c0-0.422,0.162-0.765,0.362-0.765h16.877C34.312,15.059,34.474,15.402,34.474,15.824L34.474,15.824z"/>
		<path opacity="0.2" fill="#9F9E9E" d="M38.512,20.044c0,0.443-0.17,0.803-0.38,0.803H17.251c-0.21,0-0.379-0.359-0.379-0.803l0,0
			c0-0.443,0.169-0.802,0.379-0.802h20.881C38.341,19.242,38.512,19.601,38.512,20.044L38.512,20.044z"/>
	</g>
	<g id="Layer_4_copy_3">
		<g>
			<rect x="95.756" y="3.87" fill="#DEDDDD" width="31.738" height="32.532"/>
		</g>
		<path opacity="0.2" fill="#B2B1B1" d="M114.529,31.562c0,0.605-0.521,1.096-1.161,1.096H99.924c-0.641,0-1.16-0.491-1.16-1.096
			l0,0c0-0.605,0.52-1.096,1.16-1.096h13.444C114.009,30.466,114.529,30.957,114.529,31.562L114.529,31.562z"/>
		<path opacity="0.2" fill="#B2B1B1" d="M123.033,27.858c0,0.486-0.418,0.881-0.934,0.881h-22.61c-0.515,0-0.934-0.395-0.934-0.881
			l0,0c0-0.487,0.419-0.882,0.934-0.882h22.61C122.615,26.977,123.033,27.372,123.033,27.858L123.033,27.858z"/>
		
			<rect x="108.135" y="35.507" transform="matrix(0.707 0.7073 -0.7073 0.707 57.6305 -66.4176)" fill="#DEDDDD" width="1.659" height="1.659"/>
		<circle fill="#BFBFBF" cx="108.663" cy="44.134" r="2.12"/>
		<path opacity="0.2" fill="#9F9E9E" d="M120.477,7.811c0,0.453-0.173,0.821-0.388,0.821H99.26c-0.214,0-0.389-0.368-0.389-0.821
			l0,0c0-0.452,0.175-0.82,0.389-0.82h20.829C120.304,6.99,120.477,7.358,120.477,7.811L120.477,7.811z"/>
		<path opacity="0.2" fill="#9F9E9E" d="M124.378,11.641c0,0.463-0.178,0.838-0.396,0.838H99.269c-0.22,0-0.397-0.375-0.397-0.838
			l0,0c0-0.463,0.178-0.838,0.397-0.838h24.713C124.2,10.802,124.378,11.178,124.378,11.641L124.378,11.641z"/>
		<path opacity="0.2" fill="#9F9E9E" d="M116.475,15.824c0,0.422-0.162,0.765-0.363,0.765H99.234c-0.201,0-0.363-0.343-0.363-0.765
			l0,0c0-0.422,0.162-0.765,0.363-0.765h16.877C116.313,15.059,116.475,15.402,116.475,15.824L116.475,15.824z"/>
		<path opacity="0.2" fill="#9F9E9E" d="M120.512,20.044c0,0.443-0.17,0.803-0.38,0.803H99.251c-0.21,0-0.38-0.359-0.38-0.803l0,0
			c0-0.443,0.17-0.802,0.38-0.802h20.881C120.342,19.242,120.512,19.601,120.512,20.044L120.512,20.044z"/>
	</g>
	<g id="Layer_4_copy_2">
		<g>
			<rect x="53.756" y="51.469" fill="#DEDDDD" width="31.738" height="32.531"/>
		</g>
		<path opacity="0.2" fill="#B2B1B1" d="M72.529,56.308c0-0.605-0.52-1.096-1.161-1.096H57.924c-0.641,0-1.161,0.491-1.161,1.096
			l0,0c0,0.605,0.52,1.096,1.161,1.096h13.444C72.009,57.404,72.529,56.914,72.529,56.308L72.529,56.308z"/>
		<path opacity="0.2" fill="#B2B1B1" d="M81.034,60.012c0-0.486-0.418-0.881-0.934-0.881H57.489c-0.515,0-0.934,0.395-0.934,0.881
			l0,0c0,0.487,0.418,0.882,0.934,0.882H80.1C80.616,60.894,81.034,60.499,81.034,60.012L81.034,60.012z"/>
		
			<rect x="66.136" y="50.704" transform="matrix(0.7071 -0.7071 0.7071 0.7071 -16.8258 62.4454)" fill="#DEDDDD" width="1.659" height="1.659"/>
		<circle fill="#BFBFBF" cx="66.663" cy="43.736" r="2.12"/>
		<path opacity="0.2" fill="#9F9E9E" d="M78.477,80.06c0-0.453-0.173-0.821-0.388-0.821H57.26c-0.214,0-0.389,0.368-0.389,0.821l0,0
			c0,0.452,0.174,0.82,0.389,0.82h20.829C78.304,80.88,78.477,80.512,78.477,80.06L78.477,80.06z"/>
		<path opacity="0.2" fill="#9F9E9E" d="M82.378,76.229c0-0.464-0.178-0.839-0.396-0.839H57.269c-0.219,0-0.397,0.375-0.397,0.839
			l0,0c0,0.463,0.178,0.839,0.397,0.839h24.713C82.2,77.068,82.378,76.692,82.378,76.229L82.378,76.229z"/>
		<path opacity="0.2" fill="#9F9E9E" d="M74.474,72.046c0-0.423-0.162-0.765-0.363-0.765H57.234c-0.2,0-0.362,0.342-0.362,0.765l0,0
			c0,0.423,0.162,0.765,0.362,0.765h16.877C74.312,72.811,74.474,72.469,74.474,72.046L74.474,72.046z"/>
		<path opacity="0.2" fill="#9F9E9E" d="M78.512,67.826c0-0.443-0.17-0.803-0.38-0.803H57.251c-0.21,0-0.379,0.359-0.379,0.803l0,0
			c0,0.443,0.169,0.802,0.379,0.802h20.881C78.341,68.628,78.512,68.27,78.512,67.826L78.512,67.826z"/>
	</g>
	<g id="Layer_4_copy_4">
		<g>
			<rect x="142.756" y="51.469" fill="#DEDDDD" width="31.738" height="32.531"/>
		</g>
		<path opacity="0.2" fill="#B2B1B1" d="M161.529,56.308c0-0.605-0.521-1.096-1.161-1.096h-13.444c-0.641,0-1.16,0.491-1.16,1.096
			l0,0c0,0.605,0.52,1.096,1.16,1.096h13.444C161.009,57.404,161.529,56.914,161.529,56.308L161.529,56.308z"/>
		<path opacity="0.2" fill="#B2B1B1" d="M170.033,60.012c0-0.486-0.418-0.881-0.934-0.881h-22.61c-0.515,0-0.934,0.395-0.934,0.881
			l0,0c0,0.487,0.419,0.882,0.934,0.882h22.61C169.615,60.894,170.033,60.499,170.033,60.012L170.033,60.012z"/>
		
			<rect x="155.135" y="50.704" transform="matrix(0.707 -0.7073 0.7073 0.707 9.2569 125.4081)" fill="#DEDDDD" width="1.659" height="1.659"/>
		<circle fill="#BFBFBF" cx="155.663" cy="43.736" r="2.12"/>
		<path opacity="0.2" fill="#9F9E9E" d="M167.477,80.06c0-0.453-0.173-0.821-0.388-0.821H146.26c-0.214,0-0.389,0.368-0.389,0.821
			l0,0c0,0.452,0.175,0.82,0.389,0.82h20.829C167.304,80.88,167.477,80.512,167.477,80.06L167.477,80.06z"/>
		<path opacity="0.2" fill="#9F9E9E" d="M171.378,76.229c0-0.464-0.178-0.839-0.396-0.839h-24.713c-0.22,0-0.397,0.375-0.397,0.839
			l0,0c0,0.463,0.178,0.839,0.397,0.839h24.713C171.2,77.068,171.378,76.692,171.378,76.229L171.378,76.229z"/>
		<path opacity="0.2" fill="#9F9E9E" d="M163.475,72.046c0-0.423-0.162-0.765-0.363-0.765h-16.877c-0.201,0-0.363,0.342-0.363,0.765
			l0,0c0,0.423,0.162,0.765,0.363,0.765h16.877C163.313,72.811,163.475,72.469,163.475,72.046L163.475,72.046z"/>
		<path opacity="0.2" fill="#9F9E9E" d="M167.512,67.826c0-0.443-0.17-0.803-0.38-0.803h-20.881c-0.21,0-0.38,0.359-0.38,0.803l0,0
			c0,0.443,0.17,0.802,0.38,0.802h20.881C167.342,68.628,167.512,68.27,167.512,67.826L167.512,67.826z"/>
	</g>
</g>
<g id="template_1" display="none">
	<rect x="91.75" y="5.375" display="inline" fill="#B2B1B1" width="1" height="71"/>
	<g id="Layer_4" display="inline">
		<g>
			<rect x="99.5" y="5" fill="#DEDDDD" width="78.5" height="38.25"/>
			<polygon fill="#DEDDDD" points="101.75,11.847 99.5,13.972 97.25,11.847 99.5,9.722 			"/>
		</g>
		<ellipse fill="#5E5F5F" cx="92.188" cy="11.67" rx="2.438" ry="2.302"/>
		<path opacity="0.2" fill="#B2B1B1" d="M74.5,15.248c0,0.729-0.626,1.321-1.399,1.321H56.899c-0.772,0-1.399-0.592-1.399-1.321l0,0
			c0-0.729,0.626-1.321,1.399-1.321h16.202C73.874,13.927,74.5,14.519,74.5,15.248L74.5,15.248z"/>
		<path opacity="0.2" fill="#B2B1B1" d="M84.75,10.785c0,0.586-0.504,1.063-1.125,1.063h-27.25c-0.621,0-1.125-0.476-1.125-1.063
			l0,0c0-0.586,0.504-1.063,1.125-1.063h27.25C84.246,9.722,84.75,10.198,84.75,10.785L84.75,10.785z"/>
		<g>
			<rect x="6.25" y="45.75" fill="#DEDDDD" width="78.5" height="38.25"/>
			<polygon fill="#DEDDDD" points="82.5,52.597 84.75,54.722 87,52.597 84.75,50.472 			"/>
		</g>
		<ellipse fill="#A9A8A8" cx="92.063" cy="52.42" rx="2.438" ry="2.302"/>
		<path opacity="0.2" fill="#B2B1B1" d="M99.5,55.998c0,0.729,0.627,1.321,1.398,1.321h16.203c0.771,0,1.398-0.592,1.398-1.321l0,0
			c0-0.729-0.627-1.321-1.398-1.321h-16.203C100.127,54.677,99.5,55.269,99.5,55.998L99.5,55.998z"/>
		<path opacity="0.2" fill="#B2B1B1" d="M99.5,51.535c0,0.586,0.504,1.063,1.125,1.063h27.25c0.621,0,1.125-0.476,1.125-1.063l0,0
			c0-0.586-0.504-1.063-1.125-1.063h-27.25C100.004,50.472,99.5,50.948,99.5,51.535L99.5,51.535z"/>
	</g>
	<path display="inline" opacity="0.2" fill="#9F9E9E" d="M163.608,14.163c0,0.546-0.468,0.989-1.047,0.989h-56.136
		c-0.576,0-1.046-0.443-1.046-0.989l0,0c0-0.545,0.47-0.988,1.046-0.988h56.136C163.141,13.174,163.608,13.618,163.608,14.163
		L163.608,14.163z"/>
	<path display="inline" opacity="0.2" fill="#9F9E9E" d="M174.119,20.779c0,0.558-0.478,1.01-1.068,1.01h-66.602
		c-0.591,0-1.069-0.452-1.069-1.01l0,0c0-0.558,0.479-1.011,1.069-1.011h66.602C173.642,19.768,174.119,20.221,174.119,20.779
		L174.119,20.779z"/>
	<path display="inline" opacity="0.2" fill="#9F9E9E" d="M152.818,27.821c0,0.509-0.437,0.922-0.977,0.922h-45.486
		c-0.539,0-0.976-0.413-0.976-0.922l0,0c0-0.509,0.437-0.922,0.976-0.922h45.486C152.382,26.898,152.818,27.312,152.818,27.821
		L152.818,27.821z"/>
	<path display="inline" opacity="0.2" fill="#9F9E9E" d="M163.701,34.906c0,0.534-0.459,0.967-1.023,0.967h-56.274
		c-0.566,0-1.023-0.433-1.023-0.967l0,0c0-0.534,0.457-0.966,1.023-0.966h56.274C163.242,33.94,163.701,34.373,163.701,34.906
		L163.701,34.906z"/>
	<path display="inline" opacity="0.2" fill="#9F9E9E" d="M10.131,54.913c0,0.546,0.468,0.989,1.047,0.989h56.136
		c0.576,0,1.046-0.443,1.046-0.989l0,0c0-0.545-0.47-0.988-1.046-0.988H11.178C10.599,53.924,10.131,54.368,10.131,54.913
		L10.131,54.913z"/>
	<path display="inline" opacity="0.2" fill="#9F9E9E" d="M10.131,61.529c0,0.558,0.478,1.01,1.068,1.01h66.602
		c0.591,0,1.069-0.452,1.069-1.01l0,0c0-0.558-0.479-1.011-1.069-1.011H11.199C10.608,60.518,10.131,60.971,10.131,61.529
		L10.131,61.529z"/>
	<path display="inline" opacity="0.2" fill="#9F9E9E" d="M10.131,68.57c0,0.51,0.437,0.922,0.977,0.922h45.486
		c0.539,0,0.976-0.412,0.976-0.922l0,0c0-0.509-0.437-0.922-0.976-0.922H11.107C10.567,67.648,10.131,68.062,10.131,68.57
		L10.131,68.57z"/>
	<path display="inline" opacity="0.2" fill="#9F9E9E" d="M10.131,75.656c0,0.534,0.459,0.967,1.023,0.967h56.274
		c0.566,0,1.023-0.433,1.023-0.967l0,0c0-0.533-0.457-0.967-1.023-0.967H11.154C10.59,74.689,10.131,75.123,10.131,75.656
		L10.131,75.656z"/>
</g>
</svg>
