<?xml version="1.0" encoding="utf-8"?>
<!-- Generator: Adobe Illustrator 16.0.0, SVG Export Plug-In . SVG Version: 6.00 Build 0)  -->
<!DOCTYPE svg PUBLIC "-//W3C//DTD SVG 1.1//EN" "http://www.w3.org/Graphics/SVG/1.1/DTD/svg11.dtd">
<svg version="1.1" xmlns="http://www.w3.org/2000/svg" xmlns:xlink="http://www.w3.org/1999/xlink" x="0px" y="0px" width="185px"
	 height="89px" viewBox="0 0 185 89" enable-background="new 0 0 185 89" xml:space="preserve">
<g id="template6" display="none">
	<rect x="106.666" y="10.833" display="inline" fill="#D3D3D3" width="68.168" height="68.167"/>
	<g display="inline" opacity="0.2">
		<path fill="#010101" d="M128.211,35.405v19.024c0,0.24,0.193,0.433,0.432,0.433h24.215c0.238,0,0.432-0.193,0.432-0.433V35.405
			c0-0.24-0.193-0.433-0.432-0.433h-24.215C128.404,34.972,128.211,35.165,128.211,35.405z M129.076,35.837h23.348v18.159h-23.348
			V35.837z"/>
		<path fill="#010101" d="M148.779,42.136c0-1.328-1.081-2.408-2.408-2.408c-1.328,0-2.408,1.08-2.408,2.409
			c0,1.327,1.08,2.407,2.408,2.407C147.698,44.544,148.779,43.464,148.779,42.136z M147.914,42.137c0,0.85-0.692,1.542-1.543,1.542
			c-0.852,0-1.543-0.693-1.543-1.543s0.691-1.543,1.543-1.543C147.222,40.593,147.914,41.287,147.914,42.137z"/>
		<path fill="#010101" d="M150.586,52.122c0.158-0.18,0.142-0.453-0.038-0.611l-7.357-6.478c-0.171-0.151-0.431-0.143-0.592,0.019
			l-2.05,2.051l-4.235-4.638c-0.077-0.085-0.187-0.135-0.301-0.141c-0.113-0.002-0.227,0.036-0.312,0.113l-5.188,4.756
			c-0.177,0.161-0.188,0.435-0.027,0.611c0.161,0.176,0.436,0.188,0.611,0.027l4.869-4.464l3.969,4.348l-2.078,2.078
			c-0.169,0.168-0.169,0.442,0,0.611c0.17,0.169,0.442,0.169,0.611,0l4.455-4.454l7.053,6.21c0.082,0.072,0.185,0.107,0.285,0.107
			C150.383,52.268,150.502,52.219,150.586,52.122z"/>
	</g>
	<path display="inline" opacity="0.2" fill="#9F9E9E" d="M91.718,17.244c0,0.977-0.793,1.769-1.77,1.769H36.54
		c-0.977,0-1.77-0.792-1.77-1.769v-3.006c0-0.977,0.793-1.769,1.77-1.769h53.408c0.977,0,1.77,0.792,1.77,1.769V17.244z"/>
	<path display="inline" opacity="0.2" fill="#9F9E9E" d="M91.718,71.75c0,3.176-2.574,5.75-5.75,5.75H64.801
		c-3.176,0-5.75-2.574-5.75-5.75l0,0c0-3.176,2.574-5.75,5.75-5.75h21.167C89.144,66,91.718,68.574,91.718,71.75L91.718,71.75z"/>
</g>
<g id="background">
	<rect x="0.25" y="0.375" fill="#E8E7E6" width="185" height="89"/>
</g>
<g id="template_1">
	<rect x="91.75" y="5.375" fill="#B2B1B1" width="1" height="71"/>
	<g id="Layer_4">
		<g>
			<rect x="99.5" y="5" fill="#DEDDDD" width="78.5" height="38.25"/>
			<polygon fill="#DEDDDD" points="101.75,11.847 99.5,13.972 97.25,11.847 99.5,9.722 			"/>
		</g>
		<ellipse fill="#5E5F5F" cx="92.188" cy="11.67" rx="2.438" ry="2.302"/>
		<path opacity="0.2" fill="#B2B1B1" d="M74.5,15.248c0,0.729-0.626,1.321-1.399,1.321H56.899c-0.772,0-1.399-0.592-1.399-1.321l0,0
			c0-0.729,0.626-1.321,1.399-1.321h16.202C73.874,13.927,74.5,14.519,74.5,15.248L74.5,15.248z"/>
		<path opacity="0.2" fill="#B2B1B1" d="M84.75,10.785c0,0.586-0.504,1.063-1.125,1.063h-27.25c-0.621,0-1.125-0.476-1.125-1.063
			l0,0c0-0.586,0.504-1.063,1.125-1.063h27.25C84.246,9.722,84.75,10.198,84.75,10.785L84.75,10.785z"/>
		<g>
			<rect x="6.25" y="45.75" fill="#DEDDDD" width="78.5" height="38.25"/>
			<polygon fill="#DEDDDD" points="82.5,52.597 84.75,54.722 87,52.597 84.75,50.472 			"/>
		</g>
		<ellipse fill="#A9A8A8" cx="92.063" cy="52.42" rx="2.438" ry="2.302"/>
		<path opacity="0.2" fill="#B2B1B1" d="M99.5,55.998c0,0.729,0.627,1.321,1.398,1.321h16.203c0.771,0,1.398-0.592,1.398-1.321l0,0
			c0-0.729-0.627-1.321-1.398-1.321h-16.203C100.127,54.677,99.5,55.269,99.5,55.998L99.5,55.998z"/>
		<path opacity="0.2" fill="#B2B1B1" d="M99.5,51.535c0,0.586,0.504,1.063,1.125,1.063h27.25c0.621,0,1.125-0.476,1.125-1.063l0,0
			c0-0.586-0.504-1.063-1.125-1.063h-27.25C100.004,50.472,99.5,50.948,99.5,51.535L99.5,51.535z"/>
	</g>
	<path opacity="0.2" fill="#9F9E9E" d="M163.608,14.163c0,0.546-0.468,0.989-1.047,0.989h-56.136c-0.576,0-1.046-0.443-1.046-0.989
		l0,0c0-0.545,0.47-0.988,1.046-0.988h56.136C163.141,13.174,163.608,13.618,163.608,14.163L163.608,14.163z"/>
	<path opacity="0.2" fill="#9F9E9E" d="M174.119,20.779c0,0.558-0.478,1.01-1.068,1.01h-66.602c-0.591,0-1.069-0.452-1.069-1.01l0,0
		c0-0.558,0.479-1.011,1.069-1.011h66.602C173.642,19.768,174.119,20.221,174.119,20.779L174.119,20.779z"/>
	<path opacity="0.2" fill="#9F9E9E" d="M152.818,27.821c0,0.509-0.437,0.922-0.977,0.922h-45.486c-0.539,0-0.976-0.413-0.976-0.922
		l0,0c0-0.509,0.437-0.922,0.976-0.922h45.486C152.382,26.898,152.818,27.312,152.818,27.821L152.818,27.821z"/>
	<path opacity="0.2" fill="#9F9E9E" d="M163.701,34.906c0,0.534-0.459,0.967-1.023,0.967h-56.274c-0.566,0-1.023-0.433-1.023-0.967
		l0,0c0-0.534,0.457-0.966,1.023-0.966h56.274C163.242,33.94,163.701,34.373,163.701,34.906L163.701,34.906z"/>
	<path opacity="0.2" fill="#9F9E9E" d="M10.131,54.913c0,0.546,0.468,0.989,1.047,0.989h56.136c0.576,0,1.046-0.443,1.046-0.989l0,0
		c0-0.545-0.47-0.988-1.046-0.988H11.178C10.599,53.924,10.131,54.368,10.131,54.913L10.131,54.913z"/>
	<path opacity="0.2" fill="#9F9E9E" d="M10.131,61.529c0,0.558,0.478,1.01,1.068,1.01h66.602c0.591,0,1.069-0.452,1.069-1.01l0,0
		c0-0.558-0.479-1.011-1.069-1.011H11.199C10.608,60.518,10.131,60.971,10.131,61.529L10.131,61.529z"/>
	<path opacity="0.2" fill="#9F9E9E" d="M10.131,68.57c0,0.51,0.437,0.922,0.977,0.922h45.486c0.539,0,0.976-0.412,0.976-0.922l0,0
		c0-0.509-0.437-0.922-0.976-0.922H11.107C10.567,67.648,10.131,68.062,10.131,68.57L10.131,68.57z"/>
	<path opacity="0.2" fill="#9F9E9E" d="M10.131,75.656c0,0.534,0.459,0.967,1.023,0.967h56.274c0.566,0,1.023-0.433,1.023-0.967l0,0
		c0-0.533-0.457-0.967-1.023-0.967H11.154C10.59,74.689,10.131,75.123,10.131,75.656L10.131,75.656z"/>
</g>
</svg>
