<?xml version="1.0" encoding="utf-8"?>
<!-- Generator: Adobe Illustrator 16.0.0, SVG Export Plug-In . SVG Version: 6.00 Build 0)  -->
<!DOCTYPE svg PUBLIC "-//W3C//DTD SVG 1.1//EN" "http://www.w3.org/Graphics/SVG/1.1/DTD/svg11.dtd">
<svg version="1.1" xmlns="http://www.w3.org/2000/svg" xmlns:xlink="http://www.w3.org/1999/xlink" x="0px" y="0px" width="185px"
	 height="89px" viewBox="0 0 185 89" enable-background="new 0 0 185 89" xml:space="preserve">
<g id="Layer_7">
	<rect fill="#E8E8E8" width="185" height="89"/>
</g>
<g id="template_6" display="none">
	<g display="inline">
		<g id="image_thumb_18_">
			<rect x="9.76" y="27.005" fill="#D3D3D3" width="48.979" height="48.978"/>
			<g opacity="0.2">
				<path fill="#010101" d="M42.949,44.349H25.551c-0.17,0-0.31,0.139-0.31,0.312v13.669c0,0.173,0.14,0.312,0.31,0.312h17.398
					c0.171,0,0.311-0.139,0.311-0.312V44.66C43.26,44.487,43.121,44.349,42.949,44.349z M42.638,58.019H25.862V44.971h16.776V58.019
					z"/>
				<path fill="#010101" d="M30.211,51.228c0.955,0,1.73-0.776,1.73-1.729c0-0.955-0.776-1.731-1.73-1.731
					c-0.953,0-1.73,0.776-1.73,1.73S29.258,51.228,30.211,51.228z M30.211,48.388c0.612,0,1.109,0.498,1.109,1.109
					c0,0.611-0.497,1.109-1.109,1.109c-0.611,0-1.109-0.498-1.109-1.108C29.102,48.886,29.6,48.388,30.211,48.388z"/>
				<path fill="#010101" d="M27.416,56.777c0.072,0,0.145-0.026,0.204-0.078l5.068-4.462l3.2,3.201c0.122,0.121,0.317,0.121,0.439,0
					c0.122-0.122,0.122-0.318,0-0.439l-1.493-1.493l2.852-3.125l3.499,3.207c0.127,0.116,0.323,0.108,0.44-0.02
					c0.115-0.125,0.106-0.323-0.021-0.438l-3.728-3.418c-0.06-0.056-0.142-0.083-0.224-0.081c-0.083,0.003-0.161,0.04-0.216,0.101
					l-3.043,3.333l-1.473-1.473c-0.116-0.117-0.302-0.123-0.425-0.015l-5.288,4.655c-0.128,0.114-0.141,0.311-0.027,0.44
					C27.243,56.741,27.329,56.777,27.416,56.777z"/>
			</g>
		</g>
		<path fill="#FFFFFF" d="M50.965,49.495c0,0.802-0.649,1.453-1.452,1.453H16.863c-0.802,0-1.453-0.651-1.453-1.453l0,0
			c0-0.802,0.651-1.452,1.453-1.452h32.649C50.315,48.043,50.965,48.693,50.965,49.495L50.965,49.495z"/>
		<path fill="#FFFFFF" d="M48.757,54.145c0,0.703-0.569,1.272-1.272,1.272H18.892c-0.702,0-1.272-0.569-1.272-1.272l0,0
			c0-0.703,0.57-1.272,1.272-1.272h28.593C48.188,52.872,48.757,53.442,48.757,54.145L48.757,54.145z"/>
	</g>
	<g display="inline">
		<g id="image_thumb_17_">
			<rect x="68.76" y="27.005" fill="#D3D3D3" width="48.98" height="48.978"/>
			<g opacity="0.2">
				<path fill="#010101" d="M101.949,44.349H84.551c-0.17,0-0.31,0.139-0.31,0.312v13.669c0,0.173,0.14,0.312,0.31,0.312h17.398
					c0.172,0,0.311-0.139,0.311-0.312V44.66C102.26,44.487,102.121,44.349,101.949,44.349z M101.639,58.019H84.862V44.971h16.777
					V58.019z"/>
				<path fill="#010101" d="M89.211,51.228c0.955,0,1.73-0.776,1.73-1.729c0-0.955-0.776-1.731-1.73-1.731
					c-0.953,0-1.73,0.776-1.73,1.73S88.258,51.228,89.211,51.228z M89.211,48.388c0.612,0,1.109,0.498,1.109,1.109
					c0,0.611-0.497,1.109-1.109,1.109c-0.611,0-1.109-0.498-1.109-1.108C88.102,48.886,88.6,48.388,89.211,48.388z"/>
				<path fill="#010101" d="M86.416,56.777c0.072,0,0.145-0.026,0.204-0.078l5.068-4.462l3.2,3.201c0.122,0.121,0.317,0.121,0.439,0
					c0.121-0.122,0.121-0.318,0-0.439l-1.493-1.493l2.853-3.125l3.498,3.207c0.127,0.116,0.323,0.108,0.439-0.02
					c0.115-0.125,0.107-0.323-0.02-0.438l-3.729-3.418c-0.06-0.056-0.141-0.083-0.223-0.081c-0.083,0.003-0.161,0.04-0.217,0.101
					l-3.043,3.333l-1.473-1.473c-0.116-0.117-0.303-0.123-0.425-0.015l-5.288,4.655c-0.128,0.114-0.141,0.311-0.027,0.44
					C86.243,56.741,86.329,56.777,86.416,56.777z"/>
			</g>
		</g>
		<path fill="#FFFFFF" d="M110.965,50.495c0,0.802-0.649,1.453-1.452,1.453H76.863c-0.802,0-1.453-0.651-1.453-1.453l0,0
			c0-0.802,0.651-1.452,1.453-1.452h32.649C110.315,49.043,110.965,49.693,110.965,50.495L110.965,50.495z"/>
		<path fill="#FFFFFF" d="M108.757,55.145c0,0.703-0.569,1.272-1.272,1.272H78.892c-0.702,0-1.272-0.569-1.272-1.272l0,0
			c0-0.703,0.57-1.272,1.272-1.272h28.593C108.188,53.872,108.757,54.442,108.757,55.145L108.757,55.145z"/>
	</g>
	<g display="inline">
		<g id="image_thumb_16_">
			<rect x="127.76" y="27.005" fill="#D3D3D3" width="48.98" height="48.978"/>
			<g opacity="0.2">
				<path fill="#010101" d="M160.949,44.349h-17.398c-0.17,0-0.311,0.139-0.311,0.312v13.669c0,0.173,0.141,0.312,0.311,0.312
					h17.398c0.172,0,0.311-0.139,0.311-0.312V44.66C161.26,44.487,161.121,44.349,160.949,44.349z M160.639,58.019h-16.777V44.971
					h16.777V58.019z"/>
				<path fill="#010101" d="M148.211,51.228c0.955,0,1.73-0.776,1.73-1.729c0-0.955-0.775-1.731-1.73-1.731
					c-0.953,0-1.73,0.776-1.73,1.73S147.258,51.228,148.211,51.228z M148.211,48.388c0.611,0,1.109,0.498,1.109,1.109
					c0,0.611-0.498,1.109-1.109,1.109s-1.109-0.498-1.109-1.108C147.102,48.886,147.6,48.388,148.211,48.388z"/>
				<path fill="#010101" d="M145.416,56.777c0.072,0,0.145-0.026,0.204-0.078l5.068-4.462l3.2,3.201
					c0.122,0.121,0.317,0.121,0.439,0c0.121-0.122,0.121-0.318,0-0.439l-1.493-1.493l2.853-3.125l3.498,3.207
					c0.127,0.116,0.323,0.108,0.439-0.02c0.115-0.125,0.107-0.323-0.02-0.438l-3.729-3.418c-0.06-0.056-0.141-0.083-0.223-0.081
					c-0.083,0.003-0.161,0.04-0.217,0.101l-3.043,3.333l-1.473-1.473c-0.116-0.117-0.303-0.123-0.425-0.015l-5.288,4.655
					c-0.128,0.114-0.141,0.311-0.026,0.44C145.243,56.741,145.328,56.777,145.416,56.777z"/>
			</g>
		</g>
		<rect x="127.49" y="26.51" opacity="0.5" fill="#010101" width="49.25" height="49.473"/>
		<g>
			<path fill="#FFFFFF" d="M155.956,63.565l-1.514-1.517c0.405-0.468,0.653-1.08,0.653-1.747c0-1.468-1.195-2.662-2.661-2.662
				c-1.469,0-2.662,1.196-2.662,2.662c0,1.468,1.196,2.663,2.662,2.663c0.665,0,1.274-0.249,1.743-0.657l1.519,1.52
				c0.033,0.035,0.083,0.056,0.128,0.056c0.051,0,0.098-0.018,0.132-0.056C156.029,63.755,156.029,63.635,155.956,63.565z
				 M150.144,60.302c0-1.261,1.026-2.287,2.291-2.287c1.259,0,2.284,1.028,2.284,2.287c0,1.261-1.025,2.29-2.284,2.29
				C151.17,62.591,150.144,61.565,150.144,60.302z"/>
		</g>
		<path fill="#FFFFFF" d="M170.965,41.495c0,0.802-0.649,1.453-1.452,1.453h-32.649c-0.802,0-1.453-0.651-1.453-1.453l0,0
			c0-0.802,0.651-1.452,1.453-1.452h32.649C170.315,40.043,170.965,40.693,170.965,41.495L170.965,41.495z"/>
		<path fill="#FFFFFF" d="M168.757,46.145c0,0.703-0.569,1.272-1.272,1.272h-28.593c-0.702,0-1.272-0.569-1.272-1.272l0,0
			c0-0.703,0.57-1.272,1.272-1.272h28.593C168.188,44.872,168.757,45.442,168.757,46.145L168.757,46.145z"/>
	</g>
	<path display="inline" fill="#010101" d="M140.671,78.539h-0.022c-0.42,0-0.772,0.356-0.772,0.816v0.636
		c0,0.127-0.104,0.229-0.23,0.229c-0.126,0-0.229-0.103-0.229-0.229v-1.175c0-0.459-0.334-0.832-0.754-0.832
		c-0.422,0-0.756,0.373-0.756,0.832v1.244c0,0.128-0.103,0.23-0.229,0.23c-0.128,0-0.23-0.103-0.23-0.23v-1.586
		c0-0.459-0.346-0.821-0.767-0.821h-0.022c-0.409,0-0.752,0.344-0.752,0.786v1.787c0,0.127-0.104,0.229-0.229,0.229
		c-0.127,0-0.229-0.103-0.229-0.229v-1.735c0-0.005-0.001-0.011-0.001-0.017c0-0.015,0.001-0.028,0.001-0.042v-4.057
		c0-0.459-0.347-0.832-0.767-0.832s-0.766,0.373-0.766,0.832l-0.005,6.726c0,0.097-0.062,0.184-0.152,0.216
		c-0.091,0.033-0.193,0.006-0.255-0.07l-0.803-0.978c-0.212-0.265-0.524-0.431-0.863-0.456c-0.331-0.022-0.657,0.096-0.898,0.323
		c-0.003,0.002-0.006,0.005-0.009,0.008l-0.158,0.131l2.784,5.352c0.44,0.844,1.271,1.373,2.17,1.373h3.218
		c1.37,0,2.485-1.205,2.487-2.682c0.001-0.781,0.001-1.368,0.002-1.84c0.001-1.263,0.002-1.727-0.001-3.118
		C141.432,78.903,141.09,78.539,140.671,78.539z"/>
	<path display="inline" fill="#010101" d="M132.593,74.456c0.127,0,0.229-0.102,0.229-0.229c-0.002-0.664,0.35-1.277,0.924-1.609
		s1.281-0.332,1.855,0c0.573,0.332,0.926,0.945,0.923,1.609c0,0.127,0.104,0.229,0.229,0.229c0.127,0,0.229-0.102,0.229-0.229
		c0.004-0.828-0.437-1.594-1.152-2.008c-0.716-0.415-1.599-0.415-2.314,0c-0.716,0.414-1.156,1.18-1.153,2.008
		C132.363,74.354,132.467,74.456,132.593,74.456z"/>
	<g display="inline">
		<path display="none" fill="#FFFFFF" d="M156.467,58.775l-2.086-2.086c0.56-0.643,0.898-1.482,0.898-2.4
			c0-2.02-1.643-3.66-3.66-3.66c-2.02,0-3.66,1.643-3.66,3.66s1.643,3.66,3.66,3.66c0.917,0,1.757-0.339,2.4-0.898l2.086,2.086
			c0.049,0.049,0.116,0.076,0.181,0.076s0.131-0.025,0.181-0.076C156.565,59.038,156.565,58.874,156.467,58.775z M148.472,54.289
			c0-1.736,1.412-3.146,3.146-3.146c1.735,0,3.146,1.412,3.146,3.146s-1.411,3.148-3.146,3.148
			C149.884,57.437,148.472,56.025,148.472,54.289z"/>
	</g>
	
		<line display="inline" fill="none" stroke="#FFFFFF" stroke-width="0.75" stroke-miterlimit="10" x1="132.639" y1="28.997" x2="132.639" y2="73.908"/>
	
		<line display="inline" fill="none" stroke="#FFFFFF" stroke-width="0.75" stroke-miterlimit="10" x1="130" y1="31.789" x2="175.667" y2="31.789"/>
	
		<line display="inline" fill="none" stroke="#FFFFFF" stroke-width="0.75" stroke-miterlimit="10" x1="172.5" y1="28.872" x2="172.5" y2="73.456"/>
	
		<line display="inline" fill="none" stroke="#FFFFFF" stroke-width="0.75" stroke-miterlimit="10" x1="129" y1="70.956" x2="175.667" y2="70.956"/>
</g>
<g id="template_5" display="none">
	<g display="inline">
		<g id="image_thumb_30_">
			<rect x="9.76" y="27.005" fill="#D3D3D3" width="48.979" height="48.978"/>
			<g opacity="0.2">
				<path fill="#010101" d="M42.949,44.349H25.551c-0.17,0-0.31,0.139-0.31,0.312v13.669c0,0.173,0.14,0.312,0.31,0.312h17.398
					c0.171,0,0.311-0.139,0.311-0.312V44.66C43.26,44.487,43.121,44.349,42.949,44.349z M42.638,58.019H25.862V44.971h16.776V58.019
					z"/>
				<path fill="#010101" d="M30.211,51.228c0.955,0,1.73-0.776,1.73-1.729c0-0.955-0.776-1.731-1.73-1.731
					c-0.953,0-1.73,0.776-1.73,1.73S29.258,51.228,30.211,51.228z M30.211,48.388c0.612,0,1.109,0.498,1.109,1.109
					c0,0.611-0.497,1.109-1.109,1.109c-0.611,0-1.109-0.498-1.109-1.108C29.102,48.886,29.6,48.388,30.211,48.388z"/>
				<path fill="#010101" d="M27.416,56.777c0.072,0,0.145-0.026,0.204-0.078l5.068-4.462l3.2,3.201c0.122,0.121,0.317,0.121,0.439,0
					c0.122-0.122,0.122-0.318,0-0.439l-1.493-1.493l2.852-3.125l3.499,3.207c0.127,0.116,0.323,0.108,0.44-0.02
					c0.115-0.125,0.106-0.323-0.021-0.438l-3.728-3.418c-0.06-0.056-0.142-0.083-0.224-0.081c-0.083,0.003-0.161,0.04-0.216,0.101
					l-3.043,3.333l-1.473-1.473c-0.116-0.117-0.302-0.123-0.425-0.015l-5.288,4.655c-0.128,0.114-0.141,0.311-0.027,0.44
					C27.243,56.741,27.329,56.777,27.416,56.777z"/>
			</g>
		</g>
		<path fill="#FFFFFF" d="M50.965,49.495c0,0.802-0.649,1.453-1.452,1.453H16.863c-0.802,0-1.453-0.651-1.453-1.453l0,0
			c0-0.802,0.651-1.452,1.453-1.452h32.649C50.315,48.043,50.965,48.693,50.965,49.495L50.965,49.495z"/>
		<path fill="#FFFFFF" d="M48.757,54.145c0,0.703-0.569,1.272-1.272,1.272H18.892c-0.702,0-1.272-0.569-1.272-1.272l0,0
			c0-0.703,0.57-1.272,1.272-1.272h28.593C48.188,52.872,48.757,53.442,48.757,54.145L48.757,54.145z"/>
	</g>
	<g display="inline">
		<g id="image_thumb_29_">
			<rect x="68.76" y="27.005" fill="#D3D3D3" width="48.98" height="48.978"/>
			<g opacity="0.2">
				<path fill="#010101" d="M101.949,44.349H84.551c-0.17,0-0.31,0.139-0.31,0.312v13.669c0,0.173,0.14,0.312,0.31,0.312h17.398
					c0.172,0,0.311-0.139,0.311-0.312V44.66C102.26,44.487,102.121,44.349,101.949,44.349z M101.639,58.019H84.862V44.971h16.777
					V58.019z"/>
				<path fill="#010101" d="M89.211,51.228c0.955,0,1.73-0.776,1.73-1.729c0-0.955-0.776-1.731-1.73-1.731
					c-0.953,0-1.73,0.776-1.73,1.73S88.258,51.228,89.211,51.228z M89.211,48.388c0.612,0,1.109,0.498,1.109,1.109
					c0,0.611-0.497,1.109-1.109,1.109c-0.611,0-1.109-0.498-1.109-1.108C88.102,48.886,88.6,48.388,89.211,48.388z"/>
				<path fill="#010101" d="M86.416,56.777c0.072,0,0.145-0.026,0.204-0.078l5.068-4.462l3.2,3.201c0.122,0.121,0.317,0.121,0.439,0
					c0.121-0.122,0.121-0.318,0-0.439l-1.493-1.493l2.853-3.125l3.498,3.207c0.127,0.116,0.323,0.108,0.439-0.02
					c0.115-0.125,0.107-0.323-0.02-0.438l-3.729-3.418c-0.06-0.056-0.141-0.083-0.223-0.081c-0.083,0.003-0.161,0.04-0.217,0.101
					l-3.043,3.333l-1.473-1.473c-0.116-0.117-0.303-0.123-0.425-0.015l-5.288,4.655c-0.128,0.114-0.141,0.311-0.027,0.44
					C86.243,56.741,86.329,56.777,86.416,56.777z"/>
			</g>
		</g>
		<path fill="#FFFFFF" d="M110.965,50.495c0,0.802-0.649,1.453-1.452,1.453H76.863c-0.802,0-1.453-0.651-1.453-1.453l0,0
			c0-0.802,0.651-1.452,1.453-1.452h32.649C110.315,49.043,110.965,49.693,110.965,50.495L110.965,50.495z"/>
		<path fill="#FFFFFF" d="M108.757,55.145c0,0.703-0.569,1.272-1.272,1.272H78.892c-0.702,0-1.272-0.569-1.272-1.272l0,0
			c0-0.703,0.57-1.272,1.272-1.272h28.593C108.188,53.872,108.757,54.442,108.757,55.145L108.757,55.145z"/>
	</g>
	<g display="inline">
		<g id="image_thumb_28_">
			<rect x="127.76" y="27.005" fill="#D3D3D3" width="48.98" height="48.978"/>
			<g opacity="0.2">
				<path fill="#010101" d="M160.949,44.349h-17.398c-0.17,0-0.311,0.139-0.311,0.312v13.669c0,0.173,0.141,0.312,0.311,0.312
					h17.398c0.172,0,0.311-0.139,0.311-0.312V44.66C161.26,44.487,161.121,44.349,160.949,44.349z M160.639,58.019h-16.777V44.971
					h16.777V58.019z"/>
				<path fill="#010101" d="M148.211,51.228c0.955,0,1.73-0.776,1.73-1.729c0-0.955-0.775-1.731-1.73-1.731
					c-0.953,0-1.73,0.776-1.73,1.73S147.258,51.228,148.211,51.228z M148.211,48.388c0.611,0,1.109,0.498,1.109,1.109
					c0,0.611-0.498,1.109-1.109,1.109s-1.109-0.498-1.109-1.108C147.102,48.886,147.6,48.388,148.211,48.388z"/>
				<path fill="#010101" d="M145.416,56.777c0.072,0,0.145-0.026,0.204-0.078l5.068-4.462l3.2,3.201
					c0.122,0.121,0.317,0.121,0.439,0c0.121-0.122,0.121-0.318,0-0.439l-1.493-1.493l2.853-3.125l3.498,3.207
					c0.127,0.116,0.323,0.108,0.439-0.02c0.115-0.125,0.107-0.323-0.02-0.438l-3.729-3.418c-0.06-0.056-0.141-0.083-0.223-0.081
					c-0.083,0.003-0.161,0.04-0.217,0.101l-3.043,3.333l-1.473-1.473c-0.116-0.117-0.303-0.123-0.425-0.015l-5.288,4.655
					c-0.128,0.114-0.141,0.311-0.026,0.44C145.243,56.741,145.328,56.777,145.416,56.777z"/>
			</g>
		</g>
		<rect x="127.49" y="26.51" opacity="0.5" fill="#010101" width="49.25" height="49.473"/>
		
			<line fill="none" stroke="#FFFFFF" stroke-width="0.75" stroke-miterlimit="10" x1="131.639" y1="67.872" x2="131.639" y2="29.872"/>
		<path fill="none" stroke="#FFFFFF" stroke-width="0.75" stroke-miterlimit="10" d="M131.639,67.872"/>
		
			<line fill="none" stroke="#FFFFFF" stroke-width="0.75" stroke-miterlimit="10" x1="173.5" y1="71.733" x2="131.639" y2="71.733"/>
		<path fill="none" stroke="#FFFFFF" stroke-width="0.75" stroke-miterlimit="10" d="M173.5,71.733"/>
		<line fill="none" stroke="#FFFFFF" stroke-width="0.75" stroke-miterlimit="10" x1="173.5" y1="35.747" x2="173.5" y2="68.372"/>
		
			<line fill="none" stroke="#FFFFFF" stroke-width="0.75" stroke-miterlimit="10" x1="134.875" y1="29.872" x2="173.5" y2="29.872"/>
		<g>
			<path fill="#FFFFFF" d="M155.956,63.565l-1.514-1.517c0.405-0.468,0.653-1.08,0.653-1.747c0-1.468-1.195-2.662-2.661-2.662
				c-1.469,0-2.662,1.196-2.662,2.662c0,1.468,1.196,2.663,2.662,2.663c0.665,0,1.274-0.249,1.743-0.657l1.519,1.52
				c0.033,0.035,0.083,0.056,0.128,0.056c0.051,0,0.098-0.018,0.132-0.056C156.029,63.755,156.029,63.635,155.956,63.565z
				 M150.144,60.302c0-1.261,1.026-2.287,2.291-2.287c1.259,0,2.284,1.028,2.284,2.287c0,1.261-1.025,2.29-2.284,2.29
				C151.17,62.591,150.144,61.565,150.144,60.302z"/>
		</g>
		<path fill="#FFFFFF" d="M170.965,41.495c0,0.802-0.649,1.453-1.452,1.453h-32.649c-0.802,0-1.453-0.651-1.453-1.453l0,0
			c0-0.802,0.651-1.452,1.453-1.452h32.649C170.315,40.043,170.965,40.693,170.965,41.495L170.965,41.495z"/>
		<path fill="#FFFFFF" d="M168.757,46.145c0,0.703-0.569,1.272-1.272,1.272h-28.593c-0.702,0-1.272-0.569-1.272-1.272l0,0
			c0-0.703,0.57-1.272,1.272-1.272h28.593C168.188,44.872,168.757,45.442,168.757,46.145L168.757,46.145z"/>
	</g>
	<path display="inline" fill="#010101" d="M140.671,78.539h-0.022c-0.42,0-0.772,0.356-0.772,0.816v0.636
		c0,0.127-0.104,0.229-0.23,0.229c-0.126,0-0.229-0.103-0.229-0.229v-1.175c0-0.459-0.334-0.832-0.754-0.832
		c-0.422,0-0.756,0.373-0.756,0.832v1.244c0,0.128-0.103,0.23-0.229,0.23c-0.128,0-0.23-0.103-0.23-0.23v-1.586
		c0-0.459-0.346-0.821-0.767-0.821h-0.022c-0.409,0-0.752,0.344-0.752,0.786v1.787c0,0.127-0.104,0.229-0.229,0.229
		c-0.127,0-0.229-0.103-0.229-0.229v-1.735c0-0.005-0.001-0.011-0.001-0.017c0-0.015,0.001-0.028,0.001-0.042v-4.057
		c0-0.459-0.347-0.832-0.767-0.832s-0.766,0.373-0.766,0.832l-0.005,6.726c0,0.097-0.062,0.184-0.152,0.216
		c-0.091,0.033-0.193,0.006-0.255-0.07l-0.803-0.978c-0.212-0.265-0.524-0.431-0.863-0.456c-0.331-0.022-0.657,0.096-0.898,0.323
		c-0.003,0.002-0.006,0.005-0.009,0.008l-0.158,0.131l2.784,5.352c0.44,0.844,1.271,1.373,2.17,1.373h3.218
		c1.37,0,2.485-1.205,2.487-2.682c0.001-0.781,0.001-1.368,0.002-1.84c0.001-1.263,0.002-1.727-0.001-3.118
		C141.432,78.903,141.09,78.539,140.671,78.539z"/>
	<path display="inline" fill="#010101" d="M132.593,74.456c0.127,0,0.229-0.102,0.229-0.229c-0.002-0.664,0.35-1.277,0.924-1.609
		s1.281-0.332,1.855,0c0.573,0.332,0.926,0.945,0.923,1.609c0,0.127,0.104,0.229,0.229,0.229c0.127,0,0.229-0.102,0.229-0.229
		c0.004-0.828-0.437-1.594-1.152-2.008c-0.716-0.415-1.599-0.415-2.314,0c-0.716,0.414-1.156,1.18-1.153,2.008
		C132.363,74.354,132.467,74.456,132.593,74.456z"/>
	<g display="inline">
		<path display="none" fill="#FFFFFF" d="M156.467,58.775l-2.086-2.086c0.56-0.643,0.898-1.482,0.898-2.4
			c0-2.02-1.643-3.66-3.66-3.66c-2.02,0-3.66,1.643-3.66,3.66s1.643,3.66,3.66,3.66c0.917,0,1.757-0.339,2.4-0.898l2.086,2.086
			c0.049,0.049,0.116,0.076,0.181,0.076s0.131-0.025,0.181-0.076C156.565,59.038,156.565,58.874,156.467,58.775z M148.472,54.289
			c0-1.736,1.412-3.146,3.146-3.146c1.735,0,3.146,1.412,3.146,3.146s-1.411,3.148-3.146,3.148
			C149.884,57.437,148.472,56.025,148.472,54.289z"/>
	</g>
</g>
<g id="template_4" display="none">
	<g display="inline">
		<g id="image_thumb_12_">
			<rect x="9.76" y="27.005" fill="#D3D3D3" width="48.979" height="48.978"/>
			<g opacity="0.2">
				<path fill="#010101" d="M42.949,44.349H25.551c-0.17,0-0.31,0.139-0.31,0.312v13.669c0,0.173,0.14,0.312,0.31,0.312h17.398
					c0.171,0,0.311-0.139,0.311-0.312V44.66C43.26,44.487,43.121,44.349,42.949,44.349z M42.638,58.019H25.862V44.971h16.776V58.019
					z"/>
				<path fill="#010101" d="M30.211,51.228c0.955,0,1.73-0.776,1.73-1.729c0-0.955-0.776-1.731-1.73-1.731
					c-0.953,0-1.73,0.776-1.73,1.73S29.258,51.228,30.211,51.228z M30.211,48.388c0.612,0,1.109,0.498,1.109,1.109
					c0,0.611-0.497,1.109-1.109,1.109c-0.611,0-1.109-0.498-1.109-1.108C29.102,48.886,29.6,48.388,30.211,48.388z"/>
				<path fill="#010101" d="M27.416,56.777c0.072,0,0.145-0.026,0.204-0.078l5.068-4.462l3.2,3.201c0.122,0.121,0.317,0.121,0.439,0
					c0.122-0.122,0.122-0.318,0-0.439l-1.493-1.493l2.852-3.125l3.499,3.207c0.127,0.116,0.323,0.108,0.44-0.02
					c0.115-0.125,0.106-0.323-0.021-0.438l-3.728-3.418c-0.06-0.056-0.142-0.083-0.224-0.081c-0.083,0.003-0.161,0.04-0.216,0.101
					l-3.043,3.333l-1.473-1.473c-0.116-0.117-0.302-0.123-0.425-0.015l-5.288,4.655c-0.128,0.114-0.141,0.311-0.027,0.44
					C27.243,56.741,27.329,56.777,27.416,56.777z"/>
			</g>
		</g>
		<path fill="#FFFFFF" d="M50.965,49.495c0,0.802-0.649,1.453-1.452,1.453H16.863c-0.802,0-1.453-0.651-1.453-1.453l0,0
			c0-0.802,0.651-1.452,1.453-1.452h32.649C50.315,48.043,50.965,48.693,50.965,49.495L50.965,49.495z"/>
		<path fill="#FFFFFF" d="M48.757,54.145c0,0.703-0.569,1.272-1.272,1.272H18.892c-0.702,0-1.272-0.569-1.272-1.272l0,0
			c0-0.703,0.57-1.272,1.272-1.272h28.593C48.188,52.872,48.757,53.442,48.757,54.145L48.757,54.145z"/>
	</g>
	<g display="inline">
		<g id="image_thumb_11_">
			<rect x="68.76" y="27.005" fill="#D3D3D3" width="48.98" height="48.978"/>
			<g opacity="0.2">
				<path fill="#010101" d="M101.949,44.349H84.551c-0.17,0-0.31,0.139-0.31,0.312v13.669c0,0.173,0.14,0.312,0.31,0.312h17.398
					c0.172,0,0.311-0.139,0.311-0.312V44.66C102.26,44.487,102.121,44.349,101.949,44.349z M101.639,58.019H84.862V44.971h16.777
					V58.019z"/>
				<path fill="#010101" d="M89.211,51.228c0.955,0,1.73-0.776,1.73-1.729c0-0.955-0.776-1.731-1.73-1.731
					c-0.953,0-1.73,0.776-1.73,1.73S88.258,51.228,89.211,51.228z M89.211,48.388c0.612,0,1.109,0.498,1.109,1.109
					c0,0.611-0.497,1.109-1.109,1.109c-0.611,0-1.109-0.498-1.109-1.108C88.102,48.886,88.6,48.388,89.211,48.388z"/>
				<path fill="#010101" d="M86.416,56.777c0.072,0,0.145-0.026,0.204-0.078l5.068-4.462l3.2,3.201c0.122,0.121,0.317,0.121,0.439,0
					c0.121-0.122,0.121-0.318,0-0.439l-1.493-1.493l2.853-3.125l3.498,3.207c0.127,0.116,0.323,0.108,0.439-0.02
					c0.115-0.125,0.107-0.323-0.02-0.438l-3.729-3.418c-0.06-0.056-0.141-0.083-0.223-0.081c-0.083,0.003-0.161,0.04-0.217,0.101
					l-3.043,3.333l-1.473-1.473c-0.116-0.117-0.303-0.123-0.425-0.015l-5.288,4.655c-0.128,0.114-0.141,0.311-0.027,0.44
					C86.243,56.741,86.329,56.777,86.416,56.777z"/>
			</g>
		</g>
		<path fill="#FFFFFF" d="M110.965,50.495c0,0.802-0.649,1.453-1.452,1.453H76.863c-0.802,0-1.453-0.651-1.453-1.453l0,0
			c0-0.802,0.651-1.452,1.453-1.452h32.649C110.315,49.043,110.965,49.693,110.965,50.495L110.965,50.495z"/>
		<path fill="#FFFFFF" d="M108.757,55.145c0,0.703-0.569,1.272-1.272,1.272H78.892c-0.702,0-1.272-0.569-1.272-1.272l0,0
			c0-0.703,0.57-1.272,1.272-1.272h28.593C108.188,53.872,108.757,54.442,108.757,55.145L108.757,55.145z"/>
	</g>
	<g display="inline">
		<g id="image_thumb_10_">
			<rect x="127.76" y="27.005" fill="#D3D3D3" width="48.98" height="48.978"/>
			<g opacity="0.2">
				<path fill="#010101" d="M160.949,44.349h-17.398c-0.17,0-0.311,0.139-0.311,0.312v13.669c0,0.173,0.141,0.312,0.311,0.312
					h17.398c0.172,0,0.311-0.139,0.311-0.312V44.66C161.26,44.487,161.121,44.349,160.949,44.349z M160.639,58.019h-16.777V44.971
					h16.777V58.019z"/>
				<path fill="#010101" d="M148.211,51.228c0.955,0,1.73-0.776,1.73-1.729c0-0.955-0.775-1.731-1.73-1.731
					c-0.953,0-1.73,0.776-1.73,1.73S147.258,51.228,148.211,51.228z M148.211,48.388c0.611,0,1.109,0.498,1.109,1.109
					c0,0.611-0.498,1.109-1.109,1.109s-1.109-0.498-1.109-1.108C147.102,48.886,147.6,48.388,148.211,48.388z"/>
				<path fill="#010101" d="M145.416,56.777c0.072,0,0.145-0.026,0.204-0.078l5.068-4.462l3.2,3.201
					c0.122,0.121,0.317,0.121,0.439,0c0.121-0.122,0.121-0.318,0-0.439l-1.493-1.493l2.853-3.125l3.498,3.207
					c0.127,0.116,0.323,0.108,0.439-0.02c0.115-0.125,0.107-0.323-0.02-0.438l-3.729-3.418c-0.06-0.056-0.141-0.083-0.223-0.081
					c-0.083,0.003-0.161,0.04-0.217,0.101l-3.043,3.333l-1.473-1.473c-0.116-0.117-0.303-0.123-0.425-0.015l-5.288,4.655
					c-0.128,0.114-0.141,0.311-0.026,0.44C145.243,56.741,145.328,56.777,145.416,56.777z"/>
			</g>
		</g>
		<rect x="127.49" y="26.51" opacity="0.5" fill="#010101" width="49.25" height="49.473"/>
		
			<rect x="131.639" y="29.872" fill="none" stroke="#FFFFFF" stroke-width="0.75" stroke-miterlimit="10" width="41.861" height="41.861"/>
		<g display="none">
			<path display="inline" fill="#FFFFFF" d="M155.956,63.565l-1.514-1.517c0.405-0.468,0.653-1.08,0.653-1.747
				c0-1.468-1.195-2.662-2.661-2.662c-1.469,0-2.662,1.196-2.662,2.662c0,1.468,1.196,2.663,2.662,2.663
				c0.665,0,1.274-0.249,1.743-0.657l1.519,1.52c0.033,0.035,0.083,0.056,0.128,0.056c0.051,0,0.098-0.018,0.132-0.056
				C156.029,63.755,156.029,63.635,155.956,63.565z M150.144,60.302c0-1.261,1.026-2.287,2.291-2.287
				c1.259,0,2.284,1.028,2.284,2.287c0,1.261-1.025,2.29-2.284,2.29C151.17,62.591,150.144,61.565,150.144,60.302z"/>
		</g>
		<path fill="#FFFFFF" d="M170.965,41.495c0,0.802-0.649,1.453-1.452,1.453h-32.649c-0.802,0-1.453-0.651-1.453-1.453l0,0
			c0-0.802,0.651-1.452,1.453-1.452h32.649C170.315,40.043,170.965,40.693,170.965,41.495L170.965,41.495z"/>
		<path fill="#FFFFFF" d="M168.757,46.145c0,0.703-0.569,1.272-1.272,1.272h-28.593c-0.702,0-1.272-0.569-1.272-1.272l0,0
			c0-0.703,0.57-1.272,1.272-1.272h28.593C168.188,44.872,168.757,45.442,168.757,46.145L168.757,46.145z"/>
	</g>
	<path display="inline" fill="#010101" d="M140.671,78.539h-0.022c-0.42,0-0.772,0.356-0.772,0.816v0.636
		c0,0.127-0.104,0.229-0.23,0.229c-0.126,0-0.229-0.103-0.229-0.229v-1.175c0-0.459-0.334-0.832-0.754-0.832
		c-0.422,0-0.756,0.373-0.756,0.832v1.244c0,0.128-0.103,0.23-0.229,0.23c-0.128,0-0.23-0.103-0.23-0.23v-1.586
		c0-0.459-0.346-0.821-0.767-0.821h-0.022c-0.409,0-0.752,0.344-0.752,0.786v1.787c0,0.127-0.104,0.229-0.229,0.229
		c-0.127,0-0.229-0.103-0.229-0.229v-1.735c0-0.005-0.001-0.011-0.001-0.017c0-0.015,0.001-0.028,0.001-0.042v-4.057
		c0-0.459-0.347-0.832-0.767-0.832s-0.766,0.373-0.766,0.832l-0.005,6.726c0,0.097-0.062,0.184-0.152,0.216
		c-0.091,0.033-0.193,0.006-0.255-0.07l-0.803-0.978c-0.212-0.265-0.524-0.431-0.863-0.456c-0.331-0.022-0.657,0.096-0.898,0.323
		c-0.003,0.002-0.006,0.005-0.009,0.008l-0.158,0.131l2.784,5.352c0.44,0.844,1.271,1.373,2.17,1.373h3.218
		c1.37,0,2.485-1.205,2.487-2.682c0.001-0.781,0.001-1.368,0.002-1.84c0.001-1.263,0.002-1.727-0.001-3.118
		C141.432,78.903,141.09,78.539,140.671,78.539z"/>
	<path display="inline" fill="#010101" d="M132.593,74.456c0.127,0,0.229-0.102,0.229-0.229c-0.002-0.664,0.35-1.277,0.924-1.609
		s1.281-0.332,1.855,0c0.573,0.332,0.926,0.945,0.923,1.609c0,0.127,0.104,0.229,0.229,0.229c0.127,0,0.229-0.102,0.229-0.229
		c0.004-0.828-0.437-1.594-1.152-2.008c-0.716-0.415-1.599-0.415-2.314,0c-0.716,0.414-1.156,1.18-1.153,2.008
		C132.363,74.354,132.467,74.456,132.593,74.456z"/>
	<g display="inline">
		<path fill="#FFFFFF" d="M156.467,63.397l-2.086-2.086c0.56-0.643,0.898-1.482,0.898-2.4c0-2.02-1.643-3.66-3.66-3.66
			c-2.02,0-3.66,1.643-3.66,3.66s1.643,3.66,3.66,3.66c0.917,0,1.757-0.339,2.4-0.898l2.086,2.086
			c0.049,0.049,0.116,0.076,0.181,0.076s0.131-0.025,0.181-0.076C156.565,63.66,156.565,63.496,156.467,63.397z M148.472,58.911
			c0-1.736,1.412-3.146,3.146-3.146c1.735,0,3.146,1.412,3.146,3.146s-1.411,3.148-3.146,3.148
			C149.884,62.059,148.472,60.647,148.472,58.911z"/>
	</g>
</g>
<g id="template_3">
	<g>
		<g id="image_thumb_21_">
			<rect x="9.76" y="27.005" fill="#D3D3D3" width="48.979" height="48.978"/>
			<g opacity="0.2">
				<path fill="#010101" d="M42.949,44.349H25.551c-0.17,0-0.31,0.139-0.31,0.312v13.669c0,0.173,0.14,0.312,0.31,0.312h17.398
					c0.171,0,0.311-0.139,0.311-0.312V44.66C43.26,44.487,43.121,44.349,42.949,44.349z M42.638,58.019H25.862V44.971h16.776V58.019
					z"/>
				<path fill="#010101" d="M30.211,51.228c0.955,0,1.73-0.776,1.73-1.729c0-0.955-0.776-1.731-1.73-1.731
					c-0.953,0-1.73,0.776-1.73,1.73S29.258,51.228,30.211,51.228z M30.211,48.388c0.612,0,1.109,0.498,1.109,1.109
					c0,0.611-0.497,1.109-1.109,1.109c-0.611,0-1.109-0.498-1.109-1.108C29.102,48.886,29.6,48.388,30.211,48.388z"/>
				<path fill="#010101" d="M27.416,56.777c0.072,0,0.145-0.026,0.204-0.078l5.068-4.462l3.2,3.201c0.122,0.121,0.317,0.121,0.439,0
					c0.122-0.122,0.122-0.318,0-0.439l-1.493-1.493l2.852-3.125l3.499,3.207c0.127,0.116,0.323,0.108,0.44-0.02
					c0.115-0.125,0.106-0.323-0.021-0.438l-3.728-3.418c-0.06-0.056-0.142-0.083-0.224-0.081c-0.083,0.003-0.161,0.04-0.216,0.101
					l-3.043,3.333l-1.473-1.473c-0.116-0.117-0.302-0.123-0.425-0.015l-5.288,4.655c-0.128,0.114-0.141,0.311-0.027,0.44
					C27.243,56.741,27.329,56.777,27.416,56.777z"/>
			</g>
		</g>
	</g>
	<g>
		<g id="image_thumb_20_">
			<rect x="68.76" y="27.005" fill="#D3D3D3" width="48.98" height="48.978"/>
			<g opacity="0.2">
				<path fill="#010101" d="M101.949,44.349H84.551c-0.17,0-0.31,0.139-0.31,0.312v13.669c0,0.173,0.14,0.312,0.31,0.312h17.398
					c0.172,0,0.311-0.139,0.311-0.312V44.66C102.26,44.487,102.121,44.349,101.949,44.349z M101.639,58.019H84.862V44.971h16.777
					V58.019z"/>
				<path fill="#010101" d="M89.211,51.228c0.955,0,1.73-0.776,1.73-1.729c0-0.955-0.776-1.731-1.73-1.731
					c-0.953,0-1.73,0.776-1.73,1.73S88.258,51.228,89.211,51.228z M89.211,48.388c0.612,0,1.109,0.498,1.109,1.109
					c0,0.611-0.497,1.109-1.109,1.109c-0.611,0-1.109-0.498-1.109-1.108C88.102,48.886,88.6,48.388,89.211,48.388z"/>
				<path fill="#010101" d="M86.416,56.777c0.072,0,0.145-0.026,0.204-0.078l5.068-4.462l3.2,3.201c0.122,0.121,0.317,0.121,0.439,0
					c0.121-0.122,0.121-0.318,0-0.439l-1.493-1.493l2.853-3.125l3.498,3.207c0.127,0.116,0.323,0.108,0.439-0.02
					c0.115-0.125,0.107-0.323-0.02-0.438l-3.729-3.418c-0.06-0.056-0.141-0.083-0.223-0.081c-0.083,0.003-0.161,0.04-0.217,0.101
					l-3.043,3.333l-1.473-1.473c-0.116-0.117-0.303-0.123-0.425-0.015l-5.288,4.655c-0.128,0.114-0.141,0.311-0.027,0.44
					C86.243,56.741,86.329,56.777,86.416,56.777z"/>
			</g>
		</g>
	</g>
	<g>
		<g id="image_thumb_19_">
			<rect x="127.76" y="27.005" fill="#D3D3D3" width="48.98" height="48.978"/>
			<g opacity="0.2">
				<path fill="#010101" d="M160.949,44.349h-17.398c-0.17,0-0.311,0.139-0.311,0.312v13.669c0,0.173,0.141,0.312,0.311,0.312
					h17.398c0.172,0,0.311-0.139,0.311-0.312V44.66C161.26,44.487,161.121,44.349,160.949,44.349z M160.639,58.019h-16.777V44.971
					h16.777V58.019z"/>
				<path fill="#010101" d="M148.211,51.228c0.955,0,1.73-0.776,1.73-1.729c0-0.955-0.775-1.731-1.73-1.731
					c-0.953,0-1.73,0.776-1.73,1.73S147.258,51.228,148.211,51.228z M148.211,48.388c0.611,0,1.109,0.498,1.109,1.109
					c0,0.611-0.498,1.109-1.109,1.109s-1.109-0.498-1.109-1.108C147.102,48.886,147.6,48.388,148.211,48.388z"/>
				<path fill="#010101" d="M145.416,56.777c0.072,0,0.145-0.026,0.204-0.078l5.068-4.462l3.2,3.201
					c0.122,0.121,0.317,0.121,0.439,0c0.121-0.122,0.121-0.318,0-0.439l-1.493-1.493l2.853-3.125l3.498,3.207
					c0.127,0.116,0.323,0.108,0.439-0.02c0.115-0.125,0.107-0.323-0.02-0.438l-3.729-3.418c-0.06-0.056-0.141-0.083-0.223-0.081
					c-0.083,0.003-0.161,0.04-0.217,0.101l-3.043,3.333l-1.473-1.473c-0.116-0.117-0.303-0.123-0.425-0.015l-5.288,4.655
					c-0.128,0.114-0.141,0.311-0.026,0.44C145.243,56.741,145.328,56.777,145.416,56.777z"/>
			</g>
		</g>
		<rect x="127.76" y="60.762" opacity="0.5" fill="#010101" width="48.98" height="15.222"/>
		<g>
			<path fill="#FFFFFF" d="M171.956,71.565l-1.514-1.517c0.405-0.468,0.653-1.079,0.653-1.747c0-1.469-1.195-2.662-2.661-2.662
				c-1.469,0-2.662,1.195-2.662,2.662c0,1.469,1.196,2.663,2.662,2.663c0.665,0,1.274-0.249,1.743-0.657l1.519,1.52
				c0.033,0.035,0.083,0.057,0.128,0.057c0.051,0,0.098-0.018,0.132-0.057C172.029,71.755,172.029,71.635,171.956,71.565z
				 M166.144,68.302c0-1.261,1.026-2.287,2.291-2.287c1.259,0,2.284,1.028,2.284,2.287c0,1.262-1.025,2.289-2.284,2.289
				C167.17,70.591,166.144,69.565,166.144,68.302z"/>
		</g>
		<path fill="#FFFFFF" d="M156.965,66.495c0,0.803-0.467,1.453-1.044,1.453h-23.467c-0.576,0-1.044-0.65-1.044-1.453l0,0
			c0-0.802,0.468-1.452,1.044-1.452h23.467C156.498,65.043,156.965,65.693,156.965,66.495L156.965,66.495z"/>
		<path fill="#FFFFFF" d="M153.79,71.145c0,0.703-0.409,1.272-0.914,1.272h-20.552c-0.504,0-0.914-0.569-0.914-1.272l0,0
			c0-0.702,0.41-1.272,0.914-1.272h20.552C153.381,69.872,153.79,70.442,153.79,71.145L153.79,71.145z"/>
	</g>
	<path fill="#010101" d="M140.671,78.539h-0.022c-0.42,0-0.772,0.356-0.772,0.816v0.636c0,0.127-0.104,0.229-0.23,0.229
		c-0.126,0-0.229-0.103-0.229-0.229v-1.175c0-0.459-0.334-0.832-0.754-0.832c-0.422,0-0.756,0.373-0.756,0.832v1.244
		c0,0.128-0.103,0.23-0.229,0.23c-0.128,0-0.23-0.103-0.23-0.23v-1.586c0-0.459-0.346-0.821-0.767-0.821h-0.022
		c-0.409,0-0.752,0.344-0.752,0.786v1.787c0,0.127-0.104,0.229-0.229,0.229c-0.127,0-0.229-0.103-0.229-0.229v-1.735
		c0-0.005-0.001-0.011-0.001-0.017c0-0.015,0.001-0.028,0.001-0.042v-4.057c0-0.459-0.347-0.832-0.767-0.832
		s-0.766,0.373-0.766,0.832l-0.005,6.726c0,0.097-0.062,0.184-0.152,0.216c-0.091,0.033-0.193,0.006-0.255-0.07l-0.803-0.978
		c-0.212-0.265-0.524-0.431-0.863-0.456c-0.331-0.022-0.657,0.096-0.898,0.323c-0.003,0.002-0.006,0.005-0.009,0.008l-0.158,0.131
		l2.784,5.352c0.44,0.844,1.271,1.373,2.17,1.373h3.218c1.37,0,2.485-1.205,2.487-2.682c0.001-0.781,0.001-1.368,0.002-1.84
		c0.001-1.263,0.002-1.727-0.001-3.118C141.432,78.903,141.09,78.539,140.671,78.539z"/>
	<path fill="#010101" d="M132.593,74.456c0.127,0,0.229-0.102,0.229-0.229c-0.002-0.664,0.35-1.277,0.924-1.609s1.281-0.332,1.855,0
		c0.573,0.332,0.926,0.945,0.923,1.609c0,0.127,0.104,0.229,0.229,0.229c0.127,0,0.229-0.102,0.229-0.229
		c0.004-0.828-0.437-1.594-1.152-2.008c-0.716-0.415-1.599-0.415-2.314,0c-0.716,0.414-1.156,1.18-1.153,2.008
		C132.363,74.354,132.467,74.456,132.593,74.456z"/>
</g>
<g id="template_2" display="none">
	<g display="inline">
		<g id="image_thumb_6_">
			<rect x="9.76" y="27.005" fill="#D3D3D3" width="48.979" height="48.978"/>
			<g opacity="0.2">
				<path fill="#010101" d="M42.949,44.349H25.551c-0.17,0-0.31,0.139-0.31,0.312v13.669c0,0.173,0.14,0.312,0.31,0.312h17.398
					c0.171,0,0.311-0.139,0.311-0.312V44.66C43.26,44.487,43.121,44.349,42.949,44.349z M42.638,58.019H25.862V44.971h16.776V58.019
					z"/>
				<path fill="#010101" d="M30.211,51.228c0.955,0,1.73-0.776,1.73-1.729c0-0.955-0.776-1.731-1.73-1.731
					c-0.953,0-1.73,0.776-1.73,1.73S29.258,51.228,30.211,51.228z M30.211,48.388c0.612,0,1.109,0.498,1.109,1.109
					c0,0.611-0.497,1.109-1.109,1.109c-0.611,0-1.109-0.498-1.109-1.108C29.102,48.886,29.6,48.388,30.211,48.388z"/>
				<path fill="#010101" d="M27.416,56.777c0.072,0,0.145-0.026,0.204-0.078l5.068-4.462l3.2,3.201c0.122,0.121,0.317,0.121,0.439,0
					c0.122-0.122,0.122-0.318,0-0.439l-1.493-1.493l2.852-3.125l3.499,3.207c0.127,0.116,0.323,0.108,0.44-0.02
					c0.115-0.125,0.106-0.323-0.021-0.438l-3.728-3.418c-0.06-0.056-0.142-0.083-0.224-0.081c-0.083,0.003-0.161,0.04-0.216,0.101
					l-3.043,3.333l-1.473-1.473c-0.116-0.117-0.302-0.123-0.425-0.015l-5.288,4.655c-0.128,0.114-0.141,0.311-0.027,0.44
					C27.243,56.741,27.329,56.777,27.416,56.777z"/>
			</g>
		</g>
	</g>
	<g display="inline">
		<g id="image_thumb_5_">
			<rect x="68.76" y="27.005" fill="#D3D3D3" width="48.98" height="48.978"/>
			<g opacity="0.2">
				<path fill="#010101" d="M101.949,44.349H84.551c-0.17,0-0.31,0.139-0.31,0.312v13.669c0,0.173,0.14,0.312,0.31,0.312h17.398
					c0.172,0,0.311-0.139,0.311-0.312V44.66C102.26,44.487,102.121,44.349,101.949,44.349z M101.639,58.019H84.862V44.971h16.777
					V58.019z"/>
				<path fill="#010101" d="M89.211,51.228c0.955,0,1.73-0.776,1.73-1.729c0-0.955-0.776-1.731-1.73-1.731
					c-0.953,0-1.73,0.776-1.73,1.73S88.258,51.228,89.211,51.228z M89.211,48.388c0.612,0,1.109,0.498,1.109,1.109
					c0,0.611-0.497,1.109-1.109,1.109c-0.611,0-1.109-0.498-1.109-1.108C88.102,48.886,88.6,48.388,89.211,48.388z"/>
				<path fill="#010101" d="M86.416,56.777c0.072,0,0.145-0.026,0.204-0.078l5.068-4.462l3.2,3.201c0.122,0.121,0.317,0.121,0.439,0
					c0.121-0.122,0.121-0.318,0-0.439l-1.493-1.493l2.853-3.125l3.498,3.207c0.127,0.116,0.323,0.108,0.439-0.02
					c0.115-0.125,0.107-0.323-0.02-0.438l-3.729-3.418c-0.06-0.056-0.141-0.083-0.223-0.081c-0.083,0.003-0.161,0.04-0.217,0.101
					l-3.043,3.333l-1.473-1.473c-0.116-0.117-0.303-0.123-0.425-0.015l-5.288,4.655c-0.128,0.114-0.141,0.311-0.027,0.44
					C86.243,56.741,86.329,56.777,86.416,56.777z"/>
			</g>
		</g>
	</g>
	<g display="inline">
		<g id="image_thumb_4_">
			<rect x="127.76" y="27.005" fill="#D3D3D3" width="48.98" height="48.978"/>
			<g opacity="0.2">
				<path fill="#010101" d="M160.949,44.349h-17.398c-0.17,0-0.311,0.139-0.311,0.312v13.669c0,0.173,0.141,0.312,0.311,0.312
					h17.398c0.172,0,0.311-0.139,0.311-0.312V44.66C161.26,44.487,161.121,44.349,160.949,44.349z M160.639,58.019h-16.777V44.971
					h16.777V58.019z"/>
				<path fill="#010101" d="M148.211,51.228c0.955,0,1.73-0.776,1.73-1.729c0-0.955-0.775-1.731-1.73-1.731
					c-0.953,0-1.73,0.776-1.73,1.73S147.258,51.228,148.211,51.228z M148.211,48.388c0.611,0,1.109,0.498,1.109,1.109
					c0,0.611-0.498,1.109-1.109,1.109s-1.109-0.498-1.109-1.108C147.102,48.886,147.6,48.388,148.211,48.388z"/>
				<path fill="#010101" d="M145.416,56.777c0.072,0,0.145-0.026,0.204-0.078l5.068-4.462l3.2,3.201
					c0.122,0.121,0.317,0.121,0.439,0c0.121-0.122,0.121-0.318,0-0.439l-1.493-1.493l2.853-3.125l3.498,3.207
					c0.127,0.116,0.323,0.108,0.439-0.02c0.115-0.125,0.107-0.323-0.02-0.438l-3.729-3.418c-0.06-0.056-0.141-0.083-0.223-0.081
					c-0.083,0.003-0.161,0.04-0.217,0.101l-3.043,3.333l-1.473-1.473c-0.116-0.117-0.303-0.123-0.425-0.015l-5.288,4.655
					c-0.128,0.114-0.141,0.311-0.026,0.44C145.243,56.741,145.328,56.777,145.416,56.777z"/>
			</g>
		</g>
		<rect x="127.49" y="26.51" opacity="0.5" fill="#010101" width="49.25" height="49.473"/>
		<g>
			<path fill="#FFFFFF" d="M155.956,63.565l-1.514-1.517c0.405-0.468,0.653-1.08,0.653-1.747c0-1.468-1.195-2.662-2.661-2.662
				c-1.469,0-2.662,1.196-2.662,2.662c0,1.468,1.196,2.663,2.662,2.663c0.665,0,1.274-0.249,1.743-0.657l1.519,1.52
				c0.033,0.035,0.083,0.056,0.128,0.056c0.051,0,0.098-0.018,0.132-0.056C156.029,63.755,156.029,63.635,155.956,63.565z
				 M150.144,60.302c0-1.261,1.026-2.287,2.291-2.287c1.259,0,2.284,1.028,2.284,2.287c0,1.261-1.025,2.29-2.284,2.29
				C151.17,62.591,150.144,61.565,150.144,60.302z"/>
		</g>
		<path fill="#FFFFFF" d="M169.965,46.495c0,0.802-0.649,1.453-1.452,1.453h-32.649c-0.802,0-1.453-0.651-1.453-1.453l0,0
			c0-0.802,0.651-1.452,1.453-1.452h32.649C169.315,45.043,169.965,45.693,169.965,46.495L169.965,46.495z"/>
		<path fill="#FFFFFF" d="M167.757,51.145c0,0.703-0.569,1.272-1.272,1.272h-28.593c-0.702,0-1.272-0.569-1.272-1.272l0,0
			c0-0.703,0.57-1.272,1.272-1.272h28.593C167.188,49.872,167.757,50.442,167.757,51.145L167.757,51.145z"/>
	</g>
	<path display="inline" fill="#010101" d="M140.671,78.539h-0.022c-0.42,0-0.772,0.356-0.772,0.816v0.636
		c0,0.127-0.104,0.229-0.23,0.229c-0.126,0-0.229-0.103-0.229-0.229v-1.175c0-0.459-0.334-0.832-0.754-0.832
		c-0.422,0-0.756,0.373-0.756,0.832v1.244c0,0.128-0.103,0.23-0.229,0.23c-0.128,0-0.23-0.103-0.23-0.23v-1.586
		c0-0.459-0.346-0.821-0.767-0.821h-0.022c-0.409,0-0.752,0.344-0.752,0.786v1.787c0,0.127-0.104,0.229-0.229,0.229
		c-0.127,0-0.229-0.103-0.229-0.229v-1.735c0-0.005-0.001-0.011-0.001-0.017c0-0.015,0.001-0.028,0.001-0.042v-4.057
		c0-0.459-0.347-0.832-0.767-0.832s-0.766,0.373-0.766,0.832l-0.005,6.726c0,0.097-0.062,0.184-0.152,0.216
		c-0.091,0.033-0.193,0.006-0.255-0.07l-0.803-0.978c-0.212-0.265-0.524-0.431-0.863-0.456c-0.331-0.022-0.657,0.096-0.898,0.323
		c-0.003,0.002-0.006,0.005-0.009,0.008l-0.158,0.131l2.784,5.352c0.44,0.844,1.271,1.373,2.17,1.373h3.218
		c1.37,0,2.485-1.205,2.487-2.682c0.001-0.781,0.001-1.368,0.002-1.84c0.001-1.263,0.002-1.727-0.001-3.118
		C141.432,78.903,141.09,78.539,140.671,78.539z"/>
	<path display="inline" fill="#010101" d="M132.593,74.456c0.127,0,0.229-0.102,0.229-0.229c-0.002-0.664,0.35-1.277,0.924-1.609
		s1.281-0.332,1.855,0c0.573,0.332,0.926,0.945,0.923,1.609c0,0.127,0.104,0.229,0.229,0.229c0.127,0,0.229-0.102,0.229-0.229
		c0.004-0.828-0.437-1.594-1.152-2.008c-0.716-0.415-1.599-0.415-2.314,0c-0.716,0.414-1.156,1.18-1.153,2.008
		C132.363,74.354,132.467,74.456,132.593,74.456z"/>
</g>
<g id="template_1" display="none">
	<g display="inline">
		<g opacity="0.1">
			<path fill="#010101" d="M58.821,77.779l-1.628-1.631c0.436-0.504,0.702-1.161,0.702-1.879c0-1.579-1.286-2.863-2.863-2.863
				c-1.579,0-2.862,1.286-2.862,2.863c0,1.579,1.286,2.864,2.862,2.864c0.717,0,1.373-0.268,1.876-0.706l1.631,1.634
				c0.038,0.038,0.09,0.061,0.139,0.061c0.054,0,0.106-0.02,0.142-0.061C58.901,77.983,58.901,77.854,58.821,77.779z M52.57,74.27
				c0-1.356,1.104-2.46,2.463-2.46c1.354,0,2.458,1.105,2.458,2.46c0,1.356-1.104,2.463-2.458,2.463
				C53.674,76.732,52.57,75.628,52.57,74.27z"/>
		</g>
		<path opacity="0.1" fill="#010101" d="M48,72.327c0,0.862-0.7,1.563-1.563,1.563H11.323c-0.863,0-1.563-0.7-1.563-1.563l0,0
			c0-0.863,0.7-1.563,1.563-1.563h35.115C47.3,70.765,48,71.464,48,72.327L48,72.327z"/>
		<path opacity="0.1" fill="#010101" d="M43.625,77.327c0,0.756-0.613,1.368-1.369,1.368H11.504c-0.756,0-1.369-0.612-1.369-1.368
			l0,0c0-0.756,0.613-1.369,1.369-1.369h30.752C43.012,75.958,43.625,76.571,43.625,77.327L43.625,77.327z"/>
		<g id="image_thumb_3_">
			<rect x="9.76" y="18.005" fill="#D3D3D3" width="48.979" height="48.978"/>
			<g opacity="0.2">
				<path fill="#010101" d="M42.949,35.349H25.551c-0.17,0-0.31,0.139-0.31,0.312v13.669c0,0.173,0.14,0.312,0.31,0.312h17.398
					c0.171,0,0.311-0.139,0.311-0.312V35.66C43.26,35.487,43.121,35.349,42.949,35.349z M42.638,49.019H25.862V35.971h16.776V49.019
					z"/>
				<path fill="#010101" d="M30.211,42.228c0.955,0,1.73-0.776,1.73-1.729c0-0.955-0.776-1.731-1.73-1.731
					c-0.953,0-1.73,0.776-1.73,1.73S29.258,42.228,30.211,42.228z M30.211,39.388c0.612,0,1.109,0.498,1.109,1.109
					c0,0.611-0.497,1.109-1.109,1.109c-0.611,0-1.109-0.498-1.109-1.108C29.102,39.886,29.6,39.388,30.211,39.388z"/>
				<path fill="#010101" d="M27.416,47.777c0.072,0,0.145-0.026,0.204-0.078l5.068-4.462l3.2,3.201c0.122,0.121,0.317,0.121,0.439,0
					c0.122-0.122,0.122-0.318,0-0.439l-1.493-1.493l2.852-3.125l3.499,3.207c0.127,0.116,0.323,0.108,0.44-0.02
					c0.115-0.125,0.106-0.323-0.021-0.438l-3.728-3.418c-0.06-0.056-0.142-0.083-0.224-0.081c-0.083,0.003-0.161,0.04-0.216,0.101
					l-3.043,3.333l-1.473-1.473c-0.116-0.117-0.302-0.123-0.425-0.015l-5.288,4.655c-0.128,0.114-0.141,0.311-0.027,0.44
					C27.243,47.741,27.329,47.777,27.416,47.777z"/>
			</g>
		</g>
	</g>
	<g display="inline">
		<g opacity="0.1">
			<path fill="#010101" d="M117.821,77.779l-1.628-1.631c0.436-0.504,0.702-1.161,0.702-1.879c0-1.579-1.286-2.863-2.862-2.863
				c-1.579,0-2.862,1.286-2.862,2.863c0,1.579,1.286,2.864,2.862,2.864c0.717,0,1.372-0.268,1.876-0.706l1.632,1.634
				c0.037,0.038,0.09,0.061,0.139,0.061c0.054,0,0.105-0.02,0.142-0.061C117.9,77.983,117.9,77.854,117.821,77.779z M111.57,74.27
				c0-1.356,1.104-2.46,2.463-2.46c1.354,0,2.458,1.105,2.458,2.46c0,1.356-1.104,2.463-2.458,2.463
				C112.674,76.732,111.57,75.628,111.57,74.27z"/>
		</g>
		<path opacity="0.1" fill="#010101" d="M107,72.327c0,0.862-0.699,1.563-1.563,1.563H70.323c-0.863,0-1.563-0.7-1.563-1.563l0,0
			c0-0.863,0.7-1.563,1.563-1.563h35.115C106.301,70.765,107,71.464,107,72.327L107,72.327z"/>
		<path opacity="0.1" fill="#010101" d="M102.625,77.327c0,0.756-0.613,1.368-1.369,1.368H70.504c-0.756,0-1.369-0.612-1.369-1.368
			l0,0c0-0.756,0.613-1.369,1.369-1.369h30.752C102.012,75.958,102.625,76.571,102.625,77.327L102.625,77.327z"/>
		<g id="image_thumb_2_">
			<rect x="68.76" y="18.005" fill="#D3D3D3" width="48.98" height="48.978"/>
			<g opacity="0.2">
				<path fill="#010101" d="M101.949,35.349H84.551c-0.17,0-0.31,0.139-0.31,0.312v13.669c0,0.173,0.14,0.312,0.31,0.312h17.398
					c0.172,0,0.311-0.139,0.311-0.312V35.66C102.26,35.487,102.121,35.349,101.949,35.349z M101.639,49.019H84.862V35.971h16.777
					V49.019z"/>
				<path fill="#010101" d="M89.211,42.228c0.955,0,1.73-0.776,1.73-1.729c0-0.955-0.776-1.731-1.73-1.731
					c-0.953,0-1.73,0.776-1.73,1.73S88.258,42.228,89.211,42.228z M89.211,39.388c0.612,0,1.109,0.498,1.109,1.109
					c0,0.611-0.497,1.109-1.109,1.109c-0.611,0-1.109-0.498-1.109-1.108C88.102,39.886,88.6,39.388,89.211,39.388z"/>
				<path fill="#010101" d="M86.416,47.777c0.072,0,0.145-0.026,0.204-0.078l5.068-4.462l3.2,3.201c0.122,0.121,0.317,0.121,0.439,0
					c0.121-0.122,0.121-0.318,0-0.439l-1.493-1.493l2.853-3.125l3.498,3.207c0.127,0.116,0.323,0.108,0.439-0.02
					c0.115-0.125,0.107-0.323-0.02-0.438l-3.729-3.418c-0.06-0.056-0.141-0.083-0.223-0.081c-0.083,0.003-0.161,0.04-0.217,0.101
					l-3.043,3.333l-1.473-1.473c-0.116-0.117-0.303-0.123-0.425-0.015l-5.288,4.655c-0.128,0.114-0.141,0.311-0.027,0.44
					C86.243,47.741,86.329,47.777,86.416,47.777z"/>
			</g>
		</g>
	</g>
	<g display="inline">
		<g opacity="0.1">
			<path fill="#010101" d="M176.821,77.779l-1.628-1.631c0.436-0.504,0.702-1.161,0.702-1.879c0-1.579-1.286-2.863-2.862-2.863
				c-1.579,0-2.862,1.286-2.862,2.863c0,1.579,1.286,2.864,2.862,2.864c0.717,0,1.372-0.268,1.876-0.706l1.632,1.634
				c0.037,0.038,0.09,0.061,0.139,0.061c0.054,0,0.105-0.02,0.142-0.061C176.9,77.983,176.9,77.854,176.821,77.779z M170.57,74.27
				c0-1.356,1.104-2.46,2.463-2.46c1.354,0,2.458,1.105,2.458,2.46c0,1.356-1.104,2.463-2.458,2.463
				C171.674,76.732,170.57,75.628,170.57,74.27z"/>
		</g>
		<path opacity="0.1" fill="#010101" d="M166,72.327c0,0.862-0.699,1.563-1.563,1.563h-35.115c-0.862,0-1.563-0.7-1.563-1.563l0,0
			c0-0.863,0.7-1.563,1.563-1.563h35.115C165.301,70.765,166,71.464,166,72.327L166,72.327z"/>
		<path opacity="0.1" fill="#010101" d="M161.625,77.327c0,0.756-0.613,1.368-1.369,1.368h-30.752c-0.756,0-1.369-0.612-1.369-1.368
			l0,0c0-0.756,0.613-1.369,1.369-1.369h30.752C161.012,75.958,161.625,76.571,161.625,77.327L161.625,77.327z"/>
		<g id="image_thumb_1_">
			<rect x="127.76" y="18.005" fill="#D3D3D3" width="48.98" height="48.978"/>
			<g opacity="0.2">
				<path fill="#010101" d="M160.949,35.349h-17.398c-0.17,0-0.311,0.139-0.311,0.312v13.669c0,0.173,0.141,0.312,0.311,0.312
					h17.398c0.172,0,0.311-0.139,0.311-0.312V35.66C161.26,35.487,161.121,35.349,160.949,35.349z M160.639,49.019h-16.777V35.971
					h16.777V49.019z"/>
				<path fill="#010101" d="M148.211,42.228c0.955,0,1.73-0.776,1.73-1.729c0-0.955-0.775-1.731-1.73-1.731
					c-0.953,0-1.73,0.776-1.73,1.73S147.258,42.228,148.211,42.228z M148.211,39.388c0.611,0,1.109,0.498,1.109,1.109
					c0,0.611-0.498,1.109-1.109,1.109s-1.109-0.498-1.109-1.108C147.102,39.886,147.6,39.388,148.211,39.388z"/>
				<path fill="#010101" d="M145.416,47.777c0.072,0,0.145-0.026,0.204-0.078l5.068-4.462l3.2,3.201
					c0.122,0.121,0.317,0.121,0.439,0c0.121-0.122,0.121-0.318,0-0.439l-1.493-1.493l2.853-3.125l3.498,3.207
					c0.127,0.116,0.323,0.108,0.439-0.02c0.115-0.125,0.107-0.323-0.02-0.438l-3.729-3.418c-0.06-0.056-0.141-0.083-0.223-0.081
					c-0.083,0.003-0.161,0.04-0.217,0.101l-3.043,3.333l-1.473-1.473c-0.116-0.117-0.303-0.123-0.425-0.015l-5.288,4.655
					c-0.128,0.114-0.141,0.311-0.026,0.44C145.243,47.741,145.328,47.777,145.416,47.777z"/>
			</g>
		</g>
	</g>
</g>
<g id="Layer_8">
	<path fill="#CCCCCC" d="M60.88,10.25c0,0.69-0.56,1.25-1.25,1.25H43.385c-0.69,0-1.25-0.56-1.25-1.25l0,0
		c0-0.69,0.56-1.25,1.25-1.25H59.63C60.32,9,60.88,9.56,60.88,10.25L60.88,10.25z"/>
	<path fill="#CCCCCC" d="M87.526,10.25c0,0.69-0.56,1.25-1.25,1.25H70.031c-0.69,0-1.25-0.56-1.25-1.25l0,0
		c0-0.69,0.56-1.25,1.25-1.25h16.245C86.966,9,87.526,9.56,87.526,10.25L87.526,10.25z"/>
	<path fill="#CCCCCC" d="M114.025,10.25c0,0.69-0.559,1.25-1.25,1.25H96.531c-0.69,0-1.25-0.56-1.25-1.25l0,0
		c0-0.69,0.56-1.25,1.25-1.25h16.244C113.467,9,114.025,9.56,114.025,10.25L114.025,10.25z"/>
	<path fill="#CCCCCC" d="M143.633,10.25c0,0.69-0.561,1.25-1.25,1.25h-16.245c-0.69,0-1.25-0.56-1.25-1.25l0,0
		c0-0.69,0.56-1.25,1.25-1.25h16.245C143.072,9,143.633,9.56,143.633,10.25L143.633,10.25z"/>
	<rect x="282.75" fill="#CCCCCC" width="43.625" height="55.25"/>
</g>
</svg>
