<?xml version="1.0" encoding="utf-8"?>
<!-- Generator: Adobe Illustrator 16.0.0, SVG Export Plug-In . SVG Version: 6.00 Build 0)  -->
<!DOCTYPE svg PUBLIC "-//W3C//DTD SVG 1.1//EN" "http://www.w3.org/Graphics/SVG/1.1/DTD/svg11.dtd">
<svg version="1.1" xmlns="http://www.w3.org/2000/svg" xmlns:xlink="http://www.w3.org/1999/xlink" x="0px" y="0px" width="185px"
	 height="89px" viewBox="0 0 185 89" enable-background="new 0 0 185 89" xml:space="preserve">
<g id="template_9">
	<rect fill="#E8E8E8" width="185" height="89"/>
	<rect x="102.293" y="10.833" fill="#D3D3D3" width="68.168" height="68.167"/>
	<g opacity="0.2">
		<path fill="#010101" d="M148.484,34.972H124.27c-0.238,0-0.432,0.193-0.432,0.433v19.024c0,0.24,0.193,0.433,0.432,0.433h24.215
			c0.238,0,0.432-0.193,0.432-0.433V35.405C148.916,35.165,148.723,34.972,148.484,34.972z M148.051,53.997h-23.348V35.837h23.348
			V53.997z"/>
		<path fill="#010101" d="M130.756,44.544c1.328,0,2.408-1.081,2.408-2.407c0-1.329-1.08-2.409-2.408-2.409
			c-1.327,0-2.408,1.08-2.408,2.408S129.429,44.544,130.756,44.544z M130.756,40.593c0.852,0,1.543,0.692,1.543,1.543
			s-0.691,1.543-1.543,1.543c-0.851,0-1.543-0.692-1.543-1.542C129.213,41.287,129.905,40.593,130.756,40.593z"/>
		<path fill="#010101" d="M126.865,52.268c0.101,0,0.203-0.036,0.285-0.107l7.053-6.21l4.455,4.454c0.169,0.169,0.441,0.169,0.611,0
			c0.169-0.169,0.169-0.442,0-0.611l-2.078-2.078l3.969-4.348l4.869,4.464c0.176,0.161,0.45,0.149,0.611-0.027
			c0.161-0.176,0.149-0.45-0.027-0.611l-5.188-4.756c-0.085-0.077-0.198-0.115-0.312-0.113c-0.114,0.005-0.224,0.056-0.301,0.141
			l-4.235,4.638l-2.05-2.051c-0.161-0.162-0.421-0.17-0.592-0.019l-7.357,6.478c-0.18,0.158-0.196,0.432-0.038,0.611
			C126.625,52.219,126.744,52.268,126.865,52.268z"/>
	</g>
	<path opacity="0.2" fill="#9F9E9E" d="M30.813,32.252c0,0.586,0.475,1.061,1.061,1.061h56.861c0.584,0,1.06-0.475,1.06-1.061l0,0
		c0-0.585-0.476-1.06-1.06-1.06H31.873C31.287,31.192,30.813,31.667,30.813,32.252L30.813,32.252z"/>
	<path opacity="0.2" fill="#9F9E9E" d="M20.166,39.348c0,0.599,0.484,1.083,1.082,1.083h67.463c0.598,0,1.083-0.485,1.083-1.083l0,0
		c0-0.599-0.485-1.084-1.083-1.084H21.248C20.65,38.264,20.166,38.749,20.166,39.348L20.166,39.348z"/>
	<path opacity="0.2" fill="#9F9E9E" d="M31.895,17.244c0,0.977,0.793,1.769,1.77,1.769h53.408c0.977,0,1.77-0.792,1.77-1.769v-3.006
		c0-0.977-0.793-1.769-1.77-1.769H33.664c-0.977,0-1.77,0.792-1.77,1.769V17.244z"/>
	<path opacity="0.2" fill="#9F9E9E" d="M57.127,72.75c0,3.176,2.574,5.75,5.75,5.75h21.167c3.176,0,5.75-2.574,5.75-5.75l0,0
		c0-3.176-2.574-5.75-5.75-5.75H62.877C59.701,67,57.127,69.574,57.127,72.75L57.127,72.75z"/>
	
		<text transform="matrix(0.9971 0 0 1 71.1396 52.7109)" opacity="0.4" fill="#9F9E9E" font-family="'MyriadPro-Bold'" font-size="4.0115">$</text>
	
		<text transform="matrix(-0.9971 0 0 1 87.8003 58.7749)" opacity="0.4" fill="#9F9E9E" font-family="'MongolianBaiti'" font-size="12">00</text>
</g>
<g id="template_8" display="none">
	<rect display="inline" fill="#E8E8E8" width="185" height="89"/>
	<rect x="10.167" y="10.833" display="inline" fill="#D3D3D3" width="68.167" height="68.167"/>
	<g display="inline" opacity="0.2">
		<path fill="#010101" d="M56.357,34.972H32.143c-0.238,0-0.432,0.193-0.432,0.433v19.024c0,0.24,0.194,0.433,0.432,0.433h24.214
			c0.239,0,0.433-0.193,0.433-0.433V35.405C56.79,35.165,56.596,34.972,56.357,34.972z M55.924,53.997H32.576V35.837h23.349V53.997z
			"/>
		<path fill="#010101" d="M38.629,44.544c1.328,0,2.409-1.081,2.409-2.407c0-1.329-1.081-2.409-2.409-2.409
			c-1.327,0-2.408,1.08-2.408,2.408S37.302,44.544,38.629,44.544z M38.629,40.593c0.851,0,1.543,0.692,1.543,1.543
			s-0.692,1.543-1.543,1.543c-0.851,0-1.543-0.692-1.543-1.542C37.085,41.287,37.778,40.593,38.629,40.593z"/>
		<path fill="#010101" d="M34.738,52.268c0.101,0,0.203-0.036,0.285-0.107l7.053-6.21l4.455,4.454c0.169,0.169,0.442,0.169,0.611,0
			c0.169-0.169,0.169-0.442,0-0.611l-2.078-2.078l3.97-4.348l4.869,4.464c0.176,0.161,0.45,0.149,0.611-0.027
			c0.161-0.176,0.149-0.45-0.027-0.611l-5.188-4.756c-0.084-0.077-0.198-0.115-0.311-0.113c-0.115,0.005-0.223,0.056-0.301,0.141
			l-4.235,4.638l-2.05-2.051c-0.162-0.162-0.421-0.17-0.592-0.019l-7.357,6.478c-0.18,0.158-0.197,0.432-0.039,0.611
			C34.499,52.219,34.618,52.268,34.738,52.268z"/>
	</g>
	<path display="inline" opacity="0.2" fill="#9F9E9E" d="M149.814,32.252c0,0.586-0.475,1.061-1.061,1.061H91.893
		c-0.584,0-1.06-0.475-1.06-1.061l0,0c0-0.585,0.476-1.06,1.06-1.06h56.861C149.34,31.192,149.814,31.667,149.814,32.252
		L149.814,32.252z"/>
	<path display="inline" opacity="0.2" fill="#9F9E9E" d="M160.461,39.348c0,0.599-0.484,1.083-1.082,1.083H91.916
		c-0.598,0-1.083-0.485-1.083-1.083l0,0c0-0.599,0.485-1.084,1.083-1.084h67.463C159.977,38.264,160.461,38.749,160.461,39.348
		L160.461,39.348z"/>
	<path display="inline" opacity="0.2" fill="#9F9E9E" d="M148.732,17.244c0,0.977-0.793,1.769-1.77,1.769H93.555
		c-0.977,0-1.77-0.792-1.77-1.769v-3.006c0-0.977,0.793-1.769,1.77-1.769h53.408c0.977,0,1.77,0.792,1.77,1.769V17.244z"/>
	<path display="inline" opacity="0.2" fill="#9F9E9E" d="M123.5,72.75c0,3.176-2.574,5.75-5.75,5.75H96.583
		c-3.176,0-5.75-2.574-5.75-5.75l0,0c0-3.176,2.574-5.75,5.75-5.75h21.167C120.926,67,123.5,69.574,123.5,72.75L123.5,72.75z"/>
	
		<text transform="matrix(0.9971 0 0 1 91.4873 50.7109)" display="inline" opacity="0.4" fill="#9F9E9E" font-family="'MyriadPro-Bold'" font-size="4.0115">$</text>
	
		<text transform="matrix(0.9971 0 0 1 95.8262 58.7749)" display="inline" opacity="0.4" fill="#9F9E9E" font-family="'MongolianBaiti'" font-size="12">00</text>
</g>
</svg>
