<?xml version="1.0" encoding="utf-8"?>
<!-- Generator: Adobe Illustrator 16.0.0, SVG Export Plug-In . SVG Version: 6.00 Build 0)  -->
<!DOCTYPE svg PUBLIC "-//W3C//DTD SVG 1.1//EN" "http://www.w3.org/Graphics/SVG/1.1/DTD/svg11.dtd">
<svg version="1.1" id="Layer_1" xmlns="http://www.w3.org/2000/svg" xmlns:xlink="http://www.w3.org/1999/xlink" x="0px" y="0px"
	 width="141.904px" height="188.668px" viewBox="0 0 141.904 188.668" enable-background="new 0 0 141.904 188.668"
	 xml:space="preserve">
<rect fill="#E8E8E8" width="141.904" height="188.668"/>
<g id="template_3">
	<path opacity="0.2" fill="#9F9E9E" d="M114.933,118.732c0,0.752-0.606,1.359-1.355,1.359H29.16c-0.749,0-1.356-0.607-1.356-1.359
		l0,0c0-0.751,0.607-1.36,1.356-1.36h84.417C114.326,117.372,114.933,117.981,114.933,118.732L114.933,118.732z"/>
	<path opacity="0.2" fill="#9F9E9E" d="M101.139,131.975c0,0.686-0.554,1.241-1.238,1.241H42.247c-0.684,0-1.238-0.556-1.238-1.241
		l0,0c0-0.685,0.554-1.24,1.238-1.24H99.9C100.585,130.734,101.139,131.29,101.139,131.975L101.139,131.975z"/>
	<path opacity="0.2" fill="#9F9E9E" d="M108.331,145.276c0,0.719-0.581,1.302-1.298,1.302h-71.33c-0.716,0-1.296-0.583-1.296-1.302
		l0,0c0-0.718,0.58-1.301,1.296-1.301h71.33C107.75,143.976,108.331,144.559,108.331,145.276L108.331,145.276z"/>
	<path opacity="0.2" fill="#9F9E9E" d="M100.196,166.374c0,4.637-3.749,8.396-8.372,8.396H50.323c-4.624,0-8.371-3.759-8.371-8.396
		l0,0c0-4.636,3.748-8.395,8.371-8.395h41.501C96.447,157.979,100.196,161.738,100.196,166.374L100.196,166.374z"/>
	<rect fill="#C6C4C5" width="141.904" height="76.553"/>
	<g opacity="0.2">
		<path fill="#010101" d="M98.258,19.98H49.152c-0.484,0-0.877,0.392-0.877,0.877V59.44c0,0.485,0.393,0.877,0.877,0.877h49.106
			c0.484,0,0.877-0.392,0.877-0.877V20.857C99.135,20.372,98.742,19.98,98.258,19.98z M97.381,58.563H50.029v-36.83h47.352V58.563z"
			/>
		<path fill="#010101" d="M62.305,39.393c2.693,0,4.883-2.19,4.883-4.882c0-2.694-2.19-4.884-4.883-4.884s-4.883,2.19-4.883,4.883
			S59.612,39.393,62.305,39.393z M62.305,31.38c1.726,0,3.129,1.405,3.129,3.129c0,1.725-1.404,3.13-3.129,3.13
			s-3.129-1.404-3.129-3.129C59.176,32.785,60.58,31.38,62.305,31.38z"/>
		<path fill="#010101" d="M54.413,55.056c0.206,0,0.413-0.072,0.579-0.218l14.305-12.594l9.033,9.033
			c0.343,0.343,0.897,0.343,1.241,0c0.342-0.343,0.342-0.897,0-1.24l-4.216-4.215l8.05-8.816l9.875,9.052
			c0.357,0.327,0.913,0.303,1.24-0.055c0.326-0.356,0.303-0.912-0.055-1.239l-10.522-9.646c-0.173-0.157-0.401-0.235-0.632-0.229
			c-0.232,0.01-0.452,0.113-0.608,0.285l-8.589,9.406l-4.159-4.159c-0.328-0.327-0.852-0.344-1.2-0.039L53.833,53.521
			c-0.364,0.319-0.399,0.874-0.079,1.238C53.928,54.956,54.17,55.056,54.413,55.056z"/>
	</g>
	<rect x="8.917" y="7.187" fill="#545554" width="31" height="31.089"/>
	<text transform="matrix(0.9971 0 0 1 13.4873 19.7109)" fill="#FFFFFF" font-family="'MyriadPro-Bold'" font-size="4.0115">$</text>
	<text transform="matrix(0.9971 0 0 1 17.8267 27.7749)" fill="#FFFFFF" font-family="'MongolianBaiti'" font-size="16">00</text>
	<path opacity="0.2" fill="#9F9E9E" d="M99.135,98.205c0,0.98-0.793,1.774-1.77,1.774H43.957c-0.977,0-1.769-0.794-1.769-1.774
		v-3.014c0-0.98,0.792-1.774,1.769-1.774h53.408c0.977,0,1.77,0.794,1.77,1.774V98.205z"/>
</g>
<g id="template_2" display="none">
	<path display="inline" opacity="0.2" fill="#9F9E9E" d="M16.804,118.732c0,0.752,0.697,1.359,1.558,1.359h97.013
		c0.859,0,1.559-0.607,1.559-1.359l0,0c0-0.751-0.699-1.36-1.559-1.36H18.361C17.501,117.372,16.804,117.981,16.804,118.732
		L16.804,118.732z"/>
	<path display="inline" opacity="0.2" fill="#9F9E9E" d="M47.831,131.975c0,0.686,0.637,1.241,1.423,1.241h66.255
		c0.786,0,1.424-0.556,1.424-1.241l0,0c0-0.685-0.638-1.24-1.424-1.24H49.254C48.468,130.734,47.831,131.29,47.831,131.975
		L47.831,131.975z"/>
	<path display="inline" opacity="0.2" fill="#9F9E9E" d="M31.979,145.276c0,0.719,0.666,1.302,1.49,1.302h81.973
		c0.822,0,1.49-0.583,1.49-1.302l0,0c0-0.718-0.668-1.301-1.49-1.301H33.47C32.646,143.976,31.979,144.559,31.979,145.276
		L31.979,145.276z"/>
	<path display="inline" opacity="0.2" fill="#9F9E9E" d="M59.188,168.374c0,4.637,3.748,8.396,8.371,8.396h41.502
		c4.623,0,8.371-3.759,8.371-8.396l0,0c0-4.636-3.748-8.395-8.371-8.395H67.56C62.937,159.979,59.188,163.738,59.188,168.374
		L59.188,168.374z"/>
	<rect display="inline" fill="#C6C4C5" width="141.904" height="76.553"/>
	<g display="inline" opacity="0.2">
		<path fill="#010101" d="M98.258,19.98H49.152c-0.484,0-0.877,0.392-0.877,0.877V59.44c0,0.485,0.393,0.877,0.877,0.877h49.106
			c0.484,0,0.877-0.392,0.877-0.877V20.857C99.135,20.372,98.742,19.98,98.258,19.98z M97.381,58.563H50.029v-36.83h47.352V58.563z"
			/>
		<path fill="#010101" d="M62.305,39.393c2.693,0,4.883-2.19,4.883-4.882c0-2.694-2.19-4.884-4.883-4.884s-4.883,2.19-4.883,4.883
			S59.612,39.393,62.305,39.393z M62.305,31.38c1.726,0,3.129,1.405,3.129,3.129c0,1.725-1.404,3.13-3.129,3.13
			s-3.129-1.404-3.129-3.129C59.176,32.785,60.58,31.38,62.305,31.38z"/>
		<path fill="#010101" d="M54.413,55.056c0.206,0,0.413-0.072,0.579-0.218l14.305-12.594l9.033,9.033
			c0.343,0.343,0.897,0.343,1.241,0c0.342-0.343,0.342-0.897,0-1.24l-4.216-4.215l8.05-8.816l9.875,9.052
			c0.357,0.327,0.913,0.303,1.24-0.055c0.326-0.356,0.303-0.912-0.055-1.239l-10.522-9.646c-0.173-0.157-0.401-0.235-0.632-0.229
			c-0.232,0.01-0.452,0.113-0.608,0.285l-8.589,9.406l-4.159-4.159c-0.328-0.327-0.852-0.344-1.2-0.039L53.833,53.521
			c-0.364,0.319-0.399,0.874-0.079,1.238C53.928,54.956,54.17,55.056,54.413,55.056z"/>
	</g>
	<rect x="8.917" y="7.187" display="inline" fill="#545554" width="31" height="31.089"/>
	
		<text transform="matrix(0.9971 0 0 1 13.4873 19.7109)" display="inline" fill="#FFFFFF" font-family="'MyriadPro-Bold'" font-size="4.0115">$</text>
	
		<text transform="matrix(0.9971 0 0 1 17.8267 27.7749)" display="inline" fill="#FFFFFF" font-family="'MongolianBaiti'" font-size="16">00</text>
	<path display="inline" opacity="0.2" fill="#9F9E9E" d="M60.485,99.768c0,0.98,0.793,1.774,1.77,1.774h53.408
		c0.977,0,1.77-0.794,1.77-1.774v-3.014c0-0.98-0.793-1.774-1.77-1.774H62.255c-0.977,0-1.77,0.794-1.77,1.774V99.768z"/>
</g>
<g id="template_1_1_" display="none">
	<path display="inline" opacity="0.2" fill="#9F9E9E" d="M117.433,118.732c0,0.752-0.697,1.359-1.558,1.359H18.863
		c-0.86,0-1.559-0.607-1.559-1.359l0,0c0-0.751,0.698-1.36,1.559-1.36h97.012C116.735,117.372,117.433,117.981,117.433,118.732
		L117.433,118.732z"/>
	<path display="inline" opacity="0.2" fill="#9F9E9E" d="M86.405,131.975c0,0.686-0.637,1.241-1.423,1.241H18.727
		c-0.786,0-1.423-0.556-1.423-1.241l0,0c0-0.685,0.637-1.24,1.423-1.24h66.255C85.769,130.734,86.405,131.29,86.405,131.975
		L86.405,131.975z"/>
	<path display="inline" opacity="0.2" fill="#9F9E9E" d="M102.257,145.276c0,0.719-0.666,1.302-1.49,1.302H18.794
		c-0.823,0-1.49-0.583-1.49-1.302l0,0c0-0.718,0.667-1.301,1.49-1.301h81.972C101.591,143.976,102.257,144.559,102.257,145.276
		L102.257,145.276z"/>
	<path display="inline" opacity="0.2" fill="#9F9E9E" d="M75.048,168.374c0,4.637-3.748,8.396-8.371,8.396H25.175
		c-4.624,0-8.371-3.759-8.371-8.396l0,0c0-4.636,3.748-8.395,8.371-8.395h41.501C71.3,159.979,75.048,163.738,75.048,168.374
		L75.048,168.374z"/>
	<rect display="inline" fill="#C6C4C5" width="141.904" height="76.553"/>
	<g display="inline" opacity="0.2">
		<path fill="#010101" d="M98.258,19.98H49.152c-0.484,0-0.877,0.392-0.877,0.877V59.44c0,0.485,0.393,0.877,0.877,0.877h49.106
			c0.484,0,0.877-0.392,0.877-0.877V20.857C99.135,20.372,98.742,19.98,98.258,19.98z M97.381,58.563H50.029v-36.83h47.352V58.563z"
			/>
		<path fill="#010101" d="M62.305,39.393c2.693,0,4.883-2.19,4.883-4.882c0-2.694-2.19-4.884-4.883-4.884s-4.883,2.19-4.883,4.883
			S59.612,39.393,62.305,39.393z M62.305,31.38c1.726,0,3.129,1.405,3.129,3.129c0,1.725-1.404,3.13-3.129,3.13
			s-3.129-1.404-3.129-3.129C59.176,32.785,60.58,31.38,62.305,31.38z"/>
		<path fill="#010101" d="M54.413,55.056c0.206,0,0.413-0.072,0.579-0.218l14.305-12.594l9.033,9.033
			c0.343,0.343,0.897,0.343,1.241,0c0.342-0.343,0.342-0.897,0-1.24l-4.216-4.215l8.05-8.816l9.875,9.052
			c0.357,0.327,0.913,0.303,1.24-0.055c0.326-0.356,0.303-0.912-0.055-1.239l-10.522-9.646c-0.173-0.157-0.401-0.235-0.632-0.229
			c-0.232,0.01-0.452,0.113-0.608,0.285l-8.589,9.406l-4.159-4.159c-0.328-0.327-0.852-0.344-1.2-0.039L53.833,53.521
			c-0.364,0.319-0.399,0.874-0.079,1.238C53.928,54.956,54.17,55.056,54.413,55.056z"/>
	</g>
	<rect x="8.917" y="7.187" display="inline" fill="#545554" width="31" height="31.089"/>
	
		<text transform="matrix(0.9971 0 0 1 13.4873 19.7109)" display="inline" fill="#FFFFFF" font-family="'MyriadPro-Bold'" font-size="4.0115">$</text>
	
		<text transform="matrix(0.9971 0 0 1 17.8267 27.7749)" display="inline" fill="#FFFFFF" font-family="'MongolianBaiti'" font-size="16">00</text>
	<path display="inline" opacity="0.2" fill="#9F9E9E" d="M73.751,99.768c0,0.98-0.793,1.774-1.77,1.774H18.573
		c-0.977,0-1.769-0.794-1.769-1.774v-3.014c0-0.98,0.792-1.774,1.769-1.774h53.409c0.977,0,1.77,0.794,1.77,1.774V99.768z"/>
</g>
</svg>
