<?xml version="1.0" encoding="utf-8"?>
<!-- Generator: Adobe Illustrator 16.0.0, SVG Export Plug-In . SVG Version: 6.00 Build 0)  -->
<!DOCTYPE svg PUBLIC "-//W3C//DTD SVG 1.1//EN" "http://www.w3.org/Graphics/SVG/1.1/DTD/svg11.dtd">
<svg version="1.1" xmlns="http://www.w3.org/2000/svg" xmlns:xlink="http://www.w3.org/1999/xlink" x="0px" y="0px"
	 width="141.904px" height="188.668px" viewBox="0 0 141.904 188.668" enable-background="new 0 0 141.904 188.668"
	 xml:space="preserve">
<g id="Layer_1">
	<rect fill="#E8E8E8" width="141.904" height="188.668"/>
	<g id="template_3" opacity="0.2">
		<path fill="#9F9E9E" d="M104.467,98.929c0,0.668-0.542,1.21-1.21,1.21H38.379c-0.668,0-1.209-0.542-1.209-1.21l0,0
			c0-0.668,0.542-1.209,1.209-1.209h64.878C103.925,97.72,104.467,98.261,104.467,98.929L104.467,98.929z"/>
		<path fill="#9F9E9E" d="M110.809,111.588c0,0.684-0.553,1.236-1.236,1.236H32.6c-0.683,0-1.236-0.553-1.236-1.236l0,0
			c0-0.683,0.553-1.236,1.236-1.236h76.972C110.256,110.352,110.809,110.905,110.809,111.588L110.809,111.588z"/>
		<path fill="#9F9E9E" d="M98.231,123.629c0,0.623-0.506,1.129-1.129,1.129H44.533c-0.624,0-1.129-0.506-1.129-1.129l0,0
			c0-0.623,0.505-1.129,1.129-1.129h52.569C97.726,122.5,98.231,123.006,98.231,123.629L98.231,123.629z"/>
		<path fill="#9F9E9E" d="M104.789,135.723c0,0.653-0.529,1.183-1.183,1.183h-65.04c-0.653,0-1.183-0.529-1.183-1.183l0,0
			c0-0.653,0.53-1.183,1.183-1.183h65.04C104.26,134.54,104.789,135.069,104.789,135.723L104.789,135.723z"/>
		<path fill="#9F9E9E" d="M97.371,163.997c0,4.215-3.417,7.632-7.633,7.632H51.897c-4.215,0-7.633-3.417-7.633-7.632l0,0
			c0-4.216,3.417-7.633,7.633-7.633h37.841C93.954,156.364,97.371,159.781,97.371,163.997L97.371,163.997z"/>
		<polygon fill="#C6C5C4" points="141.904,43.247 0,49.021 0,0 141.904,0 		"/>
		<circle display="none" fill="#B2B3B3" cx="68.319" cy="61.491" r="20.103"/>
		<text transform="matrix(1 0 0 1 53.0264 67.5654)" font-family="'MyriadPro-Regular'" font-size="11.2878">$</text>
		<text transform="matrix(1 0 0 1 59.4497 75.0908)" font-family="'MongolianBaiti'" font-size="21.9306">00</text>
		<path fill="#9F9E9E" d="M85.6,16.072c0,0.712-0.578,1.29-1.29,1.29H56.574c-0.712,0-1.29-0.578-1.29-1.29l0,0
			c0-0.712,0.578-1.29,1.29-1.29H84.31C85.021,14.782,85.6,15.359,85.6,16.072L85.6,16.072z"/>
		<path fill="#9F9E9E" d="M96.403,25.317c0,0.891-0.722,1.612-1.612,1.612H46.092c-0.891,0-1.613-0.722-1.613-1.612v-2.741
			c0-0.891,0.722-1.613,1.613-1.613h48.699c0.891,0,1.612,0.722,1.612,1.613V25.317z"/>
	</g>
	<g id="template_2_1_" display="none" opacity="0.2">
		<path display="inline" fill="#9F9E9E" d="M104.253,98.299c0,0.664-0.538,1.201-1.202,1.201H38.586
			c-0.664,0-1.202-0.537-1.202-1.201l0,0c0-0.664,0.538-1.202,1.202-1.202h64.464C103.715,97.097,104.253,97.635,104.253,98.299
			L104.253,98.299z"/>
		<path display="inline" fill="#9F9E9E" d="M110.555,110.877c0,0.679-0.55,1.229-1.229,1.229H32.845
			c-0.678,0-1.229-0.55-1.229-1.229l0,0c0-0.678,0.55-1.229,1.229-1.229h76.481C110.005,109.648,110.555,110.199,110.555,110.877
			L110.555,110.877z"/>
		<path display="inline" fill="#9F9E9E" d="M98.058,122.841c0,0.619-0.503,1.122-1.122,1.122H44.702
			c-0.62,0-1.122-0.503-1.122-1.122l0,0c0-0.619,0.502-1.121,1.122-1.121h52.234C97.555,121.72,98.058,122.222,98.058,122.841
			L98.058,122.841z"/>
		<path display="inline" fill="#9F9E9E" d="M104.573,134.857c0,0.649-0.526,1.176-1.175,1.176H38.773
			c-0.649,0-1.175-0.526-1.175-1.176l0,0c0-0.648,0.526-1.175,1.175-1.175h64.625C104.047,133.683,104.573,134.209,104.573,134.857
			L104.573,134.857z"/>
		<path display="inline" fill="#9F9E9E" d="M97.202,162.951c0,4.188-3.396,7.584-7.584,7.584h-37.6
			c-4.189,0-7.584-3.396-7.584-7.584l0,0c0-4.188,3.395-7.584,7.584-7.584h37.6C93.807,155.367,97.202,158.763,97.202,162.951
			L97.202,162.951z"/>
		<rect x="0.452" display="inline" fill="#C6C6C5" width="141" height="61.206"/>
		<circle display="inline" fill="#A3A2A2" cx="68.335" cy="61.099" r="19.975"/>
		<text transform="matrix(1 0 0 1 53.1406 60.7256)" display="inline" font-family="'MyriadPro-Regular'" font-size="11.2159">$</text>
		<text transform="matrix(1 0 0 1 59.5234 68.2031)" display="inline" font-family="'MongolianBaiti'" font-size="21.7909">00</text>
		<path display="inline" fill="#9F9E9E" d="M85.506,15.969c0,0.708-0.573,1.282-1.281,1.282H56.666
			c-0.708,0-1.282-0.574-1.282-1.282l0,0c0-0.708,0.574-1.282,1.282-1.282h27.559C84.933,14.687,85.506,15.261,85.506,15.969
			L85.506,15.969z"/>
		<path display="inline" fill="#9F9E9E" d="M96.241,25.155c0,0.885-0.717,1.602-1.602,1.602H46.25c-0.885,0-1.602-0.717-1.602-1.602
			v-2.724c0-0.885,0.717-1.603,1.602-1.603H94.64c0.885,0,1.602,0.717,1.602,1.603V25.155z"/>
	</g>
	<g id="template_1_1_" display="none" opacity="0.2">
		<path display="inline" fill="#9F9E9E" d="M87.285,18.314c0,0.782-0.634,1.415-1.414,1.415H55.452
			c-0.781,0-1.415-0.633-1.415-1.415l0,0c0-0.781,0.634-1.415,1.415-1.415h30.419C86.651,16.899,87.285,17.533,87.285,18.314
			L87.285,18.314z"/>
		<path display="inline" fill="#9F9E9E" d="M99.135,28.454c0,0.977-0.793,1.769-1.77,1.769H43.957c-0.977,0-1.769-0.792-1.769-1.769
			v-3.006c0-0.977,0.792-1.769,1.769-1.769h53.408c0.977,0,1.77,0.792,1.77,1.769V28.454z"/>
		<path display="inline" fill="#9F9E9E" d="M107.977,95.037c0,0.733-0.594,1.327-1.326,1.327H35.498
			c-0.732,0-1.327-0.594-1.327-1.327l0,0c0-0.732,0.594-1.326,1.327-1.326h71.153C107.383,93.711,107.977,94.305,107.977,95.037
			L107.977,95.037z"/>
		<path display="inline" fill="#9F9E9E" d="M114.933,108.922c0,0.749-0.606,1.355-1.355,1.355H29.16
			c-0.749,0-1.356-0.606-1.356-1.355l0,0c0-0.749,0.607-1.356,1.356-1.356h84.417C114.326,107.565,114.933,108.173,114.933,108.922
			L114.933,108.922z"/>
		<path display="inline" fill="#9F9E9E" d="M101.139,122.126c0,0.684-0.554,1.237-1.238,1.237H42.247
			c-0.684,0-1.238-0.554-1.238-1.237l0,0c0-0.683,0.554-1.237,1.238-1.237H99.9C100.585,120.889,101.139,121.443,101.139,122.126
			L101.139,122.126z"/>
		<path display="inline" fill="#9F9E9E" d="M108.331,135.39c0,0.717-0.581,1.298-1.298,1.298h-71.33
			c-0.716,0-1.296-0.581-1.296-1.298l0,0c0-0.716,0.58-1.297,1.296-1.297h71.33C107.75,134.093,108.331,134.674,108.331,135.39
			L108.331,135.39z"/>
		<path display="inline" fill="#9F9E9E" d="M100.196,166.398c0,4.623-3.749,8.371-8.372,8.371H50.323
			c-4.624,0-8.371-3.748-8.371-8.371l0,0c0-4.623,3.748-8.371,8.371-8.371h41.501C96.447,158.027,100.196,161.775,100.196,166.398
			L100.196,166.398z"/>
		<text transform="matrix(1 0 0 1 44.4873 58.1636)" display="inline" font-family="'MyriadPro-Regular'" font-size="12.3796">$</text>
		<text transform="matrix(1 0 0 1 51.8267 74.1987)" display="inline" font-family="'MongolianBaiti'" font-size="37.1388">00</text>
	</g>
</g>
<g id="Layer_2">
</g>
</svg>
