<?xml version="1.0" encoding="utf-8"?>
<!-- Generator: Adobe Illustrator 16.0.0, SVG Export Plug-In . SVG Version: 6.00 Build 0)  -->
<!DOCTYPE svg PUBLIC "-//W3C//DTD SVG 1.1//EN" "http://www.w3.org/Graphics/SVG/1.1/DTD/svg11.dtd">
<svg version="1.1" xmlns="http://www.w3.org/2000/svg" xmlns:xlink="http://www.w3.org/1999/xlink" x="0px" y="0px"
	 width="141.904px" height="188.668px" viewBox="0 0 141.904 188.668" enable-background="new 0 0 141.904 188.668"
	 xml:space="preserve">
<g id="background">
	<rect fill="#E8E8E8" width="141.904" height="188.668"/>
</g>
<g id="template_2" display="none">
	<g id="template_1_2_" display="inline" opacity="0.2">
		<path fill="#9F9E9E" enable-background="new    " d="M85.913,169.751c0,3.176-2.574,5.75-5.75,5.75H58.996
			c-3.176,0-5.75-2.574-5.75-5.75l0,0c0-3.176,2.574-5.75,5.75-5.75h21.167C83.339,164.001,85.913,166.575,85.913,169.751
			L85.913,169.751z"/>
		<path fill="#9F9E9E" d="M87.285,105.314c0,0.781-0.634,1.414-1.414,1.414H55.452c-0.781,0-1.415-0.633-1.415-1.414l0,0
			c0-0.781,0.634-1.415,1.415-1.415h30.419C86.651,103.899,87.285,104.533,87.285,105.314L87.285,105.314z"/>
		<path fill="#9F9E9E" d="M99.135,95.453c0,0.977-0.793,1.77-1.77,1.77H43.957c-0.977,0-1.769-0.793-1.769-1.77v-3.006
			c0-0.977,0.792-1.769,1.769-1.769h53.408c0.977,0,1.77,0.792,1.77,1.769V95.453z"/>
		<path fill="#9F9E9E" d="M108.124,121.037c0,0.733-0.594,1.327-1.326,1.327H35.645c-0.732,0-1.327-0.594-1.327-1.327l0,0
			c0-0.732,0.594-1.326,1.327-1.326h71.153C107.53,119.711,108.124,120.305,108.124,121.037L108.124,121.037z"/>
		<path fill="#9F9E9E" d="M114.785,130.922c0,0.749-0.606,1.355-1.355,1.355H29.013c-0.749,0-1.356-0.606-1.356-1.355l0,0
			c0-0.749,0.607-1.356,1.356-1.356h84.417C114.179,129.565,114.785,130.173,114.785,130.922L114.785,130.922z"/>
		<path fill="#9F9E9E" d="M101.286,140.126c0,0.684-0.554,1.237-1.238,1.237H42.395c-0.684,0-1.238-0.554-1.238-1.237l0,0
			c0-0.683,0.554-1.237,1.238-1.237h57.653C100.732,138.889,101.286,139.443,101.286,140.126L101.286,140.126z"/>
		<path fill="#9F9E9E" d="M108.184,149.39c0,0.717-0.581,1.298-1.298,1.298h-71.33c-0.716,0-1.296-0.581-1.296-1.298l0,0
			c0-0.716,0.58-1.297,1.296-1.297h71.33C107.603,148.093,108.184,148.674,108.184,149.39L108.184,149.39z"/>
	</g>
	<g id="image_thumb_1_" display="inline">
		<rect x="43.877" y="15.432" fill="#D3D3D3" width="55.403" height="55.403"/>
		<g opacity="0.1">
			<path fill="#010101" d="M81.721,34.802H61.437c-0.199,0-0.362,0.162-0.362,0.362v15.938c0,0.2,0.163,0.362,0.362,0.362h20.284
				c0.201,0,0.363-0.162,0.363-0.362V35.164C82.084,34.964,81.922,34.802,81.721,34.802z M81.359,50.74h-19.56V35.526h19.56V50.74z"
				/>
			<path fill="#010101" d="M66.871,42.821c1.113,0,2.018-0.905,2.018-2.018s-0.905-2.018-2.018-2.018
				c-1.112,0-2.017,0.905-2.017,2.018S65.758,42.821,66.871,42.821z M66.871,39.511c0.713,0,1.293,0.58,1.293,1.292
				s-0.58,1.292-1.293,1.292s-1.292-0.58-1.292-1.292S66.158,39.511,66.871,39.511z"/>
			<path fill="#010101" d="M63.611,49.291c0.084,0,0.17-0.03,0.239-0.091l5.909-5.201l3.731,3.73c0.142,0.142,0.37,0.142,0.513,0
				c0.142-0.142,0.142-0.371,0-0.512l-1.741-1.741l3.325-3.642l4.079,3.739c0.146,0.135,0.376,0.125,0.512-0.022
				c0.135-0.147,0.124-0.377-0.022-0.512l-4.348-3.984c-0.07-0.065-0.165-0.098-0.261-0.095c-0.096,0.004-0.187,0.046-0.251,0.118
				l-3.547,3.885l-1.717-1.718c-0.136-0.135-0.353-0.142-0.496-0.016l-6.164,5.427c-0.151,0.132-0.165,0.36-0.033,0.511
				C63.411,49.25,63.51,49.291,63.611,49.291z"/>
		</g>
	</g>
	<g id="social_1_">
		<circle display="inline" fill="#9F9E9E" cx="54.915" cy="170.297" r="3.37"/>
		<circle display="inline" fill="#9F9E9E" cx="64.915" cy="170.297" r="3.37"/>
		<circle display="inline" fill="#9F9E9E" cx="75.916" cy="170.297" r="3.371"/>
		<circle display="inline" fill="#9F9E9E" cx="86.916" cy="170.297" r="3.371"/>
	</g>
</g>
<g id="template_1">
	<g id="template_1_3_" opacity="0.2">
		<path fill="#9F9E9E" enable-background="new    " d="M85.913,169.751c0,3.176-2.574,5.75-5.75,5.75H58.996
			c-3.176,0-5.75-2.574-5.75-5.75l0,0c0-3.176,2.574-5.75,5.75-5.75h21.167C83.339,164.001,85.913,166.575,85.913,169.751
			L85.913,169.751z"/>
		<path fill="#9F9E9E" d="M87.285,105.314c0,0.781-0.634,1.414-1.414,1.414H55.452c-0.781,0-1.415-0.633-1.415-1.414l0,0
			c0-0.781,0.634-1.415,1.415-1.415h30.419C86.651,103.899,87.285,104.533,87.285,105.314L87.285,105.314z"/>
		<path fill="#9F9E9E" d="M99.135,95.453c0,0.977-0.793,1.77-1.77,1.77H43.957c-0.977,0-1.769-0.793-1.769-1.77v-3.006
			c0-0.977,0.792-1.769,1.769-1.769h53.408c0.977,0,1.77,0.792,1.77,1.769V95.453z"/>
		<path fill="#9F9E9E" d="M108.124,121.037c0,0.733-0.594,1.327-1.326,1.327H35.645c-0.732,0-1.327-0.594-1.327-1.327l0,0
			c0-0.732,0.594-1.326,1.327-1.326h71.153C107.53,119.711,108.124,120.305,108.124,121.037L108.124,121.037z"/>
		<path fill="#9F9E9E" d="M114.785,130.922c0,0.749-0.606,1.355-1.355,1.355H29.013c-0.749,0-1.356-0.606-1.356-1.355l0,0
			c0-0.749,0.607-1.356,1.356-1.356h84.417C114.179,129.565,114.785,130.173,114.785,130.922L114.785,130.922z"/>
		<path fill="#9F9E9E" d="M101.286,140.126c0,0.684-0.554,1.237-1.238,1.237H42.395c-0.684,0-1.238-0.554-1.238-1.237l0,0
			c0-0.683,0.554-1.237,1.238-1.237h57.653C100.732,138.889,101.286,139.443,101.286,140.126L101.286,140.126z"/>
		<path fill="#9F9E9E" d="M108.184,149.39c0,0.717-0.581,1.298-1.298,1.298h-71.33c-0.716,0-1.296-0.581-1.296-1.298l0,0
			c0-0.716,0.58-1.297,1.296-1.297h71.33C107.603,148.093,108.184,148.674,108.184,149.39L108.184,149.39z"/>
	</g>
	<g id="image_thumb">
		<rect y="-0.073" fill="#D3D3D3" width="141.904" height="73.907"/>
		<g opacity="0.1">
			<path fill="#010101" d="M81.721,30.802H61.437c-0.199,0-0.362,0.162-0.362,0.362v15.938c0,0.2,0.163,0.362,0.362,0.362h20.284
				c0.201,0,0.363-0.162,0.363-0.362V31.164C82.084,30.964,81.922,30.802,81.721,30.802z M81.359,46.74h-19.56V31.526h19.56V46.74z"
				/>
			<path fill="#010101" d="M66.871,38.821c1.113,0,2.018-0.905,2.018-2.018s-0.905-2.018-2.018-2.018
				c-1.112,0-2.017,0.905-2.017,2.018S65.758,38.821,66.871,38.821z M66.871,35.511c0.713,0,1.293,0.58,1.293,1.292
				s-0.58,1.292-1.293,1.292s-1.292-0.58-1.292-1.292S66.158,35.511,66.871,35.511z"/>
			<path fill="#010101" d="M63.611,45.291c0.084,0,0.17-0.03,0.239-0.091l5.909-5.201l3.731,3.73c0.142,0.142,0.37,0.142,0.513,0
				c0.142-0.142,0.142-0.371,0-0.512l-1.741-1.741l3.325-3.642l4.079,3.739c0.146,0.135,0.376,0.125,0.512-0.022
				c0.135-0.147,0.124-0.377-0.022-0.512l-4.348-3.984c-0.07-0.065-0.165-0.098-0.261-0.095c-0.096,0.004-0.187,0.046-0.251,0.118
				l-3.547,3.885l-1.717-1.718c-0.136-0.135-0.353-0.142-0.496-0.016l-6.164,5.427c-0.151,0.132-0.165,0.36-0.033,0.511
				C63.411,45.25,63.51,45.291,63.611,45.291z"/>
		</g>
	</g>
	<g id="social" display="none">
		<circle display="inline" fill="#9F9E9E" cx="54.915" cy="170.297" r="3.37"/>
		<circle display="inline" fill="#9F9E9E" cx="64.915" cy="170.297" r="3.37"/>
		<circle display="inline" fill="#9F9E9E" cx="75.916" cy="170.297" r="3.371"/>
		<circle display="inline" fill="#9F9E9E" cx="86.916" cy="170.297" r="3.371"/>
	</g>
</g>
</svg>
