<?xml version="1.0" encoding="utf-8"?>
<!-- Generator: Adobe Illustrator 16.0.0, SVG Export Plug-In . SVG Version: 6.00 Build 0)  -->
<!DOCTYPE svg PUBLIC "-//W3C//DTD SVG 1.1//EN" "http://www.w3.org/Graphics/SVG/1.1/DTD/svg11.dtd">
<svg version="1.1" xmlns="http://www.w3.org/2000/svg" xmlns:xlink="http://www.w3.org/1999/xlink" x="0px" y="0px"
	 width="141.904px" height="188.668px" viewBox="0 0 141.904 188.668" enable-background="new 0 0 141.904 188.668"
	 xml:space="preserve">
<g id="background">
	<rect fill="#E8E8E8" width="141.904" height="188.668"/>
</g>
<g id="template_3">
	<g id="template_1_1_" opacity="0.2">
		<path fill="#9F9E9E" enable-background="new    " d="M89.403,169.751c0-3.176,2.574-5.75,5.75-5.75h21.168
			c3.176,0,5.75,2.574,5.75,5.75l0,0c0,3.176-2.574,5.75-5.75,5.75H95.153C91.978,175.501,89.403,172.927,89.403,169.751
			L89.403,169.751z"/>
		<path fill="#9F9E9E" d="M88.88,105.314c0,0.781,0.634,1.414,1.414,1.414h30.419c0.781,0,1.415-0.633,1.415-1.414l0,0
			c0-0.781-0.634-1.415-1.415-1.415H90.294C89.514,103.899,88.88,104.533,88.88,105.314L88.88,105.314z"/>
		<path fill="#9F9E9E" d="M65.182,95.453c0,0.977,0.793,1.77,1.77,1.77h53.408c0.977,0,1.769-0.793,1.769-1.77v-3.006
			c0-0.977-0.792-1.769-1.769-1.769H66.951c-0.977,0-1.77,0.792-1.77,1.769V95.453z"/>
		<path fill="#9F9E9E" d="M36.498,121.037c0,0.733,0.683,1.327,1.524,1.327h81.77c0.842,0,1.524-0.594,1.524-1.327l0,0
			c0-0.732-0.683-1.326-1.524-1.326h-81.77C37.181,119.711,36.498,120.305,36.498,121.037L36.498,121.037z"/>
		<path fill="#9F9E9E" d="M21.188,130.922c0,0.749,0.696,1.355,1.558,1.355h97.013c0.859,0,1.558-0.606,1.558-1.355l0,0
			c0-0.749-0.698-1.356-1.558-1.356H22.746C21.885,129.565,21.188,130.173,21.188,130.922L21.188,130.922z"/>
		<path fill="#9F9E9E" d="M52.216,140.126c0,0.684,0.636,1.237,1.424,1.237h66.254c0.786,0,1.423-0.554,1.423-1.237l0,0
			c0-0.683-0.637-1.237-1.423-1.237H53.64C52.852,138.889,52.216,139.443,52.216,140.126L52.216,140.126z"/>
		<path fill="#9F9E9E" d="M36.362,149.39c0,0.717,0.667,1.298,1.49,1.298h81.975c0.822,0,1.489-0.581,1.489-1.298l0,0
			c0-0.716-0.667-1.297-1.489-1.297H37.853C37.029,148.093,36.362,148.674,36.362,149.39L36.362,149.39z"/>
	</g>
	<g id="image_thumb_2_">
		<rect y="-0.073" fill="#D3D3D3" width="141.904" height="73.907"/>
		<g opacity="0.1">
			<path fill="#010101" d="M81.721,30.802H61.437c-0.199,0-0.362,0.162-0.362,0.362v15.938c0,0.2,0.163,0.362,0.362,0.362h20.284
				c0.201,0,0.363-0.162,0.363-0.362V31.164C82.084,30.964,81.922,30.802,81.721,30.802z M81.359,46.74h-19.56V31.526h19.56V46.74z"
				/>
			<path fill="#010101" d="M66.871,38.821c1.113,0,2.018-0.905,2.018-2.018s-0.905-2.018-2.018-2.018
				c-1.112,0-2.017,0.905-2.017,2.018S65.758,38.821,66.871,38.821z M66.871,35.511c0.713,0,1.293,0.58,1.293,1.292
				s-0.58,1.292-1.293,1.292s-1.292-0.58-1.292-1.292S66.158,35.511,66.871,35.511z"/>
			<path fill="#010101" d="M63.611,45.291c0.084,0,0.17-0.03,0.239-0.091l5.909-5.201l3.731,3.73c0.142,0.142,0.37,0.142,0.513,0
				c0.142-0.142,0.142-0.371,0-0.512l-1.741-1.741l3.325-3.642l4.079,3.739c0.146,0.135,0.376,0.125,0.512-0.022
				c0.135-0.147,0.124-0.377-0.022-0.512l-4.348-3.984c-0.07-0.065-0.165-0.098-0.261-0.095c-0.096,0.004-0.187,0.046-0.251,0.118
				l-3.547,3.885l-1.717-1.718c-0.136-0.135-0.353-0.142-0.496-0.016l-6.164,5.427c-0.151,0.132-0.165,0.36-0.033,0.511
				C63.411,45.25,63.51,45.291,63.611,45.291z"/>
		</g>
	</g>
	<g id="social_2_" display="none">
		<circle display="inline" fill="#9F9E9E" cx="54.915" cy="170.297" r="3.37"/>
		<circle display="inline" fill="#9F9E9E" cx="64.915" cy="170.297" r="3.37"/>
		<circle display="inline" fill="#9F9E9E" cx="75.916" cy="170.297" r="3.371"/>
		<circle display="inline" fill="#9F9E9E" cx="86.916" cy="170.297" r="3.371"/>
	</g>
</g>
<g id="template_2" display="none">
	<g id="template_1_2_" display="inline" opacity="0.2">
		<path fill="#9F9E9E" enable-background="new    " d="M47.913,169.751c0,3.176-2.574,5.75-5.75,5.75H20.996
			c-3.176,0-5.75-2.574-5.75-5.75l0,0c0-3.176,2.574-5.75,5.75-5.75h21.167C45.339,164.001,47.913,166.575,47.913,169.751
			L47.913,169.751z"/>
		<path fill="#9F9E9E" d="M48.437,105.314c0,0.781-0.634,1.414-1.414,1.414H16.604c-0.781,0-1.415-0.633-1.415-1.414l0,0
			c0-0.781,0.634-1.415,1.415-1.415h30.419C47.803,103.899,48.437,104.533,48.437,105.314L48.437,105.314z"/>
		<path fill="#9F9E9E" d="M72.135,95.453c0,0.977-0.793,1.77-1.77,1.77H16.957c-0.977,0-1.769-0.793-1.769-1.77v-3.006
			c0-0.977,0.792-1.769,1.769-1.769h53.408c0.977,0,1.77,0.792,1.77,1.769V95.453z"/>
		<path fill="#9F9E9E" d="M100.818,121.037c0,0.733-0.683,1.327-1.524,1.327h-81.77c-0.841,0-1.524-0.594-1.524-1.327l0,0
			c0-0.732,0.683-1.326,1.524-1.326h81.77C100.136,119.711,100.818,120.305,100.818,121.037L100.818,121.037z"/>
		<path fill="#9F9E9E" d="M116.128,130.922c0,0.749-0.696,1.355-1.558,1.355H17.558c-0.86,0-1.558-0.606-1.558-1.355l0,0
			c0-0.749,0.698-1.356,1.558-1.356h97.012C115.432,129.565,116.128,130.173,116.128,130.922L116.128,130.922z"/>
		<path fill="#9F9E9E" d="M85.101,140.126c0,0.684-0.636,1.237-1.424,1.237H17.422c-0.786,0-1.422-0.554-1.422-1.237l0,0
			c0-0.683,0.637-1.237,1.422-1.237h66.254C84.465,138.889,85.101,139.443,85.101,140.126L85.101,140.126z"/>
		<path fill="#9F9E9E" d="M100.954,149.39c0,0.717-0.667,1.298-1.49,1.298H17.49c-0.823,0-1.49-0.581-1.49-1.298l0,0
			c0-0.716,0.667-1.297,1.49-1.297h81.974C100.287,148.093,100.954,148.674,100.954,149.39L100.954,149.39z"/>
	</g>
	<g id="image_thumb_1_" display="inline">
		<rect y="-0.073" fill="#D3D3D3" width="141.904" height="73.907"/>
		<g opacity="0.1">
			<path fill="#010101" d="M81.721,30.802H61.437c-0.199,0-0.362,0.162-0.362,0.362v15.938c0,0.2,0.163,0.362,0.362,0.362h20.284
				c0.201,0,0.363-0.162,0.363-0.362V31.164C82.084,30.964,81.922,30.802,81.721,30.802z M81.359,46.74h-19.56V31.526h19.56V46.74z"
				/>
			<path fill="#010101" d="M66.871,38.821c1.113,0,2.018-0.905,2.018-2.018s-0.905-2.018-2.018-2.018
				c-1.112,0-2.017,0.905-2.017,2.018S65.758,38.821,66.871,38.821z M66.871,35.511c0.713,0,1.293,0.58,1.293,1.292
				s-0.58,1.292-1.293,1.292s-1.292-0.58-1.292-1.292S66.158,35.511,66.871,35.511z"/>
			<path fill="#010101" d="M63.611,45.291c0.084,0,0.17-0.03,0.239-0.091l5.909-5.201l3.731,3.73c0.142,0.142,0.37,0.142,0.513,0
				c0.142-0.142,0.142-0.371,0-0.512l-1.741-1.741l3.325-3.642l4.079,3.739c0.146,0.135,0.376,0.125,0.512-0.022
				c0.135-0.147,0.124-0.377-0.022-0.512l-4.348-3.984c-0.07-0.065-0.165-0.098-0.261-0.095c-0.096,0.004-0.187,0.046-0.251,0.118
				l-3.547,3.885l-1.717-1.718c-0.136-0.135-0.353-0.142-0.496-0.016l-6.164,5.427c-0.151,0.132-0.165,0.36-0.033,0.511
				C63.411,45.25,63.51,45.291,63.611,45.291z"/>
		</g>
	</g>
	<g id="social_1_">
		<circle display="inline" fill="#9F9E9E" cx="54.915" cy="170.297" r="3.37"/>
		<circle display="inline" fill="#9F9E9E" cx="64.915" cy="170.297" r="3.37"/>
		<circle display="inline" fill="#9F9E9E" cx="75.916" cy="170.297" r="3.371"/>
		<circle display="inline" fill="#9F9E9E" cx="86.916" cy="170.297" r="3.371"/>
	</g>
</g>
<g id="template_1" display="none">
	<g id="template_1_3_" display="inline" opacity="0.2">
		<path fill="#9F9E9E" enable-background="new    " d="M85.913,169.751c0,3.176-2.574,5.75-5.75,5.75H58.996
			c-3.176,0-5.75-2.574-5.75-5.75l0,0c0-3.176,2.574-5.75,5.75-5.75h21.167C83.339,164.001,85.913,166.575,85.913,169.751
			L85.913,169.751z"/>
		<path fill="#9F9E9E" d="M87.285,105.314c0,0.781-0.634,1.414-1.414,1.414H55.452c-0.781,0-1.415-0.633-1.415-1.414l0,0
			c0-0.781,0.634-1.415,1.415-1.415h30.419C86.651,103.899,87.285,104.533,87.285,105.314L87.285,105.314z"/>
		<path fill="#9F9E9E" d="M99.135,95.453c0,0.977-0.793,1.77-1.77,1.77H43.957c-0.977,0-1.769-0.793-1.769-1.77v-3.006
			c0-0.977,0.792-1.769,1.769-1.769h53.408c0.977,0,1.77,0.792,1.77,1.769V95.453z"/>
		<path fill="#9F9E9E" d="M108.124,121.037c0,0.733-0.594,1.327-1.326,1.327H35.645c-0.732,0-1.327-0.594-1.327-1.327l0,0
			c0-0.732,0.594-1.326,1.327-1.326h71.153C107.53,119.711,108.124,120.305,108.124,121.037L108.124,121.037z"/>
		<path fill="#9F9E9E" d="M114.785,130.922c0,0.749-0.606,1.355-1.355,1.355H29.013c-0.749,0-1.356-0.606-1.356-1.355l0,0
			c0-0.749,0.607-1.356,1.356-1.356h84.417C114.179,129.565,114.785,130.173,114.785,130.922L114.785,130.922z"/>
		<path fill="#9F9E9E" d="M101.286,140.126c0,0.684-0.554,1.237-1.238,1.237H42.395c-0.684,0-1.238-0.554-1.238-1.237l0,0
			c0-0.683,0.554-1.237,1.238-1.237h57.653C100.732,138.889,101.286,139.443,101.286,140.126L101.286,140.126z"/>
		<path fill="#9F9E9E" d="M108.184,149.39c0,0.717-0.581,1.298-1.298,1.298h-71.33c-0.716,0-1.296-0.581-1.296-1.298l0,0
			c0-0.716,0.58-1.297,1.296-1.297h71.33C107.603,148.093,108.184,148.674,108.184,149.39L108.184,149.39z"/>
	</g>
	<g id="image_thumb" display="inline">
		<rect y="-0.073" fill="#D3D3D3" width="141.904" height="73.907"/>
		<g opacity="0.1">
			<path fill="#010101" d="M81.721,30.802H61.437c-0.199,0-0.362,0.162-0.362,0.362v15.938c0,0.2,0.163,0.362,0.362,0.362h20.284
				c0.201,0,0.363-0.162,0.363-0.362V31.164C82.084,30.964,81.922,30.802,81.721,30.802z M81.359,46.74h-19.56V31.526h19.56V46.74z"
				/>
			<path fill="#010101" d="M66.871,38.821c1.113,0,2.018-0.905,2.018-2.018s-0.905-2.018-2.018-2.018
				c-1.112,0-2.017,0.905-2.017,2.018S65.758,38.821,66.871,38.821z M66.871,35.511c0.713,0,1.293,0.58,1.293,1.292
				s-0.58,1.292-1.293,1.292s-1.292-0.58-1.292-1.292S66.158,35.511,66.871,35.511z"/>
			<path fill="#010101" d="M63.611,45.291c0.084,0,0.17-0.03,0.239-0.091l5.909-5.201l3.731,3.73c0.142,0.142,0.37,0.142,0.513,0
				c0.142-0.142,0.142-0.371,0-0.512l-1.741-1.741l3.325-3.642l4.079,3.739c0.146,0.135,0.376,0.125,0.512-0.022
				c0.135-0.147,0.124-0.377-0.022-0.512l-4.348-3.984c-0.07-0.065-0.165-0.098-0.261-0.095c-0.096,0.004-0.187,0.046-0.251,0.118
				l-3.547,3.885l-1.717-1.718c-0.136-0.135-0.353-0.142-0.496-0.016l-6.164,5.427c-0.151,0.132-0.165,0.36-0.033,0.511
				C63.411,45.25,63.51,45.291,63.611,45.291z"/>
		</g>
	</g>
	<g id="social">
		<circle display="inline" fill="#9F9E9E" cx="54.915" cy="170.297" r="3.37"/>
		<circle display="inline" fill="#9F9E9E" cx="64.915" cy="170.297" r="3.37"/>
		<circle display="inline" fill="#9F9E9E" cx="75.916" cy="170.297" r="3.371"/>
		<circle display="inline" fill="#9F9E9E" cx="86.916" cy="170.297" r="3.371"/>
	</g>
</g>
</svg>
