<?xml version="1.0" encoding="utf-8"?>
<!-- Generator: Adobe Illustrator 16.0.0, SVG Export Plug-In . SVG Version: 6.00 Build 0)  -->
<!DOCTYPE svg PUBLIC "-//W3C//DTD SVG 1.1//EN" "http://www.w3.org/Graphics/SVG/1.1/DTD/svg11.dtd">
<svg version="1.1" xmlns="http://www.w3.org/2000/svg" xmlns:xlink="http://www.w3.org/1999/xlink" x="0px" y="0px"
	 width="141.904px" height="188.668px" viewBox="0 0 141.904 188.668" enable-background="new 0 0 141.904 188.668"
	 xml:space="preserve">
<g id="background">
	<rect fill="#E8E8E8" width="141.904" height="188.668"/>
</g>
<g id="template_3">
	<g id="template_1_1_" opacity="0.2">
		<path fill="#9F9E9E" enable-background="new    " d="M53.913,173.751c0,3.176-2.574,5.75-5.75,5.75H26.995
			c-3.176,0-5.75-2.574-5.75-5.75l0,0c0-3.176,2.574-5.75,5.75-5.75h21.168C51.339,168.001,53.913,170.575,53.913,173.751
			L53.913,173.751z"/>
		<path fill="#9F9E9E" d="M54.437,14.314c0,0.781-0.634,1.414-1.414,1.414H22.604c-0.781,0-1.415-0.633-1.415-1.414l0,0
			c0-0.781,0.634-1.415,1.415-1.415h30.419C53.803,12.899,54.437,13.533,54.437,14.314L54.437,14.314z"/>
		<path fill="#9F9E9E" d="M78.135,26.453c0,0.977-0.793,1.77-1.77,1.77H22.957c-0.977,0-1.769-0.793-1.769-1.77v-3.006
			c0-0.977,0.792-1.769,1.769-1.769h53.408c0.977,0,1.77,0.792,1.77,1.769V26.453z"/>
		<path fill="#9F9E9E" d="M106.818,137.037c0,0.733-0.683,1.327-1.524,1.327h-81.77c-0.842,0-1.524-0.594-1.524-1.327l0,0
			c0-0.732,0.683-1.326,1.524-1.326h81.77C106.136,135.711,106.818,136.305,106.818,137.037L106.818,137.037z"/>
		<path fill="#9F9E9E" d="M122.128,146.922c0,0.749-0.696,1.355-1.558,1.355H23.558c-0.859,0-1.558-0.606-1.558-1.355l0,0
			c0-0.749,0.698-1.356,1.558-1.356h97.013C121.432,145.565,122.128,146.173,122.128,146.922L122.128,146.922z"/>
		<path fill="#9F9E9E" d="M91.101,156.126c0,0.684-0.636,1.237-1.424,1.237H23.423c-0.786,0-1.423-0.554-1.423-1.237l0,0
			c0-0.683,0.637-1.237,1.423-1.237h66.254C90.465,154.889,91.101,155.443,91.101,156.126L91.101,156.126z"/>
	</g>
	<g id="image_thumb_2_">
		<rect y="37.927" fill="#D3D3D3" width="141.904" height="73.907"/>
		<g opacity="0.1">
			<path fill="#010101" d="M81.721,68.802H61.437c-0.199,0-0.362,0.162-0.362,0.362v15.938c0,0.2,0.163,0.362,0.362,0.362h20.284
				c0.201,0,0.363-0.162,0.363-0.362V69.164C82.084,68.964,81.922,68.802,81.721,68.802z M81.359,84.74h-19.56V69.526h19.56V84.74z"
				/>
			<path fill="#010101" d="M66.871,76.821c1.113,0,2.018-0.905,2.018-2.018s-0.905-2.018-2.018-2.018
				c-1.112,0-2.017,0.905-2.017,2.018S65.758,76.821,66.871,76.821z M66.871,73.511c0.713,0,1.293,0.58,1.293,1.292
				s-0.58,1.292-1.293,1.292s-1.292-0.58-1.292-1.292S66.158,73.511,66.871,73.511z"/>
			<path fill="#010101" d="M63.611,83.291c0.084,0,0.17-0.029,0.239-0.091l5.909-5.201l3.731,3.73c0.142,0.142,0.37,0.142,0.513,0
				c0.142-0.142,0.142-0.37,0-0.512l-1.741-1.741l3.325-3.642l4.079,3.74c0.146,0.135,0.376,0.125,0.512-0.023
				c0.135-0.146,0.124-0.377-0.022-0.512l-4.348-3.984c-0.07-0.065-0.165-0.098-0.261-0.095c-0.096,0.004-0.187,0.046-0.251,0.118
				l-3.547,3.885l-1.717-1.718c-0.136-0.135-0.353-0.142-0.496-0.016l-6.164,5.427c-0.151,0.133-0.165,0.361-0.033,0.512
				C63.411,83.25,63.51,83.291,63.611,83.291z"/>
		</g>
	</g>
	<path opacity="0.2" fill="#9F9E9E" d="M122.128,121.334c0,1.381-1.119,2.5-2.5,2.5H24.5c-1.381,0-2.5-1.119-2.5-2.5l0,0
		c0-1.381,1.119-2.5,2.5-2.5h95.128C121.009,118.834,122.128,119.953,122.128,121.334L122.128,121.334z"/>
</g>
<g id="template_2" display="none">
	<g id="template_1_4_" display="inline" opacity="0.2">
		<path fill="#9F9E9E" enable-background="new    " d="M53.913,171.751c0,3.176-2.574,5.75-5.75,5.75H26.995
			c-3.176,0-5.75-2.574-5.75-5.75l0,0c0-3.176,2.574-5.75,5.75-5.75h21.168C51.339,166.001,53.913,168.575,53.913,171.751
			L53.913,171.751z"/>
		<path fill="#9F9E9E" d="M54.437,25.314c0,0.781-0.634,1.414-1.414,1.414H22.604c-0.781,0-1.415-0.633-1.415-1.414l0,0
			c0-0.781,0.634-1.415,1.415-1.415h30.419C53.803,23.899,54.437,24.533,54.437,25.314L54.437,25.314z"/>
		<path fill="#9F9E9E" d="M78.135,15.453c0,0.977-0.793,1.77-1.77,1.77H22.957c-0.977,0-1.769-0.793-1.769-1.77v-3.006
			c0-0.977,0.792-1.769,1.769-1.769h53.408c0.977,0,1.77,0.792,1.77,1.769V15.453z"/>
		<path fill="#9F9E9E" d="M106.818,128.037c0,0.733-0.683,1.327-1.524,1.327h-81.77c-0.842,0-1.524-0.594-1.524-1.327l0,0
			c0-0.732,0.683-1.326,1.524-1.326h81.77C106.136,126.711,106.818,127.305,106.818,128.037L106.818,128.037z"/>
		<path fill="#9F9E9E" d="M122.128,137.922c0,0.749-0.696,1.355-1.558,1.355H23.558c-0.859,0-1.558-0.606-1.558-1.355l0,0
			c0-0.749,0.698-1.356,1.558-1.356h97.013C121.432,136.565,122.128,137.173,122.128,137.922L122.128,137.922z"/>
		<path fill="#9F9E9E" d="M91.101,147.126c0,0.684-0.636,1.237-1.424,1.237H23.423c-0.786,0-1.423-0.554-1.423-1.237l0,0
			c0-0.683,0.637-1.237,1.423-1.237h66.254C90.465,145.889,91.101,146.443,91.101,147.126L91.101,147.126z"/>
	</g>
	<g id="image_thumb_3_" display="inline">
		<rect y="37.927" fill="#D3D3D3" width="141.904" height="73.907"/>
		<g opacity="0.1">
			<path fill="#010101" d="M81.721,68.802H61.437c-0.199,0-0.362,0.162-0.362,0.362v15.938c0,0.2,0.163,0.362,0.362,0.362h20.284
				c0.201,0,0.363-0.162,0.363-0.362V69.164C82.084,68.964,81.922,68.802,81.721,68.802z M81.359,84.74h-19.56V69.526h19.56V84.74z"
				/>
			<path fill="#010101" d="M66.871,76.821c1.113,0,2.018-0.905,2.018-2.018s-0.905-2.018-2.018-2.018
				c-1.112,0-2.017,0.905-2.017,2.018S65.758,76.821,66.871,76.821z M66.871,73.511c0.713,0,1.293,0.58,1.293,1.292
				s-0.58,1.292-1.293,1.292s-1.292-0.58-1.292-1.292S66.158,73.511,66.871,73.511z"/>
			<path fill="#010101" d="M63.611,83.291c0.084,0,0.17-0.029,0.239-0.091l5.909-5.201l3.731,3.73c0.142,0.142,0.37,0.142,0.513,0
				c0.142-0.142,0.142-0.37,0-0.512l-1.741-1.741l3.325-3.642l4.079,3.74c0.146,0.135,0.376,0.125,0.512-0.023
				c0.135-0.146,0.124-0.377-0.022-0.512l-4.348-3.984c-0.07-0.065-0.165-0.098-0.261-0.095c-0.096,0.004-0.187,0.046-0.251,0.118
				l-3.547,3.885l-1.717-1.718c-0.136-0.135-0.353-0.142-0.496-0.016l-6.164,5.427c-0.151,0.133-0.165,0.361-0.033,0.512
				C63.411,83.25,63.51,83.291,63.611,83.291z"/>
		</g>
	</g>
</g>
<g id="template_1_7_" display="none">
	<g id="template_1_2_" display="inline" opacity="0.2">
		<path fill="#9F9E9E" enable-background="new    " d="M47.913,169.751c0,3.176-2.574,5.75-5.75,5.75H20.996
			c-3.176,0-5.75-2.574-5.75-5.75l0,0c0-3.176,2.574-5.75,5.75-5.75h21.167C45.339,164.001,47.913,166.575,47.913,169.751
			L47.913,169.751z"/>
		<path fill="#9F9E9E" d="M48.437,105.314c0,0.781-0.634,1.414-1.414,1.414H16.604c-0.781,0-1.415-0.633-1.415-1.414l0,0
			c0-0.781,0.634-1.415,1.415-1.415h30.419C47.803,103.899,48.437,104.533,48.437,105.314L48.437,105.314z"/>
		<path fill="#9F9E9E" d="M72.135,95.453c0,0.977-0.793,1.77-1.77,1.77H16.957c-0.977,0-1.769-0.793-1.769-1.77v-3.006
			c0-0.977,0.792-1.769,1.769-1.769h53.408c0.977,0,1.77,0.792,1.77,1.769V95.453z"/>
		<path fill="#9F9E9E" d="M100.818,121.037c0,0.733-0.683,1.327-1.524,1.327h-81.77c-0.841,0-1.524-0.594-1.524-1.327l0,0
			c0-0.732,0.683-1.326,1.524-1.326h81.77C100.136,119.711,100.818,120.305,100.818,121.037L100.818,121.037z"/>
		<path fill="#9F9E9E" d="M116.128,130.922c0,0.749-0.696,1.355-1.558,1.355H17.558c-0.86,0-1.558-0.606-1.558-1.355l0,0
			c0-0.749,0.698-1.356,1.558-1.356h97.012C115.432,129.565,116.128,130.173,116.128,130.922L116.128,130.922z"/>
		<path fill="#9F9E9E" d="M85.101,140.126c0,0.684-0.636,1.237-1.424,1.237H17.422c-0.786,0-1.422-0.554-1.422-1.237l0,0
			c0-0.683,0.637-1.237,1.422-1.237h66.254C84.465,138.889,85.101,139.443,85.101,140.126L85.101,140.126z"/>
		<path fill="#9F9E9E" d="M100.954,149.39c0,0.717-0.667,1.298-1.49,1.298H17.49c-0.823,0-1.49-0.581-1.49-1.298l0,0
			c0-0.716,0.667-1.297,1.49-1.297h81.974C100.287,148.093,100.954,148.674,100.954,149.39L100.954,149.39z"/>
	</g>
	<g id="image_thumb_1_" display="inline">
		<rect y="-0.073" fill="#D3D3D3" width="141.904" height="73.907"/>
		<g opacity="0.1">
			<path fill="#010101" d="M81.721,30.802H61.437c-0.199,0-0.362,0.162-0.362,0.362v15.938c0,0.2,0.163,0.362,0.362,0.362h20.284
				c0.201,0,0.363-0.162,0.363-0.362V31.164C82.084,30.964,81.922,30.802,81.721,30.802z M81.359,46.74h-19.56V31.526h19.56V46.74z"
				/>
			<path fill="#010101" d="M66.871,38.821c1.113,0,2.018-0.905,2.018-2.018s-0.905-2.018-2.018-2.018
				c-1.112,0-2.017,0.905-2.017,2.018S65.758,38.821,66.871,38.821z M66.871,35.511c0.713,0,1.293,0.58,1.293,1.292
				s-0.58,1.292-1.293,1.292s-1.292-0.58-1.292-1.292S66.158,35.511,66.871,35.511z"/>
			<path fill="#010101" d="M63.611,45.291c0.084,0,0.17-0.03,0.239-0.091l5.909-5.201l3.731,3.73c0.142,0.142,0.37,0.142,0.513,0
				c0.142-0.142,0.142-0.371,0-0.512l-1.741-1.741l3.325-3.642l4.079,3.739c0.146,0.135,0.376,0.125,0.512-0.022
				c0.135-0.147,0.124-0.377-0.022-0.512l-4.348-3.984c-0.07-0.065-0.165-0.098-0.261-0.095c-0.096,0.004-0.187,0.046-0.251,0.118
				l-3.547,3.885l-1.717-1.718c-0.136-0.135-0.353-0.142-0.496-0.016l-6.164,5.427c-0.151,0.132-0.165,0.36-0.033,0.511
				C63.411,45.25,63.51,45.291,63.611,45.291z"/>
		</g>
	</g>
	<g id="social_1_">
		<circle display="inline" fill="#9F9E9E" cx="54.915" cy="170.297" r="3.37"/>
		<circle display="inline" fill="#9F9E9E" cx="64.915" cy="170.297" r="3.37"/>
		<circle display="inline" fill="#9F9E9E" cx="75.916" cy="170.297" r="3.371"/>
		<circle display="inline" fill="#9F9E9E" cx="86.916" cy="170.297" r="3.371"/>
	</g>
</g>
</svg>
