<?xml version="1.0" encoding="utf-8"?>
<!-- Generator: Adobe Illustrator 16.0.0, SVG Export Plug-In . SVG Version: 6.00 Build 0)  -->
<!DOCTYPE svg PUBLIC "-//W3C//DTD SVG 1.1//EN" "http://www.w3.org/Graphics/SVG/1.1/DTD/svg11.dtd">
<svg version="1.1" xmlns="http://www.w3.org/2000/svg" xmlns:xlink="http://www.w3.org/1999/xlink" x="0px" y="0px"
	 width="141.904px" height="188.668px" viewBox="0 0 141.904 188.668" enable-background="new 0 0 141.904 188.668"
	 xml:space="preserve">
<g id="background">
	<rect fill="#E8E8E8" width="141.904" height="188.668"/>
</g>
<g id="template_15" display="none">
	<g id="template_1_12_" display="inline" opacity="0.2">
		<path display="none" fill="#9F9E9E" enable-background="new    " d="M63.473,180.001c0,3.176,2.574,5.75,5.75,5.75h21.168
			c3.176,0,5.75-2.574,5.75-5.75l0,0c0-3.176-2.574-5.75-5.75-5.75H69.223C66.047,174.251,63.473,176.825,63.473,180.001
			L63.473,180.001z"/>
		<path fill="#9F9E9E" d="M96.431,144.314c0,0.781-0.634,1.414-1.414,1.414H64.598c-0.781,0-1.415-0.633-1.415-1.414l0,0
			c0-0.781,0.634-1.415,1.415-1.415h30.419C95.797,142.899,96.431,143.533,96.431,144.314L96.431,144.314z"/>
		<path fill="#9F9E9E" d="M120.129,134.453c0,0.977-0.793,1.77-1.77,1.77H64.951c-0.977,0-1.769-0.793-1.769-1.77v-3.006
			c0-0.977,0.792-1.769,1.769-1.769h53.408c0.977,0,1.77,0.792,1.77,1.769V134.453z"/>
		<path fill="#9F9E9E" d="M22.239,62.9c0,0.688,0.641,1.246,1.432,1.246h76.786c0.791,0,1.432-0.558,1.432-1.246l0,0
			c0-0.688-0.641-1.246-1.432-1.246H23.671C22.88,61.655,22.239,62.212,22.239,62.9L22.239,62.9z"/>
		<path fill="#9F9E9E" d="M22.239,72.183c0,0.703,0.654,1.273,1.463,1.273h91.101c0.808,0,1.463-0.57,1.463-1.273l0,0
			c0-0.704-0.655-1.274-1.463-1.274H23.702C22.893,70.909,22.239,71.479,22.239,72.183L22.239,72.183z"/>
		<path fill="#9F9E9E" d="M22.239,80.826c0,0.642,0.597,1.162,1.337,1.162h62.217c0.738,0,1.336-0.52,1.336-1.162l0,0
			c0-0.641-0.598-1.162-1.336-1.162H23.576C22.836,79.664,22.239,80.185,22.239,80.826L22.239,80.826z"/>
		<path fill="#9F9E9E" d="M22.239,89.525c0,0.673,0.626,1.219,1.399,1.219h76.979c0.771,0,1.398-0.545,1.398-1.219l0,0
			c0-0.672-0.627-1.218-1.398-1.218H23.639C22.866,88.307,22.239,88.853,22.239,89.525L22.239,89.525z"/>
		<path fill="#9F9E9E" d="M22.239,28.9c0,0.688,0.641,1.246,1.432,1.246h76.786c0.791,0,1.432-0.558,1.432-1.246l0,0
			c0-0.688-0.641-1.246-1.432-1.246H23.671C22.88,27.655,22.239,28.212,22.239,28.9L22.239,28.9z"/>
		<path fill="#9F9E9E" d="M22.239,38.183c0,0.703,0.654,1.273,1.463,1.273h91.101c0.808,0,1.463-0.57,1.463-1.273l0,0
			c0-0.704-0.655-1.274-1.463-1.274H23.702C22.893,36.909,22.239,37.479,22.239,38.183L22.239,38.183z"/>
		<path fill="#9F9E9E" d="M22.239,46.826c0,0.642,0.597,1.162,1.337,1.162h62.217c0.738,0,1.336-0.52,1.336-1.162l0,0
			c0-0.641-0.598-1.162-1.336-1.162H23.576C22.836,45.664,22.239,46.185,22.239,46.826L22.239,46.826z"/>
		<path fill="#9F9E9E" d="M22.239,55.525c0,0.673,0.626,1.219,1.399,1.219h76.979c0.771,0,1.398-0.545,1.398-1.219l0,0
			c0-0.672-0.627-1.218-1.398-1.218H23.639C22.866,54.307,22.239,54.853,22.239,55.525L22.239,55.525z"/>
	</g>
	<g id="image_thumb_9_" display="inline">
		<rect x="15.008" y="128.273" fill="#D3D3D3" width="42.174" height="35.714"/>
		<g opacity="0.1">
			<path fill="#010101" d="M43.666,138.793H27.712c-0.157,0-0.285,0.128-0.285,0.285v12.535c0,0.157,0.128,0.285,0.285,0.285h15.954
				c0.158,0,0.286-0.128,0.286-0.285v-12.535C43.952,138.921,43.824,138.793,43.666,138.793z M43.382,151.329H27.997v-11.966h15.385
				V151.329z"/>
			<path fill="#010101" d="M31.986,145.101c0.875,0,1.587-0.712,1.587-1.587s-0.712-1.587-1.587-1.587s-1.586,0.712-1.586,1.587
				S31.111,145.101,31.986,145.101z M31.986,142.498c0.561,0,1.017,0.456,1.017,1.016c0,0.561-0.457,1.017-1.017,1.017
				c-0.561,0-1.017-0.456-1.017-1.017C30.969,142.954,31.425,142.498,31.986,142.498z"/>
			<path fill="#010101" d="M29.422,150.189c0.066,0,0.134-0.023,0.188-0.071l4.647-4.091l2.935,2.934
				c0.111,0.111,0.291,0.111,0.403,0c0.111-0.111,0.111-0.291,0-0.402l-1.37-1.369l2.615-2.865l3.208,2.941
				c0.115,0.106,0.296,0.099,0.402-0.018c0.106-0.115,0.098-0.297-0.018-0.403l-3.419-3.134c-0.055-0.051-0.13-0.076-0.205-0.073
				s-0.147,0.036-0.197,0.092l-2.791,3.056l-1.351-1.352c-0.107-0.106-0.277-0.111-0.39-0.012l-4.848,4.269
				c-0.119,0.104-0.129,0.284-0.026,0.402C29.264,150.157,29.343,150.189,29.422,150.189z"/>
		</g>
	</g>
	<g id="Layer_12" display="inline">
		<polygon fill="none" stroke="#9F9E9E" stroke-width="0.5" stroke-miterlimit="10" points="8.951,14.334 8.951,104.75 
			22.994,104.75 28.827,113.293 34.661,105.157 133.285,105.157 133.285,14.334 		"/>
	</g>
</g>
<g id="template_13" display="none">
	<g id="template_1_10_" display="inline" opacity="0.2">
		<path fill="#9F9E9E" enable-background="new    " d="M87.403,169.751c0,3.176,2.574,5.75,5.75,5.75h21.168
			c3.176,0,5.75-2.574,5.75-5.75l0,0c0-3.176-2.574-5.75-5.75-5.75H93.153C89.978,164.001,87.403,166.575,87.403,169.751
			L87.403,169.751z"/>
		<path fill="#9F9E9E" d="M86.88,148.314c0,0.781,0.634,1.414,1.414,1.414h30.419c0.781,0,1.415-0.633,1.415-1.414l0,0
			c0-0.781-0.634-1.415-1.415-1.415H88.294C87.514,146.899,86.88,147.533,86.88,148.314L86.88,148.314z"/>
		<path fill="#9F9E9E" d="M63.182,138.453c0,0.977,0.793,1.77,1.77,1.77h53.408c0.977,0,1.769-0.793,1.769-1.77v-3.006
			c0-0.977-0.792-1.769-1.769-1.769H64.951c-0.977,0-1.77,0.792-1.77,1.769V138.453z"/>
		<path fill="#9F9E9E" d="M34.498,91.037c0,0.733,0.683,1.327,1.524,1.327h81.77c0.842,0,1.524-0.594,1.524-1.327l0,0
			c0-0.732-0.683-1.326-1.524-1.326h-81.77C35.181,89.711,34.498,90.305,34.498,91.037L34.498,91.037z"/>
		<path fill="#9F9E9E" d="M19.188,100.922c0,0.749,0.696,1.355,1.558,1.355h97.013c0.859,0,1.558-0.606,1.558-1.355l0,0
			c0-0.749-0.698-1.356-1.558-1.356H20.746C19.885,99.565,19.188,100.173,19.188,100.922L19.188,100.922z"/>
		<path fill="#9F9E9E" d="M50.216,110.126c0,0.684,0.636,1.237,1.424,1.237h66.254c0.786,0,1.423-0.554,1.423-1.237l0,0
			c0-0.683-0.637-1.237-1.423-1.237H51.64C50.852,108.889,50.216,109.443,50.216,110.126L50.216,110.126z"/>
		<path fill="#9F9E9E" d="M34.362,119.39c0,0.717,0.667,1.298,1.49,1.298h81.975c0.822,0,1.489-0.581,1.489-1.298l0,0
			c0-0.716-0.667-1.297-1.489-1.297H35.853C35.029,118.093,34.362,118.674,34.362,119.39L34.362,119.39z"/>
	</g>
	<g id="image_thumb_8_" display="inline">
		<rect y="-0.073" fill="#D3D3D3" width="141.904" height="73.907"/>
		<g opacity="0.1">
			<path fill="#010101" d="M81.721,30.802H61.437c-0.199,0-0.362,0.162-0.362,0.362v15.938c0,0.2,0.163,0.362,0.362,0.362h20.284
				c0.201,0,0.363-0.162,0.363-0.362V31.164C82.084,30.964,81.922,30.802,81.721,30.802z M81.359,46.74h-19.56V31.526h19.56V46.74z"
				/>
			<path fill="#010101" d="M66.871,38.821c1.113,0,2.018-0.905,2.018-2.018s-0.905-2.018-2.018-2.018
				c-1.112,0-2.017,0.905-2.017,2.018S65.758,38.821,66.871,38.821z M66.871,35.511c0.713,0,1.293,0.58,1.293,1.292
				s-0.58,1.292-1.293,1.292s-1.292-0.58-1.292-1.292S66.158,35.511,66.871,35.511z"/>
			<path fill="#010101" d="M63.611,45.291c0.084,0,0.17-0.03,0.239-0.091l5.909-5.201l3.731,3.73c0.142,0.142,0.37,0.142,0.513,0
				c0.142-0.142,0.142-0.371,0-0.512l-1.741-1.741l3.325-3.642l4.079,3.739c0.146,0.135,0.376,0.125,0.512-0.022
				c0.135-0.147,0.124-0.377-0.022-0.512l-4.348-3.984c-0.07-0.065-0.165-0.098-0.261-0.095c-0.096,0.004-0.187,0.046-0.251,0.118
				l-3.547,3.885l-1.717-1.718c-0.136-0.135-0.353-0.142-0.496-0.016l-6.164,5.427c-0.151,0.132-0.165,0.36-0.033,0.511
				C63.411,45.25,63.51,45.291,63.611,45.291z"/>
		</g>
	</g>
</g>
<g id="template_12" display="none">
	<g id="template_1_8_" display="inline" opacity="0.2">
		<path fill="#9F9E9E" enable-background="new    " d="M85.913,169.751c0,3.176-2.574,5.75-5.75,5.75H58.996
			c-3.176,0-5.75-2.574-5.75-5.75l0,0c0-3.176,2.574-5.75,5.75-5.75h21.167C83.339,164.001,85.913,166.575,85.913,169.751
			L85.913,169.751z"/>
		<path fill="#9F9E9E" d="M87.285,152.314c0,0.781-0.634,1.414-1.414,1.414H55.452c-0.781,0-1.415-0.633-1.415-1.414l0,0
			c0-0.781,0.634-1.415,1.415-1.415h30.419C86.651,150.899,87.285,151.533,87.285,152.314L87.285,152.314z"/>
		<path fill="#9F9E9E" d="M99.135,142.453c0,0.977-0.793,1.77-1.77,1.77H43.957c-0.977,0-1.769-0.793-1.769-1.77v-3.006
			c0-0.977,0.792-1.769,1.769-1.769h53.408c0.977,0,1.77,0.792,1.77,1.769V142.453z"/>
		<path fill="#9F9E9E" d="M108.124,92.037c0,0.733-0.594,1.327-1.326,1.327H35.645c-0.732,0-1.327-0.594-1.327-1.327l0,0
			c0-0.732,0.594-1.326,1.327-1.326h71.153C107.53,90.711,108.124,91.305,108.124,92.037L108.124,92.037z"/>
		<path fill="#9F9E9E" d="M114.785,101.922c0,0.749-0.606,1.355-1.355,1.355H29.013c-0.749,0-1.356-0.606-1.356-1.355l0,0
			c0-0.749,0.607-1.356,1.356-1.356h84.417C114.179,100.565,114.785,101.173,114.785,101.922L114.785,101.922z"/>
		<path fill="#9F9E9E" d="M101.286,111.126c0,0.684-0.554,1.237-1.238,1.237H42.395c-0.684,0-1.238-0.554-1.238-1.237l0,0
			c0-0.683,0.554-1.237,1.238-1.237h57.653C100.732,109.889,101.286,110.443,101.286,111.126L101.286,111.126z"/>
		<path fill="#9F9E9E" d="M108.184,120.39c0,0.717-0.581,1.298-1.298,1.298h-71.33c-0.716,0-1.296-0.581-1.296-1.298l0,0
			c0-0.716,0.58-1.297,1.296-1.297h71.33C107.603,119.093,108.184,119.674,108.184,120.39L108.184,120.39z"/>
	</g>
	<g id="image_thumb_7_" display="inline">
		<rect y="-0.073" fill="#D3D3D3" width="141.904" height="73.907"/>
		<g opacity="0.1">
			<path fill="#010101" d="M81.721,30.802H61.437c-0.199,0-0.362,0.162-0.362,0.362v15.938c0,0.2,0.163,0.362,0.362,0.362h20.284
				c0.201,0,0.363-0.162,0.363-0.362V31.164C82.084,30.964,81.922,30.802,81.721,30.802z M81.359,46.74h-19.56V31.526h19.56V46.74z"
				/>
			<path fill="#010101" d="M66.871,38.821c1.113,0,2.018-0.905,2.018-2.018s-0.905-2.018-2.018-2.018
				c-1.112,0-2.017,0.905-2.017,2.018S65.758,38.821,66.871,38.821z M66.871,35.511c0.713,0,1.293,0.58,1.293,1.292
				s-0.58,1.292-1.293,1.292s-1.292-0.58-1.292-1.292S66.158,35.511,66.871,35.511z"/>
			<path fill="#010101" d="M63.611,45.291c0.084,0,0.17-0.03,0.239-0.091l5.909-5.201l3.731,3.73c0.142,0.142,0.37,0.142,0.513,0
				c0.142-0.142,0.142-0.371,0-0.512l-1.741-1.741l3.325-3.642l4.079,3.739c0.146,0.135,0.376,0.125,0.512-0.022
				c0.135-0.147,0.124-0.377-0.022-0.512l-4.348-3.984c-0.07-0.065-0.165-0.098-0.261-0.095c-0.096,0.004-0.187,0.046-0.251,0.118
				l-3.547,3.885l-1.717-1.718c-0.136-0.135-0.353-0.142-0.496-0.016l-6.164,5.427c-0.151,0.132-0.165,0.36-0.033,0.511
				C63.411,45.25,63.51,45.291,63.611,45.291z"/>
		</g>
	</g>
	<g id="social_3_">
		<circle display="inline" fill="#9F9E9E" cx="54.915" cy="170.297" r="3.37"/>
		<circle display="inline" fill="#9F9E9E" cx="64.915" cy="170.297" r="3.37"/>
		<circle display="inline" fill="#9F9E9E" cx="75.916" cy="170.297" r="3.371"/>
		<circle display="inline" fill="#9F9E9E" cx="86.916" cy="170.297" r="3.371"/>
	</g>
</g>
<g id="template_11" display="none">
	<g id="template_1_9_" display="inline" opacity="0.2">
		<path fill="#9F9E9E" enable-background="new    " d="M47.913,169.751c0,3.176-2.574,5.75-5.75,5.75H20.996
			c-3.176,0-5.75-2.574-5.75-5.75l0,0c0-3.176,2.574-5.75,5.75-5.75h21.167C45.339,164.001,47.913,166.575,47.913,169.751
			L47.913,169.751z"/>
		<path fill="#9F9E9E" d="M48.437,148.314c0,0.781-0.634,1.414-1.414,1.414H16.604c-0.781,0-1.415-0.633-1.415-1.414l0,0
			c0-0.781,0.634-1.415,1.415-1.415h30.419C47.803,146.899,48.437,147.533,48.437,148.314L48.437,148.314z"/>
		<path fill="#9F9E9E" d="M72.135,138.453c0,0.977-0.793,1.77-1.77,1.77H16.957c-0.977,0-1.769-0.793-1.769-1.77v-3.006
			c0-0.977,0.792-1.769,1.769-1.769h53.408c0.977,0,1.77,0.792,1.77,1.769V138.453z"/>
		<path fill="#9F9E9E" d="M100.818,91.037c0,0.733-0.683,1.327-1.524,1.327h-81.77c-0.841,0-1.524-0.594-1.524-1.327l0,0
			c0-0.732,0.683-1.326,1.524-1.326h81.77C100.136,89.711,100.818,90.305,100.818,91.037L100.818,91.037z"/>
		<path fill="#9F9E9E" d="M116.128,100.922c0,0.749-0.696,1.355-1.558,1.355H17.558c-0.86,0-1.558-0.606-1.558-1.355l0,0
			c0-0.749,0.698-1.356,1.558-1.356h97.012C115.432,99.565,116.128,100.173,116.128,100.922L116.128,100.922z"/>
		<path fill="#9F9E9E" d="M85.101,110.126c0,0.684-0.636,1.237-1.424,1.237H17.422c-0.786,0-1.422-0.554-1.422-1.237l0,0
			c0-0.683,0.637-1.237,1.422-1.237h66.254C84.465,108.889,85.101,109.443,85.101,110.126L85.101,110.126z"/>
		<path fill="#9F9E9E" d="M100.954,119.39c0,0.717-0.667,1.298-1.49,1.298H17.49c-0.823,0-1.49-0.581-1.49-1.298l0,0
			c0-0.716,0.667-1.297,1.49-1.297h81.974C100.287,118.093,100.954,118.674,100.954,119.39L100.954,119.39z"/>
	</g>
	<g id="image_thumb_6_" display="inline">
		<rect y="-0.073" fill="#D3D3D3" width="141.904" height="73.907"/>
		<g opacity="0.1">
			<path fill="#010101" d="M81.721,30.802H61.437c-0.199,0-0.362,0.162-0.362,0.362v15.938c0,0.2,0.163,0.362,0.362,0.362h20.284
				c0.201,0,0.363-0.162,0.363-0.362V31.164C82.084,30.964,81.922,30.802,81.721,30.802z M81.359,46.74h-19.56V31.526h19.56V46.74z"
				/>
			<path fill="#010101" d="M66.871,38.821c1.113,0,2.018-0.905,2.018-2.018s-0.905-2.018-2.018-2.018
				c-1.112,0-2.017,0.905-2.017,2.018S65.758,38.821,66.871,38.821z M66.871,35.511c0.713,0,1.293,0.58,1.293,1.292
				s-0.58,1.292-1.293,1.292s-1.292-0.58-1.292-1.292S66.158,35.511,66.871,35.511z"/>
			<path fill="#010101" d="M63.611,45.291c0.084,0,0.17-0.03,0.239-0.091l5.909-5.201l3.731,3.73c0.142,0.142,0.37,0.142,0.513,0
				c0.142-0.142,0.142-0.371,0-0.512l-1.741-1.741l3.325-3.642l4.079,3.739c0.146,0.135,0.376,0.125,0.512-0.022
				c0.135-0.147,0.124-0.377-0.022-0.512l-4.348-3.984c-0.07-0.065-0.165-0.098-0.261-0.095c-0.096,0.004-0.187,0.046-0.251,0.118
				l-3.547,3.885l-1.717-1.718c-0.136-0.135-0.353-0.142-0.496-0.016l-6.164,5.427c-0.151,0.132-0.165,0.36-0.033,0.511
				C63.411,45.25,63.51,45.291,63.611,45.291z"/>
		</g>
	</g>
</g>
<g id="template_8" display="none">
	<g id="template_1_6_" display="inline" opacity="0.2">
		<path fill="#9F9E9E" enable-background="new    " d="M89.403,171.751c0,3.176,2.574,5.75,5.75,5.75h21.168
			c3.176,0,5.75-2.574,5.75-5.75l0,0c0-3.176-2.574-5.75-5.75-5.75H95.153C91.978,166.001,89.403,168.575,89.403,171.751
			L89.403,171.751z"/>
		<path fill="#9F9E9E" d="M88.88,153.314c0,0.781,0.634,1.414,1.414,1.414h30.419c0.781,0,1.415-0.633,1.415-1.414l0,0
			c0-0.781-0.634-1.415-1.415-1.415H90.294C89.514,151.899,88.88,152.533,88.88,153.314L88.88,153.314z"/>
		<path fill="#9F9E9E" d="M65.182,143.453c0,0.977,0.793,1.77,1.77,1.77h53.408c0.977,0,1.769-0.793,1.769-1.77v-3.006
			c0-0.977-0.792-1.769-1.769-1.769H66.951c-0.977,0-1.77,0.792-1.77,1.769V143.453z"/>
		<path fill="#9F9E9E" d="M36.498,16.037c0,0.733,0.683,1.327,1.524,1.327h81.77c0.842,0,1.524-0.594,1.524-1.327l0,0
			c0-0.732-0.683-1.326-1.524-1.326h-81.77C37.181,14.711,36.498,15.305,36.498,16.037L36.498,16.037z"/>
		<path fill="#9F9E9E" d="M21.188,25.922c0,0.749,0.696,1.355,1.558,1.355h97.013c0.859,0,1.558-0.606,1.558-1.355l0,0
			c0-0.749-0.698-1.356-1.558-1.356H22.746C21.885,24.565,21.188,25.173,21.188,25.922L21.188,25.922z"/>
		<path fill="#9F9E9E" d="M52.216,35.126c0,0.684,0.636,1.237,1.424,1.237h66.254c0.786,0,1.423-0.554,1.423-1.237l0,0
			c0-0.683-0.637-1.237-1.423-1.237H53.64C52.852,33.889,52.216,34.443,52.216,35.126L52.216,35.126z"/>
	</g>
	<g id="image_thumb_5_" display="inline">
		<rect y="47.927" fill="#D3D3D3" width="141.904" height="73.907"/>
		<g opacity="0.1">
			<path fill="#010101" d="M81.721,78.802H61.437c-0.199,0-0.362,0.162-0.362,0.362v15.938c0,0.2,0.163,0.362,0.362,0.362h20.284
				c0.201,0,0.363-0.162,0.363-0.362V79.164C82.084,78.964,81.922,78.802,81.721,78.802z M81.359,94.74h-19.56V79.526h19.56V94.74z"
				/>
			<path fill="#010101" d="M66.871,86.821c1.113,0,2.018-0.905,2.018-2.018s-0.905-2.018-2.018-2.018
				c-1.112,0-2.017,0.905-2.017,2.018S65.758,86.821,66.871,86.821z M66.871,83.511c0.713,0,1.293,0.58,1.293,1.292
				s-0.58,1.292-1.293,1.292s-1.292-0.58-1.292-1.292S66.158,83.511,66.871,83.511z"/>
			<path fill="#010101" d="M63.611,93.291c0.084,0,0.17-0.029,0.239-0.091l5.909-5.201l3.731,3.73c0.142,0.142,0.37,0.142,0.513,0
				c0.142-0.142,0.142-0.37,0-0.512l-1.741-1.741l3.325-3.642l4.079,3.74c0.146,0.135,0.376,0.125,0.512-0.023
				c0.135-0.146,0.124-0.377-0.022-0.512l-4.348-3.984c-0.07-0.065-0.165-0.098-0.261-0.095c-0.096,0.004-0.187,0.046-0.251,0.118
				l-3.547,3.885l-1.717-1.718c-0.136-0.135-0.353-0.142-0.496-0.016l-6.164,5.427c-0.151,0.133-0.165,0.361-0.033,0.512
				C63.411,93.25,63.51,93.291,63.611,93.291z"/>
		</g>
	</g>
</g>
<g id="template_7" display="none">
	<g id="template_1_5_" display="inline" opacity="0.2">
		<path fill="#9F9E9E" enable-background="new    " d="M85.913,171.751c0,3.176-2.574,5.75-5.75,5.75H58.995
			c-3.176,0-5.75-2.574-5.75-5.75l0,0c0-3.176,2.574-5.75,5.75-5.75h21.168C83.339,166.001,85.913,168.575,85.913,171.751
			L85.913,171.751z"/>
		<path fill="#9F9E9E" d="M85.361,153.314c0,0.781-0.634,1.414-1.414,1.414H53.528c-0.781,0-1.415-0.633-1.415-1.414l0,0
			c0-0.781,0.634-1.415,1.415-1.415h30.419C84.728,151.899,85.361,152.533,85.361,153.314L85.361,153.314z"/>
		<path fill="#9F9E9E" d="M97.21,143.453c0,0.977-0.793,1.77-1.77,1.77H42.032c-0.977,0-1.769-0.793-1.769-1.77v-3.006
			c0-0.977,0.792-1.769,1.769-1.769H95.44c0.977,0,1.77,0.792,1.77,1.769V143.453z"/>
		<path fill="#9F9E9E" d="M113.75,16.037c0,0.733-0.683,1.327-1.524,1.327H30.457c-0.842,0-1.524-0.594-1.524-1.327l0,0
			c0-0.732,0.683-1.326,1.524-1.326h81.769C113.067,14.711,113.75,15.305,113.75,16.037L113.75,16.037z"/>
		<path fill="#9F9E9E" d="M121.405,25.922c0,0.749-0.696,1.355-1.558,1.355H22.835c-0.859,0-1.558-0.606-1.558-1.355l0,0
			c0-0.749,0.698-1.356,1.558-1.356h97.013C120.709,24.565,121.405,25.173,121.405,25.922L121.405,25.922z"/>
		<path fill="#9F9E9E" d="M105.892,35.126c0,0.684-0.636,1.237-1.424,1.237H38.214c-0.786,0-1.423-0.554-1.423-1.237l0,0
			c0-0.683,0.637-1.237,1.423-1.237h66.254C105.256,33.889,105.892,34.443,105.892,35.126L105.892,35.126z"/>
	</g>
	<g id="image_thumb_4_" display="inline">
		<rect y="47.927" fill="#D3D3D3" width="141.904" height="73.907"/>
		<g opacity="0.1">
			<path fill="#010101" d="M81.721,78.802H61.437c-0.199,0-0.362,0.162-0.362,0.362v15.938c0,0.2,0.163,0.362,0.362,0.362h20.284
				c0.201,0,0.363-0.162,0.363-0.362V79.164C82.084,78.964,81.922,78.802,81.721,78.802z M81.359,94.74h-19.56V79.526h19.56V94.74z"
				/>
			<path fill="#010101" d="M66.871,86.821c1.113,0,2.018-0.905,2.018-2.018s-0.905-2.018-2.018-2.018
				c-1.112,0-2.017,0.905-2.017,2.018S65.758,86.821,66.871,86.821z M66.871,83.511c0.713,0,1.293,0.58,1.293,1.292
				s-0.58,1.292-1.293,1.292s-1.292-0.58-1.292-1.292S66.158,83.511,66.871,83.511z"/>
			<path fill="#010101" d="M63.611,93.291c0.084,0,0.17-0.029,0.239-0.091l5.909-5.201l3.731,3.73c0.142,0.142,0.37,0.142,0.513,0
				c0.142-0.142,0.142-0.37,0-0.512l-1.741-1.741l3.325-3.642l4.079,3.74c0.146,0.135,0.376,0.125,0.512-0.023
				c0.135-0.146,0.124-0.377-0.022-0.512l-4.348-3.984c-0.07-0.065-0.165-0.098-0.261-0.095c-0.096,0.004-0.187,0.046-0.251,0.118
				l-3.547,3.885l-1.717-1.718c-0.136-0.135-0.353-0.142-0.496-0.016l-6.164,5.427c-0.151,0.133-0.165,0.361-0.033,0.512
				C63.411,93.25,63.51,93.291,63.611,93.291z"/>
		</g>
	</g>
</g>
<g id="template_2">
	<g id="template_1_4_" opacity="0.2">
		<path fill="#9F9E9E" enable-background="new    " d="M53.913,171.751c0,3.176-2.574,5.75-5.75,5.75H26.995
			c-3.176,0-5.75-2.574-5.75-5.75l0,0c0-3.176,2.574-5.75,5.75-5.75h21.168C51.339,166.001,53.913,168.575,53.913,171.751
			L53.913,171.751z"/>
		<path fill="#9F9E9E" d="M54.437,25.314c0,0.781-0.634,1.414-1.414,1.414H22.604c-0.781,0-1.415-0.633-1.415-1.414l0,0
			c0-0.781,0.634-1.415,1.415-1.415h30.419C53.803,23.899,54.437,24.533,54.437,25.314L54.437,25.314z"/>
		<path fill="#9F9E9E" d="M78.135,15.453c0,0.977-0.793,1.77-1.77,1.77H22.957c-0.977,0-1.769-0.793-1.769-1.77v-3.006
			c0-0.977,0.792-1.769,1.769-1.769h53.408c0.977,0,1.77,0.792,1.77,1.769V15.453z"/>
		<path fill="#9F9E9E" d="M106.818,128.037c0,0.733-0.683,1.327-1.524,1.327h-81.77c-0.842,0-1.524-0.594-1.524-1.327l0,0
			c0-0.732,0.683-1.326,1.524-1.326h81.77C106.136,126.711,106.818,127.305,106.818,128.037L106.818,128.037z"/>
		<path fill="#9F9E9E" d="M122.128,137.922c0,0.749-0.696,1.355-1.558,1.355H23.558c-0.859,0-1.558-0.606-1.558-1.355l0,0
			c0-0.749,0.698-1.356,1.558-1.356h97.013C121.432,136.565,122.128,137.173,122.128,137.922L122.128,137.922z"/>
		<path fill="#9F9E9E" d="M91.101,147.126c0,0.684-0.636,1.237-1.424,1.237H23.423c-0.786,0-1.423-0.554-1.423-1.237l0,0
			c0-0.683,0.637-1.237,1.423-1.237h66.254C90.465,145.889,91.101,146.443,91.101,147.126L91.101,147.126z"/>
	</g>
	<g id="image_thumb_3_">
		<rect y="37.927" fill="#D3D3D3" width="141.904" height="73.907"/>
		<g opacity="0.1">
			<path fill="#010101" d="M81.721,68.802H61.437c-0.199,0-0.362,0.162-0.362,0.362v15.938c0,0.2,0.163,0.362,0.362,0.362h20.284
				c0.201,0,0.363-0.162,0.363-0.362V69.164C82.084,68.964,81.922,68.802,81.721,68.802z M81.359,84.74h-19.56V69.526h19.56V84.74z"
				/>
			<path fill="#010101" d="M66.871,76.821c1.113,0,2.018-0.905,2.018-2.018s-0.905-2.018-2.018-2.018
				c-1.112,0-2.017,0.905-2.017,2.018S65.758,76.821,66.871,76.821z M66.871,73.511c0.713,0,1.293,0.58,1.293,1.292
				s-0.58,1.292-1.293,1.292s-1.292-0.58-1.292-1.292S66.158,73.511,66.871,73.511z"/>
			<path fill="#010101" d="M63.611,83.291c0.084,0,0.17-0.029,0.239-0.091l5.909-5.201l3.731,3.73c0.142,0.142,0.37,0.142,0.513,0
				c0.142-0.142,0.142-0.37,0-0.512l-1.741-1.741l3.325-3.642l4.079,3.74c0.146,0.135,0.376,0.125,0.512-0.023
				c0.135-0.146,0.124-0.377-0.022-0.512l-4.348-3.984c-0.07-0.065-0.165-0.098-0.261-0.095c-0.096,0.004-0.187,0.046-0.251,0.118
				l-3.547,3.885l-1.717-1.718c-0.136-0.135-0.353-0.142-0.496-0.016l-6.164,5.427c-0.151,0.133-0.165,0.361-0.033,0.512
				C63.411,83.25,63.51,83.291,63.611,83.291z"/>
		</g>
	</g>
</g>
<g id="template_1_7_" display="none">
	<g id="template_1_2_" display="inline" opacity="0.2">
		<path fill="#9F9E9E" enable-background="new    " d="M47.913,169.751c0,3.176-2.574,5.75-5.75,5.75H20.996
			c-3.176,0-5.75-2.574-5.75-5.75l0,0c0-3.176,2.574-5.75,5.75-5.75h21.167C45.339,164.001,47.913,166.575,47.913,169.751
			L47.913,169.751z"/>
		<path fill="#9F9E9E" d="M48.437,105.314c0,0.781-0.634,1.414-1.414,1.414H16.604c-0.781,0-1.415-0.633-1.415-1.414l0,0
			c0-0.781,0.634-1.415,1.415-1.415h30.419C47.803,103.899,48.437,104.533,48.437,105.314L48.437,105.314z"/>
		<path fill="#9F9E9E" d="M72.135,95.453c0,0.977-0.793,1.77-1.77,1.77H16.957c-0.977,0-1.769-0.793-1.769-1.77v-3.006
			c0-0.977,0.792-1.769,1.769-1.769h53.408c0.977,0,1.77,0.792,1.77,1.769V95.453z"/>
		<path fill="#9F9E9E" d="M100.818,121.037c0,0.733-0.683,1.327-1.524,1.327h-81.77c-0.841,0-1.524-0.594-1.524-1.327l0,0
			c0-0.732,0.683-1.326,1.524-1.326h81.77C100.136,119.711,100.818,120.305,100.818,121.037L100.818,121.037z"/>
		<path fill="#9F9E9E" d="M116.128,130.922c0,0.749-0.696,1.355-1.558,1.355H17.558c-0.86,0-1.558-0.606-1.558-1.355l0,0
			c0-0.749,0.698-1.356,1.558-1.356h97.012C115.432,129.565,116.128,130.173,116.128,130.922L116.128,130.922z"/>
		<path fill="#9F9E9E" d="M85.101,140.126c0,0.684-0.636,1.237-1.424,1.237H17.422c-0.786,0-1.422-0.554-1.422-1.237l0,0
			c0-0.683,0.637-1.237,1.422-1.237h66.254C84.465,138.889,85.101,139.443,85.101,140.126L85.101,140.126z"/>
		<path fill="#9F9E9E" d="M100.954,149.39c0,0.717-0.667,1.298-1.49,1.298H17.49c-0.823,0-1.49-0.581-1.49-1.298l0,0
			c0-0.716,0.667-1.297,1.49-1.297h81.974C100.287,148.093,100.954,148.674,100.954,149.39L100.954,149.39z"/>
	</g>
	<g id="image_thumb_1_" display="inline">
		<rect y="-0.073" fill="#D3D3D3" width="141.904" height="73.907"/>
		<g opacity="0.1">
			<path fill="#010101" d="M81.721,30.802H61.437c-0.199,0-0.362,0.162-0.362,0.362v15.938c0,0.2,0.163,0.362,0.362,0.362h20.284
				c0.201,0,0.363-0.162,0.363-0.362V31.164C82.084,30.964,81.922,30.802,81.721,30.802z M81.359,46.74h-19.56V31.526h19.56V46.74z"
				/>
			<path fill="#010101" d="M66.871,38.821c1.113,0,2.018-0.905,2.018-2.018s-0.905-2.018-2.018-2.018
				c-1.112,0-2.017,0.905-2.017,2.018S65.758,38.821,66.871,38.821z M66.871,35.511c0.713,0,1.293,0.58,1.293,1.292
				s-0.58,1.292-1.293,1.292s-1.292-0.58-1.292-1.292S66.158,35.511,66.871,35.511z"/>
			<path fill="#010101" d="M63.611,45.291c0.084,0,0.17-0.03,0.239-0.091l5.909-5.201l3.731,3.73c0.142,0.142,0.37,0.142,0.513,0
				c0.142-0.142,0.142-0.371,0-0.512l-1.741-1.741l3.325-3.642l4.079,3.739c0.146,0.135,0.376,0.125,0.512-0.022
				c0.135-0.147,0.124-0.377-0.022-0.512l-4.348-3.984c-0.07-0.065-0.165-0.098-0.261-0.095c-0.096,0.004-0.187,0.046-0.251,0.118
				l-3.547,3.885l-1.717-1.718c-0.136-0.135-0.353-0.142-0.496-0.016l-6.164,5.427c-0.151,0.132-0.165,0.36-0.033,0.511
				C63.411,45.25,63.51,45.291,63.611,45.291z"/>
		</g>
	</g>
	<g id="social_1_">
		<circle display="inline" fill="#9F9E9E" cx="54.915" cy="170.297" r="3.37"/>
		<circle display="inline" fill="#9F9E9E" cx="64.915" cy="170.297" r="3.37"/>
		<circle display="inline" fill="#9F9E9E" cx="75.916" cy="170.297" r="3.371"/>
		<circle display="inline" fill="#9F9E9E" cx="86.916" cy="170.297" r="3.371"/>
	</g>
</g>
</svg>
